<svg width="1051" height="1001" viewBox="0 0 1051 1001" fill="none" xmlns="http://www.w3.org/2000/svg">
<path d="M264.467 840.555C264.467 704.857 374.472 594.852 510.17 594.852C645.868 594.852 755.873 704.857 755.873 840.555C755.873 901.521 733.669 957.301 696.904 1000.25C817.299 931.048 1056.49 792.643 1050.1 792.643C1043.71 792.643 882.82 841.783 803.171 866.354C821.78 741.692 858.458 496.26 859.658 489.293C857.526 494.649 728.839 574.016 664.349 613.279L510.17 0.25L385.476 594.852L148.372 517.455L242.968 866.354L0.335938 825.198L323.436 1000.25C286.671 957.301 264.467 901.521 264.467 840.555Z" fill="black" fill-opacity="0.99"/>
<path d="M600.466 138.458V192.513C789.657 264.381 975.778 349.149 941.993 759.473C1023.69 517.455 941.993 236.739 600.466 138.458Z" fill="black" fill-opacity="0.99"/>
<path d="M434.616 138.458C40.877 231.825 -20.5488 613.279 91.8604 803.699C23.6777 499.027 164.343 233.054 434.616 192.513V138.458Z" fill="black" fill-opacity="0.99"/>
<path d="M486.828 670.405C486.828 658.532 496.454 648.906 508.327 648.906C520.201 648.906 529.826 658.532 529.826 670.405V825.813H682.777C694.65 825.813 704.276 835.438 704.276 847.312C704.276 859.185 694.65 868.811 682.777 868.811H508.327C496.454 868.811 486.828 859.185 486.828 847.312V670.405Z" fill="black" fill-opacity="0.99"/>
</svg>
