<svg width="931" height="1000" viewBox="0 0 931 1000" fill="none" xmlns="http://www.w3.org/2000/svg">
<path d="M32.0699 238.995C6.60891 527.978 128.914 824.027 447.244 968.51C514.975 935.937 573.55 899.456 623.631 858.942L641.173 881.532C587.781 924.657 525.409 963.14 453.547 997.19L447.618 1000L441.62 997.334C101.217 846.029 -26.3175 528.837 4.73785 224.358L6.04853 211.511H18.9619C36.9972 211.511 60.0326 200.726 89.6085 180.886C108.091 168.487 127.589 153.679 148.701 137.647L149.228 137.246C153.161 134.258 157.152 131.229 161.202 128.164L167.102 123.709C173.725 118.72 180.509 113.649 187.469 108.532C259.451 55.6019 347.116 -0.00234461 447.427 7.41528e-08C548.074 0.00234476 626.717 55.9818 694.214 108.794C700.71 113.876 707.088 118.917 713.367 123.882L713.676 124.128C740.441 145.291 765.438 165.055 790.273 180.651C820.888 199.879 849.403 211.511 877.984 211.511H891.456L892.256 224.96C899.246 342.403 890.677 448.729 864.087 544.256C857.552 539.813 849.661 537.215 841.163 537.215H836.362C861.106 448.649 869.923 349.646 864.412 239.429C833.089 236.309 803.523 222.742 775.066 204.872C748.786 188.368 722.242 167.371 695.388 146.129L695.026 145.841C688.897 140.995 682.755 136.137 676.595 131.318C608.93 78.3747 537.277 28.6005 447.427 28.5982C357.241 28.597 276.246 78.7487 204.407 131.573C191.742 140.886 179.244 150.373 167.043 159.635C145.369 176.086 124.628 191.828 105.537 204.636C80.6342 221.342 55.7629 235.09 32.0699 238.995Z" fill="black"/>
<path d="M781.778 537.215C804.861 462.646 815.414 378.24 815.414 280.027V267.079L802.53 265.799C783.81 263.938 762.345 253.298 737.026 236.123C719.94 224.532 702.305 210.852 683.45 196.226C679.438 193.114 675.371 189.96 671.243 186.773L669.189 185.188L666.392 183.035L663.009 180.441C660.524 178.54 658.015 176.629 655.481 174.712C597.209 130.606 527.994 84.6045 448.089 84.6045C368.273 84.6045 311.118 123.746 258.537 164.787C252.192 169.739 245.921 174.707 239.692 179.643L239.47 179.822C193.33 216.394 149.308 251.286 92.1806 266.191L82.2227 268.789L81.5252 279.059C63.2413 548.383 195.214 776.252 441.173 912.179L448.432 916.19L455.518 911.881C506.325 880.974 551.259 849.506 590.626 816.437L573.074 793.833C536.688 824.484 495.064 853.949 447.761 883.099C218.474 753.42 96.0048 541.392 109.445 291.023C168.011 273.169 214.238 236.431 257.48 202.066C263.75 197.084 269.957 192.151 276.13 187.332C328.123 146.749 378.612 113.203 448.089 113.203C517.475 113.203 579.798 153.293 638.227 197.517C641.185 199.755 644.139 202.009 647.086 204.27C650.226 206.68 653.359 209.097 656.484 211.514L664.996 218.11C684.276 233.063 703.129 247.685 720.975 259.79C742.693 274.523 764.768 286.887 786.764 292.071C785.896 386.786 774.69 467.011 751.773 537.215H781.778Z" fill="black"/>
<path fill-rule="evenodd" clip-rule="evenodd" d="M734.997 326.5C734.997 404.658 724.607 474.307 702.034 537.215H683.3C660.758 537.215 642.483 555.489 642.483 578.031V651.259C596.906 715.323 533.179 771.77 448.455 823.403C251.867 718.539 162.51 502.858 162.51 326.5C204.615 326.5 241.45 294.245 281.308 259.344C328.294 218.2 379.481 173.378 448.455 173.379C518.271 173.38 571.472 219.305 619.602 260.851C659.357 295.169 695.653 326.5 734.997 326.5ZM294.186 404.978C294.186 329.751 332.553 314.999 332.553 314.999C332.553 314.999 370.922 329.751 370.922 404.978V565.759H294.186V404.978ZM294.186 610V580.499H370.922V610H294.186ZM447.628 314.999C447.628 314.999 409.26 329.751 409.26 404.978V565.759H485.997V404.978C485.997 329.751 447.628 314.999 447.628 314.999ZM485.997 580.499V610H409.26V580.499H485.997ZM562.775 314.999C562.775 314.999 524.407 329.751 524.407 404.978V565.759H601.143V404.978C601.143 329.751 562.775 314.999 562.775 314.999ZM524.407 610V580.499H601.143V610H524.407Z" fill="black"/>
<path d="M682.7 578.031V764.106H601.067L763.732 973.589L930.599 764.106H840.563V578.031H682.7Z" fill="black"/>
</svg>
