<svg width="1013" height="1000" viewBox="0 0 1013 1000" fill="none" xmlns="http://www.w3.org/2000/svg">
<path fill-rule="evenodd" clip-rule="evenodd" d="M821.099 320.2L512.108 141.804L203.117 320.2V676.992L512.108 855.388L821.099 676.992V320.2ZM335.923 425.22C335.923 335.04 380.127 317.358 380.127 317.358C380.127 317.358 424.331 335.04 424.331 425.22V617.957H335.923V425.22ZM335.923 670.993V635.628H424.331V670.993H335.923ZM511.477 317.358C511.477 317.358 467.273 335.04 467.273 425.22V617.957H555.681V425.22C555.681 335.04 511.477 317.358 511.477 317.358ZM467.273 635.628V670.993H555.681V635.628H467.273ZM598.622 425.22C598.622 335.04 642.827 317.358 642.827 317.358C642.827 317.358 687.031 335.04 687.031 425.22V617.957H598.622V425.22ZM598.622 670.993V635.628H687.031V670.993H598.622Z" fill="black"/>
<path d="M497.434 66.9009C263.913 74.6638 67.5395 266.574 67.5395 499.86C67.5395 567.336 90.595 641.469 127.001 706.722C161.326 768.248 205.712 818.675 249.243 847.246L279.94 776.363L421.258 966.754L185.716 993.943L222.337 909.377C163.485 874.093 108.629 811.187 68.5435 739.335C28.064 666.777 0.601562 581.458 0.601562 499.86C0.601562 228.242 227.876 8.88649 495.209 0L497.434 66.9009Z" fill="black"/>
<path d="M945.31 499.86C945.31 353.828 877.935 223.077 774.993 151.479L740.08 228.224L602.263 35.2845L838.262 12.4016L802.745 90.4733L803.199 89.7776C931.733 173.634 1012.25 329.722 1012.25 499.86C1012.25 776.079 788.328 1000 512.108 1000V933.062C751.359 933.062 945.31 739.111 945.31 499.86Z" fill="black"/>
</svg>
