<svg width="1305" height="1000" viewBox="0 0 1305 1000" fill="none" xmlns="http://www.w3.org/2000/svg">
<path fill-rule="evenodd" clip-rule="evenodd" d="M0.250001 922.901C0.252982 945.039 14.7598 954.962 14.7598 954.962C14.7598 954.962 233.074 958.779 244.525 954.962C250.614 952.933 256.488 917.886 262.028 884.817C266.91 855.691 271.534 828.1 275.822 825.955C284.977 821.375 372.775 821.375 372.775 821.375C444.444 821.375 502.546 763.274 502.546 691.604C502.546 676.146 502.161 665.659 497.202 651.909C497.202 651.909 509.41 635.367 522.387 626.715C535.364 618.063 558.265 603.815 558.265 603.815H722.39V534.352H754.451V467.937H722.39V434.12L684.219 434.115V416.79L593.379 416.677V434.115H197.96V416.794L149.868 417.557V434.115H117.807C94.48 434.151 71.3199 447.256 55.2178 463.36C33.8437 484.734 9.4103 558.787 17.8072 567.175C21.1559 570.519 28.5388 567.368 31.5477 565.649C36.8912 562.595 41.537 562.66 48.3416 569.466C53.8759 575.002 48.4012 612.733 41.537 660.02C40.2697 668.743 38.9547 677.792 37.6546 687.024C34.628 708.512 28.1215 746.563 21.3706 786.043C11.0921 846.136 0.247019 909.541 0.250001 922.901ZM368.189 777.097C413.722 777.097 450.631 740.186 450.631 694.654C450.631 649.123 413.722 612.212 368.189 612.212C322.656 612.212 285.746 649.123 285.746 694.654C285.746 740.186 322.656 777.097 368.189 777.097Z" fill="black"/>
<path d="M523.479 820.77C506.193 839.186 485.293 854.171 461.913 864.591C467.199 869.553 472.606 874.409 478.125 879.155C576.16 963.434 703.032 1006.46 832.114 999.212C961.194 991.962 1082.45 934.995 1170.43 840.265C1258.41 745.537 1306.28 620.41 1303.99 491.148C1301.7 361.884 1249.43 238.532 1158.15 146.978C1066.87 55.4224 943.678 2.78349 814.423 0.107259C685.165 -2.56897 559.897 44.9247 464.906 132.621C396.014 196.223 346.93 277.384 322.244 366.412H399.373C421.864 298.283 461.391 236.34 514.984 186.865C595.951 112.115 702.722 71.6348 812.893 73.916C923.064 76.1971 1028.07 121.064 1105.87 199.101C1183.68 277.138 1228.23 382.277 1230.18 492.454C1232.13 602.633 1191.33 709.284 1116.34 790.025C1041.35 870.767 937.995 919.323 827.973 925.503C717.951 931.685 609.813 895.009 526.249 823.173C525.322 822.375 524.398 821.575 523.479 820.77Z" fill="black"/>
<path d="M568.084 366.412H476.725C493.254 327.427 516.904 291.435 546.857 260.43C608.835 196.278 693.076 158.367 782.195 154.522C871.311 150.677 958.504 181.19 1025.78 239.765C1093.05 298.34 1135.27 380.506 1143.73 469.306C1152.18 558.104 1126.22 646.761 1071.2 716.975C1016.19 787.191 936.316 833.607 848.073 846.643C759.831 859.68 669.952 838.343 596.982 787.036C584.774 778.452 573.199 769.139 562.297 759.172C570.593 737.778 575.143 714.518 575.143 690.194C575.143 690.194 574.66 677.747 574.421 675.046C578.53 671.842 582.75 668.605 586.745 665.586C602.862 686.359 622.101 704.806 643.982 720.191C699.824 759.454 768.604 775.782 836.131 765.805C903.658 755.829 964.781 720.309 1006.88 666.577C1048.98 612.845 1068.85 545.002 1062.38 477.048C1055.91 409.094 1023.6 346.217 972.119 301.394C920.637 256.569 853.915 233.219 785.717 236.161C717.518 239.104 653.053 268.116 605.627 317.208C591.13 332.212 578.563 348.742 568.084 366.412Z" fill="black"/>
<path d="M803.307 416.03C825.104 417.596 851.699 425.73 866.606 441.71C881.515 457.688 889.826 478.715 889.876 500.568C889.924 522.422 881.706 543.484 866.871 559.531C852.036 575.577 831.682 585.418 809.891 587.081C804.896 587.462 799.91 587.407 794.987 586.932V602.404C794.987 636.132 757.645 675.046 723.917 675.046C747.769 684.96 781.933 687.664 817.36 684.96C863.856 681.414 907.293 660.411 938.952 626.17C970.607 591.928 988.144 546.98 988.039 500.347C987.935 453.714 970.196 408.845 938.385 374.746C906.575 340.649 863.042 319.843 816.528 316.504C771.332 313.26 736.865 322.82 701.017 350.381C722.981 350.408 737.604 361.569 748.345 378.988C763.385 382.475 777.215 393.786 785.717 406.107C789.525 407.297 798.808 413.173 803.307 416.03Z" fill="black"/>
</svg>
