<svg width="1063" height="1001" viewBox="0 0 1063 1001" fill="none" xmlns="http://www.w3.org/2000/svg">
<path d="M1062.33 666.696C1062.33 666.696 1046.48 607.912 965.632 607.912C868.934 607.912 792.845 607.912 792.845 607.912V725.481C792.845 725.481 868.934 725.481 965.632 725.481C1046.48 725.481 1062.33 666.696 1062.33 666.696Z" fill="black"/>
<path d="M961.933 446.089C961.933 446.089 946.081 387.304 865.236 387.304C768.538 387.304 692.448 387.304 692.448 387.304V504.873C692.448 504.873 768.538 504.873 865.236 504.873C946.081 504.873 961.933 446.089 961.933 446.089Z" fill="black"/>
<path d="M961.933 882.02C961.933 882.02 946.081 823.235 865.236 823.235C768.538 823.235 692.448 823.235 692.448 823.235V940.805C692.448 940.805 768.538 940.805 865.236 940.805C946.081 940.805 961.933 882.02 961.933 882.02Z" fill="black"/>
<path d="M187.825 0.25C182.717 0.25 178.578 4.38975 178.578 9.49703V46.4851C178.578 51.5924 182.717 55.7322 187.825 55.7322H197.072V90.0783C197.072 95.1855 201.212 99.3253 206.319 99.3253H363.518C368.626 99.3253 372.765 95.1855 372.765 90.0783V55.7322H382.012C387.12 55.7322 391.259 51.5924 391.259 46.4851V9.49703C391.259 4.38975 387.12 0.25 382.012 0.25H187.825Z" fill="black"/>
<path d="M157.435 542.805C152.792 547.447 152.792 554.975 157.435 559.618L238.255 640.439L161.883 716.811C157.24 721.454 157.24 728.981 161.883 733.624L194.124 765.865C198.767 770.508 206.294 770.508 210.937 765.865L287.31 689.492L357.965 760.147C362.607 764.79 370.135 764.79 374.778 760.147L407.019 727.906C411.661 723.264 411.661 715.736 407.019 711.093L336.363 640.439L411.467 565.335C416.109 560.692 416.109 553.165 411.467 548.522L379.226 516.281C374.583 511.638 367.056 511.638 362.413 516.281L287.31 591.384L206.489 510.564C201.846 505.921 194.319 505.921 189.676 510.564L157.435 542.805Z" fill="black"/>
<path d="M385.315 144.239H196.411C168.323 144.239 145.553 167.01 145.553 195.098C145.553 213.234 155.045 229.151 169.331 238.156C173.921 241.1 188.485 251.634 188.485 265.772C188.485 282.945 160.48 288.229 159.423 288.229H94.0335C42.2337 288.229 0.242188 330.221 0.242188 382.02V906.459C0.242188 958.258 42.2337 1000.25 94.0335 1000.25H487.693C539.492 1000.25 581.484 958.258 581.484 906.459V899.854H652.818V869.471H421.642V840.408H581.484V681.888H754.535V651.505H433.531V681.888H508.844C489.052 786.44 397.209 865.508 286.9 865.508C162.144 865.508 61.0084 764.372 61.0084 639.616C61.0084 514.86 162.144 413.724 286.9 413.724C405.878 413.724 503.374 505.709 512.149 622.443H581.484V463.922H652.818V433.539H421.642V404.477H581.484V382.02C581.484 330.221 539.492 288.229 487.693 288.229H405.79C405.79 288.229 391.259 278.982 391.259 265.772C391.259 252.562 412.395 238.156 412.395 238.156C426.681 229.151 436.173 213.234 436.173 195.098C436.173 167.01 413.403 144.239 385.315 144.239Z" fill="black"/>
</svg>
