<svg width="1321" height="1000" viewBox="0 0 1321 1000" fill="none" xmlns="http://www.w3.org/2000/svg">
<path d="M1238.02 166.667C1238.02 166.667 1155.49 195.921 1155.49 344.676C1155.49 522.599 1155.49 666.753 1155.49 666.753H1320.56C1320.56 666.753 1320.56 522.599 1320.56 344.676C1320.56 195.921 1238.02 166.667 1238.02 166.667Z" fill="black"/>
<path d="M1320.56 708.42H1155.49V833.42H1320.56V708.42Z" fill="black"/>
<path fill-rule="evenodd" clip-rule="evenodd" d="M0 83.3333C0 37.3128 36.9553 0 82.5348 0H990.418C1036 0 1072.95 37.3128 1072.95 83.3333V125H990.418V875H1072.95V916.667C1072.95 962.687 1036 1000 990.418 1000H82.5348C36.9553 1000 0 962.687 0 916.667V83.3333ZM226.971 166.667C226.971 166.667 165.07 195.923 165.07 344.645V666.707H288.872V344.645C288.872 195.923 226.971 166.667 226.971 166.667ZM165.07 708.333V833.333H288.872V708.333H165.07ZM412.674 344.645C412.674 195.923 495.209 166.667 495.209 166.667C495.209 166.667 577.744 195.923 577.744 344.645V666.707H412.674V344.645ZM412.674 833.333V708.333H577.744V833.333H412.674ZM701.546 344.645C701.546 195.923 763.447 166.667 763.447 166.667C763.447 166.667 825.348 195.923 825.348 344.645V666.707H701.546V344.645ZM701.546 833.333V708.333H825.348V833.333H701.546Z" fill="black"/>
</svg>
