<svg width="996" height="1000" viewBox="0 0 996 1000" fill="none" xmlns="http://www.w3.org/2000/svg">
<path d="M440.718 104.971V0H480.082V104.971H440.718Z" fill="black"/>
<path d="M505.132 461.038C505.132 484.425 486.173 503.384 462.785 503.384C439.398 503.384 420.439 484.425 420.439 461.038C420.439 437.651 439.398 418.692 462.785 418.692C486.173 418.692 505.132 437.651 505.132 461.038Z" fill="black"/>
<path fill-rule="evenodd" clip-rule="evenodd" d="M606.524 461.038C606.524 540.423 542.171 604.777 462.785 604.777C383.4 604.777 319.047 540.423 319.047 461.038C319.047 381.653 383.4 317.299 462.785 317.299C542.171 317.299 606.524 381.653 606.524 461.038ZM361.07 461.038C361.07 517.214 406.609 562.753 462.785 562.753C518.961 562.753 564.501 517.214 564.501 461.038C564.501 404.862 518.961 359.323 462.785 359.323C406.609 359.323 361.07 404.862 361.07 461.038Z" fill="black"/>
<path fill-rule="evenodd" clip-rule="evenodd" d="M714.034 650.727C753.633 598.07 777.102 532.593 777.102 461.634C777.102 287.712 636.11 146.721 462.189 146.721C288.268 146.721 147.276 287.712 147.276 461.634C147.276 635.556 288.268 776.548 462.189 776.548C530.921 776.548 594.512 754.528 646.289 717.158C648.303 728.209 653.583 738.782 662.127 747.327L898.029 983.23C920.389 1005.59 956.643 1005.59 979.003 983.23C1001.36 960.87 1001.36 924.616 979.003 902.256L743.1 666.354C734.84 658.093 724.684 652.885 714.034 650.727ZM462.189 689.203C336.506 689.203 234.62 587.317 234.62 461.634C234.62 335.951 336.506 234.065 462.189 234.065C587.872 234.065 689.758 335.951 689.758 461.634C689.758 587.317 587.872 689.203 462.189 689.203Z" fill="black"/>
<path d="M814.081 441.356H919.052V480.72H814.081V441.356Z" fill="black"/>
<path d="M0.554688 441.356V480.72H110.297V441.356H0.554688Z" fill="black"/>
<path d="M441.91 818.297V923.269H481.275V818.297H441.91Z" fill="black"/>
</svg>
