<svg width="917" height="1000" viewBox="0 0 917 1000" fill="none" xmlns="http://www.w3.org/2000/svg">
<path d="M631.456 565.529C669.764 495.291 714.314 402.566 714.314 351.21C714.314 261.123 645.116 200.412 561.557 200.412C512.118 200.412 415.148 247.487 344.198 285.932C325.352 296.144 303.488 272.135 315.742 254.547C356.053 196.689 402.925 126.612 402.925 113.588C402.925 103.597 398.805 97.7254 394.933 92.2062C389.952 85.1043 385.379 78.5868 390.522 64.6279C399.661 39.8212 493.012 0 623.574 0C754.135 0 815.499 24.1539 863.807 80.9481C912.115 137.742 916.031 246.108 916.031 292.458C916.031 338.807 893.183 464.799 882.738 486.994C872.293 509.19 855.32 520.94 835.736 520.94C825.398 520.94 818.335 519.121 811.665 517.404C805.699 515.867 800.048 514.412 792.651 514.412C784.112 514.412 720.897 557.262 665.137 596.257C646.308 609.424 620.455 585.699 631.456 565.529Z" fill="black"/>
<path d="M601.591 320.133C601.591 320.133 516.618 284.562 394.282 408.98L317.035 487.4C313.996 490.484 314.036 495.446 317.122 498.482L433.013 612.511C436.094 615.544 441.052 615.505 444.087 612.425L521.341 533.998C643.677 409.58 601.591 320.133 601.591 320.133Z" fill="black"/>
<path d="M401.116 664.228C406.17 659.087 406.101 650.82 400.959 645.765L286.336 533.065C281.195 528.009 272.928 528.08 267.873 533.221L227.016 574.776C221.961 579.918 222.031 588.184 227.172 593.24L341.794 705.94C346.935 710.995 355.202 710.925 360.258 705.783L401.116 664.228Z" fill="black"/>
<path d="M311.347 734.97C320.805 744.095 320.994 759.141 311.664 768.397C272.252 807.5 176.753 901.477 165.958 904.792C152.314 908.982 133.961 899.455 133.79 879.219C133.706 869.259 148.579 851.423 163.685 833.309C179.271 814.62 195.104 795.634 195.011 784.694C194.83 763.152 180.988 747.601 163.364 747.75C155.122 747.819 148.37 755.299 141.181 763.264C132.995 772.331 124.244 782.027 112.08 782.129C89.2319 782.323 79.3135 767.391 79.1541 748.46C79.033 734.116 141.797 665.645 172.219 633.307C181.108 623.858 195.933 623.619 205.27 632.626L311.347 734.97Z" fill="black"/>
<path d="M216.963 187.78C204.665 175.481 204.665 155.542 216.963 143.244L259.667 100.54C271.964 88.2418 291.904 88.2418 304.203 100.54C316.501 112.839 316.501 132.778 304.203 145.077L261.499 187.78C249.202 200.078 229.262 200.078 216.963 187.78Z" fill="black"/>
<path d="M86.803 456.693C75.4145 443.547 76.84 423.659 89.9867 412.271L183.082 331.629C196.228 320.242 216.117 321.668 227.505 334.814C238.892 347.96 237.466 367.848 224.32 379.236L131.224 459.878C118.079 471.265 98.1901 469.84 86.803 456.693Z" fill="black"/>
<path d="M770.209 697.686C757.91 709.985 737.972 709.985 725.673 697.686C713.374 685.388 713.374 665.448 725.673 653.15L768.377 610.446C780.675 598.148 800.615 598.148 812.913 610.446C825.211 622.745 825.211 642.684 812.913 654.983L770.209 697.686Z" fill="black"/>
<path d="M501.185 824.662C489.797 837.809 469.909 839.234 456.762 827.846C443.616 816.459 442.19 796.57 453.579 783.424L534.219 690.329C545.608 677.182 565.496 675.757 578.642 687.145C591.788 698.532 593.214 718.421 581.826 731.567L501.185 824.662Z" fill="black"/>
<path d="M0.796875 828.412C0.796875 810.386 15.4111 795.772 33.4372 795.772C51.4634 795.772 66.0776 810.386 66.0776 828.412C66.0776 846.439 51.4634 861.053 33.4372 861.053C15.4111 861.053 0.796875 846.439 0.796875 828.412Z" fill="black"/>
<path d="M41.9951 952.202C31.0606 963.137 31.0606 980.865 41.9951 991.799C52.9297 1002.73 70.6574 1002.73 81.592 991.799L108.736 964.655C119.67 953.721 119.67 935.993 108.736 925.058C97.8012 914.124 80.0734 914.124 69.1389 925.058L41.9951 952.202Z" fill="black"/>
</svg>
