<svg width="993" height="1000" viewBox="0 0 993 1000" fill="none" xmlns="http://www.w3.org/2000/svg">
<path d="M314.837 348.196C313.755 348.678 312.676 347.518 313.233 346.473L369.59 240.878C370.051 240.014 369.382 238.982 368.406 239.05L1.36515 264.615C0.0180763 264.709 -0.493343 262.891 0.705005 262.269L505.396 0.146937C506.52 -0.436601 507.696 0.834773 507.026 1.90946L446.051 99.8212C445.504 100.7 446.207 101.825 447.237 101.717L990.767 44.9213C992.176 44.774 992.697 46.7205 991.402 47.2965L314.837 348.196Z" fill="black"/>
<path d="M864.775 401.943H126.694C106.508 460.575 91.6762 493.095 58.2383 550.057H864.775V401.943Z" fill="black"/>
<path fill-rule="evenodd" clip-rule="evenodd" d="M866.019 578.684H73.1742C73.1742 578.684 121.716 621.003 121.716 647.14C121.716 673.278 6.58514 1000 6.58514 1000H226.267C226.267 1000 230.001 917.853 236.224 901.672C239.572 892.967 245.622 884.983 251.273 877.525C256.125 871.121 260.684 865.104 262.984 859.354C267.963 846.907 267.34 810.19 267.34 810.19L490.134 808.323C493.035 792.751 495.984 778.909 498.751 765.92C507.125 726.615 513.834 695.12 512.537 647.14H866.019V578.684ZM457.773 775.34H278.542L292.856 662.699C292.856 662.699 317.127 658.965 326.461 667.677C332.432 673.25 329.747 683.151 327.035 693.146C325.508 698.777 323.972 704.439 323.972 709.373C323.972 723.064 345.131 743.601 345.131 743.601C345.131 743.601 341.191 725.558 341.397 709.373C341.533 698.76 346.376 685.102 351.977 678.879C357.578 672.656 372.514 660.209 469.597 660.209C469.597 660.209 478.309 700.66 457.773 775.34Z" fill="black"/>
</svg>
