<svg width="1105" height="1000" viewBox="0 0 1105 1000" fill="none" xmlns="http://www.w3.org/2000/svg">
<path d="M929.667 0.586336C917.014 -10.1546 664.31 130.106 664.31 140.215C664.31 144.526 672.719 147.573 684.804 151.951C701.061 157.841 723.974 166.142 742.022 183.176C759.424 199.599 770.261 222.232 778.472 239.378C785.281 253.6 790.283 264.049 795.725 264.049C807.729 264.049 942.318 11.327 929.667 0.586336Z" fill="black"/>
<path d="M438.276 590.83L438.254 590.856L438.231 590.876C397.845 632.113 359.451 671.318 364.819 677.878C372.689 687.497 652.94 431.476 652.94 408.731C652.94 385.986 514.578 335.442 468.457 335.442C422.338 335.442 232.785 557.835 244.789 573.63C251.467 582.417 274.373 568.718 297.406 554.94C315.775 543.952 334.228 532.914 344.601 533.195C357.104 533.533 368.343 542.185 378.704 550.161C387.712 557.097 396.056 563.521 403.991 563.521C411.01 563.521 429.69 548.007 450.352 530.847L450.366 530.834L450.389 530.817C479.92 506.287 513.478 478.414 522.769 487.705C531.106 496.043 483.457 544.701 438.276 590.83Z" fill="black"/>
<path d="M148.763 895.219C143.076 888.901 229.001 778.967 242.901 778.967C256.801 778.967 256.801 784.022 256.801 794.762C256.801 805.503 154.449 901.537 148.763 895.219Z" fill="black"/>
<path fill-rule="evenodd" clip-rule="evenodd" d="M623.226 183.176C696.5 183.176 760.327 264.679 748.955 305.114C747.642 309.782 744.729 313.138 742.012 316.27C738.476 320.344 735.267 324.04 736.338 329.756C738.234 339.865 805.836 355.66 864.594 355.66C923.352 355.66 984.005 346.181 1013.07 305.114C1037.15 271.088 1004.41 172.87 992.475 140.192C991.544 137.646 994.758 135.619 996.663 137.548C1066.56 208.301 1104.05 304.847 1104.05 412.522C1104.05 524.351 1067.4 593.849 981.477 593.849C900.103 593.849 798.897 530.952 772.304 491.017C770.962 489 773.106 486.846 775.273 487.93C805.459 503.027 928.791 563.521 966.946 563.521C999.081 563.521 1031.22 543.954 1045.89 533.666C1048.06 532.149 1046.6 528.954 1044 529.399C1029.8 531.824 1002.43 535.723 973.264 535.723C935.617 535.723 865.986 495.245 836.817 478.288L832.429 475.74C830.709 474.745 829.208 473.883 827.95 473.175C822.518 470.119 810.469 462.091 793.793 450.977L793.763 450.956L793.697 450.911L793.674 450.895L793.615 450.853C748.185 420.588 668.639 367.591 594.815 329.756C490.419 276.253 378.304 259.626 354.098 259.626C304.818 259.626 244.796 269.103 249.851 284.266C253.669 295.719 292.075 293.115 320.988 291.155L321.01 291.153L321.084 291.149C330.415 290.516 338.747 289.953 344.601 289.953C361.801 289.953 384.198 304.868 395.518 313.328C397.576 314.866 396.219 317.959 393.68 317.573C372.647 314.372 319.796 307.188 286.495 310.17C244.165 313.961 134.189 349.974 128.545 446.639C125.048 506.515 200.543 586.753 272.028 662.729C315.953 709.411 358.36 754.484 380.002 792.235C436.864 891.428 476.036 998.834 476.036 998.834H348.412C348.412 998.834 383.161 970.403 383.161 904.696C383.161 838.988 251.746 684.197 251.746 684.197C251.746 684.197 326.931 830.143 326.931 884.478C326.931 935.966 308.209 981.781 250.335 999.881C247.812 1000.67 245.927 997.356 247.765 995.456C263.551 979.143 299.131 936.592 299.131 884.478C299.131 817.507 213.838 643.13 198.043 643.13C191.244 643.13 167.83 665.831 139.135 693.657L139.12 693.67C101.136 730.501 53.8935 776.305 23.6657 790.34C37.7135 762.245 77.9637 721.757 112.74 686.777C143.656 655.678 170.244 628.933 170.244 619.121C170.244 602.431 121.254 548.088 92.9566 516.699C85.9056 508.877 80.1404 502.48 76.7371 498.447C59.6784 478.23 0.289062 395.463 0.289062 312.697C0.289062 229.931 96.323 183.176 210.047 183.176C301.375 183.176 427.335 219.848 482.569 235.928C496.113 239.872 505.405 242.577 508.89 243.199C526.58 246.358 536.689 243.199 549.325 234.986C553.007 232.592 559.226 227.193 566.655 220.743C584.718 205.064 609.931 183.176 623.226 183.176ZM1031.39 382.196C1071.19 342.392 1050.34 261.521 1045.29 261.521C1044.8 261.521 1044.39 263.945 1043.72 268.013C1041.22 283.022 1035.01 320.424 1006.75 341.128C974.466 364.781 921.076 373.366 897.393 377.175C889.953 378.371 885.444 379.096 885.444 379.668C885.444 384.091 991.586 421.999 1031.39 382.196Z" fill="black"/>
<path d="M110.042 936.463C102.473 944.033 94.351 948.185 91.9003 945.736C89.4521 943.287 93.6032 935.165 101.175 927.594C108.744 920.024 116.866 915.872 119.317 918.321C121.765 920.77 117.614 928.892 110.042 936.463Z" fill="black"/>
<path d="M725.637 456.587C723.873 458.592 728.132 465.225 735.149 471.402C742.168 477.579 749.285 480.962 751.05 478.957C752.814 476.952 748.557 470.32 741.538 464.142C734.522 457.965 727.402 454.583 725.637 456.587Z" fill="black"/>
</svg>
