<svg width="1000" height="1001" viewBox="0 0 1000 1001" fill="none" xmlns="http://www.w3.org/2000/svg">
<path fill-rule="evenodd" clip-rule="evenodd" d="M238.526 939.691C238.526 939.691 418.109 661.503 418.761 650.402C419.413 639.302 378.274 604.038 366.519 604.038C354.765 604.038 324.073 634.081 313.625 634.081C303.176 634.081 290.769 617.756 290.769 611.878C290.769 606.001 299.367 594.709 309.053 589.023C324.852 579.748 337.786 573.351 337.786 558.984C337.786 544.616 319.502 513.272 319.502 490.416C319.502 467.561 326.685 421.849 356.071 391.81C385.457 361.771 463.818 327.158 463.818 327.158L472.961 1.30014C416.149 -4.57385 331.256 11.7473 309.053 46.3575C309.053 46.3575 409.618 252.061 393.292 268.386C376.966 284.711 247.016 69.8665 247.016 69.8665C199.999 82.9269 146.451 127.985 122.942 172.391C122.942 172.391 325.378 327.158 325.378 341.524C325.378 355.891 303.175 395.723 292.074 399.642C280.972 403.561 62.2101 268.386 62.2101 268.386C21.071 302.995 4.09241 366.991 8.01054 421.192C8.01054 421.192 209.794 473.434 209.794 510.656C209.794 547.878 9.95906 550.49 9.95906 550.49C-12.3191 623.412 5.52627 656.492 51.7618 711.787C51.7618 711.787 239.832 609.917 256.812 641.914C273.791 673.911 79.1899 779.701 79.1899 779.701C113.19 846.08 157.585 887.284 238.526 939.691ZM237.874 734.646C250.283 724.85 276.4 713.746 285.543 724.847C294.687 735.947 285.543 769.257 273.137 777.093C260.731 784.928 222.856 789.497 215.018 779.701C207.181 769.904 225.465 744.443 237.874 734.646Z" fill="black"/>
<path fill-rule="evenodd" clip-rule="evenodd" d="M538.264 341.524V1.30014C673.417 12.7071 730.807 38.2021 807.962 109.705C807.962 109.705 629.687 329.12 629.687 350.017C629.687 370.914 649.931 380.709 641.441 397.687C632.952 414.666 616.626 402.912 612.708 399.642C608.79 396.373 587.241 347.405 538.264 341.524ZM597.689 189.374C598.995 167.824 612.055 156.07 629.687 156.07C647.318 156.07 653.196 175.66 653.196 189.374C653.196 203.087 642.094 237.044 620.545 237.044C598.995 237.044 596.383 210.923 597.689 189.374Z" fill="black"/>
<path fill-rule="evenodd" clip-rule="evenodd" d="M928.118 245.534C907.991 247.708 634.258 459.071 634.258 459.071C657.767 502.171 641.441 558.331 612.708 583.146C612.708 583.146 757.679 747.707 738.741 766.645C719.804 785.582 583.975 626.898 563.732 626.898C543.488 626.898 536.958 646.489 531.734 653.019C526.51 659.549 455.983 647.142 455.983 664.773C455.983 682.405 519.326 686.976 519.326 686.976L501.042 998.467C583.839 1003.65 613.101 996.633 655.155 978.224C655.155 978.224 561.12 771.869 594.424 754.89C627.728 737.912 718.498 954.062 730.252 954.715C742.007 955.368 820.369 892.678 820.369 880.923C820.369 869.169 751.802 816.274 768.127 794.724C784.453 773.175 836.233 853.422 854.979 856.109C882.698 860.081 1012.86 608.679 991.461 589.023C977.708 576.391 738.741 545.923 738.741 515.231C738.741 484.539 986.954 490.917 996.685 483.886C1012.71 472.305 955.602 242.564 928.118 245.534ZM854.979 660.855C835.389 649.754 815.145 647.142 805.35 656.284C795.554 665.426 807.962 694.809 820.369 703.301C832.777 711.794 862.816 717.015 871.305 708.526C879.794 700.036 874.57 671.956 854.979 660.855Z" fill="black"/>
</svg>
