<svg width="894" height="1001" viewBox="0 0 894 1001" fill="none" xmlns="http://www.w3.org/2000/svg">
<path d="M293.238 46.4117L276.11 0.125L258.982 46.4117L212.695 63.5396L258.982 80.6676L276.11 126.954L293.238 80.6676L339.524 63.5396L293.238 46.4117Z" fill="black"/>
<path d="M551.72 33.0518L583.341 118.505L668.793 150.125L583.341 181.745L551.72 267.198L520.098 181.745L434.646 150.125L520.098 118.505L551.72 33.0518Z" fill="black"/>
<path d="M771.484 614.209C728.825 753.567 451.534 1000.13 451.534 1000.13C451.534 1000.13 166.077 753.567 123.418 614.209C80.7568 474.85 144.748 335.491 272.728 335.491C400.707 335.491 451.536 442.69 451.536 442.69C451.536 442.69 494.195 335.491 622.175 335.491C750.155 335.491 814.146 474.85 771.484 614.209Z" fill="black"/>
<path d="M89.5244 167.198L113.569 232.178L178.549 256.223L113.569 280.267L89.5244 345.247L65.4795 280.267L0.5 256.223L65.4795 232.178L89.5244 167.198Z" fill="black"/>
<path d="M842.445 248.423L823.671 197.686L804.897 248.423L754.159 267.198L804.897 285.973L823.671 336.71L842.445 285.973L893.183 267.198L842.445 248.423Z" fill="black"/>
</svg>
