<svg width="1004" height="1001" viewBox="0 0 1004 1001" fill="none" xmlns="http://www.w3.org/2000/svg">
<path d="M407.697 150.186C400.224 150.186 394.166 156.244 394.166 163.717V231.367C394.166 238.84 400.224 244.897 407.697 244.897H595.888C603.361 244.897 609.419 238.84 609.419 231.367V163.717C609.419 156.244 603.361 150.186 595.888 150.186H407.697Z" fill="black"/>
<path fill-rule="evenodd" clip-rule="evenodd" d="M967.352 97.296L662.309 999.51H637.709C637.709 999.51 643.702 891.306 627.254 817.468C621.092 789.806 604.953 755.908 591.289 727.207C579.435 702.309 569.443 681.322 569.443 671.712C569.443 631.736 583.588 612.671 597.118 605.906C601.702 603.614 610.663 603.652 621.92 603.699C643.889 603.791 674.603 603.92 698.594 586.841C734.88 561.011 785.31 474.91 768.09 457.69C760.757 450.357 737.624 468.55 717.045 489.055C713.85 492.238 710.604 495.545 707.307 498.904C681.969 524.718 653.59 553.631 621.719 553.631C588.644 553.631 571.127 546.279 554.565 539.328C539.715 533.095 525.633 527.185 501.793 527.185C478.134 527.185 467.334 533.006 455.867 539.185C442.892 546.178 416.762 553.631 382.481 553.631C352.75 553.631 335.307 537.318 312.056 515.573L312.053 515.571C308.428 512.181 304.662 508.658 300.686 505.045C292 497.153 284.231 488.229 277.229 480.188C263.343 464.238 252.479 451.761 243.49 457.69C214.585 476.755 287.155 573.311 308.681 586.841C320.881 594.51 347.11 597.042 370.009 599.252C387.509 600.941 403.066 602.443 408.927 605.906C422.457 613.901 435.372 650.802 435.372 671.712C435.372 676.362 427.181 695.175 416.984 718.599C402.784 751.215 384.692 792.77 379.406 817.468C363.644 891.113 367.721 999.51 367.721 999.51H341.891L42.9979 97.296C42.9979 97.296 404.007 0.125 500.562 0.125C597.118 0.125 967.352 97.296 967.352 97.296ZM502.408 515.5C524.825 515.5 542.998 497.327 542.998 474.91C542.998 452.492 524.825 434.319 502.408 434.319C479.99 434.319 461.817 452.492 461.817 474.91C461.817 497.327 479.99 515.5 502.408 515.5ZM336.32 223.951C324.792 212.423 324.792 193.732 336.32 182.203L480.919 37.6045C492.447 26.0761 511.138 26.0761 522.667 37.6045L669.111 184.048C680.639 195.577 680.639 214.268 669.111 225.796L524.512 370.395C512.983 381.924 494.292 381.924 482.764 370.395L336.32 223.951Z" fill="black"/>
<path d="M597.118 999.51C597.118 999.51 599.578 749.818 499.332 749.818C399.086 749.818 408.927 999.51 408.927 999.51H597.118Z" fill="black"/>
<path d="M270.55 999.51L18.3977 177.862L220.12 999.51H270.55Z" fill="black"/>
<path d="M163.539 999.51L89.1234 749.817L111.264 999.51H163.539Z" fill="black"/>
<path d="M59.6031 914.024V999.51H0.5625L59.6031 914.024Z" fill="black"/>
<path d="M985.802 178.477L733.65 1000.12H784.08L985.802 178.477Z" fill="black"/>
<path d="M915.077 750.432L840.661 1000.12H892.936L915.077 750.432Z" fill="black"/>
<path d="M944.597 1000.12V914.639L1003.64 1000.12H944.597Z" fill="black"/>
</svg>
