<svg width="931" height="1001" viewBox="0 0 931 1001" fill="none" xmlns="http://www.w3.org/2000/svg">
<path d="M431.713 582.262V877.712C431.713 895.096 416.395 909.188 397.5 909.188C378.604 909.188 363.287 895.096 363.287 877.712V588.598C363.287 588.598 349.917 354.807 320.772 354.807C305.877 354.807 275.153 409.295 284.025 450.478C296.581 508.767 310.637 612.04 260.58 620.276C210.523 628.513 194.683 480.256 203.557 404.226C209.582 352.6 294.227 255.336 294.227 255.336H639.527C639.527 255.336 744.012 349.105 747.17 409.929C750.329 470.752 721.249 642.452 662.336 620.276C603.422 598.101 659.103 471.386 659.103 425.768C659.103 398.524 629.969 352.907 612.863 352.907C589.42 352.907 574.902 588.598 574.902 588.598V877.712C574.902 895.096 559.584 909.188 540.689 909.188C521.793 909.188 506.475 895.096 506.475 877.712V582.262H431.713Z" fill="black"/>
<path fill-rule="evenodd" clip-rule="evenodd" d="M640.207 140.015C641.185 145.695 641.802 150.687 642.193 154.741C671.288 158.494 694.668 165.357 713.562 180.471C733.71 196.588 747.065 220.715 758.419 255.209C804.039 277.765 826.82 318.392 838.16 352.605C844.065 370.421 847.002 386.858 848.471 398.836C849.207 404.84 849.579 409.763 849.767 413.228L850.037 431.544C849.955 439.709 849.628 451.324 848.653 465.245C846.708 493.019 842.162 530.286 831.682 567.74C821.238 605.067 804.643 643.518 778.006 672.817C753.367 699.919 720.383 718.865 677.079 721.958V811.238C665.807 814.838 657.396 828.959 657.396 845.83C657.396 862.701 665.807 876.822 677.079 880.422V903.607C677.079 909.962 674.929 916.732 672.022 922.973C669.009 929.443 664.711 936.348 659.366 943.216C648.684 956.944 633.279 971.222 614.029 982.048C576.287 1003.28 524.23 1010.87 466.142 976.469C407.419 1006.19 358.86 1001.05 324.252 981.571C306.613 971.643 292.994 958.195 283.728 944.493C274.639 931.054 269.054 916.321 269.055 903.607V721.399C200.698 714.306 158.599 683.9 133.797 639.944C108.289 594.736 101.986 536.696 100.481 480.08C98.1646 392.915 99.6481 315.161 165.157 262.587C168.764 257.224 172.26 251.881 175.71 246.61C190.047 224.705 203.573 204.04 220.824 188.285C241.722 169.198 267.817 157.208 306.762 154.113C307.013 150.265 307.434 145.654 308.134 140.47C310.191 125.228 314.704 104.688 324.629 83.9823C334.586 63.2095 350.092 42.0777 374.13 26.1838C398.222 10.2541 430.073 0.125 471.799 0.125C513.533 0.125 545.68 10.2557 570.242 26.1067C594.745 41.9193 610.961 62.944 621.653 83.6442C632.315 104.286 637.584 124.782 640.207 140.015ZM332.286 178.897L331.814 166.188L333.292 144.373C335.115 130.867 339.076 113.075 347.525 95.4496C355.941 77.8909 368.709 60.6912 388.15 47.8366C407.537 35.0176 434.372 25.981 471.842 25.981C509.306 25.981 536.557 35.0161 556.543 47.9137C576.588 60.8497 590.072 78.1564 599.179 95.7877C608.316 113.477 612.947 131.313 615.274 144.828L617.565 166.659V178.091L628.963 179.243C661.839 182.565 682.503 188.558 697.774 200.774C713.038 212.984 724.779 232.925 735.993 268.636L737.702 274.078L742.909 276.407C783.049 294.359 803.598 329.264 814.147 361.091C819.398 376.935 822.038 391.662 823.359 402.433C824.017 407.804 824.343 412.152 824.504 415.114L824.738 431.801C824.66 439.54 824.349 450.644 823.414 463.987C821.541 490.739 817.182 526.176 807.319 561.424C797.421 596.801 782.234 631.053 759.297 656.282C736.713 681.123 706.349 697.574 664.45 697.574H651.778L651.778 904.12C651.778 905.21 651.273 908.102 649.091 912.787C647.016 917.243 643.793 922.53 639.408 928.165C630.631 939.444 617.742 951.42 601.648 960.472C570.07 978.233 525.667 985.135 473.522 951.738L467.216 947.7L460.637 951.276C405.727 981.118 364.154 975.438 336.725 959.999C322.706 952.108 311.953 941.44 304.763 930.809C297.396 919.915 294.44 910.097 294.441 904.121V697.574H282.161C214.546 693.293 177.382 666.055 155.912 628.003C133.7 588.637 127.352 536.118 125.858 479.92C123.475 390.24 126.666 325.498 182.428 281.781L183.992 280.555L185.106 278.908C189.745 272.049 194.006 265.552 198.037 259.407C212.055 238.035 223.291 220.905 237.957 207.511C255.691 191.314 278.796 180.592 319.551 179.301L332.286 178.897Z" fill="black"/>
<path d="M718.886 852.443C720.654 844.592 728.452 839.66 736.304 841.428L867.341 870.936C875.192 872.704 880.124 880.502 878.356 888.354C876.588 896.205 868.79 901.137 860.938 899.369L729.901 869.861C722.05 868.093 717.118 860.295 718.886 852.443Z" fill="black"/>
<path d="M138.117 730.708C131.813 725.705 122.647 726.759 117.643 733.063L34.1419 838.272C29.1387 844.576 30.1931 853.742 36.497 858.746C42.8009 863.749 51.9671 862.694 56.9703 856.391L140.472 751.181C145.475 744.877 144.421 735.711 138.117 730.708Z" fill="black"/>
<path d="M121.28 236.046C126.932 230.316 126.869 221.09 121.139 215.438L25.5126 121.114C19.7829 115.462 10.5564 115.525 4.90475 121.255C-0.746929 126.985 -0.683669 136.211 5.04605 141.863L100.673 236.187C106.402 241.839 115.629 241.776 121.28 236.046Z" fill="black"/>
<path d="M806.745 208.344C812.474 213.995 821.701 213.932 827.352 208.202L921.677 112.576C927.328 106.846 927.265 97.6197 921.535 91.9681C915.806 86.3164 906.579 86.3796 900.927 92.1094L806.603 187.736C800.952 193.466 801.015 202.692 806.745 208.344Z" fill="black"/>
<path d="M822.152 762.377C827.035 768.775 825.807 777.919 819.41 782.802L788.033 806.75C781.635 811.632 772.491 810.404 767.608 804.007C762.725 797.609 763.953 788.465 770.351 783.582L801.727 759.634C808.125 754.752 817.27 755.98 822.152 762.377Z" fill="black"/>
<path d="M18.5536 726.826C18.5536 734.874 25.0779 741.399 33.1259 741.399H72.5971C80.6451 741.399 87.1693 734.874 87.1693 726.826C87.1693 718.778 80.6451 712.254 72.5971 712.254H33.1259C25.0779 712.254 18.5536 718.778 18.5536 726.826Z" fill="black"/>
<path d="M149.897 98.2083C141.849 98.2083 135.325 104.733 135.325 112.781V152.252C135.325 160.3 141.849 166.824 149.897 166.824C157.945 166.824 164.47 160.3 164.47 152.252V112.781C164.47 104.733 157.945 98.2083 149.897 98.2083Z" fill="black"/>
<path d="M930.02 233.16C930.02 225.112 923.495 218.588 915.447 218.588H875.976C867.928 218.588 861.404 225.112 861.404 233.16C861.404 241.208 867.928 247.733 875.976 247.733H915.447C923.495 247.733 930.02 241.208 930.02 233.16Z" fill="black"/>
<path d="M771.235 983.321C764.176 987.187 755.32 984.598 751.454 977.539L725.218 929.632C721.352 922.573 723.94 913.717 730.999 909.851C738.058 905.985 746.914 908.574 750.78 915.632L777.017 963.54C780.882 970.599 778.294 979.455 771.235 983.321Z" fill="black"/>
<path d="M163.836 867.505C171.884 867.505 178.408 860.981 178.408 852.933V798.312C178.408 790.264 171.884 783.739 163.836 783.739C155.788 783.739 149.264 790.264 149.264 798.312V852.933C149.264 860.981 155.788 867.505 163.836 867.505Z" fill="black"/>
<path d="M15.5205 289.596C18.6363 297.017 27.1777 300.506 34.5981 297.39L66.3787 284.046C73.7991 280.93 77.2887 272.389 74.1729 264.968C71.0571 257.548 62.5158 254.058 55.0953 257.174L23.3147 270.519C15.8943 273.634 12.4047 282.176 15.5205 289.596Z" fill="black"/>
<path d="M770.804 86.8039C762.755 86.8039 756.231 93.3281 756.231 101.376V135.845C756.231 143.893 762.755 150.417 770.804 150.417C778.852 150.417 785.376 143.893 785.376 135.845V101.376C785.376 93.3281 778.852 86.8039 770.804 86.8039Z" fill="black"/>
<path d="M544.619 167.902C544.619 206.393 513.416 237.595 474.925 237.595C436.434 237.595 405.232 206.393 405.232 167.902C405.232 129.411 436.434 98.2083 474.925 98.2083C513.416 98.2083 544.619 129.411 544.619 167.902Z" fill="black"/>
</svg>
