<?xml version="1.0" encoding="UTF-8"?>
<svg id="Layer_2" data-name="Layer 2" xmlns="http://www.w3.org/2000/svg" viewBox="0 0 178.76 178.87">
  <defs>
    <style>
      .cls-1, .cls-2 {
        fill: none;
        stroke: #212020;
        stroke-width: 10px;
      }

      .cls-1, .cls-3 {
        stroke-linejoin: round;
      }

      .cls-4, .cls-3 {
        fill: #efdfbf;
      }

      .cls-5 {
        fill: #212020;
      }

      .cls-3 {
        stroke: #efe0bf;
        stroke-linecap: round;
        stroke-width: 5px;
      }
    </style>
  </defs>
  <g id="Layer_1-2" data-name="Layer 1">
    <g>
      <g>
        <g>
          <path class="cls-2" d="M95.43,167.88v10.97c-20.43-.37-40.74-8.34-56.33-23.93-15.55-15.55-23.54-35.82-23.94-56.21h11.09c.37,17.61,7.26,35.1,20.67,48.51,13.4,13.41,30.9,20.29,48.51,20.66Z"/>
          <path class="cls-2" d="M178.73,98.71c-.4,20.39-8.38,40.66-23.94,56.21-15.6,15.59-35.92,23.57-56.36,23.93v-10.97c17.61-.37,35.1-7.25,48.51-20.66,13.41-13.41,20.29-30.9,20.66-48.51h11.13Z"/>
          <path class="cls-2" d="M178.74,95.71h-11.14c-.37-17.61-7.25-35.1-20.66-48.51-13.41-13.41-30.9-20.3-48.51-20.67v-11.25c20.44.36,40.76,8.35,56.36,23.94,15.63,15.62,23.61,36,23.95,56.49Z"/>
          <path class="cls-2" d="M167.61,95.71c-.37-17.61-7.25-35.1-20.66-48.51-13.41-13.41-30.9-20.3-48.51-20.67v-11.25c-1-.03-2-.03-3,0-20.43.37-40.74,8.35-56.33,23.94-15.62,15.62-23.61,36-23.95,56.49-.02,1-.02,2,.01,3h11.09c.37,17.61,7.26,35.1,20.67,48.51,13.4,13.41,30.9,20.29,48.51,20.66v10.97c1,.03,2,.03,3,0v-10.97c17.61-.37,35.1-7.25,48.51-20.66,13.41-13.41,20.29-30.9,20.66-48.51h11.13c.03-1,.03-2,.01-3h-11.14ZM98.44,29.54c15.39.33,30.69,5.87,42.99,16.61-.37,2.56-1.1,4.67-1.86,6.3l-22.97,22.97c-5.91-2.93-12.07-5.04-18.16-5.34V29.54ZM45.8,141.61c-10.7-12.3-16.21-27.55-16.54-42.9h16.93c2.47,1.36,5.73,3.72,9.49,6.45,5.46,3.96,11.91,8.64,18.8,12.39l-22.22,22.22c-1.67.78-3.85,1.53-6.46,1.84ZM95.44,164.88c-15.4-.33-30.7-5.87-43-16.62.31-2.44.96-4.48,1.67-6.1l23.16-23.16c5.91,2.95,12.07,5.06,18.17,5.37v40.51ZM96.95,116.33c-.51,0-1.01-.02-1.51-.07-4.15-.31-7.93-1.95-10.93-4.5-.77-.64-1.49-1.35-2.14-2.11-2.58-2.98-4.26-6.77-4.6-10.94-.06-.54-.08-1.09-.08-1.64,0-.46.02-.91.06-1.36.28-4.21,1.93-8.04,4.5-11.07.64-.77,1.35-1.48,2.11-2.13,3.02-2.62,6.86-4.31,11.08-4.63.5-.05,1-.07,1.51-.07s1,.02,1.49.07c4.23.31,8.08,2,11.1,4.61.76.65,1.47,1.37,2.11,2.13,2.58,3.03,4.23,6.87,4.51,11.09.04.45.06.9.06,1.36,0,.55-.02,1.1-.08,1.64-.34,4.18-2.03,7.97-4.62,10.96-.65.76-1.37,1.47-2.14,2.11-3,2.54-6.79,4.17-10.94,4.48-.49.05-.99.07-1.49.07ZM98.44,164.88v-40.51c6.1-.3,12.26-2.41,18.18-5.35l23.13,23.13c.73,1.61,1.4,3.65,1.7,6.09-12.31,10.76-27.61,16.31-43.01,16.64ZM147.98,141.71c-2.49-.34-4.56-1.03-6.18-1.76l-22.39-22.39c6.9-3.75,13.35-8.43,18.82-12.4,3.76-2.73,7.02-5.1,9.49-6.45h16.89c-.33,15.39-5.88,30.69-16.63,43ZM147.65,95.71c-2.46-1.36-5.7-3.71-9.42-6.42-5.48-3.97-11.94-8.66-18.84-12.41l22.72-22.72c1.55-.68,3.48-1.29,5.76-1.58,10.82,12.34,16.4,27.69,16.74,43.13h-16.96Z"/>
          <path class="cls-2" d="M95.43,124.37v40.51c-15.4-.33-30.7-5.87-43-16.62.31-2.44.96-4.48,1.67-6.1l23.16-23.16c5.91,2.95,12.07,5.06,18.17,5.37Z"/>
          <path class="cls-2" d="M74.47,117.55l-22.22,22.22c-1.67.78-3.85,1.53-6.46,1.84-10.7-12.3-16.21-27.55-16.54-42.9h16.93c2.47,1.36,5.73,3.72,9.49,6.45,5.46,3.96,11.91,8.64,18.8,12.39Z"/>
          <path class="cls-2" d="M141.44,148.24c-12.31,10.76-27.61,16.31-43.01,16.64v-40.51c6.1-.3,12.26-2.41,18.18-5.35l23.13,23.13c.73,1.61,1.4,3.65,1.7,6.09Z"/>
          <path class="cls-2" d="M164.6,98.71c-.33,15.39-5.88,30.69-16.63,43-2.49-.34-4.56-1.03-6.18-1.76l-22.39-22.39c6.9-3.75,13.35-8.43,18.82-12.4,3.76-2.73,7.02-5.1,9.49-6.45h16.89Z"/>
          <path class="cls-2" d="M164.6,95.71h-16.96c-2.46-1.36-5.7-3.71-9.42-6.42-5.48-3.97-11.94-8.66-18.84-12.41l22.72-22.72c1.55-.68,3.48-1.29,5.76-1.58,10.82,12.34,16.4,27.69,16.74,43.13Z"/>
          <path class="cls-2" d="M141.42,46.15c-.37,2.56-1.1,4.67-1.86,6.3l-22.97,22.97c-5.91-2.93-12.07-5.04-18.16-5.34V29.54c15.39.33,30.69,5.87,42.99,16.61Z"/>
          <path class="cls-2" d="M116.15,95.71c-.28-4.22-1.93-8.06-4.51-11.09-.64-.76-1.35-1.48-2.11-2.13-3.02-2.61-6.87-4.3-11.1-4.61-.49-.05-.99-.07-1.49-.07s-1.01.02-1.51.07c-4.22.32-8.06,2.01-11.08,4.63-.76.65-1.47,1.36-2.11,2.13-2.57,3.03-4.22,6.86-4.5,11.07-.04.45-.06.9-.06,1.36,0,.55.02,1.1.08,1.64.34,4.17,2.02,7.96,4.6,10.94.65.76,1.37,1.47,2.14,2.11,3,2.55,6.78,4.19,10.93,4.5.5.05,1,.07,1.51.07s1-.02,1.49-.07c4.15-.31,7.94-1.94,10.94-4.48.77-.64,1.49-1.35,2.14-2.11,2.59-2.99,4.28-6.78,4.62-10.96.06-.54.08-1.09.08-1.64,0-.46-.02-.91-.06-1.36ZM108.24,98.71c-.26,2.03-1.06,3.89-2.25,5.44-.61.8-1.32,1.51-2.12,2.13-1.55,1.18-3.41,1.98-5.44,2.24-.49.07-.99.1-1.49.1s-1.01-.03-1.51-.1c-2.03-.27-3.89-1.07-5.43-2.26-.12-.09-.24-.19-.35-.28-.13-.11-.25-.21-.36-.32-.31-.27-.59-.56-.85-.86-.1-.1-.2-.21-.28-.33-.1-.11-.19-.22-.27-.34-1.18-1.54-1.98-3.4-2.24-5.42-.07-.48-.1-.98-.1-1.48s.03-1.02.1-1.52c.27-2.02,1.07-3.87,2.25-5.41.61-.8,1.32-1.51,2.12-2.12,1.54-1.18,3.39-1.98,5.41-2.25.5-.07,1-.1,1.51-.1s1,.03,1.49.1c2.02.26,3.88,1.06,5.42,2.24.8.6,1.51,1.31,2.13,2.11,1.19,1.54,1.99,3.4,2.26,5.43.07.5.1,1.01.1,1.52s-.03,1-.1,1.48Z"/>
          <path class="cls-2" d="M108.34,97.23c0,.5-.03,1-.1,1.48-.26,2.03-1.06,3.89-2.25,5.44-.61.8-1.32,1.51-2.12,2.13-1.55,1.18-3.41,1.98-5.44,2.24-.49.07-.99.1-1.49.1s-1.01-.03-1.51-.1c-2.03-.27-3.89-1.07-5.43-2.26-.12-.09-.24-.19-.35-.28-.13-.11-.25-.21-.36-.32-.31-.27-.59-.56-.85-.86-.1-.11-.19-.22-.28-.33-.1-.11-.19-.22-.27-.34-1.18-1.54-1.98-3.4-2.24-5.42-.07-.48-.1-.98-.1-1.48s.03-1.02.1-1.52c.27-2.02,1.07-3.87,2.25-5.41.61-.8,1.32-1.51,2.12-2.12,1.54-1.18,3.39-1.98,5.41-2.25.5-.07,1-.1,1.51-.1s1,.03,1.49.1c2.02.26,3.88,1.06,5.42,2.24.8.6,1.51,1.31,2.13,2.11,1.19,1.54,1.99,3.4,2.26,5.43.07.5.1,1.01.1,1.52Z"/>
        </g>
        <g>
          <path class="cls-4" d="M95.43,167.88v10.97c-20.43-.37-40.74-8.34-56.33-23.93-15.55-15.55-23.54-35.82-23.94-56.21h11.09c.37,17.61,7.26,35.1,20.67,48.51,13.4,13.41,30.9,20.29,48.51,20.66Z"/>
          <path class="cls-4" d="M178.73,98.71c-.4,20.39-8.38,40.66-23.94,56.21-15.6,15.59-35.92,23.57-56.36,23.93v-10.97c17.61-.37,35.1-7.25,48.51-20.66,13.41-13.41,20.29-30.9,20.66-48.51h11.13Z"/>
          <path class="cls-4" d="M178.74,95.71h-11.14c-.37-17.61-7.25-35.1-20.66-48.51-13.41-13.41-30.9-20.3-48.51-20.67v-11.25c20.44.36,40.76,8.35,56.36,23.94,15.63,15.62,23.61,36,23.95,56.49Z"/>
          <path class="cls-5" d="M167.61,95.71c-.37-17.61-7.25-35.1-20.66-48.51-13.41-13.41-30.9-20.3-48.51-20.67v-11.25c-1-.03-2-.03-3,0-20.43.37-40.74,8.35-56.33,23.94-15.62,15.62-23.61,36-23.95,56.49-.02,1-.02,2,.01,3h11.09c.37,17.61,7.26,35.1,20.67,48.51,13.4,13.41,30.9,20.29,48.51,20.66v10.97c1,.03,2,.03,3,0v-10.97c17.61-.37,35.1-7.25,48.51-20.66,13.41-13.41,20.29-30.9,20.66-48.51h11.13c.03-1,.03-2,.01-3h-11.14ZM98.44,29.54c15.39.33,30.69,5.87,42.99,16.61-.37,2.56-1.1,4.67-1.86,6.3l-22.97,22.97c-5.91-2.93-12.07-5.04-18.16-5.34V29.54ZM45.8,141.61c-10.7-12.3-16.21-27.55-16.54-42.9h16.93c2.47,1.36,5.73,3.72,9.49,6.45,5.46,3.96,11.91,8.64,18.8,12.39l-22.22,22.22c-1.67.78-3.85,1.53-6.46,1.84ZM95.44,164.88c-15.4-.33-30.7-5.87-43-16.62.31-2.44.96-4.48,1.67-6.1l23.16-23.16c5.91,2.95,12.07,5.06,18.17,5.37v40.51ZM96.95,116.33c-.51,0-1.01-.02-1.51-.07-4.15-.31-7.93-1.95-10.93-4.5-.77-.64-1.49-1.35-2.14-2.11-2.58-2.98-4.26-6.77-4.6-10.94-.06-.54-.08-1.09-.08-1.64,0-.46.02-.91.06-1.36.28-4.21,1.93-8.04,4.5-11.07.64-.77,1.35-1.48,2.11-2.13,3.02-2.62,6.86-4.31,11.08-4.63.5-.05,1-.07,1.51-.07s1,.02,1.49.07c4.23.31,8.08,2,11.1,4.61.76.65,1.47,1.37,2.11,2.13,2.58,3.03,4.23,6.87,4.51,11.09.04.45.06.9.06,1.36,0,.55-.02,1.1-.08,1.64-.34,4.18-2.03,7.97-4.62,10.96-.65.76-1.37,1.47-2.14,2.11-3,2.54-6.79,4.17-10.94,4.48-.49.05-.99.07-1.49.07ZM98.44,164.88v-40.51c6.1-.3,12.26-2.41,18.18-5.35l23.13,23.13c.73,1.61,1.4,3.65,1.7,6.09-12.31,10.76-27.61,16.31-43.01,16.64ZM147.98,141.71c-2.49-.34-4.56-1.03-6.18-1.76l-22.39-22.39c6.9-3.75,13.35-8.43,18.82-12.4,3.76-2.73,7.02-5.1,9.49-6.45h16.89c-.33,15.39-5.88,30.69-16.63,43ZM147.65,95.71c-2.46-1.36-5.7-3.71-9.42-6.42-5.48-3.97-11.94-8.66-18.84-12.41l22.72-22.72c1.55-.68,3.48-1.29,5.76-1.58,10.82,12.34,16.4,27.69,16.74,43.13h-16.96Z"/>
          <path class="cls-4" d="M95.43,124.37v40.51c-15.4-.33-30.7-5.87-43-16.62.31-2.44.96-4.48,1.67-6.1l23.16-23.16c5.91,2.95,12.07,5.06,18.17,5.37Z"/>
          <path class="cls-4" d="M74.47,117.55l-22.22,22.22c-1.67.78-3.85,1.53-6.46,1.84-10.7-12.3-16.21-27.55-16.54-42.9h16.93c2.47,1.36,5.73,3.72,9.49,6.45,5.46,3.96,11.91,8.64,18.8,12.39Z"/>
          <path class="cls-4" d="M141.44,148.24c-12.31,10.76-27.61,16.31-43.01,16.64v-40.51c6.1-.3,12.26-2.41,18.18-5.35l23.13,23.13c.73,1.61,1.4,3.65,1.7,6.09Z"/>
          <path class="cls-4" d="M164.6,98.71c-.33,15.39-5.88,30.69-16.63,43-2.49-.34-4.56-1.03-6.18-1.76l-22.39-22.39c6.9-3.75,13.35-8.43,18.82-12.4,3.76-2.73,7.02-5.1,9.49-6.45h16.89Z"/>
          <path class="cls-4" d="M164.6,95.71h-16.96c-2.46-1.36-5.7-3.71-9.42-6.42-5.48-3.97-11.94-8.66-18.84-12.41l22.72-22.72c1.55-.68,3.48-1.29,5.76-1.58,10.82,12.34,16.4,27.69,16.74,43.13Z"/>
          <path class="cls-4" d="M141.42,46.15c-.37,2.56-1.1,4.67-1.86,6.3l-22.97,22.97c-5.91-2.93-12.07-5.04-18.16-5.34V29.54c15.39.33,30.69,5.87,42.99,16.61Z"/>
          <path class="cls-4" d="M116.15,95.71c-.28-4.22-1.93-8.06-4.51-11.09-.64-.76-1.35-1.48-2.11-2.13-3.02-2.61-6.87-4.3-11.1-4.61-.49-.05-.99-.07-1.49-.07s-1.01.02-1.51.07c-4.22.32-8.06,2.01-11.08,4.63-.76.65-1.47,1.36-2.11,2.13-2.57,3.03-4.22,6.86-4.5,11.07-.04.45-.06.9-.06,1.36,0,.55.02,1.1.08,1.64.34,4.17,2.02,7.96,4.6,10.94.65.76,1.37,1.47,2.14,2.11,3,2.55,6.78,4.19,10.93,4.5.5.05,1,.07,1.51.07s1-.02,1.49-.07c4.15-.31,7.94-1.94,10.94-4.48.77-.64,1.49-1.35,2.14-2.11,2.59-2.99,4.28-6.78,4.62-10.96.06-.54.08-1.09.08-1.64,0-.46-.02-.91-.06-1.36ZM108.24,98.71c-.26,2.03-1.06,3.89-2.25,5.44-.61.8-1.32,1.51-2.12,2.13-1.55,1.18-3.41,1.98-5.44,2.24-.49.07-.99.1-1.49.1s-1.01-.03-1.51-.1c-2.03-.27-3.89-1.07-5.43-2.26-.12-.09-.24-.19-.35-.28-.13-.11-.25-.21-.36-.32-.31-.27-.59-.56-.85-.86-.1-.1-.2-.21-.28-.33-.1-.11-.19-.22-.27-.34-1.18-1.54-1.98-3.4-2.24-5.42-.07-.48-.1-.98-.1-1.48s.03-1.02.1-1.52c.27-2.02,1.07-3.87,2.25-5.41.61-.8,1.32-1.51,2.12-2.12,1.54-1.18,3.39-1.98,5.41-2.25.5-.07,1-.1,1.51-.1s1,.03,1.49.1c2.02.26,3.88,1.06,5.42,2.24.8.6,1.51,1.31,2.13,2.11,1.19,1.54,1.99,3.4,2.26,5.43.07.5.1,1.01.1,1.52s-.03,1-.1,1.48Z"/>
          <path class="cls-5" d="M108.34,97.23c0,.5-.03,1-.1,1.48-.26,2.03-1.06,3.89-2.25,5.44-.61.8-1.32,1.51-2.12,2.13-1.55,1.18-3.41,1.98-5.44,2.24-.49.07-.99.1-1.49.1s-1.01-.03-1.51-.1c-2.03-.27-3.89-1.07-5.43-2.26-.12-.09-.24-.19-.35-.28-.13-.11-.25-.21-.36-.32-.31-.27-.59-.56-.85-.86-.1-.11-.19-.22-.28-.33-.1-.11-.19-.22-.27-.34-1.18-1.54-1.98-3.4-2.24-5.42-.07-.48-.1-.98-.1-1.48s.03-1.02.1-1.52c.27-2.02,1.07-3.87,2.25-5.41.61-.8,1.32-1.51,2.12-2.12,1.54-1.18,3.39-1.98,5.41-2.25.5-.07,1-.1,1.51-.1s1,.03,1.49.1c2.02.26,3.88,1.06,5.42,2.24.8.6,1.51,1.31,2.13,2.11,1.19,1.54,1.99,3.4,2.26,5.43.07.5.1,1.01.1,1.52Z"/>
        </g>
      </g>
      <g>
        <g>
          <g>
            <polygon class="cls-1" points="82.97 44.65 89.04 67.29 96.95 96.84 67.4 88.93 44.76 82.86 82.97 44.65"/>
            <path class="cls-1" d="M91.9,77.96l5.06,18.88-18.88-5.06c.97-3.15,2.7-6.13,5.2-8.63s5.47-4.23,8.63-5.2Z"/>
            <rect class="cls-1" x="19.96" y="22.99" width="16.51" height="63.3" transform="translate(-30.37 35.96) rotate(-45)"/>
            <rect class="cls-1" x="34.03" y="9.86" width="15.02" height="63.14" transform="translate(-17.13 41.51) rotate(-45)"/>
            <rect class="cls-1" x="46.56" y="-3.41" width="16.51" height="63.14" transform="translate(-3.86 47.01) rotate(-45)"/>
            <g>
              <line class="cls-1" x1="57.71" y1="70.34" x2="57.54" y2="70.17"/>
              <rect class="cls-1" x="33.64" y="16.08" width="3" height="63.37" transform="translate(-23.48 38.84) rotate(-45)"/>
              <rect class="cls-1" x="56.12" y="70.14" width="3" height=".23" transform="translate(-32.8 61.32) rotate(-45)"/>
            </g>
            <g>
              <line class="cls-1" x1="70.45" y1="57.59" x2="70.28" y2="57.43"/>
              <rect class="cls-1" x="46.44" y="3.48" width="3" height="63.21" transform="translate(-10.77 44.17) rotate(-45)"/>
              <rect class="cls-1" x="68.87" y="57.39" width="3" height=".23" transform="translate(-20.06 66.6) rotate(-45)"/>
            </g>
          </g>
          <g>
            <polygon class="cls-5" points="82.97 44.65 89.04 67.29 96.95 96.84 67.4 88.93 44.76 82.86 82.97 44.65"/>
            <path class="cls-4" d="M91.9,77.96l5.06,18.88-18.88-5.06c.97-3.15,2.7-6.13,5.2-8.63s5.47-4.23,8.63-5.2Z"/>
            <rect class="cls-4" x="19.96" y="22.99" width="16.51" height="63.3" transform="translate(-30.37 35.96) rotate(-45)"/>
            <rect class="cls-4" x="34.03" y="9.86" width="15.02" height="63.14" transform="translate(-17.13 41.51) rotate(-45)"/>
            <rect class="cls-4" x="46.56" y="-3.41" width="16.51" height="63.14" transform="translate(-3.86 47.01) rotate(-45)"/>
            <g>
              <rect class="cls-5" x="33.64" y="16.08" width="3" height="63.37" transform="translate(-23.48 38.84) rotate(-45)"/>
              <rect class="cls-5" x="56.12" y="70.14" width="3" height=".23" transform="translate(-32.8 61.32) rotate(-45)"/>
            </g>
            <g>
              <rect class="cls-5" x="46.44" y="3.48" width="3" height="63.21" transform="translate(-10.77 44.17) rotate(-45)"/>
              <rect class="cls-5" x="68.87" y="57.39" width="3" height=".23" transform="translate(-20.06 66.6) rotate(-45)"/>
            </g>
          </g>
        </g>
        <line class="cls-3" x1="46.17" y1="80.75" x2="92.41" y2="93.03"/>
        <line class="cls-3" x1="81.05" y1="46.25" x2="93.3" y2="93.23"/>
      </g>
    </g>
  </g>
</svg>