<?xml version="1.0" encoding="UTF-8"?>
<svg id="Layer_1" xmlns="http://www.w3.org/2000/svg" version="1.1" viewBox="0 0 19.5 19.8">
  <!-- Generator: Adobe Illustrator 29.2.1, SVG Export Plug-In . SVG Version: 2.1.0 Build 116)  -->
  <defs>
    <style>
      .st0 {
        fill: none;
        stroke: #000;
        stroke-miterlimit: 10;
        stroke-width: .2px;
      }

      .st1 {
        fill-rule: evenodd;
      }
    </style>
  </defs>
  <path class="st1" d="M9.7,4.1c-3.2,0-5.8,2.6-5.8,5.8s2.6,5.8,5.8,5.8,5.8-2.6,5.8-5.8-2.6-5.8-5.8-5.8ZM13.7,10.4h-4.3v-4.3h1v3.3h3.3v1Z"/>
  <path d="M19.5,9.9h0c0,.5-.3.8-.8.8s-.8-.3-.8-.8h0c0-4.7-3.7-8.4-8.2-8.4S1.5,5.3,1.5,9.9s3.7,8.4,8.2,8.4,5.1-1.3,6.6-3.3l-1.3-.6,2.6-2,1-.7.2,1.9.3,2.6-1.4-.6c-1.8,2.6-4.7,4.3-8,4.3C4.4,19.8,0,15.4,0,9.9S4.4,0,9.7,0s9.7,4.4,9.7,9.9Z"/>
  <line class="st0" x1="17.7" y1="15.5" x2="17.7" y2="15.5"/>
  <line class="st0" x1="16.4" y1="15" x2="16.3" y2="14.9"/>
</svg>