<?xml version="1.0" encoding="UTF-8"?>
<svg id="Layer_2" data-name="Layer 2" xmlns="http://www.w3.org/2000/svg" viewBox="0 0 217.34 197.22">
  <g id="Layer_1-2" data-name="Layer 1">
    <g>
      <path d="M16.57,132.75c-7.36-2.65-12.68-5.65-16.5-8.74v22.76c-2.11,14.73,43.12,26.51,75.69,23.82v-30.48c-20.16,1.07-43.76-1.64-59.19-7.36Z"/>
      <path d="M61.86,103v-19.67c-98.14,5.3-66.54,52.83,14.1,47.76.33-2.19,1.13-4.57,2.66-7-13.63-6.86-16.76-15.03-16.76-21.09Z"/>
      <path d="M150.49,166.74c-23.18-.38-48.93-3.12-66.73-16.31-.09,2.19.07,21.18,0,22.76,0,13.28,29.88,24.03,66.73,24.03s66.73-10.75,66.73-24.03v-22.76c-17.81,12.95-41.26,15.78-66.73,16.31Z"/>
      <path d="M186.48,127.52c-28.05,9.83-70.5,10.39-100.33-.2-13.1,23.77,43.34,30.75,64.34,30.42,43.64.48,91.51-18.33,52.35-38.92-3.74,3.07-9,6.05-16.36,8.7Z"/>
      <path d="M84.22,117.89c32.12,13.56,88.83,12.65,113.6-5.33,8.81-4.9,4.61-24.51,5.5-32.32-19.83,14.54-49.89,17.03-77.2,16.03-21.79-1.7-40.3-4.43-56.26-16.03,0,1.26,0,20.86,0,22.76,0,5.63,5.37,10.8,14.36,14.89Z"/>
      <path d="M75.76,73.41c27.43,19.12,97.23,19.75,123.51-1.63,5.54-4.43,3.8-12.26,4.05-18.08.04-3.15-.03-9.76,0-12.94-32.14,22.22-101.29,22.24-133.46,0,0,3.2,0,9.78,0,12.94-.1,6.74-1.12,15.39,5.9,19.71Z"/>
      <path d="M85.44,39.46c25.32,10.49,62.77,10.78,89.22,4.32,4.57-1.16,8.94-2.54,13.08-4.31C229,19.1,180.99-.56,136.59.01c-44.4-.59-92.4,19.11-51.15,39.45Z"/>
    </g>
  </g>
</svg>