<?xml version="1.0" encoding="UTF-8"?>
<svg id="Layer_2" data-name="Layer 2" xmlns="http://www.w3.org/2000/svg" viewBox="0 0 34.26 24.21">
  <defs>
    <style>
      .cls-1 {
        fill: #242423;
      }

      .cls-2 {
        fill: #7fba26;
      }

      .cls-3 {
        fill: #346922;
        fill-rule: evenodd;
      }

      .cls-4 {
        fill: #2c2d2d;
      }
    </style>
  </defs>
  <g id="Layer_1-2" data-name="Layer 1">
    <g>
      <g>
        <polygon class="cls-3" points="4.12 16.87 7.48 10.52 4.21 7.29 .99 10.01 2.14 .96 10.61 2.27 7.77 5.05 12.44 9.43 10.44 14.19 17.7 17.41 20.69 22.68 4.12 16.87"/>
        <path class="cls-4" d="M2.78,1.82l6.23.96-2.33,2.29,4.86,4.55-2.08,4.96,7.7,3.42,1.88,3.31-13.86-4.86,3.22-6.08-4.15-4.1-2.28,1.92.81-6.38M1.49.1l-.19,1.53-.81,6.38-.48,3.82,2.94-2.48,1.23-1.04,2.38,2.36-2.69,5.09-.82,1.54,1.65.58,13.86,4.86,3.78,1.32-1.98-3.48-1.88-3.31-.24-.43-.45-.2-6.36-2.82,1.51-3.61.4-.96-.76-.71-3.72-3.48,1.21-1.19,2.14-2.1-2.96-.46L3.01.34,1.49.1h0Z"/>
      </g>
      <g>
        <path class="cls-2" d="M22.11,23.46c-.17,0-.35-.06-.49-.18-.38-.33-9.3-8.06-10.71-12.67-.86-2.79-.5-5.62.95-7.59,1.09-1.47,2.7-2.28,4.54-2.28,2.98,0,4.77,1.61,5.67,2.75.83-1.15,2.52-2.75,5.49-2.75,1.84,0,3.45.81,4.54,2.28,1.45,1.96,1.81,4.8.95,7.59-1.41,4.6-10.07,12.33-10.44,12.66-.14.13-.32.19-.5.19Z"/>
        <path class="cls-1" d="M27.56,1.5c4.09,0,6.13,4.45,4.77,8.9s-10.22,12.32-10.22,12.32c0,0-9.12-7.87-10.48-12.32-1.36-4.45.68-8.9,4.77-8.9s5.71,3.42,5.71,3.42c0,0,1.36-3.42,5.45-3.42M27.56,0c-2.71,0-4.46,1.2-5.51,2.35-1.12-1.13-2.95-2.35-5.65-2.35-2.08,0-3.91.92-5.14,2.58-1.59,2.15-1.99,5.24-1.07,8.25,1.45,4.73,9.97,12.18,10.94,13.01.28.24.63.36.98.36s.71-.13,1-.38c.94-.83,9.21-8.28,10.66-13,.92-3.02.53-6.1-1.07-8.25-1.23-1.67-3.06-2.58-5.14-2.58h0Z"/>
      </g>
    </g>
  </g>
</svg>