<svg width="567" height="1098" viewBox="0 0 567 1098" fill="none" xmlns="http://www.w3.org/2000/svg">
<path d="M445.857 518.451C445.857 453.173 396.853 403.791 331.856 385.202C296.717 375.134 260.094 370.096 224.488 361.518C187.151 352.495 161.364 330.034 146.569 295.588C134.55 267.608 127.346 239.273 133.023 208.7C140.485 168.844 163.845 141.838 203.609 129.08C222.366 123.033 241.899 118.889 261.351 115.297C296.108 108.93 313.724 89.1315 313.385 54.8077C313.279 46.312 312.29 37.7845 312.758 29.3242C314.239 2.58334 328.595 -5.53472 354.241 5.49907C406.466 28.0226 439.541 89.0991 428.313 142.596C420.844 178.288 394.958 197.847 362.323 211.284C356.253 213.778 350.05 216.19 343.705 217.924C327.887 222.15 317.384 230.944 316.706 247.438C315.99 264.567 327.722 273.093 342.721 277.542C386.649 290.606 428.239 307.565 464.272 336.105C594.331 439.048 603.131 627.914 473.655 746.312C464.3 754.879 455.983 758.081 445.857 747.114C400.687 698.294 342.272 675.59 275.912 671.887C218.887 668.709 176.149 612.763 172.565 573.338C170.927 555.386 177.099 536.193 182.758 518.451C187.227 504.462 195.403 490.047 180.117 480.119C163.894 469.568 145.238 476.759 138.838 491.835C128.829 515.322 120.263 541.129 119.602 566.203C117.817 632.501 183.791 708.39 271.64 723.048C294.809 726.931 318.106 730.432 341.066 735.295C395.987 746.911 420.614 786.378 432.521 833.86C443.45 877.318 439.309 921.127 398.409 949.152C375.439 964.895 345.941 974.597 317.89 979.948C269.683 989.113 254.318 1004.98 254.692 1052.89C254.818 1066.57 252.18 1085.51 242.943 1092.89C228.19 1104.58 211.278 1091.99 197.279 1082.48C163.795 1059.73 141.771 1030.64 139.272 989.583C136.049 936.474 155.691 905.562 207.214 885.736C213.374 883.368 219.808 881.76 226.013 879.519C255.149 869.014 260.938 840.224 236.39 821.529C225.768 813.415 212.258 807.842 199.168 803.837C-4.44484 740.912 -66.0779 498.387 84.1346 351.657C98.6361 337.505 108.292 335.433 123.125 351.483C166.996 399.005 224.13 421.724 289.071 425.145C350.829 428.394 398.726 490.481 397.268 540.333C396.86 553.806 390.087 567.355 384.81 580.335C379.234 594.124 372.785 608.774 388.644 618.397C405.435 628.56 422.449 620.792 429.866 605.833C434.052 597.393 445.857 583.73 445.857 518.451Z" fill="currentColor"/>
</svg>
