<?xml version="1.0" encoding="UTF-8"?>
<svg id="Layer_2" data-name="Layer 2" xmlns="http://www.w3.org/2000/svg" viewBox="0 0 32.78 24.34">
  <defs>
    <style>
      .cls-1 {
        fill: #242423;
      }

      .cls-2 {
        fill: #df982d;
      }

      .cls-3 {
        fill: #825717;
        fill-rule: evenodd;
      }

      .cls-4 {
        fill: #2c2d2d;
      }
    </style>
  </defs>
  <g id="Layer_1-2" data-name="Layer 1">
    <g>
      <polygon class="cls-3" points="4.15 16.71 7.48 10.42 4.21 7.19 .99 9.91 2.14 .86 10.61 2.17 7.77 4.95 12.44 9.32 10.43 14.13 17.42 17.7 15.99 21.98 4.15 16.71"/>
      <path class="cls-4" d="M2.78,1.72l6.23.96-2.33,2.29,4.86,4.55-2.08,4.96,7.04,3.6-.96,2.89-10.36-4.61,3.22-6.08-4.15-4.1-2.28,1.92.81-6.38M1.49,0l-.19,1.53L.48,7.91l-.48,3.82,2.94-2.48,1.23-1.04,2.38,2.36-2.69,5.09-.75,1.42,1.47.65,10.36,4.61,1.51.67.52-1.57.96-2.89.41-1.22-1.15-.59-5.8-2.96,1.54-3.68.4-.96-.76-.71-3.72-3.48,1.21-1.19,2.14-2.1-2.96-.46L3.01.24l-1.52-.24h0Z"/>
    </g>
    <g>
      <g>
        <path class="cls-2" d="M26.09,8.07c-.48,0-.79-.39-1.09-.83-.16-.23-1.57-2.31-1.26-3.12.3-.8,4.22-2.76,4.67-2.86.39-.09.77-.14,1.11-.14.28,0,.53.03.74.09.43.12.82.4,1.21.89.69.85.52,2.22.07,2.7-.18.19-4.79,3.18-5.31,3.27h-.06s-.07.01-.07.01Z"/>
        <path class="cls-1" d="M29.52,1.87c.21,0,.39.02.53.06.31.09.58.33.83.64.46.56.31,1.5.11,1.71-.2.21-4.67,3-4.89,3.04,0,0,0,0,0,0-.31,0-1.78-2.61-1.66-2.94.13-.33,3.5-2.25,4.14-2.4.36-.08.68-.12.94-.12M29.52.37h0c-.4,0-.83.05-1.28.16-.32.07-4.73,2.06-5.21,3.33-.3.8.15,2.08,1.35,3.81.28.4.8,1.15,1.71,1.15h.13l.13-.02c.76-.13,5.54-3.28,5.74-3.49.73-.78.87-2.56-.04-3.68-.48-.6-1-.97-1.59-1.14-.28-.08-.6-.12-.94-.12h0Z"/>
      </g>
      <g>
        <path class="cls-2" d="M17.83,23.57c-.78-.16-1.07-.66-1.32-1.1l-.11-.2c-.04-.07-4.23-7.26-4.44-7.81-.2-.51-.51-1.28.17-1.96.22-.22.75-.57,1.84-1.27.15-.1.29-.18.4-.25.04-.79.06-3.07.06-5.13,0-.46,0-.98,5.71-3.92.25-.12.62-.2.96-.2.41,0,.73.12.96.34.03.03,3.25,4.73,3.24,5.78,0,.39-.18.73-.44,1.02,1.66-1.05,4.17-2.58,5.54-3.14.28-.09.48-.13.67-.13.38,0,.62.16.76.29l.22.22v3.24l-.21.22c-.07.07-.11.12-1.13.62.19-.03.4-.06.5-.06h.75v3.69c0,.35,0,.5-1.3,1.11.17.01.3.05.34.06l.54.16v1.42l-.04.12c-.35,1.03-2.17,4.17-5.72,5.09-.9.23-1.72.46-2.48.67-2.26.62-3.89,1.07-5.27,1.14h-.09s-.09-.01-.09-.01ZM20.91,10.05c.04-.18.09-.24.18-.32.17-.17.41-.26.72-.26.04,0,.08,0,.12,0-.31-.13-.66-.31-1.02-.51v1.08ZM22.8,9.83c.07.04.17.11.23.14.1,0,.16-.04.16-.04.04-.02.23-.15.55-.36-.3.11-.61.17-.88.17-.07,0-.16-.01-.26-.03.06.04.13.08.19.12ZM18.88,7.78c.15.1.41.26.73.43-.2-.12-.4-.25-.59-.37-.05-.03-.1-.05-.14-.06Z"/>
        <path class="cls-1" d="M21.09,2.48c.17,0,.34.03.42.12.21.21,3.03,4.62,3.02,5.24,0,.63-1.05,1.15-1.67,1.15-.62,0-3.43-1.78-3.43-1.78-.24-.12-.51-.24-.76-.24-.18,0-.35.06-.49.24-.33.42-.14.85-.01,1s1.08.69,1.99,1.1v5.56c0,.48.37.71.73.71s.73-.24.73-.71c0-.88-.05-4.57,0-4.61.02-.02.1-.04.19-.04s.18.01.23.04c.3.14.68.47.92.47.42,0,.64-.16.64-.16,0,0,4.98-3.3,7.06-4.14.16-.05.29-.08.39-.08s.18.03.23.08v2.62c-.09.09-5.75,2.83-7.31,3.58-.61.48-.25,1.35.43,1.35.13,0,.28-.03.43-.11h0s4.9-2.6,5.74-2.88c.12-.04.52-.1.62-.1v2.94c0,.1-6.15,2.7-6.15,2.7l-1.05.49c-.7.31-.3,1.22.2,1.22.04,0,.08,0,.13-.02.55-.18,4.07-1.57,6.04-2.52.05-.03.12-.03.18-.03.12,0,.24.03.24.03v.73c-.17.5-1.72,3.7-5.2,4.61-3.49.91-5.85,1.69-7.6,1.78-.52-.1-.62-.42-.94-.94-.29-.48-4.22-7.27-4.39-7.7-.21-.52-.31-.84,0-1.15.31-.31,2.31-1.52,2.41-1.63s.1-5.56.1-5.56c0-.52,5.3-3.25,5.3-3.25.12-.06.38-.12.62-.12M21.09.98c-.45,0-.95.11-1.29.28-6.13,3.15-6.13,3.72-6.13,4.59,0,1.77-.02,3.73-.05,4.71-.02.01-.04.03-.06.04-1.22.78-1.7,1.1-1.97,1.37-1.02,1.03-.55,2.2-.33,2.76.25.63,4.45,7.85,4.49,7.92l.11.19c.28.49.71,1.24,1.82,1.46l.18.04h.19c1.46-.08,3.12-.54,5.42-1.17.76-.21,1.58-.43,2.48-.67,3.87-1.01,5.86-4.45,6.24-5.58l.08-.24v-1.85c.42-.34.42-.6.42-1.02v-4.07l.09-.09v-.61s0-2.62,0-2.62v-.63s-.45-.44-.45-.44c-.33-.33-.79-.51-1.29-.51-.27,0-.55.05-.87.16h-.04s-.04.03-.04.03c-1.04.42-2.7,1.37-4.17,2.27-.55-1.81-3.21-5.62-3.35-5.76-.26-.26-.72-.56-1.49-.56h0Z"/>
      </g>
    </g>
  </g>
</svg>