<?xml version="1.0" encoding="UTF-8"?>
<svg id="Layer_2" data-name="Layer 2" xmlns="http://www.w3.org/2000/svg" viewBox="0 0 38.56 27.07">
  <defs>
    <style>
      .cls-1 {
        fill: #c0a7cb;
      }

      .cls-1, .cls-2 {
        fill-rule: evenodd;
      }

      .cls-2 {
        fill: #6a3c80;
      }

      .cls-3 {
        fill: #231c27;
      }

      .cls-4 {
        fill: #2c2d2d;
      }
    </style>
  </defs>
  <g id="Layer_1-2" data-name="Layer 1">
    <g>
      <g>
        <polygon class="cls-2" points="4.15 18.9 7.48 12.61 4.21 9.38 .99 12.11 2.14 3.05 10.61 4.36 7.77 7.15 12.44 11.52 10.43 16.32 17.42 19.89 15.99 24.18 4.15 18.9"/>
        <path class="cls-4" d="M2.78,3.91l6.23.96-2.33,2.29,4.86,4.55-2.08,4.96,7.04,3.6-.96,2.89-10.36-4.61,3.22-6.08-4.15-4.1-2.28,1.92.81-6.38M1.49,2.19l-.19,1.53-.81,6.38-.48,3.82,2.94-2.48,1.23-1.04,2.38,2.36-2.69,5.09-.75,1.42,1.47.65,10.36,4.61,1.51.67.52-1.57.96-2.89.41-1.22-1.15-.59-5.8-2.96,1.54-3.68.4-.96-.76-.71-3.72-3.48,1.21-1.19,2.14-2.1-2.96-.46-6.23-.96-1.52-.24h0Z"/>
      </g>
      <g>
        <path class="cls-1" d="M31.95,26.32c-.19,0-.38-.04-.55-.13l-6.84-3.28-6.84,3.28c-.18.08-.36.13-.55.13-.37,0-.72-.16-.96-.44-.24-.28-.36-.65-.31-1.02l.98-7.59-5.21-5.56c-.32-.34-.43-.84-.28-1.29.15-.45.52-.78.98-.87l7.45-1.41,3.63-6.72c.23-.42.66-.67,1.13-.67s.9.26,1.13.67l3.63,6.72,7.45,1.41c.46.09.84.42.98.87.15.45.04.94-.29,1.29l-5.21,5.56.98,7.59c.05.37-.07.74-.31,1.02-.25.28-.6.44-.96.44ZM29.44,21.65l-.52-1.83-.92.59c-.06.04-.12.07-.18.09l1.62,1.15ZM19.69,21.65l1.46-1.04-.77-.6c-.07-.06-.13-.12-.19-.19l-.51,1.84ZM21.26,16.23c.22,0,.43.07.61.19l2.86,1.96c.06-.22.19-.41.38-.56l2.68-2.09c-.22-.14-.4-.35-.47-.62l-1-3.45c-.18.14-.4.22-.62.22l-3.52.09c.05.17.05.35,0,.52l-1,3.74s.05,0,.08,0ZM30.78,13.39l1.73-1.41h-2s.27,1.4.27,1.41ZM17.98,13.17l.31-.94c.02-.07.05-.13.08-.19l-1.76.04,1.37,1.09ZM24.88,7.94c.07,0,.15,0,.22.02l-.55-1.51-.54,1.49h.87Z"/>
        <path class="cls-3" d="M24.55,1.5c.18,0,.37.09.47.28l3.68,6.81c.08.14.21.24.37.27l7.55,1.43c.42.08.58.59.29.9l-5.28,5.63c-.11.12-.16.28-.14.44l.99,7.69c.04.34-.22.61-.53.61-.08,0-.15-.02-.23-.05l-6.94-3.33c-.07-.03-.15-.05-.23-.05s-.16.02-.23.05l-6.94,3.33c-.08.04-.15.05-.23.05-.31,0-.57-.27-.53-.61l.99-7.69c.02-.16-.03-.32-.14-.44l-5.28-5.63c-.29-.31-.13-.82.29-.9l7.55-1.43c.16-.03.29-.13.37-.27l3.68-6.81c.1-.19.29-.28.47-.28M22.94,8.69h1.95c.13,0,.25.08.3.2l.78,1.78c.09.21-.06.46-.29.46l-4.28.11s0,0,0,0c-.01,0-.03,0-.04,0l-5.33.11c-.5.01-.71.65-.32.96l2.66,2.11.65-1.95c.03-.08.09-.13.17-.15l2.05-.3s.02,0,.03,0c.14,0,.24.13.21.27l-1.23,4.63s-.01.03-.02.05l-1.4,5.05c-.1.37.19.69.52.69.1,0,.21-.03.31-.1l2.77-1.98-1.55-1.22c-.09-.07-.14-.18-.12-.3l.21-1.84c.02-.18.17-.29.33-.29.06,0,.13.02.18.06l3.21,2.2c.07.01.14.04.2.09l4.65,3.29c.1.07.2.1.31.1.33,0,.62-.32.52-.69l-.95-3.38-1.77,1.14c-.05.03-.11.05-.18.05-.05,0-.1-.01-.14-.03l-1.66-.83c-.22-.11-.25-.41-.06-.56l3.89-3.03s.1-.06.15-.07l3.84-3.13c.39-.32.17-.96-.34-.96h-3.51l.44,2.26c.02.11-.02.23-.1.31l-1.37,1.26c-.06.06-.14.09-.22.09-.14,0-.27-.09-.32-.24l-1.38-4.76s-.02-.09-.01-.13l-1.59-4.37c-.09-.24-.29-.35-.5-.35s-.42.12-.5.35l-1.11,3.05M24.55,0c-.75,0-1.43.41-1.79,1.07l-3.46,6.4-7.1,1.34c-.73.14-1.33.66-1.56,1.37-.23.71-.06,1.49.45,2.03l4.97,5.31-.93,7.24c-.07.58.1,1.17.49,1.61.39.44.94.69,1.53.69.31,0,.6-.07.88-.2l6.52-3.12,6.52,3.12c.28.13.57.2.88.2.58,0,1.14-.25,1.53-.69.39-.44.57-1.03.49-1.61l-.93-7.24,4.97-5.31c.51-.54.68-1.32.45-2.03-.23-.71-.83-1.23-1.56-1.37l-7.1-1.34-3.46-6.4c-.36-.66-1.04-1.07-1.79-1.07h0ZM22.9,12.7l2.81-.07s.07,0,.11,0l.78,2.69c.03.11.07.21.12.3l-2.07,1.61s-.08.06-.12.1l-2.23-1.53c-.06-.04-.12-.08-.19-.11l.79-2.99h0Z"/>
      </g>
    </g>
  </g>
</svg>