<?xml version="1.0" encoding="UTF-8"?>
<svg id="Layer_2" data-name="Layer 2" xmlns="http://www.w3.org/2000/svg" viewBox="0 0 77.47 93.55">
  <defs>
    <style>
      .cls-1 {
        fill: #efdfbf;
      }

      .cls-2, .cls-3 {
        fill: #212020;
      }

      .cls-3 {
        stroke: #212020;
        stroke-linecap: round;
        stroke-miterlimit: 10;
        stroke-width: 5px;
      }
    </style>
  </defs>
  <g id="Layer_1-2" data-name="Layer 1">
    <g>
      <g>
        <path class="cls-1" d="M15.45,90.55c-1.51,0-2.79-1.12-2.98-2.62l-6.24-49.41h-.24c-1.66,0-3-1.34-3-3v-15.63c0-1.66,1.34-3,3-3h7.33c1.42-7.88,8.33-13.88,16.62-13.88h17.58c8.28,0,15.19,6,16.61,13.88h7.33c1.66,0,3,1.34,3,3v15.63c0,1.66-1.34,3-3,3h-.24l-6.24,49.41c-.19,1.5-1.46,2.62-2.98,2.62H15.45Z"/>
        <path class="cls-2" d="M47.53,6c7.65,0,13.88,6.23,13.88,13.88h10.06v15.63h-2.88l-6.57,52.04H15.45l-6.57-52.04h-2.88v-15.63h10.06c0-7.65,6.23-13.88,13.88-13.88h17.58M25.06,19.88h27.35c0-2.69-2.19-4.88-4.88-4.88h-17.58c-2.69,0-4.88,2.19-4.88,4.88M47.53,0h-17.58C21.07,0,13.54,5.84,10.99,13.88h-4.99c-3.31,0-6,2.69-6,6v15.63c0,2.43,1.45,4.53,3.53,5.47l5.97,47.32c.38,3,2.93,5.25,5.95,5.25h46.57c3.02,0,5.57-2.25,5.95-5.25l5.97-47.32c2.08-.94,3.53-3.04,3.53-5.47v-15.63c0-3.31-2.69-6-6-6h-4.99C63.93,5.84,56.4,0,47.53,0h0Z"/>
      </g>
      <line class="cls-3" x1="38.74" y1="35.51" x2="38.74" y2="77.32"/>
      <line class="cls-3" x1="57.08" y1="35.51" x2="52.28" y2="77.32"/>
      <line class="cls-3" x1="20.39" y1="35.49" x2="25.19" y2="77.31"/>
    </g>
  </g>
</svg>