<?xml version="1.0" encoding="UTF-8"?>
<svg id="Layer_2" data-name="Layer 2" xmlns="http://www.w3.org/2000/svg" viewBox="0 0 32.24 24.7">
  <defs>
    <style>
      .cls-1 {
        fill: #242423;
      }

      .cls-2 {
        fill: #df982d;
      }

      .cls-3 {
        fill: #825717;
        fill-rule: evenodd;
      }

      .cls-4 {
        fill: #2c2d2d;
      }
    </style>
  </defs>
  <g id="Layer_1-2" data-name="Layer 1">
    <g>
      <g>
        <polygon class="cls-3" points="4.15 16.71 7.48 10.42 4.21 7.19 .99 9.91 2.14 .86 10.61 2.17 7.77 4.95 12.44 9.32 10.43 14.13 17.42 17.7 15.99 21.98 4.15 16.71"/>
        <path class="cls-4" d="M2.78,1.72l6.23.96-2.33,2.29,4.86,4.55-2.08,4.96,7.04,3.6-.96,2.89-10.36-4.61,3.22-6.08-4.15-4.1-2.28,1.92.81-6.38M1.49,0l-.19,1.53L.48,7.91l-.48,3.82,2.94-2.48,1.23-1.04,2.38,2.36-2.69,5.09-.75,1.42,1.47.65,10.36,4.61,1.51.67.52-1.57.96-2.89.41-1.22-1.15-.59-5.8-2.96,1.54-3.68.4-.96-.76-.71-3.72-3.48,1.21-1.19,2.14-2.1-2.96-.46L3.01.24l-1.52-.24h0Z"/>
      </g>
      <g>
        <g>
          <path class="cls-2" d="M9.79,23.95c-1.01,0-1.23-.69-1.28-.99-.1-.64.22-1.1.96-1.37l2.94-1.07c.89-.32,1.78-.65,2.67-.98-.08-.1-.16-.2-.24-.3-.52-.65-.4-1.23-.21-1.59.17-.33.53-.73,1.27-.73h.17s2.35.13,2.35.13c-.59-1.2-1.44-2.78-2.21-4.22-1.75-3.25-2.2-4.13-2.23-4.6-.02-.31.08-.59.28-.8.22-.24.54-.36.95-.36.94,0,2.54.64,4.39,1.39,1.24.5,2.75,1.1,3.54,1.25,0-.1-.03-.76-.03-.76-.02-.57.24-1.04.71-1.29.22-.11.44-.17.67-.17.3,0,.59.1.84.28.18.13.36.27.54.41.16.12.32.25.48.37.14.11.24.13.28.13,0,0,.07-.07.12-.21.39-1.01.77-2.03,1.15-3.04.36-.96.72-1.93,1.08-2.89l.04-.12c.08-.26.31-1.07,1.19-1.07.08,0,.18,0,.28.03.47.09,1.03.42.96,1.46v.13c0,2.65.01,5.31.01,7.96l.02,10.79c0,.58-.06,1.23-.53,1.68-.46.45-1.12.51-1.7.51l-19.47.03Z"/>
          <path class="cls-1" d="M30.21,2.11s.08,0,.13.01c.48.09.35.53.35.86.01,3.13.02,6.26.02,9.4,0,3.12.01,6.23.02,9.35,0,1.13-.32,1.44-1.48,1.44-6.4.01-12.8.02-19.2.03-.06,0-.13,0-.19,0-.03,0-.05,0-.08,0-.25,0-.49-.03-.54-.36-.06-.35.21-.45.47-.55.61-.22,1.22-.44,1.84-.66,1.48-.54,2.96-1.07,4.43-1.62.17-.06.3-.09.39-.09,0,0,0,0,.01,0,.07.05.12.07.14.07.05,0,.01-.06-.14-.07-.07-.05-.15-.13-.25-.26-.23-.3-.48-.59-.72-.88-.18-.23-.29-.48-.14-.78.14-.27.36-.33.61-.33.04,0,.08,0,.12,0,1.2.07,2.4.13,3.6.2.25.6.33.97.16.97,0,0,0,0,0,0-.12.93.03,1.26.32,1.26.72,0,2.23-2.08,2.14-2.09-.87-.05-1.74-.1-2.62-.14-1.02-2.49-4.84-8.97-4.88-9.68-.02-.25.16-.36.48-.36,1.58,0,6.64,2.67,8.22,2.67.32,0,.49-.11.48-.36-.02-.41-.03-.81-.05-1.22-.01-.25.07-.47.31-.59.11-.06.22-.08.32-.08.14,0,.27.05.4.14.35.25.68.53,1.02.78.25.19.5.28.72.28.35,0,.65-.24.83-.7.75-1.97,1.48-3.96,2.23-5.93.11-.28.13-.71.53-.71M30.21.61h0c-.54,0-1.5.21-1.91,1.61l-.02.08c-.36.96-.72,1.92-1.08,2.89-.3.8-.6,1.6-.9,2.4-.17-.13-.35-.27-.52-.4-.38-.28-.82-.43-1.28-.43-.35,0-.69.08-1.01.25-.67.34-1.07.98-1.12,1.73-.78-.27-1.78-.67-2.48-.95-2.23-.9-3.66-1.44-4.67-1.44-.78,0-1.24.32-1.5.59-.34.36-.51.84-.48,1.36.04.6.34,1.25,2.31,4.91.54,1.01,1.12,2.08,1.62,3.04l-1.06-.06c-.07,0-.13,0-.2,0-1.18,0-1.72.71-1.94,1.13-.16.3-.43,1.02-.04,1.86-.56.21-1.13.41-1.69.62l-1.18.43-.91.33-.92.33c-1.53.55-1.51,1.72-1.44,2.19.12.78.72,1.62,2.02,1.62h.1s.17,0,.17,0l19.2-.03c1.98,0,2.98-.99,2.98-2.94v-6.12s-.02-3.23-.02-3.23v-1.47c0-2.64,0-5.28-.02-7.93v-.08c.11-1.77-1.17-2.16-1.56-2.24-.14-.03-.29-.04-.42-.04h0Z"/>
        </g>
        <g>
          <path class="cls-2" d="M13.79,15.45c-.13,0-.26-.01-.4-.04-1.17-.21-2.34-.4-3.51-.6-.76-.12-1.43-.48-2.05-1.07-.93-.72-1.21-1.78-1.47-2.72-.05-.18-.09-.35-.15-.53-.33-1.11.13-1.72.58-2.04.28-.19.58-.29.9-.29.35,0,.71.12,1.08.36,1.28.83,2.55,1.68,3.83,2.52l1.97,1.3c1.05.69.93,1.55.76,2-.26.7-.83,1.1-1.55,1.1Z"/>
          <path class="cls-1" d="M7.69,8.91c.23,0,.46.1.67.24,1.94,1.26,3.86,2.54,5.8,3.81.4.26.66.59.47,1.11-.16.43-.46.61-.85.61-.09,0-.18,0-.27-.03-1.17-.21-2.35-.4-3.52-.6-.64-.1-1.17-.4-1.68-.9,0,0,0,0,0,0h0s0,0,0,0c-.91-.68-1.07-1.83-1.38-2.89-.13-.45-.15-.9.29-1.21.16-.11.31-.16.47-.16M7.69,7.41c-.47,0-.93.15-1.33.43-.43.3-1.37,1.18-.86,2.87.05.17.1.34.14.51.27.99.6,2.22,1.7,3.09.72.69,1.51,1.09,2.42,1.24,1.17.19,2.34.39,3.5.6.18.03.36.05.54.05,1.04,0,1.88-.59,2.25-1.59.15-.42.53-1.85-1.05-2.89l-1.93-1.27c-1.29-.85-2.58-1.7-3.87-2.55-.5-.33-.99-.49-1.49-.49h0Z"/>
        </g>
      </g>
    </g>
  </g>
</svg>