<svg width="1086" height="1000" viewBox="0 0 1086 1000" fill="none" xmlns="http://www.w3.org/2000/svg">
<path d="M589.825 238.249C642.211 187.367 663.595 146.167 654.305 26.4766C620.329 9.05102 547.017 3.69803 460.232 0.558924C460.232 0.558924 589.825 37.8566 589.825 56.189C589.825 74.5214 482.358 97.9114 414.717 97.9114C347.076 97.9114 241.506 63.7747 241.506 42.2815C241.506 20.7883 377.42 0.558924 377.42 0.558924C359.557 0.758559 342.046 0.527753 325.154 0.305116C269.002 -0.434979 219.7 -1.08479 187.14 14.4678V144.69C187.14 242.676 287.653 274.284 524.712 242.676C473.792 291.548 388.798 300.834 245.299 277.444C288.9 429.369 290.182 573.293 280.067 688.979C82.3983 756.759 54.1071 820.958 2.13899 938.885C1.43056 940.493 0.717723 942.11 0 943.738H489.922C489.922 943.738 412.188 891.271 412.188 797.078C412.188 702.885 573.389 554.328 573.389 554.328L589.825 238.249Z" fill="black"/>
<path d="M1019.69 196.527C960.901 169.344 879.985 277.444 879.985 277.444C879.985 277.444 940.04 238.249 962.798 238.249C985.556 238.249 979.866 269.857 975.441 288.19C971.016 306.523 855.963 451.287 823.091 477.205C806.276 490.464 753.068 515.963 698.331 542.195L698.33 542.196C646.063 567.244 592.402 592.961 567.699 609.326C517.127 642.831 448.221 737.655 448.221 797.078C448.221 856.501 495.633 932.359 561.378 932.359C627.122 932.359 654.305 879.89 658.73 835.007C663.155 790.123 627.122 749.665 602.468 751.562C577.814 753.458 562.01 779.377 567.699 807.192C570.426 820.523 581.285 827.465 590.532 833.376C600.578 839.799 608.722 845.005 602.468 855.868C590.457 876.729 554.424 855.868 544.309 835.007C534.195 814.145 524.712 762.309 554.424 719.322C573.485 691.743 683.875 626.957 778.591 571.37C831.509 540.313 879.535 512.127 904.007 494.906C972.28 446.862 1148.02 273.018 1062.68 166.183C1080.85 274.284 1020.96 353.934 950.787 404.507C950.787 404.507 1078.48 223.71 1019.69 196.527Z" fill="black"/>
<path d="M894.525 649.152C874.646 691.877 820.371 725.411 772.615 754.918C718.62 788.279 672.958 816.491 694.763 847.018C735.853 904.544 904.007 751.562 894.525 649.152Z" fill="black"/>
<path d="M737.338 634.021C788.792 609.293 855.036 577.456 917.915 520.192C875.56 664.956 680.855 809.72 649.248 729.436C631.675 684.802 672.915 664.982 737.338 634.021Z" fill="black"/>
<path d="M28.881 973.449C24.4627 973.449 20.881 977.031 20.881 981.449V992C20.881 996.418 24.4627 1000 28.881 1000H567.916C572.334 1000 575.916 996.418 575.916 992V981.449C575.916 977.031 572.334 973.449 567.916 973.449H28.881Z" fill="black"/>
</svg>
