<svg width="1004" height="1000" viewBox="0 0 1004 1000" fill="none" xmlns="http://www.w3.org/2000/svg">
<path d="M483.42 430.61H522.33V483.787H574.211V522.698H522.33V574.578H483.42V522.698H430.242V483.787H483.42V430.61Z" fill="black"/>
<path fill-rule="evenodd" clip-rule="evenodd" d="M483.42 0H522.33V61.4721C749.374 72.3689 931.348 255.726 940.874 483.787H1003.52V522.698H940.819C930.618 751.024 747.555 934.231 519.736 943.832V1000H480.826V943.776C253.61 933.536 71.2207 750.591 61.0408 522.698H0.929688V483.787H60.9851C70.5658 254.425 254.567 70.2783 483.42 61.3024V0ZM519.736 914.525V780.804H480.826V914.465C269.736 904.271 100.4 734.417 90.2655 522.698H220.126V483.787H90.206C99.7474 270.598 270.693 99.5448 483.42 90.6063V219.196H522.33V90.788C733.248 101.635 902.17 271.9 911.653 483.787H784.328V522.698H911.594C901.439 734.85 731.429 904.967 519.736 914.525Z" fill="black"/>
</svg>
