<svg width="1063" height="1000" viewBox="0 0 1063 1000" fill="none" xmlns="http://www.w3.org/2000/svg">
<path d="M909.293 342.484L635.038 46.3546C577.798 -15.4515 484.599 -15.4515 427.356 46.3546L153.74 342.484H400.074L556.85 105.882C566.39 91.618 573.728 94.7883 573.728 111.428V298.039H670.825C683.458 298.039 700.237 305.013 700.237 317.647C700.237 327.278 686.098 339.11 677.673 342.484H909.293Z" fill="black"/>
<path d="M661.297 657.516H910.031L635.771 953.646C578.533 1015.45 485.332 1015.45 428.091 953.646L153.837 657.516H378.668C371.239 661.511 361.675 669.67 361.675 679.085C361.675 692.441 371.918 703.268 384.551 703.268H481.285V891.843C481.285 908.476 488.623 911.648 498.164 897.382L661.297 657.516Z" fill="black"/>
<path d="M1062.33 500.653C1062.33 500.653 1040.87 428.758 931.464 428.758H697.623V572.549H931.464C1040.87 572.549 1062.33 500.653 1062.33 500.653Z" fill="black"/>
<path d="M0.890625 493.464C0.890625 481.552 10.5465 471.895 22.4593 471.895H639.453C651.365 471.895 661.021 481.552 661.021 493.464C661.021 505.376 651.365 515.033 639.453 515.033H22.4593C10.5465 515.033 0.890625 505.376 0.890625 493.464Z" fill="black"/>
</svg>
