<svg width="997" height="1001" viewBox="0 0 997 1001" fill="none" xmlns="http://www.w3.org/2000/svg">
<path d="M500.951 662.721C411.902 662.721 339.713 590.533 339.713 501.483C339.713 464.666 352.053 430.731 372.823 403.588C372.823 403.588 90.8217 72.7942 83.7827 63.8363C76.7437 54.8785 60.7536 19.0537 74.1901 5.61604C87.6266 -7.82159 140.094 5.09358 165.68 26.0872C179.223 37.199 210.157 85.4834 237.701 128.477C262.196 166.711 284.01 200.762 288.528 200.762C292.138 200.762 304.798 192.707 319.632 183.27C344.241 167.613 374.835 148.148 380.025 155.334C385.094 162.352 357.132 186.481 334.516 205.995C320.022 218.502 307.723 229.115 307.723 232.114C307.723 239.792 402.417 373.846 402.417 373.846L458.083 447.737L455.523 346.733C469.932 342.51 485.177 340.245 500.951 340.245C590.001 340.245 662.189 412.434 662.189 501.483L760.084 520.678L660.066 527.716H605.244L646.058 571.865C619.923 625.648 564.767 662.721 500.951 662.721Z" fill="black"/>
<path d="M207.457 304.811C216.78 309.857 220.247 321.506 215.201 330.829C151.875 447.832 151.449 597.009 251.449 719.638C293.26 684.798 325.443 661.072 337.156 669.124C354.31 680.915 301.087 741.873 239.195 812.762C231.213 821.903 223.088 831.21 214.95 840.598C204.198 853.001 193.529 865.67 182.997 878.176C115.726 958.052 54.046 1031.29 12.1237 986.48C-28.1804 943.398 38.6134 891.464 115.343 831.806L115.347 831.803C130.921 819.693 146.905 807.265 162.486 794.529C181.482 779 200.083 763.168 217.681 748.19L217.7 748.174L217.703 748.171L217.729 748.148L222.117 744.414C110.83 608.378 111.433 441.9 181.439 312.556C186.485 303.233 198.133 299.765 207.457 304.811Z" fill="black"/>
<path d="M352.278 797.346C343.233 791.818 331.418 794.669 325.89 803.715C320.362 812.761 323.214 824.575 332.26 830.103C364.759 849.964 406.605 859.3 451.177 863.083C496.017 866.888 545.493 865.206 594.469 861.662C605.043 860.897 612.994 851.705 612.229 841.131C611.464 830.558 602.272 822.607 591.698 823.372C543.42 826.866 496.282 828.383 454.424 824.83C412.298 821.255 377.364 812.676 352.278 797.346Z" fill="black"/>
<path d="M655.852 349.846C639.216 338.329 850.349 49.7653 862.519 47.8458C874.689 45.9263 928.432 91.9953 928.414 106.07C928.409 109.323 902.865 132.896 872.88 160.567L872.879 160.568C829.862 200.266 777.704 248.399 778.702 257.071C779.043 260.036 783.274 265.288 789.692 273.255C815.126 304.827 874.91 379.039 863.16 522.602L996.245 514.924V582.106C996.245 582.106 781.901 555.233 781.901 539.237C781.901 523.241 827.329 520.042 827.329 520.042C839.486 381.838 765.265 287.332 746.71 285.863C738.247 285.193 722.064 300.84 705.385 316.967C685.495 336.198 664.9 356.111 655.852 349.846Z" fill="black"/>
<path d="M774.168 950.01C785.946 930.516 754.666 887.82 730.244 854.486C716.191 835.305 704.409 819.223 704.409 812.446C704.409 807.808 715.883 798.121 732.456 784.13C750.17 769.177 773.707 749.306 795.283 725.429C834.273 682.279 857.987 616.017 833.033 606.42C817.281 600.361 805.186 622.693 789.662 651.357C780.594 668.101 770.355 687.006 757.533 703.674C725.541 745.264 696.618 776.615 685.847 776.615C675.813 776.615 665.14 756.707 653.882 735.708C640.013 709.838 625.257 682.315 609.717 688.318C595.67 693.746 635.153 774.171 672.591 850.433L672.593 850.436C688.055 881.931 703.168 912.716 714.017 937.214C723.717 959.116 768.281 959.756 774.168 950.01Z" fill="black"/>
<path d="M613.57 166.854C613.57 184.876 600.107 199.486 583.498 199.486C566.89 199.486 553.426 184.876 553.426 166.854C553.426 148.832 566.89 134.223 583.498 134.223C600.107 134.223 613.57 148.832 613.57 166.854Z" fill="black"/>
</svg>
