<svg width="1003" height="1001" viewBox="0 0 1003 1001" fill="none" xmlns="http://www.w3.org/2000/svg">
<path d="M743.81 713.016C848.16 609.013 948.575 508.931 982.932 397.895C1046.89 191.179 952.778 0.125 760.891 0.125C662.769 0.125 598.096 41.7043 558.322 82.3392C564.502 86.3098 570.354 90.9847 575.761 96.364L803.939 323.368C845.234 363.924 845.234 431.34 804.471 472.422L576.29 699.426C534.997 740.507 467.761 740.507 426.467 699.426L198.29 472.422C156.995 431.34 156.995 364.45 198.29 323.368L425.937 96.364C431.774 90.5573 438.129 85.5713 444.856 81.4061C401.9 41.0703 334.314 0.125 236.942 0.125C45.0555 0.125 -43.1118 191.179 20.8505 397.895C55.8183 510.904 157.658 611.678 264.455 717.357C353.009 804.984 444.97 895.982 505.042 1000.13C561.054 895.165 653.892 802.635 743.81 713.016Z" fill="black"/>
<path d="M471.467 628.32L655.173 372.877C661.526 363.924 657.821 356.55 646.703 356.023H542.937V170.101C542.937 159.04 537.644 156.933 530.762 166.414L347.055 421.86C340.173 431.34 343.878 438.714 355.526 438.714H459.29V624.639C459.29 635.694 464.584 637.802 471.467 628.32Z" fill="black"/>
</svg>
