<svg width="1030" height="1001" viewBox="0 0 1030 1001" fill="none" xmlns="http://www.w3.org/2000/svg">
<path d="M484.029 997.751C484.029 997.751 363.228 981.463 344.904 963.139C326.58 944.816 334.046 819.943 334.046 819.943C334.046 819.943 316.401 853.875 295.362 853.875C274.324 853.875 259.393 834.194 259.393 811.12C259.393 788.046 330.652 729.681 511.175 729.681C691.698 729.681 785.353 792.796 785.353 819.943C785.353 847.089 772.458 853.875 756.17 853.875C739.883 853.875 714.094 811.12 714.094 811.12C714.094 811.12 714.094 933.278 705.95 955.674C697.806 978.07 575.648 997.751 575.648 997.751C760.242 997.751 974.019 964.497 1018.81 858.626V557.302C1018.81 557.302 986.235 722.216 912.261 722.216C838.288 722.216 846.432 604.13 846.432 604.13C846.432 604.13 804.355 683.533 774.494 683.533C744.633 683.533 691.698 667.923 691.698 667.923C691.698 667.923 973.341 773.115 973.341 828.087C973.341 883.058 785.353 947.53 785.353 947.53C785.353 947.53 767.708 947.53 756.17 931.242C744.633 914.955 750.741 893.916 750.741 893.916C750.741 893.916 814.535 858.626 814.535 819.943C814.535 781.259 729.703 710 511.175 710C292.648 710 215.959 775.151 215.959 811.12C215.959 847.089 287.218 893.916 287.218 893.916C287.218 893.916 300.113 910.204 295.362 926.492C290.612 942.78 269.573 947.53 269.573 947.53C269.573 947.53 73.4414 907.489 68.6908 834.194C63.9402 760.9 365.943 667.923 365.943 667.923C365.943 667.923 266.859 682.175 251.928 676.746C236.998 671.317 207.815 604.13 207.815 604.13C207.815 604.13 188.134 716.787 118.233 716.787C48.3311 716.787 11.6836 557.302 11.6836 557.302V858.626C129.77 989.607 297.398 1007.93 484.029 997.751Z" fill="black"/>
<path d="M385.02 880.125C398.644 873.33 458.24 888.487 517.962 888.487C577.684 888.487 629.941 870.163 647.586 872.878C665.23 875.592 663.194 912.501 652.336 918.348C641.477 924.195 584.47 933.957 523.391 933.957C462.312 933.957 382.058 933.238 374.765 918.348C367.472 903.458 371.395 886.92 385.02 880.125Z" fill="black"/>
<path d="M540.357 636.705V433.787L638.084 383.566L540.357 636.705Z" fill="black"/>
<path d="M494.209 636.705V433.787L396.482 383.566L494.209 636.705Z" fill="black"/>
<path d="M396.482 322.487L511.175 0.125L638.084 310.95L511.175 399.175L396.482 322.487Z" fill="black"/>
<path d="M225.137 144.078L248.078 211.072L300.485 233.212L251.12 261.493L236.4 330.759L213.46 263.765L161.052 241.624L210.418 213.344L225.137 144.078Z" fill="black"/>
<path d="M822.564 227.639L797.001 293.676L743.761 313.733L791.973 343.938L803.95 413.73L829.514 347.693L882.754 327.636L834.541 297.431L822.564 227.639Z" fill="black"/>
<path d="M727.987 434.694L708.628 487L668.058 503.219L704.901 526.704L714.187 581.699L733.546 529.393L774.116 513.174L737.273 489.689L727.987 434.694Z" fill="black"/>
<path d="M310.389 434.633L300.596 489.54L263.539 512.685L303.957 529.277L322.833 581.759L332.626 526.852L369.683 503.707L329.265 487.115L310.389 434.633Z" fill="black"/>
<path d="M27.3645 441.621L21.6488 473.669L0.0195312 487.178L23.6106 496.862L34.628 527.494L40.3437 495.447L61.973 481.938L38.3819 472.253L27.3645 441.621Z" fill="black"/>
<path d="M1003.88 341.24L1009.26 371.389L1029.61 384.098L1007.41 393.209L997.049 422.026L991.672 391.877L971.324 379.168L993.517 370.057L1003.88 341.24Z" fill="black"/>
</svg>
