<svg width="990" height="1001" viewBox="0 0 990 1001" fill="none" xmlns="http://www.w3.org/2000/svg">
<path fill-rule="evenodd" clip-rule="evenodd" d="M362.802 1000.12C367.345 842.435 311.537 754.83 94.1455 889.807C215.495 719.139 194.73 644.512 0.0507812 589.353C146.06 517.971 169.421 416.738 94.1455 303.175C323.866 285.005 268.707 164.304 146.06 0.125C348.526 204.538 466.631 254.505 576.3 12.4547C611.342 190.261 663.481 270.748 796.936 135.102C791.744 352.494 830.68 419.982 989.019 424.525C837.169 547.172 857.935 642.565 981.232 762.617C827.436 701.618 791.096 756.128 802.127 915.764C652.318 828.863 512.705 857.361 362.802 1000.12ZM239.514 457.617C239.544 443.812 366.694 231.794 382.268 231.793C397.853 231.791 457.554 271.377 457.554 286.302C457.554 301.228 330.374 514.081 314.131 514.079C297.897 514.078 239.484 471.422 239.514 457.617ZM371.307 518.317C371.409 502.69 511.912 249.965 530.224 249.964C548.546 249.963 608.025 287.364 607.954 304.255C607.873 321.147 469.255 573.813 451.694 575.313C434.142 576.814 371.196 533.943 371.307 518.317ZM500.059 583.488C500.049 568.06 636.172 320.555 652.933 319.254C669.693 317.954 734.059 357.208 734.11 373.885C734.15 390.562 597.997 639.004 580.526 640.356C563.046 641.709 500.069 598.916 500.059 583.488ZM622.108 655.857C620.963 642.372 733.116 436.046 749.065 436.14C765.015 436.233 829.502 475.263 830.78 489.842C832.047 504.421 719.935 711.563 703.306 711.463C686.677 711.363 623.244 669.342 622.108 655.857ZM225.876 528.355C240.345 528.195 454.654 616.525 454.958 630.235C455.253 643.946 424.033 729.979 406.928 730.171C389.822 730.363 177.744 639.976 176.568 623.098C175.382 606.222 211.407 528.516 225.876 528.355Z" fill="black"/>
</svg>
