<svg width="912" height="1001" viewBox="0 0 912 1001" fill="none" xmlns="http://www.w3.org/2000/svg">
<path fill-rule="evenodd" clip-rule="evenodd" d="M362.682 555.869C364.377 558.129 366.532 561.265 369.092 564.99C384.912 588.006 416.177 633.494 449.588 633.494C480.996 633.494 512.408 591.021 529.393 568.054C533.401 562.635 536.605 558.302 538.817 555.869C542.316 552.021 549.985 546.166 558.989 539.294L558.99 539.293C579.811 523.4 607.763 502.063 607.763 487.503C607.763 466.646 600.231 451.003 593.278 448.094C590.207 446.81 585.214 450.391 579.846 454.241C573.064 459.106 565.685 464.398 560.834 460.841V390.157C560.834 390.157 569.518 290.493 449.588 290.505C329.657 290.516 337.769 390.157 337.769 390.157V460.841C333.486 462.982 327.427 458.503 321.638 454.224C316.464 450.399 311.505 446.733 308.22 448.094C301.261 450.98 293.735 466.066 296.054 487.503C297.527 501.126 319.124 518.494 337.794 533.508C348.502 542.119 358.247 549.956 362.682 555.869ZM440.907 490.979C440.907 503.726 428.16 512.996 402.668 512.996C389.241 512.996 369.931 499.67 361.529 483.447C356.128 473.021 359.208 456.796 366.161 456.796C369.154 456.796 374.081 459.803 379.693 463.227C387.116 467.757 395.739 473.019 402.668 473.019C414.835 473.019 440.907 478.233 440.907 490.979ZM502.893 512.996C477.4 512.996 464.654 503.726 464.654 490.979C464.654 478.233 490.726 473.019 502.893 473.019C509.822 473.019 518.444 467.757 525.868 463.227C531.48 459.803 536.407 456.796 539.4 456.796C546.353 456.796 549.433 473.021 544.032 483.447C535.63 499.67 516.32 512.996 502.893 512.996ZM438.006 438.836C438.006 446.835 431.521 453.32 423.522 453.32C415.523 453.32 409.038 446.835 409.038 438.836C409.038 430.836 415.523 424.351 423.522 424.351C431.521 424.351 438.006 430.836 438.006 438.836ZM479.142 453.32C471.142 453.32 464.658 446.835 464.658 438.836C464.658 430.836 471.142 424.351 479.142 424.351C487.141 424.351 493.626 430.836 493.626 438.836C493.626 446.835 487.141 453.32 479.142 453.32ZM438.006 386.692C438.006 394.692 431.521 401.176 423.522 401.176C415.523 401.176 409.038 394.692 409.038 386.692C409.038 378.693 415.523 372.208 423.522 372.208C431.521 372.208 438.006 378.693 438.006 386.692ZM479.142 401.176C471.142 401.176 464.658 394.692 464.658 386.692C464.658 378.693 471.142 372.208 479.142 372.208C487.141 372.208 493.626 378.693 493.626 386.692C493.626 394.692 487.141 401.176 479.142 401.176ZM438.006 334.548C438.006 342.548 431.521 349.033 423.522 349.033C415.523 349.033 409.038 342.548 409.038 334.548C409.038 326.549 415.523 320.064 423.522 320.064C431.521 320.064 438.006 326.549 438.006 334.548ZM479.142 349.033C471.142 349.033 464.658 342.548 464.658 334.548C464.658 326.549 471.142 320.064 479.142 320.064C487.141 320.064 493.626 326.549 493.626 334.548C493.626 342.548 487.141 349.033 479.142 349.033Z" fill="black"/>
<path d="M336.037 620.759C356.894 620.764 430.474 682.173 430.474 700.713C430.474 719.252 415.99 726.205 403.244 747.642C389.156 771.335 382.324 803.664 360.95 823.54C342.2 840.974 318.767 844.397 295.48 844.397C257.659 844.397 230.011 828.754 210.313 790.515C195.051 760.89 162.804 743.586 162.804 732.578C162.804 721.57 213.616 700.532 255.504 675.799C296.039 651.866 325.779 620.757 336.037 620.759Z" fill="black"/>
<path d="M546.925 619.022C522.591 619.601 468.13 667.697 468.134 687.971C468.138 708.244 498.274 723.318 513.335 748.226C528.395 773.133 533.024 818.325 572.422 818.325C611.819 818.325 640.214 802.101 663.389 793.99C686.564 785.879 774.629 762.704 772.894 751.702C771.159 740.699 681.34 711.145 645.418 687.971C609.497 664.796 571.259 618.442 546.925 619.022Z" fill="black"/>
<path d="M110.66 735.475C129.78 736.054 220.741 842.08 213.209 851.929C205.678 861.778 104.867 855.994 82.271 864.675C59.6755 873.356 26.6519 906.39 15.6451 906.39C4.63835 906.39 -1.15914 895.382 2.31978 880.328C5.79871 865.273 41.1355 816.008 63.7311 816.008C86.3266 816.008 129.2 841.5 137.312 827.016C145.423 812.532 81.1123 791.089 80.5329 776.61C79.9535 762.132 91.541 734.896 110.66 735.475Z" fill="black"/>
<path d="M104.287 999.09C155.272 999.09 223.638 975.915 263.615 967.224C280.127 963.635 308.106 954.556 336.037 951.581C375.727 947.354 421.116 952.148 427.578 946.367C438.586 936.518 428.736 816.008 433.951 803.262C439.165 790.515 447.856 799.206 447.856 790.515C447.856 781.825 425.84 781.825 417.149 788.777C408.458 795.73 392.236 870.469 372.537 879.739C359.978 885.649 343.568 890.168 299.536 893.644C274.742 895.601 240.656 887.166 194.669 886.691C67.7867 885.383 11.5875 934.2 11.5875 964.327C11.5875 994.455 53.3024 999.09 104.287 999.09Z" fill="black"/>
<path d="M805.909 1000.25C754.923 1000.25 676.134 975.713 636.157 967.022C619.645 963.432 590.507 956.874 562.576 953.899C522.885 949.671 476.917 949.827 470.456 944.046C459.448 934.197 465.821 810.214 465.821 802.682C465.821 795.15 464.662 773.134 473.932 773.134C483.202 773.134 483.202 780.087 485.52 789.936C487.837 799.785 495.944 868.151 515.643 877.421C528.202 883.332 555.044 891.906 599.077 891.906C623.948 891.906 678.327 888.89 724.217 891.906C847.624 900.017 903.243 955.637 903.244 978.232C903.245 1000.83 856.894 1000.25 805.909 1000.25Z" fill="black"/>
<path d="M823.292 867.572C781.577 857.143 618.769 864.096 617.61 847.294C617.04 839.035 669.927 825.846 721.902 809.055C775.659 791.689 828.683 770.84 835.458 770.251C848.783 769.092 856.315 778.932 852.26 794.005C848.205 809.077 750.291 817.746 746.235 827.016C742.18 836.286 754.341 843.831 768.83 844.41C783.319 844.99 825.609 824.712 855.157 824.712C884.705 824.712 905.559 845.556 909.619 860.04C913.679 874.525 910.202 921.467 902.086 920.888C893.97 920.308 865.007 878.001 823.292 867.572Z" fill="black"/>
<path d="M452.491 0.25C461.13 0.25 468.134 7.25365 468.134 15.8931V200.134C468.134 208.773 461.13 215.777 452.491 215.777C443.851 215.777 436.848 208.773 436.848 200.134V15.8931C436.848 7.25365 443.851 0.25 452.491 0.25Z" fill="black"/>
<path d="M0 458.534C0 449.894 7.00365 442.891 15.6431 442.891H199.884C208.523 442.891 215.527 449.894 215.527 458.534C215.527 467.173 208.523 474.177 199.884 474.177H15.6431C7.00365 474.177 0 467.173 0 458.534Z" fill="black"/>
<path d="M139.251 118.295C145.762 112.616 155.644 113.291 161.322 119.802L282.421 258.654C288.1 265.165 287.425 275.047 280.914 280.725C274.403 286.404 264.521 285.729 258.842 279.218L137.744 140.366C132.065 133.855 132.74 123.973 139.251 118.295Z" fill="black"/>
<path d="M137.981 608.761C132.837 601.82 134.293 592.023 141.233 586.879L204.101 540.281C211.042 535.136 220.839 536.592 225.983 543.533C231.128 550.474 229.672 560.271 222.731 565.415L159.864 612.014C152.923 617.158 143.126 615.702 137.981 608.761Z" fill="black"/>
<path d="M144.93 322.447C148.817 314.731 158.223 311.627 165.938 315.514L235.826 350.72C243.542 354.606 246.646 364.012 242.759 371.728C238.872 379.444 229.467 382.548 221.751 378.661L151.863 343.455C144.147 339.568 141.043 330.162 144.93 322.447Z" fill="black"/>
<path d="M312.046 139.756C319.274 135.024 328.97 137.049 333.701 144.277L376.557 209.754C381.288 216.982 379.264 226.678 372.035 231.409C364.806 236.141 355.111 234.116 350.379 226.887L307.524 161.411C302.793 154.182 304.817 144.487 312.046 139.756Z" fill="black"/>
<path d="M905.184 458.534C905.184 449.894 898.18 442.891 889.541 442.891H705.3C696.661 442.891 689.657 449.894 689.657 458.534C689.657 467.173 696.661 474.177 705.3 474.177H889.541C898.18 474.177 905.184 467.173 905.184 458.534Z" fill="black"/>
<path d="M765.933 118.295C759.422 112.616 749.54 113.291 743.861 119.802L622.763 258.654C617.084 265.165 617.759 275.047 624.27 280.725C630.781 286.404 640.663 285.729 646.342 279.218L767.44 140.366C773.119 133.855 772.444 123.973 765.933 118.295Z" fill="black"/>
<path d="M767.203 608.761C772.347 601.82 770.891 592.023 763.95 586.879L701.083 540.281C694.142 535.136 684.345 536.592 679.201 543.533C674.056 550.474 675.512 560.271 682.453 565.415L745.32 612.014C752.261 617.158 762.058 615.702 767.203 608.761Z" fill="black"/>
<path d="M760.254 322.447C756.367 314.731 746.961 311.627 739.245 315.514L669.358 350.72C661.642 354.606 658.538 364.012 662.425 371.728C666.312 379.444 675.717 382.548 683.433 378.661L753.321 343.455C761.037 339.568 764.141 330.162 760.254 322.447Z" fill="black"/>
<path d="M593.138 139.756C585.91 135.024 576.214 137.049 571.483 144.277L528.627 209.754C523.896 216.982 525.92 226.678 533.149 231.409C540.378 236.141 550.073 234.116 554.804 226.887L597.66 161.411C602.391 154.182 600.367 144.487 593.138 139.756Z" fill="black"/>
</svg>
