<svg width="858" height="853" viewBox="0 0 858 853" fill="none" xmlns="http://www.w3.org/2000/svg">
<path fill-rule="evenodd" clip-rule="evenodd" d="M1.89014 852.653V705.153C1.89014 705.153 39.3984 634.652 62.8901 603.653C86.3818 572.655 132.895 530.152 132.895 515.653C132.895 501.155 52.4016 484.653 55.3984 469.152C58.3953 453.652 231.893 531.65 241.389 521.152C250.886 510.653 -4.60724 388.651 0.392763 370.152C5.39276 351.654 205.398 477.654 219.398 478.652C233.398 479.651 241.389 474.152 241.389 456.652C241.389 439.152 136.898 350.152 116.398 335.652C95.8984 321.152 0.390139 266.153 0.390139 266.153V134.653C0.390139 134.653 67.3984 246.57 105.898 280.152C127 298.558 181.23 353.855 233.898 394.652C277.326 428.292 321.49 450.152 329.398 450.152C346.898 450.152 353.89 436.153 349.395 414.652C344.9 393.151 231.247 158.535 136.89 1.15344H235.89C235.89 1.15344 284.895 177.654 299.395 176.652C313.895 175.65 268.89 1.15344 283.89 1.15344C298.89 1.15344 329.395 213.153 334.395 233.153C339.395 253.153 371.395 388.652 389.395 388.652C407.395 388.652 472.39 174.65 483.89 151.652C495.39 128.653 553.89 3.6546 562.89 1.15265C571.89 -1.34931 583.395 1.15165 583.395 11.1517C583.395 21.1517 491.89 198.653 476.39 239.153C460.89 279.653 419.39 400.653 431.89 407.653C444.39 414.653 487.885 324.155 492.89 322.653C497.895 321.152 575.39 331.653 590.89 312.653C606.39 293.653 585.89 260.653 579.39 247.653C572.89 234.653 562.39 227.653 562.89 210.653C563.39 193.653 582.895 187.652 593.895 191.652C604.895 195.652 604.89 233.153 627.89 233.153C650.89 233.153 667.39 223.153 667.39 203.653C667.39 184.153 644.39 175.653 645.89 165.653C647.39 155.653 669.89 164.153 672.89 154.653C675.89 145.153 668.39 130.153 686.39 130.153C704.39 130.153 699.89 161.153 732.89 161.153C765.89 161.153 827.89 197.653 827.89 260.653C827.89 323.653 763.89 367.153 726.39 368.153C688.89 369.153 675.89 352.153 650.89 352.153C625.89 352.153 603.898 360.652 603.898 374.652C603.898 388.652 649.39 400.653 680.89 435.653C712.39 470.653 724.898 567.153 754.898 609.653C784.898 652.153 857.89 731.653 857.89 731.653V844.153C857.89 844.153 784.398 740.652 766.898 722.652C749.398 704.652 669.398 621.652 653.898 609.653C638.398 597.655 578.385 506.155 567.89 515.653C557.395 525.152 580.89 552.655 574.39 558.153C567.89 563.652 544.898 551.152 490.898 551.152C436.898 551.152 412.89 551.653 381.39 583.153C349.89 614.653 339.898 644.152 336.39 667.653C332.882 691.155 336.39 852.653 336.39 852.653H181.898C181.898 852.653 175.904 716.651 146.398 716.152C116.893 715.654 89.8984 852.653 89.8984 852.653H1.89014ZM698.395 210.653C698.395 197.655 700.395 186.652 722.895 186.652C745.395 186.652 757.395 200.152 757.395 215.152C757.395 230.152 739.895 239.153 726.39 239.153C712.885 239.153 698.395 223.652 698.395 210.653Z" fill="black"/>
<path d="M470.398 1.15344L398.398 1.15265C398.398 1.15265 378.895 319.653 389.395 322.653C395.263 324.33 407.83 219.239 428.398 130.153C444.638 59.8178 470.398 1.15344 470.398 1.15344Z" fill="black"/>
<path d="M0.392763 70.6523V1.15265L80.8984 1.15344C115.898 134.653 276.898 335.152 265.398 344.152C253.898 353.152 25.3984 77.1523 0.392763 70.6523Z" fill="black"/>
<path d="M696.398 852.653H626.898C612.2 745.357 573.499 668.305 501.385 586.689C499.666 584.743 501.061 581.678 503.655 581.769C606.32 585.353 661.653 671.586 696.398 852.653Z" fill="black"/>
<path d="M295.897 377.152C295.897 383.504 290.748 388.652 284.397 388.652C278.046 388.652 272.897 383.504 272.897 377.152C272.897 370.801 278.046 365.652 284.397 365.652C290.748 365.652 295.897 370.801 295.897 377.152Z" fill="black"/>
<path d="M33.7867 457.727C32.4658 460.437 25.9193 459.966 19.1647 456.674C12.4101 453.382 8.00521 448.516 9.3261 445.806C10.647 443.095 17.1935 443.567 23.9481 446.859C30.7026 450.151 35.1075 455.017 33.7867 457.727Z" fill="black"/>
</svg>
