<svg width="1010" height="1001" viewBox="0 0 1010 1001" fill="none" xmlns="http://www.w3.org/2000/svg">
<path d="M610.234 254.534H900.159L343.358 838.181C435.466 929.053 510.791 994.082 510.791 994.082C510.791 994.082 925.627 625.402 989.447 417.018C1053.27 208.634 957.537 0.25 766.076 0.25C765.653 0.25 765.231 0.25078 764.81 0.252338L610.234 254.534Z" fill="black"/>
<path d="M288.019 782.388L445.241 436.165H200.553L425.922 61.2507V60.9842C383.338 28.3297 323.422 0.25 243.288 0.25C51.8269 0.25 -43.9039 208.634 19.9166 417.018C51.7094 520.827 173.643 664.415 288.019 782.388Z" fill="black"/>
<path d="M295.89 765.739L189.397 1000.25L357.882 823.642L295.89 765.739Z" fill="black"/>
</svg>
