<svg width="1133" height="1001" viewBox="0 0 1133 1001" fill="none" xmlns="http://www.w3.org/2000/svg">
<path d="M1115.56 0.25V10.6267L1114.46 84.8403C1114.45 95.7884 1110.67 108.173 1104.46 121.247C1098.21 134.391 1089.35 148.559 1078.81 163.149C1057.74 192.329 1029.72 223.56 1001.81 252.176C973.878 280.811 945.959 306.921 925.029 325.867C914.562 335.342 905.838 343.031 899.728 348.352C896.679 351.008 891.765 355.221 890.115 356.635L890.106 356.643C888.341 358.135 885.726 358.012 884.108 356.363L823.48 294.544L758.073 230.607C756.419 228.99 756.295 226.37 757.788 224.604C759.194 222.964 763.418 218.037 766.079 214.981C771.4 208.871 779.089 200.147 788.564 189.68C807.51 168.751 833.62 140.831 862.255 112.899C890.871 84.9851 922.102 56.966 951.282 35.896C965.872 25.3613 980.04 16.4963 993.184 10.25C1006.27 4.03102 1018.67 0.25 1029.62 0.25H1115.56Z" fill="black"/>
<path d="M54.4063 39.0688C63.027 30.4609 76.9936 30.4712 85.6016 39.092L565.382 519.584L747.566 332.659C756.069 323.935 770.034 323.756 778.759 332.259C787.483 340.762 787.662 354.727 779.159 363.451L581.369 566.389L1132.47 566.434V1000.25H0.140625V566.434H549.818L54.3831 70.2642C45.7752 61.6434 45.7855 47.6768 54.4063 39.0688Z" fill="black"/>
</svg>
