<svg width="999" height="1001" viewBox="0 0 999 1001" fill="none" xmlns="http://www.w3.org/2000/svg">
<path d="M962.904 476.069L869.433 568.855L734.439 433.862L787.923 359.655C795.369 349.185 791.026 340.561 777.996 339.945H656.38V122.515C656.38 109.581 650.175 107.116 642.109 118.204L548.568 247.99L427.827 127.25L519.252 36.2829C567.651 -11.761 646.452 -11.761 694.85 36.2829L962.281 301.756C1010.68 349.185 1010.68 428.025 962.904 476.069Z" fill="black"/>
<path fill-rule="evenodd" clip-rule="evenodd" d="M516.454 292.546L516.462 292.535L389.406 165.479L389.396 165.488L238.805 14.8967C235.257 11.3492 229.506 11.3492 225.958 14.8967L192.081 48.7738C188.534 52.3213 188.534 58.0729 192.081 61.6204L342.555 212.095L252.442 301.756C204.044 349.8 204.044 428.025 252.442 476.069L330.666 553.721H447.013V669.216L519.873 741.543C568.271 789.585 647.073 789.585 695.471 741.543L784.062 653.601L933.508 803.048C937.056 806.595 942.807 806.595 946.355 803.048L980.232 769.171C983.779 765.623 983.779 759.871 980.232 756.324L830.957 607.049L830.967 607.04L702.334 478.407L702.326 478.418L516.454 292.546ZM477.313 346.853L426.799 416.939C418.733 428.025 423.076 436.649 436.727 436.649H558.343V654.081C558.343 667.011 564.547 669.476 572.614 658.387L663.185 532.724L477.313 346.853Z" fill="black"/>
<path d="M122.061 758.109L242.099 878.795L366.03 737.995C382.251 698.415 385.495 652.995 385.495 614.064C342.518 614.064 308.765 614.877 262.213 640.018L122.061 758.109Z" fill="black"/>
<path d="M154.382 823.329L172.034 840.262L18.5581 1000.25L0.90625 983.317L154.382 823.329Z" fill="black"/>
</svg>
