<svg width="966" height="1001" viewBox="0 0 966 1001" fill="none" xmlns="http://www.w3.org/2000/svg">
<path d="M424.383 501.064C416.782 500.473 390.942 593.847 393.257 601.485C395.572 609.123 443.797 610.291 449.67 601.485C455.543 592.679 431.983 501.654 424.383 501.064Z" fill="black"/>
<path fill-rule="evenodd" clip-rule="evenodd" d="M19.1607 974.997C27.9356 981.46 87.3192 898.648 138.378 899.238C189.437 899.829 238.803 993.203 314.562 1000.25H534.791C577.662 1000.25 652.202 880.051 696.914 808.207C738.467 741.438 824.906 693.107 851.334 661.978C877.761 630.849 901.806 553.922 893.618 549.22C885.43 544.519 852.508 596.136 830.779 592.679C809.05 589.222 777.924 604.428 774.4 627.916C770.877 651.404 726.831 727.75 699.85 753.59C685.433 767.398 648.417 790.972 621.121 812.321C597.337 830.923 588.361 848.334 582.36 842.863C574.787 835.958 592.487 786.316 631.692 757.117C659.294 736.559 693.53 713.919 703.927 697.214C729.146 656.695 768.528 508.695 806.701 465.823C844.874 422.952 897.176 374.211 901.84 363.053C906.504 351.895 903.602 314.896 906.572 301.973C909.543 289.05 921.807 247.359 911.236 240.312C900.665 233.265 882.46 267.914 857.207 267.914C831.954 267.914 810.812 248.534 810.812 225.63C810.812 202.726 847.879 131.662 867.225 107.584C886.571 83.5054 954.073 15.3918 948.822 8.34113C943.571 1.29047 885.983 28.8919 867.225 28.8886C848.466 28.8852 794.368 26.5428 773.26 34.7613C752.152 42.9799 717.434 72.9417 689.832 81.7509C662.23 90.5601 627.581 111.119 616.423 99.9565C605.264 88.7943 659.294 18.9166 648.723 4.22951C638.152 -10.4576 556.486 18.9082 510.713 37.1138C464.939 55.3194 409.079 94.671 357.433 94.0837C305.787 93.4965 231.168 138.717 209.439 156.923C187.71 175.128 157.943 232.511 105.491 301.973C91.2998 320.766 45.0036 372.446 31.5278 381.255C18.052 390.065 -3.12161 432.936 0.989341 435.872C5.10029 438.809 40.9243 400.636 51.4953 396.525C62.0663 392.414 94.9539 360.701 108.461 344.844C121.969 328.988 167.155 263.807 181.837 247.951C196.519 232.094 271.69 178.648 284.61 198.028C297.531 217.408 206.537 273.784 187.157 295.513C167.776 317.242 129.603 397.112 119.032 411.207C108.461 425.301 56.7465 464.069 45.001 475.815C33.2554 487.56 12.7007 543.344 12.7007 630.849C12.7007 672.331 19.4661 718.629 31.4936 753.01C44.8371 791.153 64.115 815.254 76.161 815.254C99.0648 815.254 148.396 760.637 159.554 744.193C170.713 727.75 177.76 702.497 190.093 686.053C202.426 669.609 247.646 646.705 257.63 639.658C267.614 632.611 308.136 590.629 313.387 585.628C318.638 580.627 347.56 552.014 370.387 521.622C390.385 494.999 403.94 465.36 405.037 454.665C407.386 431.761 379.784 404.754 370.387 401.818C360.991 398.881 345.1 397.119 345.1 389.485C345.1 381.85 368.038 351.304 363.34 344.844C358.642 338.384 305.199 381.255 289.343 398.874C273.486 416.492 257.63 485.204 257.63 513.393C257.63 541.582 284.61 564.486 284.61 585.628C284.61 606.77 257.596 626.154 238.803 625.566C220.01 624.979 187.157 569.184 187.157 492.251C187.157 415.318 242.361 335.448 274.074 301.973C305.787 268.498 360.369 238.55 420.859 238.55C481.349 238.55 562.427 276.72 561.253 295.513C560.078 314.306 447.793 373.037 449.67 454.665C450.844 505.758 494.269 559.204 527.744 560.379C561.218 561.553 599.392 495.778 602.328 445.272C605.264 394.766 545.983 368.335 545.396 347.781C544.809 327.226 679.296 203.897 694.565 220.341C709.834 236.785 629.377 305.497 629.377 335.448C629.377 365.399 672.836 387.715 670.486 465.823C668.137 543.931 586.506 617.929 567.713 630.849C548.92 643.769 501.35 758.288 493.128 761.812C484.907 765.335 473.161 761.812 471.986 751.241C471.392 745.895 485.028 715.412 496.031 689.584C506.785 664.338 507.223 639.658 499.001 639.658C490.779 639.658 488.608 662.559 480.174 686.053C471.741 709.542 463.176 729.511 455.543 727.75C449.25 726.298 445.381 711.083 447.287 693.695C450.005 668.888 464.318 643.769 455.543 639.658C446.768 635.547 430.007 669.726 424.383 697.214C420.37 716.825 420.903 736.566 413.812 736.566C405.693 736.566 394.194 717.721 393.257 693.695C392.228 667.321 413.224 639.658 398.542 637.316C388.697 635.746 377.224 671.077 368.591 698.393C364.35 711.812 364.446 727.75 358.642 727.75C351.444 727.75 344.155 720.883 340.989 704.262C336.406 680.196 338.437 646.344 333.942 644.951C329.446 643.557 313.508 668.701 313.387 697.214C313.276 723.463 321.998 752.925 323.405 764.748C326.341 789.414 335.738 836.396 344.547 839.92C353.356 843.443 355.118 790.001 370.387 795.287C385.657 800.572 373.324 876.331 386.244 874.569C399.164 872.807 406.211 770.034 420.306 771.796C434.401 773.557 423.242 870.458 430.877 869.284C438.512 868.109 449.67 815.254 463.177 815.254C476.685 815.254 453.125 879.282 458.445 883.386C463.765 887.489 479 868.116 483.11 858.133C487.221 848.149 487.256 811.143 499.001 781.192C510.747 751.241 547.745 725.988 552.444 733.622C557.142 741.257 515.445 794.699 512.509 807.032C509.572 819.365 499.001 890.426 486.081 908.044C473.161 925.662 449.67 934.472 416.195 934.472C382.72 934.472 346.309 921.551 330.452 910.98C314.596 900.409 289.309 666.68 269.341 666.68C249.374 666.68 195.378 781.192 164.253 808.207C133.127 835.222 76.161 874.569 62.0663 888.077C47.9716 901.584 10.3858 968.534 19.1607 974.997ZM746.211 151.633C736.815 155.744 731.529 161.029 731.529 173.95C731.529 186.87 749.182 185.696 762.068 182.175C774.953 178.655 783.21 162.204 775.575 155.157C767.94 148.109 755.608 147.522 746.211 151.633ZM602.328 677.251C593.553 667.855 568.3 696.037 572.964 704.262C577.628 712.487 611.103 686.647 602.328 677.251Z" fill="black"/>
<path d="M405.037 317.829C399.164 314.302 406.73 296.103 412.637 292.58C418.544 289.056 433.226 294.926 432.605 300.214C431.983 305.503 410.909 321.356 405.037 317.829Z" fill="black"/>
<path d="M923.603 513.393C916.556 507.517 921.289 484.026 930.651 476.982C940.013 469.938 960.568 470.352 964.679 475.223C968.79 480.095 958.801 503.997 951.793 508.695C944.784 513.393 930.651 519.269 923.603 513.393Z" fill="black"/>
</svg>
