<svg width="1086" height="1000" viewBox="0 0 1086 1000" fill="none" xmlns="http://www.w3.org/2000/svg">
<path d="M859.089 7.46736C872.151 -2.22636 888.354 -2.52083 895.278 6.80993C902.202 16.1407 897.226 31.5623 884.163 41.256C871.1 50.949 854.898 51.2435 847.974 41.9128C841.051 32.5827 846.027 17.1604 859.089 7.46736Z" fill="black"/>
<path d="M782.867 130.136C794.698 105.631 806.389 81.4163 798.975 72.8327C789.704 62.098 763.041 85.8814 732.376 113.234C718.969 125.192 704.798 137.833 690.981 148.569C683.124 154.674 675.458 160.325 668.306 165.599C644.251 183.331 625.996 196.788 625.763 208.878C625.621 216.303 633.448 225.638 643.006 237.037C652.569 248.441 663.864 261.911 670.644 277.601C678.246 295.193 683.765 313.244 688.51 328.763C696.077 353.514 701.676 371.826 710.616 371.57C717.214 371.382 725.092 358.884 735.046 343.092L735.059 343.07C743.162 330.22 752.636 315.194 763.912 302.847C776.457 289.11 791.158 281.304 803.141 274.942C816.397 267.904 826.324 262.633 826.324 253.057C826.324 244.862 813.715 235.108 799.831 224.368C782.827 211.216 763.912 196.584 763.912 181.528C763.912 169.396 773.434 149.674 782.867 130.136Z" fill="black"/>
<path d="M912.579 201.865C912.579 190.246 899.392 180.827 883.126 180.827C866.86 180.827 853.673 190.246 853.673 201.865C853.673 213.484 866.86 222.903 883.126 222.903C899.392 222.903 912.579 213.484 912.579 201.865Z" fill="black"/>
<path d="M298.976 870.968C298.976 899.018 322.118 1000 357.882 1000C393.647 1000 604.021 837.307 604.021 809.958C604.021 797.577 593.242 780.597 581.444 762.011C567.18 739.541 551.427 714.723 551.427 692.847C551.427 667.793 577.599 622.353 599.899 583.636L599.907 583.624C613.182 560.575 625.083 539.91 629.271 527.349C640.497 493.689 700.798 150.07 365.596 150.07C67.3188 150.07 72.7782 433.258 74.1424 504.05C74.3109 512.813 74.4177 518.322 73.8767 519.635C72.5837 522.778 66.271 532.4 57.8545 545.228L57.834 545.258C34.317 581.1 -5.59193 641.926 1.63573 656.382C7.03627 667.183 32.3844 665.04 56.2013 663.026C75.6805 661.379 94.1352 659.819 99.8138 665.498C103.915 669.599 106.684 689.622 110.214 715.147C117.545 768.17 128.16 844.933 160.824 852.034C185.895 857.484 232.997 835.071 275.105 815.034C314.262 796.4 349.099 779.823 357.882 789.622C367.538 800.394 350.434 814.709 332.212 829.96C316.035 843.5 298.976 857.777 298.976 870.968Z" fill="black"/>
<path d="M867.697 345.021V443.198H822.115V345.021H867.697Z" fill="black"/>
<path d="M1017.34 345.021C1074.57 345.021 1085.79 394.109 1085.79 394.109C1085.79 394.109 1074.57 443.198 1017.34 443.198H895.04V345.021H1017.34Z" fill="black"/>
<path d="M798.274 789.621C805.688 781.038 793.996 756.823 782.165 732.318C772.732 712.78 763.211 693.058 763.211 680.926C763.211 665.87 782.126 651.238 799.13 638.086C813.014 627.346 825.623 617.592 825.623 609.397C825.623 599.821 815.696 594.55 802.44 587.512C790.457 581.15 775.755 573.344 763.211 559.607C751.949 547.276 742.485 532.274 734.39 519.436L734.366 519.4L734.358 519.384L734.345 519.362C724.391 503.57 716.512 491.072 709.915 490.884C700.975 490.628 695.376 508.94 687.808 533.691C683.064 549.21 677.544 567.261 669.943 584.853C663.163 600.543 651.867 614.013 642.305 625.417C632.747 636.816 624.92 646.151 625.062 653.576C625.295 665.666 643.55 679.123 667.605 696.855C674.757 702.129 682.423 707.78 690.279 713.885C704.096 724.621 718.268 737.262 731.674 749.22C762.34 776.573 789.003 800.356 798.274 789.621Z" fill="black"/>
<path d="M882.425 681.627C898.691 681.627 911.878 672.208 911.878 660.589C911.878 648.97 898.691 639.551 882.425 639.551C866.159 639.551 852.972 648.97 852.972 660.589C852.972 672.208 866.159 681.627 882.425 681.627Z" fill="black"/>
<path d="M894.577 855.644C887.653 864.975 871.45 864.68 858.388 854.987C845.325 845.294 840.349 829.871 847.273 820.541C854.197 811.21 870.398 811.505 883.462 821.198C896.524 830.892 901.5 846.313 894.577 855.644Z" fill="black"/>
</svg>
