<svg width="1021" height="1000" viewBox="0 0 1021 1000" fill="none" xmlns="http://www.w3.org/2000/svg">
<path d="M334.89 261.453C339.315 265.88 346.493 265.88 350.918 261.453L378.86 233.513L406.974 261.626C411.401 266.053 418.577 266.053 423.004 261.626L434.883 249.748C439.308 245.322 439.308 238.145 434.883 233.718L406.769 205.604L435.39 176.982C439.818 172.555 439.818 165.379 435.39 160.952L423.511 149.074C419.086 144.647 411.908 144.647 407.483 149.074L378.86 177.696L350.412 149.247C345.984 144.821 338.809 144.821 334.381 149.247L322.502 161.125C318.077 165.552 318.077 172.729 322.502 177.156L350.95 205.605L323.011 233.545C318.584 237.972 318.584 245.148 323.011 249.575L334.89 261.453Z" fill="black"/>
<path d="M601.145 261.795C596.719 266.222 589.542 266.222 585.116 261.795L573.238 249.917C568.81 245.49 568.81 238.314 573.238 233.887L601.177 205.947L572.728 177.498C568.303 173.071 568.303 165.894 572.728 161.467L584.607 149.589C589.035 145.163 596.21 145.163 600.638 149.589L629.086 178.038L657.709 149.416C662.134 144.989 669.312 144.989 673.737 149.416L685.616 161.294C690.044 165.72 690.044 172.897 685.616 177.324L656.996 205.946L685.109 234.06C689.535 238.487 689.535 245.664 685.109 250.09L673.231 261.968C668.803 266.395 661.628 266.395 657.2 261.968L629.086 233.854L601.145 261.795Z" fill="black"/>
<path fill-rule="evenodd" clip-rule="evenodd" d="M255.808 0C203.64 0 161.35 42.2904 161.35 94.4584V322.418C161.35 374.586 203.64 416.877 255.808 416.877H757.068C809.236 416.877 851.526 374.586 851.526 322.418V94.4584C851.526 42.2904 809.236 0 757.068 0H255.808ZM351.526 70.529C299.357 70.529 257.068 112.819 257.068 164.987V240.554C257.068 292.722 299.357 335.013 351.526 335.013H661.35C713.518 335.013 755.808 292.722 755.808 240.554V164.987C755.808 112.819 713.518 70.529 661.35 70.529H351.526Z" fill="black"/>
<path d="M58.0751 123.426H121.047V293.451H58.0751V123.426Z" fill="black"/>
<path d="M952.282 123.426H890.569L889.309 293.451H952.282V123.426Z" fill="black"/>
<path fill-rule="evenodd" clip-rule="evenodd" d="M0.140625 706.549C0.140625 581.346 101.637 479.849 226.841 479.849H793.591C918.796 479.849 1020.29 581.346 1020.29 706.549V1000H0.140625V706.549ZM614.75 654.475C614.75 548.489 684.649 527.708 684.649 527.708C684.649 527.708 754.549 548.489 754.549 654.475V846.348H614.75V654.475ZM614.75 943.325V876.574H754.549V943.325H614.75ZM503.289 527.708C503.289 527.708 433.39 548.489 433.39 654.475V846.348H573.188V654.475C573.188 548.489 503.289 527.708 503.289 527.708ZM433.39 876.574V943.325H573.188V876.574H433.39ZM255.808 654.475C255.808 548.489 325.707 527.708 325.707 527.708C325.707 527.708 395.607 548.489 395.607 654.475V846.348H255.808V654.475ZM255.808 943.325V876.574H395.607V943.325H255.808Z" fill="black"/>
</svg>
