<svg width="1041" height="1001" viewBox="0 0 1041 1001" fill="none" xmlns="http://www.w3.org/2000/svg">
<path fill-rule="evenodd" clip-rule="evenodd" d="M268.76 194.09C260.892 241.681 282.856 333.826 293.839 333.826C304.821 333.826 337.159 285.983 352.412 299.659C361.021 307.377 349.417 330.484 337.674 353.866C328.611 371.913 313.974 388.903 313.974 400.331C313.974 426.567 423.492 520.527 514.098 520.527C604.704 520.527 694.698 399.721 694.698 380.807C694.698 367.99 685.139 362.841 673.735 356.699C666.138 352.607 657.721 348.073 650.768 340.538C644.755 334.021 642.312 326.077 640.114 318.931C636.886 308.434 634.187 299.659 621.482 299.659C611.489 299.659 608.109 303.265 604.704 306.898C601.247 310.586 597.764 314.302 587.314 314.302C566.57 314.302 540.334 280.744 540.334 247.783C540.334 214.821 563.519 179.462 600.737 179.462C637.955 179.462 667.242 227.052 667.242 260.61C667.242 327.725 720.934 307.59 720.934 307.59C747.78 264.849 762.464 0.080407 516.539 0.125006C437.221 0.13939 413.426 27.522 413.426 73.8932C413.426 100.227 426.61 111.213 438.003 120.707C446.672 127.93 454.305 134.29 454.305 145.89C454.305 160.592 450.096 166.144 446.289 171.168C443.143 175.318 440.272 179.106 440.272 187.394C440.272 194.74 447.63 199.922 456.445 206.131C469.613 215.406 486.032 226.971 486.032 251.458C486.032 292.337 441.492 314.801 414.036 314.302C386.58 313.803 352.412 280.106 352.412 247.783C352.412 231.697 364.652 218.323 376.95 204.888C389.362 191.326 401.833 177.701 401.833 161.158C401.833 144.916 395.155 138.759 388.386 132.517C381.429 126.103 374.377 119.601 374.377 101.975C374.377 67.197 386.58 38.5063 386.58 38.5063C329.313 91.2729 276.628 146.498 268.76 194.09Z" fill="black"/>
<path d="M97.3423 502.834C102.833 518.087 131.273 514.515 154.695 524.798C179.711 535.781 197.437 554.085 210.25 549.204C223.063 544.323 210.521 522.239 224.894 502.834C237.324 486.05 262.112 485.14 266.993 468.666C271.874 452.192 238.894 374.095 213.268 374.095C187.642 374.095 77.9158 448.871 97.3423 502.834Z" fill="black"/>
<path d="M0.383439 600.455C39.9896 554.695 144.328 551.644 144.328 571.779C144.328 581.979 103.439 593.134 77.8235 635.233C54.689 673.254 77.8235 734.075 0.359375 734.075C0.359375 734.075 0.36872 600.455 0.383439 600.455Z" fill="black"/>
<path d="M0.363953 804.24V1000.12H122.363C122.363 1000.12 194.997 965.316 229.137 907.963C245.951 879.718 237.173 847.842 246.831 823.765C256.489 799.688 282.213 784.106 282.213 767.022C282.213 749.938 250.114 743.227 229.137 709.669C207.186 674.555 205.941 624.25 170.559 624.25C100.393 624.25 119.621 707.24 83.9249 751.769C44.6525 800.76 1.11946 803.218 0.363953 804.24Z" fill="black"/>
<path d="M261.469 942.741C243.775 942.741 213.268 1000.12 213.268 1000.12H323.092C323.092 1000.12 279.163 942.741 261.469 942.741Z" fill="black"/>
<path d="M371.293 1000.12H493.32C493.32 1000.12 514.098 942.741 514.098 872.576C514.098 803.339 503.372 795.887 489.605 786.323L489.049 785.936C475.016 776.174 464.644 773.734 412.782 773.734C360.921 773.734 307.229 784.716 307.229 872.576C307.229 960.435 371.293 1000.12 371.293 1000.12Z" fill="black"/>
<path d="M551.283 948.842C551.283 986.061 576.298 1000.12 576.298 1000.12H755.678C755.678 1000.12 906.382 845.119 906.382 834.747C906.382 824.375 819.742 720.652 801.438 720.652C783.134 720.652 719.68 826.205 674.53 826.205C629.38 826.205 612.907 786.323 586.061 786.323C559.215 786.323 573.248 834.747 573.248 861.593C573.248 888.439 551.283 911.624 551.283 948.842Z" fill="black"/>
<path d="M1040.03 1000.12V697.467C1040.03 697.467 1030.24 676.722 1014.38 676.722C998.512 676.722 934.448 758.48 934.448 774.344C934.448 790.207 972.886 826.205 972.886 846.34C972.886 866.474 824.013 1000.12 824.013 1000.12H1040.03Z" fill="black"/>
<path d="M886.857 508.325C919.194 508.325 982.649 569.307 982.649 586.422C982.649 599.235 894.789 720.652 880.146 720.652C858.791 720.652 839.877 661.469 806.319 661.469C772.762 661.469 701.986 774.344 673.735 774.344C661.566 774.344 656.81 755.512 643.413 749.328C625.711 741.157 604.975 754.819 598.873 740.786C592.772 726.753 674.53 656.588 674.53 626.691C674.53 596.794 653.176 601.675 653.176 568.728C653.176 535.781 789.236 408.263 809.98 416.804C830.725 425.346 820.963 556.525 841.097 556.525C861.232 556.525 854.52 508.325 886.857 508.325Z" fill="black"/>
<path d="M409.732 545.543C426.205 533.462 487.219 605.946 518.336 605.946C534.199 605.946 533.589 591.913 560.435 591.913C587.281 591.913 600.737 626.691 600.737 641.334C600.737 655.978 545.148 726.143 518.336 726.143C453.051 726.143 393.258 557.624 409.732 545.543Z" fill="black"/>
<path d="M426.205 720.652C426.205 734.075 392.648 734.075 360.311 734.075C327.973 734.075 248.046 622.42 246.831 600.455C245.616 578.49 301.189 513.816 319.432 513.816C357.87 513.816 341.396 603.506 364.582 652.317C389.276 704.306 426.205 707.229 426.205 720.652Z" fill="black"/>
</svg>
