<svg width="1014" height="1001" viewBox="0 0 1014 1001" fill="none" xmlns="http://www.w3.org/2000/svg">
<path d="M0.5 0.125H179.177L330.895 397.602L0.5 217.045V0.125Z" fill="black"/>
<path d="M248.14 0.125H490.764V301.054L248.14 0.125Z" fill="black"/>
<path d="M797.335 0.125H591.701L680.725 272.842L797.335 0.125Z" fill="black"/>
<path d="M891.376 0.125H1013.63V177.548L852.506 329.893L891.376 0.125Z" fill="black"/>
<path d="M0.5 529.259V311.712L204.254 540.544L0.5 529.259Z" fill="black"/>
<path d="M0.5 655.273V776.898L160.996 726.117L0.5 655.273Z" fill="black"/>
<path d="M32.4737 1000.13H578.535L391.081 781.923C404.018 772.622 415.737 763.71 426.811 755.289C479.932 714.893 518.206 685.788 604.866 679.106C640.521 819.78 712.956 961.955 756.585 1000.13H881.972C780.994 869.392 731.392 800.223 710.818 623.301C710.818 623.301 811.128 740.517 943.412 544.942C950.639 534.256 980.463 425.05 906.422 405.763C820.76 383.449 777.008 438.927 750.313 472.777C739.497 486.493 731.48 496.658 724.611 496.658C716.788 496.659 712.48 493.821 706.693 490.009C694.857 482.211 676.832 470.336 609.882 470.336C377.288 470.336 239.989 628.324 239.989 726.753C239.989 825.182 342.807 899.152 342.807 899.152H87.6441L32.4737 1000.13Z" fill="black"/>
</svg>
