<svg width="1075" height="1001" viewBox="0 0 1075 1001" fill="none" xmlns="http://www.w3.org/2000/svg">
<path d="M388.187 825.353C418.897 873.123 446.619 916.245 477.203 891.285C512.587 862.408 374.358 730.462 265.601 626.65C200.117 564.143 145.319 511.836 145.536 498.367C145.729 486.415 189.203 452.795 247.071 408.044C362.724 318.607 535.869 184.71 535.909 90.4618C535.949 -5.98355 346.23 -16.3694 284.389 18.1559C284.389 18.1559 395.162 113.29 395.162 129.58C395.162 145.871 366.491 171.283 352.808 171.283C339.124 171.283 234.867 50.8859 234.867 50.8859C223.361 59.3835 210.854 69.1398 197.804 80.0584C197.804 80.0584 324.137 184.226 324.137 199.954C324.137 215.681 296.118 242.96 281.131 242.96C266.144 242.96 157.803 115.897 157.803 115.897C145.66 127.555 133.448 140.054 121.488 153.326C121.488 153.326 240.731 263.16 240.731 275.54C240.731 287.921 219.228 318.546 200.332 318.546C181.435 318.546 83.6945 199.391 83.6945 199.391C73.6664 212.918 64.1361 227.024 55.345 241.657C55.345 241.657 167.752 342.655 167.752 356.339C167.752 370.023 147.552 399.345 124.746 399.345C101.939 399.345 28.1954 294.437 28.1954 294.437C5.6109 347.175 -5.60671 405.148 3.54702 466.46C37.5872 694.465 176.264 713.977 261.896 726.025C276.085 728.021 288.817 729.813 299.376 732.314C333.583 740.416 361.974 784.578 388.187 825.353Z" fill="black"/>
<path d="M597.282 108.965C627.866 84.0054 655.587 127.127 686.298 174.897C712.511 215.672 740.902 259.834 775.109 267.936C785.668 270.437 798.4 272.229 812.589 274.225C898.22 286.273 1036.9 305.785 1070.94 533.79C1080.09 595.102 1068.87 653.075 1046.29 705.813C1046.29 705.813 972.545 600.905 949.739 600.905C926.933 600.905 906.733 630.227 906.733 643.911C906.733 657.595 1019.14 758.593 1019.14 758.593C1010.35 773.226 1000.82 787.332 990.79 800.859C990.79 800.859 893.049 681.704 874.153 681.704C855.256 681.704 833.753 712.329 833.753 724.71C833.753 737.09 952.997 846.924 952.997 846.924C941.037 860.196 928.825 872.695 916.682 884.353C916.682 884.353 808.341 757.29 793.354 757.29C778.367 757.29 750.348 784.569 750.348 800.296C750.348 816.024 876.681 920.192 876.681 920.192C863.631 931.11 851.123 940.866 839.618 949.364C839.618 949.364 735.361 828.967 721.677 828.967C707.993 828.967 679.323 854.379 679.323 870.67C679.323 886.96 790.096 982.094 790.096 982.094C728.254 1016.62 538.535 1006.23 538.576 909.788C538.616 815.54 711.761 681.643 827.413 592.206C885.282 547.455 928.756 513.835 928.949 501.883C929.166 488.414 874.369 436.108 808.887 373.603L808.885 373.601C700.128 269.788 561.897 137.842 597.282 108.965Z" fill="black"/>
<path d="M695.017 509.47C674.078 577.783 537.974 698.646 537.974 698.646C537.974 698.646 397.861 577.783 376.922 509.47C355.983 441.157 387.392 372.843 450.209 372.843C513.026 372.843 537.975 425.392 537.975 425.392C537.975 425.392 558.914 372.843 621.731 372.843C684.548 372.843 715.956 441.157 695.017 509.47Z" fill="black"/>
</svg>
