<svg width="1040" height="1001" viewBox="0 0 1040 1001" fill="none" xmlns="http://www.w3.org/2000/svg">
<path fill-rule="evenodd" clip-rule="evenodd" d="M441.789 365.35C441.789 365.35 441.789 450.789 382.685 480.272C344.177 499.481 314.093 644.532 314.093 644.532C282.76 568.791 301.612 520.732 351.398 442.366C230.459 442.366 205.79 515.17 187.138 669.803C154.045 661.981 142.011 638.515 126.367 584.364C126.367 719.743 158.723 777.43 261.145 852.715C258.522 773.088 264.538 734.738 314.093 699.285C314.093 699.285 406.151 815.411 503.624 815.411C580.64 815.411 651.639 726.963 651.639 726.963C632.385 813.606 584.852 869.562 515.103 869.562C445.354 869.562 371.855 815.411 371.855 815.411C371.855 847.3 367.041 874.376 350.796 899.646C350.796 899.646 425.405 959.815 530.098 959.815C634.791 959.815 680.519 891.825 680.519 882.799C680.519 871.701 677.979 867.909 675.122 863.645C671.628 858.43 667.66 852.508 667.282 831.656C666.596 793.75 718.425 716.734 741.891 716.734C765.357 716.734 787.017 753.437 787.017 753.437C787.017 753.437 877.27 708.912 877.27 543.449C877.27 327.856 716.019 232.979 716.019 232.979C796.043 338.274 843.576 395.434 834.55 526C797.848 474.857 764.755 441.764 723.303 445.374C782.963 514.639 802.061 552.883 762.95 618.66C756.331 544.652 679.316 456.566 596.885 427.324C549.143 410.388 548.149 347.3 548.149 347.3C571.098 337.832 583.36 308.288 587.86 295.555C506.632 266.424 417.492 280.513 377.872 368.96C377.872 368.96 413.371 329.249 447.066 329.851C480.76 330.452 469.93 358.732 520.471 364.748C520.471 364.748 478.955 394.231 441.789 365.35ZM534.31 531.417C640.813 531.417 661.265 656.568 661.265 656.568C661.265 656.568 698.57 488.696 525.886 491.097C435.041 492.361 382.685 559.083 382.685 631.889C382.685 704.696 451.287 759.449 509.646 759.449C568.004 759.449 618.546 725.755 618.546 660.171C618.546 594.587 578.233 572.492 534.31 572.934C490.387 573.375 442.252 625.28 465.718 650.551C475.216 660.78 506.632 664.39 519.87 650.551C523.928 646.308 526.32 640.797 528.616 635.508C533.558 624.122 538.056 613.76 557.776 619.263C586.657 627.323 576.428 705.906 509.646 705.906C458.498 705.906 425.405 655.364 425.405 626.484C425.405 597.603 459.701 531.417 534.31 531.417ZM659.46 710.717C670.094 710.717 678.714 702.097 678.714 691.463C678.714 680.83 670.094 672.21 659.46 672.21C648.827 672.21 640.207 680.83 640.207 691.463C640.207 702.097 648.827 710.717 659.46 710.717Z" fill="black"/>
<path fill-rule="evenodd" clip-rule="evenodd" d="M366.719 266.424C375.39 271.489 384.779 276.973 393.835 284.709C396.724 287.175 399.153 290.539 401.345 294.351C401.345 294.351 448.733 251.03 506.632 251.03C564.532 251.03 616.741 291.945 652.24 301.572C652.24 301.572 622.318 279.911 622.156 266.424C621.994 252.936 648.952 249.099 658.789 226.038C661.149 220.505 663.374 189.794 658.789 187.248C654.203 184.702 626.368 196.946 626.368 196.946V170.739H664.274C594.478 96.397 420.591 112.642 364.033 158.371V196.946C364.033 196.946 335.749 183.369 331.673 187.248C327.597 191.127 330.914 220.657 331.673 226.038C334.736 247.74 349.274 256.232 366.719 266.424ZM445.516 236.59C460.993 236.59 473.54 214.62 473.54 196.946C473.54 179.271 460.993 158.371 445.516 158.371C430.039 158.371 417.492 179.271 417.492 196.946C417.492 214.62 430.039 236.59 445.516 236.59ZM571.15 196.946C571.15 214.62 558.604 236.59 543.126 236.59C527.649 236.59 515.103 214.62 515.103 196.946C515.103 179.271 527.649 158.371 543.126 158.371C558.604 158.371 571.15 179.271 571.15 196.946Z" fill="black"/>
<path d="M117.358 472.448C252.739 35.0227 538.534 65.7087 613.728 106.626C613.728 53.6773 571.747 4.93848 492.789 4.94083C424.199 4.94287 390.015 44.6562 373.894 80.7508C191.361 166.19 114.954 361.136 117.358 472.448Z" fill="black"/>
<path d="M0.03125 226.96C65.0301 127.802 120.012 68.5144 200.994 0.125C130.597 0.125 10.2599 134.301 0.03125 226.96Z" fill="black"/>
<path d="M729.271 3.14803C899.549 73.5447 1010.25 254.655 1037.92 344.307C1055.39 190.864 867.067 3.14921 729.271 3.14803Z" fill="black"/>
<path d="M16.2768 813.001C22.2579 883.94 42.5593 936.411 102.928 1000.12H63.8135C41.5537 974.253 -13.2074 893.627 16.2768 813.001Z" fill="black"/>
<path d="M1004.24 773.29C984.462 862.965 959.273 925.023 915.194 1000.12H966.337C997.625 926.118 1018.08 856.924 1004.24 773.29Z" fill="black"/>
<path d="M924.821 900.848C924.821 921.906 872.475 1000.12 857.432 1000.12H838.78C833.967 1000.12 829.343 986.641 824.941 965.83C820.436 944.527 826.621 893.859 819.526 887.008C802.077 870.161 741.307 893.627 741.307 893.627C819.526 832.857 864.051 784.121 903.762 681.834C903.762 681.834 898.949 757.646 898.347 809.391C897.745 861.136 924.821 879.789 924.821 900.848Z" fill="black"/>
<path d="M702.799 922.508C669.707 961.618 613.059 983.115 555.387 1000.12H741.307C715.508 980.047 705.808 954.397 702.799 922.508Z" fill="black"/>
<path d="M352.619 951.389C352.619 951.389 335.17 988.092 320.128 1000.12H495.82C436.855 992.304 389.923 987.49 352.619 951.389Z" fill="black"/>
<path d="M305.687 948.381C253.942 948.381 244.917 962.821 244.917 1000.12H152.859C104.679 965.433 109.538 911.076 131.8 861.738C143.704 835.356 140.224 792.544 140.224 792.544C192.782 861.792 230.241 897.167 305.687 948.381Z" fill="black"/>
<path d="M661.885 304.578C664.893 319.018 684.147 330.45 697.986 334.06C694.137 321.179 676.927 309.391 661.885 304.578Z" fill="black"/>
</svg>
