<svg width="1029" height="1001" viewBox="0 0 1029 1001" fill="none" xmlns="http://www.w3.org/2000/svg">
<path fill-rule="evenodd" clip-rule="evenodd" d="M366.396 0.125C350.435 0.125 337.498 13.0618 337.498 29.0229V133.19H313.305C311.777 133.19 310.396 133.827 309.42 134.851C308.496 135.817 307.929 137.125 307.929 138.566V162.759H234.004V118.405H131.853V162.759H98.2511C44.0624 162.759 0.132812 206.689 0.132812 260.878V857.652C0.132812 911.841 44.0624 955.77 98.2511 955.77H131.853V990.716C131.853 995.912 136.064 1000.13 141.262 1000.13H341.531C346.729 1000.13 350.939 995.912 350.939 990.716V955.77H676.208V990.716C676.208 995.912 680.419 1000.13 685.617 1000.13H885.886C891.083 1000.13 895.294 995.912 895.294 990.716V955.77H930.24C984.429 955.77 1028.36 911.841 1028.36 857.652V260.878C1028.36 206.689 984.429 162.759 930.24 162.759H895.294V118.405H793.144V162.759H719.219V138.566C719.219 135.597 716.814 133.19 713.843 133.19H689.649V29.0229C689.649 13.0618 676.712 0.125 660.751 0.125H366.396ZM631.853 75.3938H395.294V133.19H420.832C423.803 133.19 426.208 135.597 426.208 138.566V162.759H600.939V138.566C600.939 135.597 603.344 133.19 606.316 133.19H631.853V75.3938ZM87.5142 243.895C97.9203 231.749 116.202 230.334 128.346 240.737L199.472 301.647C211.622 312.05 213.034 330.332 202.633 342.478C192.227 354.628 173.945 356.04 161.801 345.639L90.6749 284.727C78.5256 274.324 77.1132 256.042 87.5142 243.895ZM417.661 416.999C424.98 436.961 469.891 463.163 469.891 463.163V419.48C469.891 419.48 455.725 417.831 450.948 404.797C446.17 391.763 445.582 377.564 449.257 364.175C452.938 350.79 463.611 333.537 474.38 324.774C485.143 316.009 499.461 308.593 513.574 308.593C527.687 308.593 539.867 312.509 551.665 319.828C563.457 327.15 569.763 343.316 575.113 356.127C580.468 368.935 580.106 382.517 575.113 395.958C570.283 408.971 557.944 419.48 557.944 419.48V463.163C557.944 463.163 608.468 425.224 613.183 404.49C617.898 383.759 616.023 362.073 607.822 342.455C599.627 322.837 585.509 306.267 567.447 295.055C549.381 283.843 534.407 279.902 513.574 279.902C492.31 279.902 465.57 289.203 449.079 302.626C432.592 316.051 420.706 334.283 415.072 354.785C409.439 375.288 410.347 397.035 417.661 416.999ZM457.122 762.894C480.728 825.732 503.425 867.733 514.918 867.733C526.306 867.733 552.641 827.331 575.402 762.894C591.588 717.079 606.316 652.679 601.611 588.835C676.287 596.897 711.38 579.935 719.219 516.254C774.998 516.254 807.256 492.06 807.256 475.259V434.265H655.375C655.375 434.265 625.133 511.55 582.794 511.55C551.88 511.55 534.407 499.453 534.407 492.733C534.407 490.869 535.079 490.039 536.05 488.839C538.576 485.71 543.144 480.066 543.144 447.034C543.144 401.335 518.95 397.302 512.23 397.302C505.509 397.302 484.004 401.335 484.004 447.034C484.004 480.066 488.215 485.71 490.551 488.839C491.076 489.54 491.507 490.115 491.774 490.848C491.963 491.365 492.068 491.958 492.068 492.733C492.068 499.453 473.923 511.55 443.009 511.55C400.67 511.55 369.084 434.265 369.084 434.265H219.891V475.259C219.891 492.06 249.461 516.254 305.24 516.254C316.224 579.255 354.425 597.474 425.536 588.835C417.997 659.824 437.801 711.976 453.835 754.202L457.122 762.894ZM826.656 300.386C814.087 310.275 811.914 328.481 821.8 341.053C831.686 353.622 849.894 355.799 862.464 345.91L936.068 288.014C948.638 278.128 950.811 259.92 940.925 247.35C931.033 234.778 912.83 232.605 900.256 242.494L826.656 300.386ZM87.7399 870.927C98.1461 883.074 116.428 884.489 128.572 874.085L199.698 813.176C211.847 802.773 213.26 784.491 202.859 772.344C192.453 760.195 174.171 758.783 162.027 769.184L90.9006 830.096C78.7513 840.499 77.339 858.781 87.7399 870.927ZM826.882 814.436C814.313 804.547 812.139 786.342 822.026 773.77C831.912 761.201 850.12 759.024 862.69 768.913L936.294 826.809C948.863 836.695 951.037 854.903 941.151 867.473C931.259 880.042 913.056 882.218 900.481 872.329L826.882 814.436Z" fill="black"/>
</svg>
