<svg width="1025" height="1001" viewBox="0 0 1025 1001" fill="none" xmlns="http://www.w3.org/2000/svg">
<path d="M277.941 0.125C256.011 0.125 234.081 2.73058 213.019 7.94174C100.11 36.1689 5.22373 137.786 0.663967 283.808C-1.72448 361.541 22.16 426.246 60.5923 481.615C98.8075 537.2 150.702 583.884 205.636 630.35C315.505 722.631 436.664 812.306 493.119 952.356L512.443 1000.12L530.9 951.922C584.314 811.655 701.565 717.854 810.131 623.401C918.697 528.949 1019.88 431.674 1024.66 285.11C1029.65 129.753 932.593 31.6091 817.296 9.0274C710.902 -12.0344 588.439 28.7864 512.66 134.312C452.949 42.9 364.36 0.342132 277.941 0.125ZM130.509 187.401L304.214 256.883L165.25 326.365L417.991 376.957L512.66 187.401L607.33 376.957L860.071 326.365L721.107 256.883L894.812 187.401L964.294 361.106L591.914 504.413L512.66 847.481L433.407 504.413L61.0266 361.106L130.509 187.401Z" fill="black"/>
</svg>
