<svg width="1006" height="1001" viewBox="0 0 1006 1001" fill="none" xmlns="http://www.w3.org/2000/svg">
<path d="M870.113 277.062C918.873 133.666 845.735 0.125 699.455 0.125C553.18 0.125 504.42 143.665 504.42 143.665C504.42 143.665 454.276 0.125 308.001 0.125C161.726 0.125 89.8714 133.666 138.632 277.062C153.362 320.391 214.56 373.15 275.499 425.683C300.196 446.975 324.854 468.23 346.355 488.806L504.42 667.128C504.42 667.128 571.32 587.52 669.764 488.806C691.411 467.1 716.133 444.915 740.715 422.853C798.533 370.964 855.597 319.754 870.113 277.062Z" fill="black"/>
<path fill-rule="evenodd" clip-rule="evenodd" d="M0.570312 762.362V1000.12H1005.31V762.362H0.570312ZM978.468 789.206H27.4146V845.451H670.399V973.281H978.468V789.206Z" fill="black"/>
</svg>
