<svg width="1020" height="1001" viewBox="0 0 1020 1001" fill="none" xmlns="http://www.w3.org/2000/svg">
<path d="M152.012 51.838C142.814 51.838 135.355 59.2959 135.355 68.4955V130.366H72.2941C63.0962 130.366 55.6366 137.824 55.6366 147.024V214.843C55.6366 224.043 63.0962 231.501 72.2941 231.501H135.355V293.372C135.355 302.571 142.814 310.029 152.012 310.029H219.832C229.03 310.029 236.489 302.571 236.489 293.372V231.501H297.17C306.368 231.501 313.828 224.043 313.828 214.843V147.024C313.828 137.824 306.368 130.366 297.17 130.366H236.489V68.4955C236.489 59.2959 229.03 51.838 219.832 51.838H152.012Z" fill="black"/>
<path d="M795.705 631.281C786.507 631.281 779.047 638.738 779.047 647.938V709.809H715.987C706.789 709.809 699.33 717.267 699.33 726.466V794.286C699.33 803.486 706.789 810.944 715.987 810.944H779.047V872.814C779.047 882.014 786.507 889.472 795.705 889.472H863.525C872.723 889.472 880.182 882.014 880.182 872.814V810.944H940.863C950.061 810.944 957.521 803.486 957.521 794.286V726.466C957.521 717.267 950.061 709.809 940.863 709.809H880.182V647.938C880.182 638.738 872.723 631.281 863.525 631.281H795.705Z" fill="black"/>
<path fill-rule="evenodd" clip-rule="evenodd" d="M921.151 358.383C905.985 319.272 865.671 263.772 806.153 219.91C746.609 176.029 667.753 143.728 575.492 151.192L574.495 151.273L574.403 152.269C573.229 165.042 567.329 185.961 558.157 211.108C548.997 236.22 536.613 265.447 522.535 294.791C494.352 353.536 459.481 412.546 430.21 440.042C429.955 440.282 429.819 440.621 429.837 440.97C429.855 441.32 430.025 441.643 430.303 441.855C459.027 463.768 493.009 502.038 521.617 539.936C550.243 577.856 573.343 615.209 580.415 635.247L581.049 637.042L582.385 635.687C609.88 607.795 686.666 544.002 761.694 509.812C799.48 492.593 833.857 464.023 861.497 435.28C889.142 406.532 910.107 377.55 921.06 359.428L921.362 358.928L921.151 358.383ZM626.75 271.955C626.75 285.754 615.564 296.941 601.764 296.941C587.965 296.941 576.778 285.754 576.778 271.955C576.778 258.155 587.965 246.969 601.764 246.969C615.564 246.969 626.75 258.155 626.75 271.955ZM540.488 414.733C554.617 414.733 566.07 403.28 566.07 389.152C566.07 375.024 554.617 363.571 540.488 363.571C526.36 363.571 514.907 375.024 514.907 389.152C514.907 403.28 526.36 414.733 540.488 414.733Z" fill="black"/>
<path d="M811.169 1.27343C776.822 -0.57633 727.987 0.222399 691.149 0.824901C676.545 1.06376 663.826 1.27178 654.643 1.2717C653.446 1.27169 652.117 1.78271 650.765 2.54872C649.385 3.33065 647.85 4.45496 646.207 5.8489C642.92 8.63888 639.105 12.5956 635.107 17.3081C627.107 26.737 618.29 39.2963 611.408 51.8624C604.551 64.3824 599.515 77.0886 599.277 86.7607C599.158 91.6209 600.247 95.8822 603.109 98.9269C605.98 101.98 610.433 103.596 616.572 103.596C655.95 103.596 692.039 116.455 724.049 129.388C728.483 131.179 732.842 132.974 737.121 134.735C748.261 139.321 758.864 143.685 768.842 147.199C782.656 152.064 795.415 155.353 806.941 155.353C818.754 155.353 830.587 147.811 841.382 136.67C852.213 125.492 862.189 110.496 870.294 95.1533C878.401 79.8072 884.668 64.0509 888.052 51.3162C889.742 44.9544 890.726 39.2982 890.842 34.8008C890.901 32.5523 890.743 30.5502 890.325 28.8755C889.909 27.2073 889.212 25.7768 888.123 24.783C885.435 22.3285 880.625 19.7341 874.717 17.2136C868.771 14.6764 861.586 12.162 854.041 9.9046C838.971 5.39559 822.343 1.87524 811.169 1.27343Z" fill="black"/>
<path d="M952.761 71.4701C948.13 71.4701 944.349 73.9747 941.036 77.858C937.735 81.7272 934.766 87.1152 931.753 93.2094C930.506 95.732 929.247 98.3822 927.95 101.114C922.932 111.679 917.334 123.465 909.571 133.817C900.873 145.415 890.121 155.59 880.726 164.481C879.434 165.704 878.166 166.903 876.934 168.079C871.861 172.916 867.351 177.369 864.109 181.417C860.903 185.42 858.746 189.252 858.742 192.831C858.739 196.361 860.713 199.484 863.642 202.455C866.577 205.432 870.659 208.442 875.217 211.722C875.7 212.07 876.189 212.421 876.684 212.776L876.695 212.784C885.589 219.169 896.196 226.785 904.834 237.598C911.976 246.539 917.92 257.434 923.508 267.678C925.392 271.132 927.236 274.511 929.071 277.717C932.685 284.028 936.28 289.68 940.079 293.76C943.872 297.835 948.026 300.511 952.761 300.511C962.68 300.511 971.805 293.888 979.878 284.583C987.985 275.238 995.244 262.943 1001.41 251.087C1002.7 248.598 1004 246.223 1005.26 243.899C1008.61 237.736 1011.76 231.935 1014.26 225.333C1017.73 216.178 1019.96 205.457 1019.96 189.857C1019.96 165.582 1010.34 145.297 1001.43 126.873C1000.81 125.606 1000.21 124.351 999.607 123.11C992.762 108.927 986.773 96.5179 980.047 87.4642C972.694 77.5666 964.306 71.4701 952.761 71.4701Z" fill="black"/>
<path d="M392.95 475.414C388.781 475.414 382.873 477.507 375.885 481.008C368.842 484.537 360.523 489.592 351.465 495.715C333.346 507.963 312.187 524.54 292.229 541.89C272.274 559.237 253.487 577.385 240.125 592.78C233.448 600.473 228.094 607.513 224.629 613.444C222.896 616.409 221.614 619.134 220.881 621.551C220.153 623.953 219.932 626.165 220.467 628.038C220.98 629.831 222.281 631.946 224.135 634.291C226.008 636.66 228.527 639.362 231.59 642.334C237.718 648.28 246.094 655.378 256.023 663.171C275.886 678.759 302.036 697.184 329.012 714.82C355.988 732.457 383.812 749.319 407.024 761.778C418.629 768.006 429.099 773.143 437.745 776.727C446.333 780.287 453.29 782.388 457.792 782.388C466.572 782.388 476.274 778.853 485.834 772.884C495.409 766.905 504.926 758.433 513.359 748.427C530.203 728.437 542.863 702.148 542.863 677.089C542.863 670.71 540.967 662.794 537.666 653.884C534.358 644.956 529.608 634.949 523.827 624.362C512.264 603.187 496.537 579.619 479.853 557.611C463.17 535.604 445.506 515.123 430.059 500.132C422.338 492.639 415.146 486.493 408.889 482.211C402.691 477.971 397.206 475.414 392.95 475.414Z" fill="black"/>
<path d="M326.639 466.582C291.951 466.582 269.038 472.927 233.719 485.296C216.054 491.482 200.511 498.278 189.362 504.743C183.792 507.972 179.273 511.145 176.13 514.149C173.04 517.102 171.052 520.108 171.052 523.006C171.052 532.629 172.702 545.686 175.937 556.368C177.552 561.704 179.586 566.525 182.061 570.038C184.52 573.529 187.583 575.953 191.279 575.953C192.335 575.953 193.544 575.542 194.817 574.924C196.119 574.292 197.616 573.378 199.285 572.234C202.623 569.945 206.756 566.659 211.553 562.653C216.013 558.928 221.073 554.559 226.633 549.759L227.915 548.652C233.984 543.413 240.629 537.687 247.742 531.726C276.215 507.862 290.988 483.965 327.098 468.87C327.621 468.651 327.917 468.094 327.806 467.538C327.694 466.982 327.206 466.582 326.639 466.582Z" fill="black"/>
<path d="M55.087 700.577C60.932 678.763 67.1761 638.499 81.4848 604.837C88.6397 588.005 95.8188 572.601 101.972 561.592C105.044 556.095 107.887 551.645 110.368 548.655C111.605 547.164 112.214 546.377 113.343 545.614C114.447 544.867 123.415 545.28 124.659 545.614C126.42 546.085 128.608 548.486 130.46 550.112C132.331 551.756 134.293 553.905 136.272 556.382C140.23 561.338 144.327 567.697 147.968 574.178C151.61 580.661 154.815 587.303 156.983 592.836C158.065 595.601 158.899 598.113 159.395 600.205C159.876 602.233 160.093 604.073 159.746 605.37C159.547 606.113 159.017 606.927 158.372 607.745C157.7 608.598 156.795 609.585 155.699 610.687C153.505 612.894 150.47 615.639 146.817 618.815C142.56 622.515 137.424 626.835 131.75 631.607L131.745 631.612C127.689 635.023 123.359 638.664 118.879 642.476C97.324 660.816 72.775 681.422 57.1779 701.612C56.8313 702.061 56.2164 702.202 55.7083 701.951C55.2003 701.699 54.9403 701.124 55.087 700.577Z" fill="black"/>
<path d="M224.771 689.298L180.334 646.567L81.6071 749.24C69.8065 761.511 70.1876 781.025 82.4623 792.824C94.7323 804.624 114.244 804.242 126.044 791.971L224.771 689.298Z" fill="black"/>
<path d="M288.008 740.726L256.553 710.478L170.672 799.791C162.32 808.478 162.589 822.29 171.276 830.643C179.963 838.996 193.776 838.725 202.128 830.039L288.008 740.726Z" fill="black"/>
<path d="M352.412 787.154L320.956 756.907L251.473 829.165C243.121 837.851 243.395 851.664 252.077 860.017C260.763 868.369 274.577 868.099 282.928 859.412L352.412 787.154Z" fill="black"/>
<path d="M399.164 799.856L430.62 830.104L370.004 893.143C361.652 901.829 347.839 902.1 339.152 893.747C330.466 885.394 330.196 871.582 338.548 862.895L399.164 799.856Z" fill="black"/>
<path d="M43.6184 818.909C43.9389 818.673 44.3563 818.613 44.7304 818.749L103.635 840.166C104.184 840.365 104.507 840.934 104.397 841.508L104.394 841.522L104.357 841.715C104.331 841.85 104.291 842.051 104.239 842.315C104.135 842.841 103.981 843.616 103.778 844.613C103.372 846.606 102.774 849.484 102.001 853.03C100.456 860.119 98.215 869.879 95.4291 880.559C89.8701 901.869 82.1022 927.009 73.3169 941.835C64.0034 957.553 49.5773 971.072 36.1142 979.325C29.3848 983.45 22.8333 986.299 17.2267 987.422C11.6711 988.536 6.72824 988.008 3.62451 984.904C0.502202 981.782 0.210843 977.087 1.36049 971.687C2.51888 966.247 5.21909 959.703 8.62286 952.457C10.6541 948.132 12.9405 943.546 15.3262 938.761C20.9872 927.405 27.2085 914.926 31.9131 902.149C38.5945 884.003 41.4069 863.456 42.5427 847.407C43.1101 839.39 43.258 832.512 43.2641 827.64C43.2672 825.205 43.2348 823.272 43.2017 821.949C43.1852 821.288 43.1685 820.779 43.156 820.437C43.1497 820.266 43.1445 820.137 43.1409 820.051L43.1367 819.954L43.1357 819.93L43.1354 819.925L43.1353 819.924C43.1165 819.526 43.2978 819.145 43.6184 818.909Z" fill="black"/>
<path d="M132.897 851.605C133.215 851.388 133.618 851.338 133.98 851.471L174.434 866.343C174.905 866.517 175.217 866.967 175.213 867.469L175.212 867.516L175.211 867.652C175.21 867.772 175.207 867.948 175.203 868.18C175.196 868.643 175.182 869.324 175.159 870.2C175.112 871.953 175.025 874.486 174.867 877.618C174.551 883.88 173.949 892.536 172.8 902.114C170.511 921.212 166.032 944.19 157.205 959.088C147.922 974.753 135.463 987.974 123.925 995.947C121.598 997.555 119.298 998.957 117.058 1000.12H94.4794C92.1124 997.288 91.5274 993.936 92.136 990.134C92.7928 986.031 94.8499 981.306 97.581 975.923C98.9199 973.284 100.43 970.468 102.045 967.456C107.074 958.081 113.118 946.811 118.173 933.084C124.864 914.91 128.42 894.786 130.301 879.176C131.24 871.377 131.76 864.718 132.045 860.011C132.188 857.658 132.271 855.793 132.319 854.518C132.343 853.881 132.358 853.391 132.367 853.061C132.372 852.896 132.375 852.772 132.377 852.688L132.379 852.595L132.38 852.567C132.38 852.567 132.38 852.566 133.569 852.587L132.38 852.566C132.387 852.181 132.579 851.823 132.897 851.605Z" fill="black"/>
<path d="M330.66 1000.12C336.805 987.349 341.847 972.863 345.576 960.621C347.992 952.69 349.863 945.678 351.13 940.649C351.764 938.134 352.247 936.114 352.571 934.721C352.734 934.025 352.857 933.486 352.939 933.12C352.98 932.937 353.011 932.797 353.032 932.703L353.056 932.596L353.063 932.561L353.064 932.558C353.191 931.977 352.868 931.391 352.308 931.187L299.956 912.15C299.571 912.01 299.141 912.078 298.818 912.329C298.495 912.581 298.324 912.982 298.365 913.389L298.366 913.392L298.367 913.408L298.374 913.475C298.379 913.535 298.388 913.627 298.398 913.749C298.419 913.993 298.448 914.358 298.48 914.838C298.545 915.798 298.623 917.215 298.674 919.032C298.778 922.666 298.777 927.898 298.358 934.269C297.519 947.016 295.007 964.299 288.319 982.461C286.071 988.567 283.54 994.47 280.931 1000.12H330.66Z" fill="black"/>
<path d="M231.682 1000.12C235.329 995.644 238.716 990.854 241.676 985.859C250.467 971.024 256.597 949.749 260.527 932.277C262.496 923.523 263.92 915.689 264.851 910.044C265.317 907.221 265.66 904.944 265.887 903.372C266.001 902.586 266.085 901.975 266.141 901.561C266.169 901.354 266.19 901.196 266.204 901.089L266.22 900.968L266.224 900.936L266.225 900.925C266.294 900.383 265.985 899.864 265.476 899.666L211.934 878.844C211.554 878.696 211.124 878.754 210.796 878.997C210.467 879.239 210.286 879.634 210.316 880.041L210.502 880.027C210.316 880.041 210.317 880.042 210.317 880.042L210.317 880.047L210.319 880.071L210.325 880.166L210.336 880.334L210.35 880.547C210.371 880.885 210.4 881.386 210.433 882.039C210.498 883.345 210.576 885.254 210.628 887.661C210.732 892.475 210.731 899.276 210.311 907.216C209.469 923.113 206.95 943.503 200.272 961.64C194.963 976.06 188.273 987.781 182.767 997.43C182.244 998.347 181.731 999.245 181.231 1000.12H231.682Z" fill="black"/>
</svg>
