<svg width="958" height="1001" viewBox="0 0 958 1001" fill="none" xmlns="http://www.w3.org/2000/svg">
<path d="M289.786 8.43637C296.2 -0.502815 308.648 -2.55223 317.59 3.85889C426.145 81.686 473.136 138.157 550.999 240.907C557.644 249.675 555.92 262.169 547.148 268.811C538.377 275.454 525.879 273.73 519.234 264.961C442.474 163.666 398.284 110.734 294.366 36.2305C285.423 29.8194 283.373 17.3756 289.786 8.43637Z" fill="black"/>
<path d="M194.208 235.982C185.265 229.571 172.817 231.621 166.404 240.56C159.991 249.499 162.041 261.943 170.983 268.354C274.901 342.857 319.091 395.79 395.852 497.085C402.497 505.853 414.994 507.577 423.766 500.934C432.537 494.292 434.262 481.799 427.617 473.03C349.754 370.28 302.762 313.809 194.208 235.982Z" fill="black"/>
<path d="M32.5078 442.059C23.5655 435.648 11.1173 437.697 4.70393 446.636C-1.70941 455.575 0.34072 468.019 9.28301 474.43C113.201 548.934 157.391 601.866 234.152 703.161C240.797 711.93 253.294 713.653 262.066 707.011C270.837 700.368 272.562 687.875 265.917 679.107C188.054 576.357 141.062 519.886 32.5078 442.059Z" fill="black"/>
<path d="M853.013 886.901C860.31 883.551 864.902 878.7 864.908 873.298C864.919 863.162 848.785 854.928 828.87 854.906C808.955 854.884 792.803 863.084 792.792 873.22C792.784 881.226 802.844 888.044 816.884 890.568C802.371 895.007 792.76 902.762 792.751 911.595C792.737 923.991 811.637 934.302 836.455 936.321C822.093 943.015 813.087 952.638 813.075 963.34C813.053 983.613 845.321 1000.08 885.151 1000.12C924.982 1000.17 957.285 983.769 957.307 963.496C957.328 943.567 926.151 927.314 887.252 926.728C893.864 922.55 897.783 917.349 897.789 911.709C897.803 899.137 878.358 888.707 853.013 886.901Z" fill="black"/>
<path d="M592.848 467.178C620.867 410.533 659.618 356.03 697.827 305.888C697.827 305.888 845.7 108.272 816.488 73.7443C787.276 39.2163 766.107 74.3598 742.724 67.2599C719.341 60.16 740.953 1.59786 684.3 12.1944C660.808 16.5886 648.933 39.6856 640.847 65.6302L582.032 269.185C566.523 308.139 553.805 363.203 535.871 403.447L535.871 403.448L535.87 403.45L535.869 403.452L535.862 403.467L535.855 403.483C527.437 422.374 519.043 441.211 510.946 459.811C473.419 546.017 419.118 621.576 376.539 666.92L376.51 666.95L376.495 666.966L376.485 666.976L376.484 666.978C361.875 682.315 310.325 720.121 316.545 754.408C322.764 788.696 327.626 802.373 344.837 815.147C361.958 827.856 384.987 834.007 408.704 836.748C432.421 839.489 475.925 826.538 510.878 836.022C545.565 845.435 662.103 1016.87 791.775 990.294C793.415 989.958 794.463 988.323 794.09 986.691L763.211 851.376C762.924 850.12 761.904 849.19 760.627 849.017C676.919 837.673 557.734 708.685 552.298 641.016C547.597 582.503 564.828 523.824 592.848 467.178Z" fill="black"/>
</svg>
