<svg width="1065" height="1001" viewBox="0 0 1065 1001" fill="none" xmlns="http://www.w3.org/2000/svg">
<path d="M243.472 165.917C230.375 157.102 212.611 160.573 203.796 173.67C194.981 186.767 198.452 204.53 211.549 213.346L237.177 230.596C250.274 239.411 268.038 235.94 276.853 222.843C285.668 209.746 282.197 191.983 269.1 183.167L243.472 165.917Z" fill="black"/>
<path d="M302.52 745.107C310.43 731.445 305.767 713.956 292.104 706.046C278.441 698.136 260.953 702.8 253.043 716.463L236.779 744.555C228.869 758.218 233.532 775.706 247.195 783.616C260.858 791.526 278.346 786.863 286.256 773.2L302.52 745.107Z" fill="black"/>
<path d="M379.563 872.362C388.617 859.429 385.471 841.605 372.538 832.552C359.604 823.498 341.78 826.643 332.727 839.577L312.027 869.148C302.974 882.082 306.119 899.906 319.053 908.959C331.986 918.013 349.81 914.867 358.863 901.934L379.563 872.362Z" fill="black"/>
<path fill-rule="evenodd" clip-rule="evenodd" d="M1018.97 888.914C1027.31 882.8 1041.18 872.464 1045.96 868.895C1047.76 867.537 1049.34 865.046 1049.4 862.795L1049.62 853.98C1049.76 848.224 1049.97 839.778 1050.23 829.023C1050.76 807.511 1051.51 776.756 1052.39 739.782C1054.16 665.835 1056.45 567.011 1058.58 467.508C1060.7 368.009 1062.66 267.815 1063.74 191.133C1064.29 152.797 1064.61 120.311 1064.63 96.7172C1064.64 84.9265 1064.58 75.3147 1064.42 68.2886C1064.34 64.7812 1064.24 61.8633 1064.11 59.6165C1064 57.6374 1063.84 55.4975 1063.47 54.0247C1063.1 52.5298 1062.26 51.189 1061.09 50.1897C1056.48 46.2573 1048.4 43.0222 1039.19 40.1714C1029.61 37.2 1017.51 34.2832 1003.82 31.4651C976.407 25.8239 942.021 20.4683 907.198 15.8376C837.707 6.59678 765.562 0.125 742.843 0.125C719.767 0.125 657.707 9.5403 600.3 22.6744C571.489 29.266 543.466 36.8791 521.763 44.8676C510.934 48.8537 501.432 53.0217 494.124 57.3237C487.227 61.3846 480.74 66.4291 478.21 72.8048C477.865 73.6727 477.688 74.5979 477.688 75.5316C477.688 82.8953 480.489 184.104 484.444 311.721L373.603 87.7629C367.567 75.5652 352.785 70.5709 340.587 76.6077C328.389 82.6445 323.395 97.4264 329.432 109.624L454.277 361.88H448.979L336.136 256.006C327.203 247.625 313.168 248.073 304.787 257.005C296.406 265.938 296.853 279.973 305.786 288.354L384.151 361.88H34.1202C15.3387 361.88 0.113281 377.105 0.113281 395.886C0.113281 414.668 15.3387 429.893 34.1202 429.893L420.106 429.894C420.243 429.894 420.38 429.893 420.517 429.893C446.648 429.893 460.931 437.852 460.931 450.1C460.931 462.293 446.842 474.16 420.877 474.25H40.0344C21.2529 474.25 6.02752 489.476 6.02752 508.257C6.02752 527.039 21.2529 542.264 40.0344 542.264H398.348L324.447 630.193C316.566 639.57 317.779 653.56 327.156 661.441C336.533 669.321 350.523 668.109 358.404 658.732L455.347 543.386L364.232 752.916C358.805 765.397 364.523 779.915 377.004 785.342C389.484 790.769 404.002 785.051 409.429 772.57L493.313 579.668C495.126 630.354 496.95 678.453 498.694 720.261C501.8 794.695 504.676 849.92 506.856 863.768C507.099 865.313 507.825 866.741 508.931 867.846C510.689 869.604 513.447 871.432 516.354 873.179C519.455 875.042 523.394 877.198 528.004 879.585C537.236 884.366 549.451 890.224 563.65 896.738C592.064 909.774 628.677 925.554 665.799 940.798C702.917 956.04 740.626 970.779 771.227 981.72C786.519 987.187 800.114 991.734 811.01 994.924C821.544 998.008 830.509 1000.12 835.993 1000.12C841.972 1000.12 849.662 997.451 857.626 993.89C865.927 990.179 875.693 984.949 886.254 978.787C907.398 966.452 932.263 950.067 955.944 933.765C979.649 917.447 1002.27 901.137 1018.97 888.914ZM727.071 250.495C767.901 250.495 800.999 217.396 800.999 176.567C800.999 135.737 767.901 102.639 727.071 102.639C686.242 102.639 653.143 135.737 653.143 176.567C653.143 217.396 686.242 250.495 727.071 250.495ZM616.94 445.419L617.108 444.097C617.373 441.231 617.759 437.119 618.238 432.131C619.197 422.156 620.533 408.669 622.041 394.634C623.548 380.607 625.232 365.995 626.886 353.782C628.509 341.798 630.176 331.524 631.733 326.593C633.673 320.448 638.214 314.737 644.173 309.545C650.202 304.293 658.107 299.202 667.486 294.39C686.255 284.763 711.532 275.949 741.094 269.189C800.234 255.665 877.289 250.19 955.265 263.396C958.24 263.9 960.55 265.842 962.098 267.435C963.805 269.191 965.469 271.459 967.071 273.996C970.292 279.095 973.717 286.009 977.117 293.996C983.938 310.014 990.953 331.04 996.235 352.145C1001.5 373.179 1005.15 394.7 1005.01 411.597C1004.94 419.997 1003.94 427.771 1001.37 433.875C998.734 440.145 994.117 445.274 986.85 446.56C972.038 449.181 960.487 441.588 951.968 430.701C943.532 419.92 937.285 405.045 932.569 390.431C927.82 375.712 924.457 360.711 922.026 349.384C921.195 345.481 919.084 335.989 918.478 333.459C916.716 333.239 913.998 332.998 911.13 332.829C905.412 332.492 898.111 332.294 890.842 332.264C883.565 332.233 876.424 332.37 871.013 332.69C869.74 332.765 868.591 332.849 867.578 332.94C868.469 336.573 869.839 341.844 871.618 348.555C873.517 355.719 875.862 364.457 878.561 374.51L878.589 374.614C880.96 383.447 883.603 393.292 886.454 403.975C898.658 449.705 914.61 510.525 929.002 571.506C943.383 632.439 956.252 693.723 962.245 740.321C965.233 763.56 966.562 783.506 965.396 798.037C964.817 805.257 963.589 811.63 961.327 816.505C959.029 821.459 955.187 825.742 949.2 826.597C929.947 829.348 915.608 815.748 904.744 796.925C893.715 777.815 884.791 750.949 876.802 721.801C871.565 702.698 866.645 682.277 861.787 662.115L861.787 662.114L861.787 662.113L861.787 662.112L861.786 662.111L861.782 662.092L861.781 662.086L861.772 662.051L861.767 662.03L861.763 662.015C859.21 651.419 856.675 640.896 854.119 630.674C847.449 603.991 840.635 579.316 832.93 559.88C805.763 580.917 794.447 606.013 791.555 632.344C788.42 660.89 795.163 691.152 803.437 719.729C805.497 726.844 807.637 733.809 809.73 740.602L809.993 741.457L809.995 741.464L810.002 741.487L810.003 741.491L810.015 741.528L810.019 741.543C812.005 747.991 813.946 754.291 815.7 760.339C819.36 772.956 822.331 784.86 823.263 795.275C824.187 805.614 823.2 815.461 817.89 823.185C812.43 831.126 803.301 835.564 790.821 836.974C769.618 839.368 753.266 823.281 741.016 802.166C728.519 780.627 718.763 751.38 711.298 722.014C703.808 692.553 698.52 662.556 695.106 639.27C691.721 616.183 690.107 599.217 690.107 596.005C690.107 592.891 691.592 590.023 692.925 587.91C694.38 585.605 696.345 583.156 698.488 580.69C700.966 577.839 704.048 574.565 707.246 571.167L713.832 564.099C719.32 558.09 724.578 551.881 728.45 545.763C732.375 539.561 734.464 534.083 734.464 529.45L734.464 529.395L734.465 529.367L734.465 529.323L734.467 529.273C735.294 501.531 734.61 483.483 731.537 453.161C729.815 436.17 725.639 415.959 720.176 400.174C717.431 392.245 714.471 385.754 711.524 381.385C708.278 376.573 706.32 376.163 706.026 376.171L706.02 376.171C705.92 376.172 705.252 376.183 704.036 377.803C702.751 379.514 701.417 382.336 700.161 386.384C697.667 394.426 695.986 405.603 694.76 417.798C693.714 428.204 692.722 443.827 692.097 453.671C691.404 464.421 690.707 474.131 689.463 479.523C688.931 481.83 687.687 483.985 686.356 485.838C684.971 487.766 683.196 489.769 681.166 491.795C677.103 495.849 671.671 500.344 665.385 504.961C652.793 514.21 636.313 524.287 619.367 532.713C602.487 541.106 584.771 548.049 569.769 550.756C562.282 552.108 555.076 552.48 548.832 551.184C542.469 549.864 536.78 546.718 533.251 540.894C526.391 529.576 531.018 517.145 538.335 506.824C545.828 496.255 557.538 485.754 569.448 476.588C581.441 467.358 594.017 459.197 603.56 453.359C608.34 450.435 612.378 448.083 615.227 446.458C615.468 446.32 615.799 446.115 616.12 445.916C616.434 445.722 616.738 445.533 616.94 445.419Z" fill="black"/>
</svg>
