<svg width="556" height="1001" viewBox="0 0 556 1001" fill="none" xmlns="http://www.w3.org/2000/svg">
<path fill-rule="evenodd" clip-rule="evenodd" d="M226.953 499.464C226.953 512.633 212.346 520.726 190.991 532.558C132.992 564.695 25.2235 624.411 25.2183 888.352H537.123C537.128 629.41 426.942 570.771 364.592 537.59C339.992 524.498 322.837 515.369 322.837 499.464C322.837 483.268 340.622 472.726 365.946 457.716C428.523 420.627 537.123 356.26 537.123 111.897H25.2183C25.2183 367.623 132.186 430.475 190.34 464.645C212.047 477.401 226.953 486.16 226.953 499.464ZM148.963 325.523C169.471 297.741 388.401 300.396 408.243 325.524C428.084 350.653 329.477 427.374 275.911 427.374C222.35 427.374 128.46 353.305 148.963 325.523ZM300.759 665.515C287.81 652.391 266.626 652.391 253.677 665.515L147.759 772.864C127.143 793.759 141.946 829.158 171.3 829.158H383.136C412.49 829.158 427.293 793.759 406.677 772.864L300.759 665.515Z" fill="black"/>
<path d="M0.101562 936.633C0.101562 925.675 8.9848 916.792 19.9428 916.792H535.816C546.774 916.792 555.657 925.675 555.657 936.633V980.284C555.657 991.242 546.774 1000.12 535.816 1000.12H19.9428C8.98479 1000.12 0.101562 991.242 0.101562 980.284V936.633Z" fill="black"/>
<path d="M0.101562 19.9663C0.101562 9.00824 8.9848 0.125 19.9428 0.125H535.816C546.774 0.125 555.657 9.00824 555.657 19.9663V63.6171C555.657 74.5751 546.774 83.4583 535.816 83.4583H19.9428C8.98479 83.4583 0.101562 74.5751 0.101562 63.6171V19.9663Z" fill="black"/>
</svg>
