<svg width="989" height="1001" viewBox="0 0 989 1001" fill="none" xmlns="http://www.w3.org/2000/svg">
<path d="M76.3573 494.742C76.3573 263.599 262.758 76.2199 492.7 76.2199V0.125C220.951 0.125 0.65625 221.573 0.65625 494.742C0.65625 767.912 220.951 989.359 492.7 989.359C541.267 989.359 588.195 982.286 632.51 969.108L577.492 937.344C565.809 930.598 556.512 920.796 550.392 909.279C531.533 911.906 512.278 913.264 492.7 913.264C262.758 913.264 76.3573 725.885 76.3573 494.742Z" fill="black"/>
<path d="M984.745 494.742C984.745 528.934 981.293 562.315 974.72 594.553L904.873 554.225C907.622 534.795 909.044 514.935 909.044 494.742C909.044 370.387 855.151 251.957 769.47 170.404C763.3 164.526 757.727 159.286 752.707 154.624L719.804 220.779L568.407 7.71332H825.78L787.872 83.9275C796.967 92.0648 808.047 102.323 821.519 115.15C921.686 210.493 984.745 348.656 984.745 494.742Z" fill="black"/>
<path fill-rule="evenodd" clip-rule="evenodd" d="M730.07 522.341C740.627 494.978 734.868 462.637 712.638 440.943L546.9 277.073C516.901 247.416 468.063 247.416 438.069 277.073L272.713 440.943C242.719 470.599 242.719 518.886 272.713 548.542L438.456 712.412C466.782 740.421 511.921 741.976 542.116 717.079V671.703C542.116 646.426 555.603 623.069 577.492 610.43L730.07 522.341ZM471.138 661.082L604.581 476.682C609.194 470.219 606.506 464.896 598.426 464.516H523.056V330.301C523.056 322.317 519.212 320.796 514.212 327.641L380.769 512.042C375.775 518.886 378.463 524.208 386.925 524.208H462.294V658.424C462.294 666.405 466.144 667.927 471.138 661.082Z" fill="black"/>
<path d="M595.757 195.757C604.551 186.966 618.802 186.966 627.596 195.757C636.384 204.549 636.384 218.803 627.596 227.594L596.516 258.672L564.678 226.836L595.757 195.757Z" fill="black"/>
<path d="M674.926 274.607C683.719 265.815 697.97 265.815 706.764 274.607C715.553 283.398 715.553 297.652 706.764 306.444L675.684 337.521L643.851 305.685L674.926 274.607Z" fill="black"/>
<path d="M757.255 353.076C766.048 344.285 780.299 344.285 789.093 353.076C797.881 361.868 797.881 376.122 789.093 384.913L758.013 415.991L726.18 384.155L757.255 353.076Z" fill="black"/>
<path d="M375.533 195.818C366.74 187.027 352.489 187.027 343.695 195.818C334.907 204.61 334.907 218.863 343.695 227.655L374.775 258.732L406.613 226.896L375.533 195.818Z" fill="black"/>
<path d="M296.365 274.667C287.572 265.876 273.321 265.876 264.527 274.667C255.738 283.459 255.738 297.712 264.527 306.504L295.606 337.581L327.44 305.745L296.365 274.667Z" fill="black"/>
<path d="M214.036 353.137C205.243 344.346 190.992 344.346 182.198 353.137C173.409 361.929 173.409 376.182 182.198 384.974L213.277 416.051L245.111 384.215L214.036 353.137Z" fill="black"/>
<path d="M375.533 796.661C366.74 805.452 352.489 805.452 343.695 796.661C334.907 787.869 334.907 773.616 343.695 764.824L374.775 733.747L406.613 765.584L375.533 796.661Z" fill="black"/>
<path d="M296.365 717.812C287.572 726.603 273.321 726.603 264.527 717.812C255.738 709.02 255.738 694.767 264.527 685.975L295.606 654.898L327.44 686.734L296.365 717.812Z" fill="black"/>
<path d="M214.036 639.342C205.243 648.133 190.992 648.133 182.198 639.342C173.409 630.55 173.409 616.297 182.198 607.505L213.277 576.428L245.111 608.264L214.036 639.342Z" fill="black"/>
<path fill-rule="evenodd" clip-rule="evenodd" d="M778.922 550.58C785.691 546.673 794.022 546.673 800.791 550.58L977.78 652.764C984.544 656.671 988.714 663.89 988.714 671.703V876.072C988.714 883.885 984.544 891.104 977.78 895.011L800.791 997.195C794.022 1001.1 785.691 1001.1 778.922 997.195L601.933 895.011C595.17 891.104 590.999 883.885 590.999 876.072V671.703C590.999 663.89 595.17 656.671 601.933 652.764L778.922 550.58ZM790.465 748.015C790.465 748.015 744.707 692.202 709.583 692.202C664.147 692.202 629.701 731.997 629.701 777.411C629.701 822.824 662.76 856.86 708.196 856.86C729.411 856.86 752.426 847.996 767.013 834.813L739.391 802.04C732.029 808.974 720.301 812.964 709.387 812.964C686.669 812.964 673.619 796.94 673.619 774.233C673.619 751.525 686.865 736.097 709.583 736.097C725.532 736.097 736.029 746.972 745.838 757.131L746.22 757.529C747.531 758.884 748.828 760.224 750.124 761.521C757.069 768.468 776.767 790.077 791.52 806.271L791.761 806.535C800.52 816.145 807.494 823.797 808.941 825.244L809.972 826.306C816.037 832.624 838.925 856.463 868.362 856.463C913.797 856.463 947.846 822.824 947.846 777.411C947.846 731.997 914.194 692.202 868.759 692.202C846.87 692.202 825.584 703.527 810.846 717.461L838.689 747.506C846.237 738.699 856.246 735.899 868.759 735.899C891.476 735.899 904.129 751.923 904.129 774.63C904.129 797.337 891.079 812.964 868.362 812.964C853.091 812.964 841.533 801.319 834.267 793.993L832.986 792.705C825.835 785.554 790.465 748.015 790.465 748.015Z" fill="black"/>
</svg>
