<svg width="1009" height="1001" viewBox="0 0 1009 1001" fill="none" xmlns="http://www.w3.org/2000/svg">
<path d="M599.058 859.5L473.056 718.875H630.558L756.56 859.5L630.558 1000.12H473.056L599.058 859.5Z" fill="black"/>
<path d="M315.554 859.5L189.553 718.875H347.055L473.056 859.5L347.055 1000.12H189.553L315.554 859.5Z" fill="black"/>
<path d="M819.56 78.25C819.56 78.25 791.766 0.125019 650.014 0.125013C480.468 0.125006 347.055 0.125 347.055 0.125V156.375C347.055 156.375 480.468 156.375 650.014 156.375C791.766 156.375 819.56 78.25 819.56 78.25Z" fill="black"/>
<path d="M819.56 547C819.56 547 791.766 468.875 650.014 468.875C480.468 468.875 347.055 468.875 347.055 468.875V625.125C347.055 625.125 480.468 625.125 650.014 625.125C791.766 625.125 819.56 547 819.56 547Z" fill="black"/>
<path d="M1008.56 312.625C1008.56 312.625 980.768 250.125 839.017 250.125C669.47 250.125 536.057 250.125 536.057 250.125V375.125C536.057 375.125 669.47 375.125 839.017 375.125C980.768 375.125 1008.56 312.625 1008.56 312.625Z" fill="black"/>
<path d="M0.550781 531.375H315.554V562.625H0.550781V531.375Z" fill="black"/>
<path d="M0.550781 62.625H315.554V93.875H0.550781V62.625Z" fill="black"/>
<path d="M0.550781 281.375H504.557V343.875H0.550781V281.375Z" fill="black"/>
</svg>
