<svg width="953" height="1001" viewBox="0 0 953 1001" fill="none" xmlns="http://www.w3.org/2000/svg">
<path fill-rule="evenodd" clip-rule="evenodd" d="M952.42 366.4L647.147 588.652L705.601 830.742L816.785 948.67L765.567 1000.12L585.252 964.644L416.778 887.222L341.935 709.254L271.996 741.626L125.966 595.316C125.966 595.316 215.597 528.481 215.597 510.041C215.597 491.602 0 292.316 0 292.316V205.794C10.1228 206.371 39.5768 235.36 72.4993 267.767C120.332 314.846 175.494 369.139 189.357 354.017C212.761 328.486 0 97.9949 0 97.9949V0.125H39.7153C39.7153 0.125 193.612 182.391 221.98 161.823C250.348 141.256 124.11 0.125 124.11 0.125H262.405C262.405 0.125 501.406 273.168 512.044 273.168C522.682 273.168 655.862 68.6988 655.862 68.6988L952.42 366.4ZM486.513 300.497C486.513 300.497 400.699 383.803 354.601 383.803C316.803 383.803 304.275 375.479 292.391 367.578C289.781 365.843 287.199 364.129 284.39 362.527C268.788 353.635 229.072 294.444 244.675 283.806C252.648 278.37 270.068 290.898 286.806 302.935C302.818 314.454 318.21 325.524 324.105 319.975C329.081 315.293 313.168 296.362 294.696 274.394C268.405 243.121 236.94 205.693 253.185 194.445C269.569 183.105 300.873 213.667 326.039 238.234C343.365 255.147 357.776 269.217 362.402 264.815C367.383 260.074 362.247 247.703 356.779 234.537C349.797 217.724 342.273 199.616 354.601 194.445C376.586 185.225 486.513 300.497 486.513 300.497ZM278.007 408.625C278.007 424.685 264.987 437.703 248.93 437.703C232.873 437.703 219.853 424.685 219.853 408.625C219.853 392.566 232.873 379.548 248.93 379.548C264.987 379.548 278.007 392.566 278.007 408.625ZM202.832 263.239C216.933 263.239 228.363 251.809 228.363 237.708C228.363 223.607 216.933 212.176 202.832 212.176C188.731 212.176 177.301 223.607 177.301 237.708C177.301 251.809 188.731 263.239 202.832 263.239Z" fill="black"/>
</svg>
