<svg width="990" height="1000" viewBox="0 0 990 1000" fill="none" xmlns="http://www.w3.org/2000/svg">
<path fill-rule="evenodd" clip-rule="evenodd" d="M487.52 1000C487.52 1000 698.529 830.974 730.992 735.437C763.454 639.901 714.76 544.365 617.372 544.365C519.984 544.365 487.521 617.854 487.521 617.854C487.521 617.854 448.841 544.365 351.453 544.365C254.065 544.365 205.37 639.901 237.833 735.437C270.296 830.974 487.52 1000 487.52 1000ZM593.525 764.988H382.494L487.521 872.902L593.525 764.988Z" fill="black"/>
<path d="M188.849 635.492L164.269 479.017L300.959 504.796L278.177 357.314L432.254 404.077L503.597 224.221L593.525 413.07L720.624 357.314L710.432 504.796L808.153 459.233L794.964 617.854L989.808 394.484L832.734 384.293L878.897 149.281L658.273 254.796L503.597 0L369.904 261.99L134.892 170.264L157.674 394.484H0L188.849 635.492Z" fill="black"/>
</svg>
