<svg width="909" height="1000" viewBox="0 0 909 1000" fill="none" xmlns="http://www.w3.org/2000/svg">
<path d="M725.701 0C395.932 227.57 221.839 169.935 0.804688 0C14.4708 141.414 208.172 425.431 486.247 319.073C337.109 477.7 198.666 382.056 13.8766 166.964C108.351 648.841 729.266 529.412 776.206 49.3167C494.566 329.768 332.95 399.881 108.351 141.414C316.313 308.378 549.23 272.133 725.701 0Z" fill="black"/>
<path d="M767.293 279.263C746.908 329.146 728.875 354.234 679.949 392.751C693.632 554.843 663.672 639.728 599.735 775.995C599.735 775.995 600.924 1000 640.733 1000C680.543 1000 825.522 756.982 759.569 425.431C825.522 477.124 827.305 630.422 813.639 762.329C898.606 684.492 996.184 619.607 767.293 279.263Z" fill="black"/>
</svg>
