<svg width="993" height="1000" viewBox="0 0 993 1000" fill="none" xmlns="http://www.w3.org/2000/svg">
<path d="M269.95 273.248C269.95 249.68 289.057 230.573 312.625 230.573C336.194 230.573 355.301 249.68 355.301 273.248V438.854C355.301 462.422 336.194 481.529 312.625 481.529C289.057 481.529 269.95 462.422 269.95 438.854V273.248Z" fill="black"/>
<path d="M390.969 273.248C390.969 249.68 410.076 230.573 433.644 230.573C457.213 230.573 476.32 249.68 476.32 273.248V438.854C476.32 462.422 457.213 481.529 433.644 481.529C410.076 481.529 390.969 462.422 390.969 438.854V273.248Z" fill="black"/>
<path d="M508.167 253.319C508.167 240.757 527.273 230.573 550.842 230.573C574.411 230.573 593.517 240.757 593.517 253.319V369.427H508.167V253.319Z" fill="black"/>
<path d="M621.543 249.636C621.543 239.108 640.649 230.573 664.218 230.573C687.787 230.573 706.893 239.108 706.893 249.636V382.803C687.148 357.962 661.67 356.051 621.543 356.051V249.636Z" fill="black"/>
<path d="M671.861 398.726H535.555C512.69 398.726 494.154 417.262 494.154 440.127C494.154 462.993 512.69 481.529 535.555 481.529H578.23C578.23 481.529 638.103 487.261 638.103 510.828C638.103 524.51 615.712 535.616 589.378 546.015C570.352 553.528 552.261 560.672 546.383 568.153C541.354 574.554 528.991 591.314 522.816 612.102C511.789 649.229 506.616 693.249 489.058 692.357C461.67 690.964 458.74 655.045 472.498 615.287C482.067 587.632 502.09 562.206 515.322 545.402C523.701 534.762 529.357 527.579 527.912 525.478C520.906 515.287 482.689 510.828 426.638 510.828C370.587 510.828 338.103 517.834 313.899 542.038C289.695 566.242 275.683 624.841 275.683 664.968C275.683 705.096 297.339 758.599 313.899 775.159C318.045 779.305 322.671 782.413 327.275 784.743V970.701C327.275 986.882 340.393 1000 356.574 1000H618.995C635.176 1000 648.294 986.882 648.294 970.701V787.454C661.791 781.929 683.549 771.321 692.88 757.325C706.893 736.306 713.262 698.726 713.262 664.968V440.127C713.262 417.262 694.726 398.726 671.861 398.726Z" fill="black"/>
<path d="M162.944 459.873C162.944 483.793 152.393 503.185 139.377 503.185C126.361 503.185 115.81 483.793 115.81 459.873C115.81 435.952 126.361 416.561 139.377 416.561C152.393 416.561 162.944 435.952 162.944 459.873Z" fill="black"/>
<path d="M867.402 412.739C867.402 436.659 856.851 456.051 843.836 456.051C830.82 456.051 820.269 436.659 820.269 412.739C820.269 388.818 830.82 369.427 843.836 369.427C856.851 369.427 867.402 388.818 867.402 412.739Z" fill="black"/>
<path d="M976.957 817.834C976.957 848.79 968.116 873.885 957.211 873.885C946.306 873.885 937.466 848.79 937.466 817.834C937.466 786.878 946.306 761.783 957.211 761.783C968.116 761.783 976.957 786.878 976.957 817.834Z" fill="black"/>
<path d="M52.1158 771.975C52.1158 802.931 43.2756 828.025 32.3706 828.025C21.4656 828.025 12.6254 802.931 12.6254 771.975C12.6254 741.018 21.4656 715.924 32.3706 715.924C43.2756 715.924 52.1158 741.018 52.1158 771.975Z" fill="black"/>
<path d="M0.52344 147.771C0.527011 161.25 11.8729 492.471 16.7785 635.057C17.0431 642.746 28.4243 643.599 29.7378 636.018C50.9384 513.646 97.8246 256.688 117.721 256.688C143.836 256.688 140.014 291.72 161.67 291.72C183.326 291.72 182.415 220.733 231.734 147.771C260.769 104.816 308.3 65.6219 360.253 35.5445C374.914 27.0564 369.02 0 352.078 0H171.869C171.869 0 111.604 4.45959 59.7675 49.0446C7.93078 93.6296 0.518887 130.573 0.52344 147.771Z" fill="black"/>
<path d="M992.881 147.771C992.877 161.25 981.531 492.471 976.626 635.057C976.361 642.746 964.98 643.599 963.666 636.018C942.466 513.646 895.58 256.688 875.683 256.688C849.569 256.688 853.39 291.72 831.734 291.72C810.078 291.72 810.989 220.733 761.671 147.771C732.636 104.816 685.105 65.6219 633.152 35.5445C618.49 27.0564 624.385 0 641.326 0H821.535C821.535 0 881.8 4.45959 933.637 49.0446C985.473 93.6296 992.885 130.573 992.881 147.771Z" fill="black"/>
</svg>
