<svg width="923" height="1000" viewBox="0 0 923 1000" fill="none" xmlns="http://www.w3.org/2000/svg">
<path d="M260.288 248.231C200.366 212.645 131.058 248.231 109.185 300.055C109.179 238.245 166.655 177.055 244.678 188.914C317.127 -122.029 764.815 -19.0032 711.741 279.456C806.649 234.498 896.541 317.538 830.98 405.577C993.946 485.504 899.683 660.956 855.351 694.673C892.834 728.389 880.327 762.107 855.351 802.693C860.346 748.371 850.356 721.522 818.492 721.522C975.858 486.751 705.497 373.737 599.956 454.279C647.41 379.982 724.854 353.756 818.492 396.836C826.629 305.678 748.58 284.449 684.249 317.538C649.712 48.4938 326.473 50.3039 260.288 248.231Z" fill="black"/>
<path d="M474.473 636.605C408.993 636.605 354.67 684.375 344.453 746.967L240.327 636.605L372.697 659.083L319 537.951L430.141 607.883L466.98 223.259L524.424 619.746L651.8 512.976L570.629 664.078L717.361 653.463L603.805 743.113C592.031 682.425 538.603 636.605 474.473 636.605Z" fill="black"/>
<path d="M403.917 814.24C403.917 727.325 472.6 710.283 472.6 710.283C472.6 710.283 541.283 727.325 541.283 814.24V1000H403.917V814.24Z" fill="black"/>
<path d="M94.2194 796.452C73.6145 758.364 81.1072 716.53 121.679 687.185C49.8877 633.486 53.0096 454.911 236.566 471.771C227.818 391.847 301.517 326.911 389.542 360.005C327.741 280.703 182.862 338.154 198.479 438.678C58.6183 353.76 -102.461 554.188 87.967 682.189C34.2779 714.657 32.4187 767.105 94.2194 796.452Z" fill="black"/>
</svg>
