<svg width="1133" height="1000" viewBox="0 0 1133 1000" fill="none" xmlns="http://www.w3.org/2000/svg">
<path d="M444.063 472.933C444.063 472.933 454.396 448.828 443.724 407.966L459.194 395.736L570.418 299.203L679.366 210.178L813.734 0L1132.89 320.28L805.877 558.057L869.316 818.046L988.996 944.903L934.172 1000L740.534 961.461L559.479 877.936L478.638 686.728L403.659 721.297L246.504 563.889L366.708 468.855C415.042 485.371 444.063 472.933 444.063 472.933Z" fill="black"/>
<path d="M151.217 108.413L79.5442 180.086L50.874 151.416L122.547 79.7432L151.217 108.413Z" fill="black"/>
<path d="M321.793 278.99C394.902 352.098 373.401 402.27 373.401 402.27C373.401 402.27 323.229 423.771 250.121 350.663L93.8692 194.411L165.542 122.738L321.793 278.99Z" fill="black"/>
<path d="M318.969 464.209C320.022 464.837 320.6 466.032 320.44 467.247C320.28 468.463 319.412 469.467 318.233 469.802C258.956 486.628 180.8 519.95 117.35 549.131C85.6498 563.709 57.6649 577.234 37.6053 587.114C27.576 592.054 19.529 596.082 13.9907 598.874C11.2216 600.27 9.07969 601.357 7.63087 602.095L5.42949 603.22C4.08586 603.91 2.43968 603.521 1.54698 602.303C0.654283 601.084 0.779985 599.397 1.84345 598.324C23.8704 576.102 50.9877 559.685 76.8805 545.568C83.3686 542.03 89.7608 538.646 95.9754 535.356L95.9947 535.345L95.9995 535.343C114.753 525.414 131.888 516.343 145.162 506.507C162.758 493.47 172.588 479.799 170.664 462.009C168.689 443.755 154.313 420.166 120.187 387.655C119.452 386.954 119.11 385.935 119.275 384.932C119.44 383.93 120.09 383.074 121.011 382.645C126.003 380.323 132.918 380.286 140.642 381.483C148.493 382.699 157.729 385.284 167.733 388.77C187.754 395.747 211.243 406.471 233.607 417.629C255.989 428.796 277.326 440.439 293.061 449.287C300.931 453.712 307.404 457.44 311.911 460.063C314.164 461.374 315.927 462.409 317.127 463.117C317.714 463.463 318.618 464 318.948 464.196L318.969 464.209Z" fill="black"/>
<path d="M439.002 349.277C437.781 349.278 436.676 348.553 436.192 347.433L436.182 347.41C436.031 347.06 435.618 346.098 435.352 345.474C434.807 344.198 434.012 342.324 433.008 339.93C431 335.143 428.154 328.272 424.8 319.932C418.094 303.255 409.35 280.689 401.21 257.152C393.078 233.635 385.518 209.062 381.212 188.396C379.06 178.07 377.698 168.619 377.51 160.711C377.324 152.931 378.252 146.109 381.188 141.479C381.73 140.625 382.659 140.094 383.67 140.06C384.681 140.027 385.643 140.496 386.241 141.312C413.938 179.195 435.373 196.43 453.14 200.732C470.456 204.926 485.22 196.983 500.36 181.292C511.781 169.455 522.947 153.707 535.167 136.473L535.171 136.467C539.224 130.751 543.393 124.871 547.726 118.916C565.002 95.1724 584.707 70.5169 609.485 51.6353C610.682 50.7237 612.363 50.8171 613.451 51.8555C614.539 52.894 614.711 54.5693 613.856 55.8068L612.462 57.8352C611.547 59.1705 610.198 61.1449 608.462 63.6988C604.991 68.8066 599.977 76.2319 593.807 85.4967C581.467 104.027 564.507 129.912 546.026 159.329C509.036 218.209 466.063 291.074 441.808 347.427C441.326 348.549 440.223 349.276 439.002 349.277Z" fill="black"/>
</svg>
