<svg width="1009" height="1000" viewBox="0 0 1009 1000" fill="none" xmlns="http://www.w3.org/2000/svg">
<path d="M598.835 859.375L472.834 718.75H630.335L756.337 859.375L630.335 1000H472.834L598.835 859.375Z" fill="black"/>
<path d="M315.332 859.375L189.33 718.75H346.832L472.834 859.375L346.832 1000H189.33L315.332 859.375Z" fill="black"/>
<path d="M819.338 78.125C819.338 78.125 791.543 1.92844e-05 649.792 1.31375e-05C480.245 5.78534e-06 346.832 0 346.832 0V156.25C346.832 156.25 480.245 156.25 649.792 156.25C791.543 156.25 819.338 78.125 819.338 78.125Z" fill="black"/>
<path d="M819.338 546.875C819.338 546.875 791.543 468.75 649.792 468.75C480.245 468.75 346.832 468.75 346.832 468.75V625C346.832 625 480.245 625 649.792 625C791.543 625 819.338 546.875 819.338 546.875Z" fill="black"/>
<path d="M1008.34 312.5C1008.34 312.5 980.545 250 838.794 250C669.248 250 535.834 250 535.834 250V375C535.834 375 669.248 375 838.794 375C980.545 375 1008.34 312.5 1008.34 312.5Z" fill="black"/>
<path d="M0.328125 531.25H315.332V562.5H0.328125V531.25Z" fill="black"/>
<path d="M0.328125 62.5H315.332V93.75H0.328125V62.5Z" fill="black"/>
<path d="M0.328125 281.25H504.334V343.75H0.328125V281.25Z" fill="black"/>
</svg>
