<?xml version="1.0" encoding="UTF-8"?>
<svg id="Layer_2" data-name="Layer 2" xmlns="http://www.w3.org/2000/svg" viewBox="0 0 57.33 44.56">
  <g id="Layer_1-2" data-name="Layer 1">
    <g>
      <path d="M33.96,27.75c0,.85.29,1.64.76,2.22-.76.59-1.26,1.58-1.26,2.71,0,.6.15,1.17.4,1.66-1.77.06-3.19,1.51-3.19,3.29,0,.69.21,1.33.58,1.86-1.61.22-2.84,1.6-2.84,3.26,0,.55.13,1.06.37,1.52-.21.19-.33.29-.33.29,0,0-1.47-1.25-3.42-3.11.31-1.03.4-2.2.4-3.52,0-.66-.02-1.23-.04-1.74.45.24.97.38,1.53.38,1.79,0,3.25-1.46,3.25-3.25v-5.76c0-1.8-1.46-3.25-3.25-3.25h-9.51c-.46,0-1.28.03-2.17.18.58-3.26,2.82-5.73,6.21-5.73,5.01,0,7,4.16,7,4.16,0,0,1.67-4.16,6.68-4.16,3.37,0,5.6,2.44,6.19,5.69h-4.43c-1.62,0-2.93,1.48-2.93,3.3Z"/>
      <path d="M40.53,42.75c0,1-.81,1.81-1.81,1.81h-7c-.86,0-1.57-.59-1.75-1.39-.04-.13-.06-.28-.06-.42,0-1,.81-1.8,1.81-1.8h7c1,0,1.81.8,1.81,1.8Z"/>
      <path d="M42.78,37.63c0,1-.8,1.81-1.8,1.81h-7c-.06,0-.13,0-.19-.02-.91-.08-1.62-.85-1.62-1.79,0-.99.81-1.8,1.81-1.8h7c.26,0,.5.05.72.15.64.28,1.08.92,1.08,1.65Z"/>
      <path d="M28.67,27.56v5.76c0,.97-.79,1.75-1.75,1.75s-1.75-.78-1.75-1.75v-1.8s-.25-2.54-1.24-2.54c-.58,0-1.05.95-1.49,2.07-.32.8-.62,1.57-.94,1.81-.27.22-.98.74-1.86,1-.43.13-.89.24-1.32.35-1.14.28-2.1.55-2.07,1.08.04.72.64,1.04,1.49,1.04.52,0,1.13-.12,1.77-.34.07-.02.14-.05.2-.08,1.09-.43,2.08-1.2,2.75-1.73.41-.32.69-.54.81-.54h.04c.43.3.62,1.92.62,4.29,0,.9-.05,1.65-.15,2.3-.18,1.06-.54,1.83-1.17,2.47-1.03,1.02-3.51,1.61-5.2,1.61s-3.96-.91-4.66-1.61c-.18-.18-.31-.37-.41-.57h-7.86c-.69,0-1.24-.55-1.24-1.24v-11.1c0-.68.55-1.24,1.24-1.24h7.75c.23-.57.68-1.49,1.27-1.88.41-.28.97-.48,1.59-.61.73-.17,1.55-.25,2.32-.25h9.51c.96,0,1.75.78,1.75,1.75Z"/>
      <path d="M43.88,27.75c0,.86-.47,1.58-1.11,1.76-.1.03-.21.05-.32.05h-5.56c-.22,0-.43-.06-.62-.18-.48-.29-.81-.91-.81-1.63,0-.99.64-1.8,1.43-1.8h5.56c.79,0,1.43.81,1.43,1.8Z"/>
      <path d="M43.38,32.68c0,.99-.63,1.79-1.42,1.8h-5.57c-.2,0-.39-.05-.57-.15-.5-.28-.86-.91-.86-1.65,0-.86.47-1.58,1.11-1.76.1-.03.21-.05.32-.05h5.56c.22,0,.43.06.62.18.48.29.81.91.81,1.63Z"/>
      <path d="M0,8.76c1.99-1.78,4.35-3.47,7.28-2.34,1.28.5,2.08,2.4,1.86,3.67-.23,2.73-1.84,4.72-2.42,7.14,0,.09.04-.08-.11-.39-.14-.31-.61-.58-.9-.61-.31-.03-.24.02-.1-.03.33-.08.93-.35,1.5-.67,1.56-.8,3.46-2.1,5.51-2.57.55-.09,1.34-.26,2.36.23,1.77,1.07,2.66,3.9,1.6,5.66-.47.79-1.08,1.35-1.78,1.75.52-1.77.41-3.42-1.32-4.22-.27-.17-.18-.08,0,.06.34.17.34.13.19.24-2.91,1.64-6.5,6.29-10.43,3.77-3.28-2.75-.45-6.82,1.17-9.49.34-.56.62-1.12.76-1.44.07-.16.08-.22.16-.17.07.06.21.11.16-.01-.04-.2-.55-.45-1.16-.54-1.26-.21-2.78-.09-4.35-.02h0Z"/>
      <path d="M25.38,0c2.67.15,5.54.62,6.8,3.49.55,1.26-.23,3.17-1.28,3.91-2.09,1.77-4.63,2.03-6.75,3.34-.07.06.09-.02.2-.35.12-.32-.02-.84-.2-1.07-.2-.24-.19-.16-.04-.09.29.18.91.4,1.54.58,1.66.54,3.93.96,5.71,2.08.45.33,1.12.76,1.51,1.84.5,2.01-.88,4.63-2.87,5.14-.89.23-1.72.19-2.5-.02,1.62-.88,2.71-2.13,2.05-3.92-.07-.31-.07-.19-.04.04.12.36.15.33-.03.3-3.21-.9-9.05-.15-10.04-4.71-.37-4.27,4.51-5.14,7.54-5.88.63-.16,1.23-.35,1.56-.48.16-.07.22-.1.23,0,0,.09.07.22.12.1.11-.17-.07-.71-.43-1.2-.74-1.03-1.91-2.03-3.07-3.09h0Z"/>
      <path d="M54.62,6.43c1.78,1.99,3.47,4.35,2.34,7.28-.5,1.28-2.4,2.08-3.67,1.86-2.73-.23-4.72-1.84-7.14-2.42-.09,0,.08.04.39-.11.31-.14.58-.61.61-.9.03-.31-.02-.24.03-.1.08.33.35.93.67,1.5.8,1.56,2.1,3.46,2.57,5.51.09.55.26,1.34-.23,2.36-1.07,1.77-3.9,2.65-5.66,1.6-.79-.47-1.35-1.08-1.75-1.78,1.77.52,3.42.41,4.22-1.32.17-.27.08-.18-.06,0-.17.34-.13.34-.24.19-1.64-2.91-6.29-6.5-3.77-10.43,2.75-3.28,6.82-.45,9.49,1.17.56.34,1.12.62,1.44.76.16.07.22.08.17.16-.06.07-.11.21.01.16.2-.04.45-.55.54-1.16.21-1.26.09-2.78.02-4.35h0Z"/>
    </g>
  </g>
</svg>