<?xml version="1.0" encoding="UTF-8"?>
<svg id="Layer_2" data-name="Layer 2" xmlns="http://www.w3.org/2000/svg" viewBox="0 0 55.72 32.65">
  <g id="Layer_1-2" data-name="Layer 1">
    <g>
      <path d="M19.03,1.91c0-1,.81-1.8,1.8-1.8s1.8.81,1.8,1.8v7c0,1-.81,1.8-1.8,1.8s-1.8-.81-1.8-1.8V1.91Z"/>
      <path d="M24.14,1.91c0-1,.81-1.8,1.8-1.8s1.8.81,1.8,1.8v7c0,1-.81,1.8-1.8,1.8s-1.8-.81-1.8-1.8V1.91Z"/>
      <path d="M29.1,1.07c0-.53.81-.96,1.8-.96s1.8.43,1.8.96v4.91h-3.61V1.07Z"/>
      <path d="M33.9.92c0-.45.81-.81,1.8-.81s1.8.36,1.8.81v5.63c-.84-1.05-1.91-1.13-3.61-1.13V.92Z"/>
      <path d="M49.12,3.39l6.59,17.99c.02.06-.06.1-.09.05l-7.02-9.26s-.07-.03-.09,0l-3.07,6.16s-.08.04-.1,0C43.29,12.73,39.54,1.98,38.87.07c-.02-.06.06-.1.09-.05l6.7,8.37s.07.03.09,0l3.28-5.01s.08-.03.1.01Z"/>
      <path d="M10.16,18.07l-3.28-5.01s-.06-.03-.09,0L.1,21.43s-.11,0-.09-.05c.67-1.91,4.42-12.66,6.47-18.26.02-.04.08-.05.1,0l3.07,6.16s.07.04.09,0L16.76.02s.12,0,.09.05l-6.59,17.99s-.07.05-.1.01Z"/>
      <path d="M36.03,7.22h-5.77c-.97,0-1.75.78-1.75,1.75s.78,1.75,1.75,1.75h1.8s2.53.24,2.53,1.24c0,.58-.95,1.05-2.06,1.49-.8.32-1.57.62-1.82.94-.21.27-.74.98-1,1.86-.47,1.57-.69,3.43-1.43,3.39-1.16-.06-1.28-1.58-.7-3.26.4-1.17,1.25-2.25,1.81-2.96.35-.45.59-.75.53-.84-.3-.43-1.91-.62-4.28-.62s-3.74.3-4.77,1.32c-1.02,1.02-1.62,3.5-1.62,5.2s.92,3.96,1.62,4.66c.18.18.37.31.57.41v7.87c0,.68.55,1.24,1.24,1.24h11.1c.68,0,1.24-.55,1.24-1.24v-7.75c.57-.23,1.49-.68,1.89-1.27.59-.89.86-2.48.86-3.91v-9.51c0-.97-.78-1.75-1.75-1.75Z"/>
    </g>
  </g>
</svg>