<svg width="862" height="1001" viewBox="0 0 862 1001" fill="none" xmlns="http://www.w3.org/2000/svg">
<path d="M730.997 647.394L749.451 720.425L818.054 689.319L772.463 749.281L839.556 783.523L764.25 785.263L779.31 859.068L730.997 801.277L682.684 859.068L697.744 785.263L622.438 783.523L689.531 749.281L643.94 689.319L712.543 720.425L730.997 647.394Z" fill="black"/>
<path d="M108.871 334.176L127.325 407.207L195.928 376.101L150.337 436.062L217.43 470.305L142.124 472.045L157.184 545.85L108.871 488.059L60.558 545.85L75.6182 472.045L0.3125 470.305L67.4054 436.062L21.8139 376.101L90.4172 407.207L108.871 334.176Z" fill="black"/>
<path fill-rule="evenodd" clip-rule="evenodd" d="M591.601 789.938C592.227 801.824 583.099 811.968 571.213 812.594C393.543 821.959 274.466 883.669 126.937 995.734C117.459 1002.93 103.939 1001.09 96.7392 991.609C89.5394 982.13 91.3865 968.61 100.865 961.41C252.187 846.464 379.45 779.539 568.944 769.551C580.83 768.924 590.974 778.052 591.601 789.938Z" fill="black"/>
<path fill-rule="evenodd" clip-rule="evenodd" d="M488.83 321.674C489.784 333.538 480.939 343.93 469.075 344.883C467.691 344.995 466.318 345.105 464.956 345.215C370.215 352.826 325.712 356.402 246.285 388.629C235.256 393.104 222.687 387.791 218.212 376.761C213.737 365.732 219.05 353.163 230.08 348.688C315.672 313.959 365.841 309.931 460.238 302.351C462.016 302.208 463.81 302.064 465.621 301.919C477.485 300.965 487.876 309.81 488.83 321.674ZM624.69 670.37C617.555 679.898 604.048 681.838 594.52 674.703C467.019 579.226 395.227 540.382 254.906 502.991C243.405 499.926 236.566 488.118 239.631 476.616C242.695 465.115 254.504 458.276 266.005 461.341C412.796 500.456 489.506 542.216 620.357 640.201C629.884 647.336 631.824 660.843 624.69 670.37Z" fill="black"/>
<path fill-rule="evenodd" clip-rule="evenodd" d="M491.648 860.542C492.559 866.423 488.531 871.93 482.65 872.842C414.184 883.457 354.755 905.807 283.13 947.647C277.991 950.649 271.392 948.917 268.39 943.778C265.388 938.639 267.12 932.04 272.259 929.038C345.749 886.108 407.726 862.649 479.348 851.545C485.229 850.633 490.736 854.661 491.648 860.542Z" fill="black"/>
<path fill-rule="evenodd" clip-rule="evenodd" d="M249.471 812.569C251.882 818.011 249.425 824.376 243.984 826.787C198.151 847.093 176.766 861.77 133.493 895.806C128.816 899.486 122.041 898.676 118.362 893.999C114.682 889.321 115.492 882.546 120.169 878.867C164.261 844.187 187.212 828.367 235.254 807.082C240.695 804.672 247.06 807.128 249.471 812.569Z" fill="black"/>
<path fill-rule="evenodd" clip-rule="evenodd" d="M474.367 640.511C471.089 645.477 464.404 646.846 459.438 643.567C417.601 615.951 393.701 605.874 341.69 587.824C336.067 585.873 333.091 579.734 335.042 574.111C336.993 568.489 343.133 565.513 348.755 567.464C401.751 585.855 427.458 596.633 471.31 625.581C476.277 628.86 477.646 635.544 474.367 640.511Z" fill="black"/>
<path fill-rule="evenodd" clip-rule="evenodd" d="M436.451 271.224C436.304 277.174 431.362 281.877 425.412 281.73C388.638 280.82 368.184 283.715 330.522 290.199C324.657 291.208 319.084 287.272 318.074 281.407C317.065 275.542 321.001 269.969 326.866 268.959C365.097 262.378 387.132 259.225 425.945 260.185C431.895 260.332 436.599 265.275 436.451 271.224Z" fill="black"/>
<path d="M575.1 0.312826C575.465 0.520783 575.722 0.878563 575.801 1.29175C591.55 83.5977 599.787 137.49 608.055 228.855C642.813 237.207 671.952 241.052 701.611 240.099C731.558 239.138 762.1 233.283 799.555 222.167C799.6 222.154 799.645 222.142 799.69 222.134L847.822 212.795C848.048 212.751 848.281 212.762 848.501 212.827L850.606 213.652C851.826 214.215 853.458 215.102 855.096 216.403C858.389 219.017 861.745 223.348 861.745 230.01C861.745 242.835 854.321 253.975 840.509 268.361C823.902 285.659 809.291 298 792.111 308.251C774.945 318.495 755.269 326.618 728.578 335.539C728.431 335.588 728.277 335.613 728.123 335.613H629.707L629.707 335.791C629.718 344.117 629.733 354.662 627.224 363.312C625.88 367.946 623.779 372.168 620.454 375.237C617.097 378.337 612.606 380.153 606.717 380.153H540.625C532.879 380.153 527.092 378.481 522.777 375.381C518.459 372.278 515.776 367.861 514.02 362.681C512.271 357.521 511.413 351.519 510.795 345.143C510.533 342.433 510.315 339.685 510.094 336.895L510.093 336.881C509.787 333.009 509.474 329.054 509.025 324.995C504.828 287.098 486.141 238.19 462.229 195.07C450.281 173.525 437.053 153.468 423.719 136.992C410.369 120.496 396.979 107.672 384.727 100.503C384.31 100.259 384.043 99.821 384.018 99.3382C383.993 98.8554 384.212 98.3921 384.601 98.1056C454.9 46.3751 498.233 27.6266 573.9 0.210935C574.295 0.0676293 574.734 0.104869 575.1 0.312826Z" fill="black"/>
</svg>
