<svg width="1068" height="1001" viewBox="0 0 1068 1001" fill="none" xmlns="http://www.w3.org/2000/svg">
<path d="M537.972 0.125C549.715 0.125 559.235 9.64507 559.235 21.3887V291.741C559.235 303.485 549.715 313.005 537.972 313.005C526.228 313.005 516.708 303.485 516.708 291.741V21.3887C516.708 9.64507 526.228 0.125 537.972 0.125Z" fill="black"/>
<path d="M375.935 206.992C379.459 214.604 388.487 217.917 396.099 214.393C403.711 210.868 407.024 201.84 403.5 194.229L350.051 78.7977C346.526 71.1858 337.499 67.8724 329.887 71.397C322.275 74.9216 318.961 83.9495 322.486 91.5613L375.935 206.992Z" fill="black"/>
<path d="M882.84 379.92C875.606 384.166 866.299 381.744 862.053 374.51C857.807 367.275 860.229 357.969 867.463 353.723L895.413 337.317C902.647 333.071 911.954 335.493 916.2 342.727C920.446 349.962 918.024 359.268 910.79 363.514L882.84 379.92Z" fill="black"/>
<path d="M168.803 380.176C176.037 384.422 185.343 382 189.59 374.766C193.836 367.532 191.413 358.225 184.179 353.979L156.229 337.573C148.995 333.327 139.689 335.75 135.442 342.984C131.196 350.218 133.618 359.525 140.853 363.771L168.803 380.176Z" fill="black"/>
<path d="M826.903 650.144C820.886 644.3 820.747 634.684 826.591 628.667C832.436 622.65 842.052 622.511 848.069 628.356L869.332 649.012C875.349 654.857 875.489 664.473 869.644 670.489C863.799 676.506 854.183 676.645 848.166 670.801L826.903 650.144Z" fill="black"/>
<path d="M264.54 633.527C270.385 639.544 270.246 649.16 264.229 655.005L242.965 675.661C236.949 681.506 227.333 681.366 221.488 675.35C215.643 669.333 215.783 659.717 221.799 653.872L243.063 633.216C249.08 627.371 258.696 627.511 264.54 633.527Z" fill="black"/>
<path d="M21.5684 487.367C9.82476 487.367 0.304688 496.887 0.304688 508.63C0.304688 520.374 9.82476 529.894 21.5684 529.894H283.415C295.159 529.894 304.679 520.374 304.679 508.63C304.679 496.887 295.159 487.367 283.415 487.367H21.5684Z" fill="black"/>
<path d="M784.023 487.974C772.279 487.974 762.759 497.494 762.759 509.238C762.759 520.982 772.279 530.502 784.023 530.502H1045.87C1057.61 530.502 1067.13 520.982 1067.13 509.238C1067.13 497.494 1057.61 487.974 1045.87 487.974H784.023Z" fill="black"/>
<path d="M127.943 101.34C119.756 92.9206 106.294 92.7324 97.8743 100.92C89.4551 109.107 89.2669 122.569 97.454 130.988L333.177 373.394C341.364 381.813 354.826 382.001 363.245 373.814C371.665 365.627 371.853 352.165 363.666 343.746L127.943 101.34Z" fill="black"/>
<path d="M938.888 101.947C947.075 93.5281 960.537 93.34 968.956 101.527C977.375 109.714 977.564 123.176 969.377 131.596L733.654 374.001C725.466 382.421 712.004 382.609 703.585 374.422C695.166 366.234 694.978 352.772 703.165 344.353L938.888 101.947Z" fill="black"/>
<path d="M672.111 213.58C679.608 217.341 688.736 214.312 692.497 206.814L750.194 91.7974C753.955 84.2997 750.926 75.1725 743.428 71.4113C735.93 67.6501 726.803 70.6792 723.042 78.177L665.345 193.194C661.584 200.691 664.613 209.819 672.111 213.58Z" fill="black"/>
<path d="M520.518 358.75C524.946 351.901 531.265 347.634 539.788 347.634C547.691 347.634 552.679 353.871 555.83 361.721C559.047 369.735 561.009 380.892 562.213 393.849C564.627 419.837 564.086 454.387 563.478 488.647L563.428 491.458V491.46C562.833 524.902 562.246 557.857 564.256 582.683C565.292 595.48 566.998 605.796 569.601 612.818C572.297 620.091 575.29 622.239 578.035 622.239C580.815 622.239 583.656 620.35 586.386 614.544C589.077 608.82 591.095 600.36 592.612 589.77C595.347 570.685 596.322 545.797 597.329 520.089L597.331 520.036C597.438 517.307 597.546 514.568 597.655 511.826C598.794 483.41 600.203 454.645 604.385 432.967C606.471 422.153 609.307 412.757 613.358 405.979C617.452 399.13 623.16 394.414 630.918 394.414C639.032 394.414 643.924 401.101 646.878 409.339C649.914 417.806 651.593 429.609 652.428 443.356C654.102 470.933 652.432 507.618 650.42 544.144C650.126 549.465 649.826 554.783 649.527 560.071C647.769 591.203 646.07 621.291 646.256 644.85C646.366 658.658 647.125 669.965 648.819 677.831C649.67 681.784 650.701 684.589 651.816 686.365C652.901 688.094 653.772 688.424 654.335 688.475C657.645 688.776 660.004 687.966 661.929 686.453C663.976 684.845 665.782 682.239 667.47 678.543C669.15 674.865 670.581 670.411 672.048 665.365C672.516 663.755 672.99 662.077 673.477 660.354L673.488 660.316L673.492 660.3L673.502 660.267L673.502 660.266C674.505 656.715 675.56 652.979 676.723 649.268C680.211 638.137 684.935 626.299 693.417 617.046C702.03 607.652 714.268 601.186 732.183 600.372C739.051 600.06 744.437 600.623 748.36 602.281C752.546 604.05 755.102 607.111 755.749 611.21C756.334 614.922 755.266 619.004 753.637 622.974C751.973 627.03 749.501 631.485 746.705 636.119C744.667 639.498 742.468 642.961 740.218 646.503L740.217 646.504L740.215 646.508C736.155 652.9 731.933 659.548 728.208 666.409C722.453 677.01 718.407 687.251 718.403 696.305C719.677 741.34 717.268 782.934 703.317 818.941C689.293 855.134 663.71 885.43 619.201 907.993C618.249 908.476 617.134 908.517 616.149 908.106L615.069 907.656C615.909 901.743 616.344 895.699 616.344 889.554C616.344 819.092 559.223 761.972 488.762 761.972C447.241 761.972 410.353 781.806 387.055 812.516L377.36 808.471C376.126 807.956 375.273 806.807 375.137 805.477C368.763 743.116 368.731 716.534 370.343 695.836C370.797 690.01 371.372 684.714 371.964 679.259L371.965 679.249L371.966 679.24L371.967 679.238C373.48 665.313 375.106 650.342 375.119 622.845C375.131 596.825 369.318 570.104 364.163 546.41L364.163 546.409C362.914 540.668 361.704 535.104 360.624 529.772C357.897 516.295 355.963 504.067 356.693 494.492C357.06 489.667 358.12 485.236 360.311 481.579C362.557 477.833 365.879 475.098 370.339 473.586C375.351 471.888 379.817 473.135 383.436 476.305C386.814 479.264 389.445 483.859 391.646 489.05C395.695 498.603 398.904 511.756 402.127 524.967C402.421 526.172 402.715 527.378 403.01 528.581C406.595 543.212 410.31 557.605 415.303 568.15C420.423 578.963 425.985 583.918 432.565 583.37C435.081 583.16 437.194 581.549 438.779 576.924C440.394 572.212 441.068 565.285 440.993 556.524C440.865 541.604 438.6 522.557 436.227 502.599C435.823 499.202 435.416 495.779 435.016 492.345C432.289 468.941 429.881 445.048 431.279 426.623C431.976 417.427 433.642 409.206 436.957 402.999C440.364 396.618 445.612 392.243 453.111 391.399C460.294 390.591 465.884 393.563 469.912 398.919C473.764 404.043 476.223 411.35 477.875 419.663C481.189 436.346 481.567 458.897 481.66 481.163C481.671 483.731 481.678 486.295 481.685 488.847L481.685 488.874C481.739 508.663 481.792 527.77 483.581 542.512C484.595 550.864 486.128 557.421 488.314 561.795C490.458 566.084 492.807 567.561 495.438 567.561C499.438 567.561 502.594 565.387 505.191 560.14C507.862 554.741 509.571 546.695 510.529 536.502C512.259 518.078 511.437 494.014 510.587 469.098C510.499 466.527 510.411 463.947 510.325 461.364C509.416 433.953 508.785 406.107 511.998 385.092C513.601 374.605 516.214 365.409 520.518 358.75Z" fill="black"/>
<path d="M457.17 820.903C457.17 809.83 466.146 800.854 477.218 800.854C488.291 800.854 497.267 809.83 497.267 820.903V888.339H556.198C567.27 888.339 576.246 897.315 576.246 908.387C576.246 919.46 567.27 928.436 556.198 928.436H497.267V980.076C497.267 991.149 488.291 1000.12 477.218 1000.12C466.146 1000.12 457.17 991.149 457.17 980.076V928.436H397.024C385.951 928.436 376.975 919.46 376.975 908.387C376.975 897.315 385.951 888.339 397.024 888.339H457.17V820.903Z" fill="black"/>
</svg>
