<svg width="1042" height="1001" viewBox="0 0 1042 1001" fill="none" xmlns="http://www.w3.org/2000/svg">
<path d="M925.922 27.9332C920.278 20.0402 922.096 9.06523 929.986 3.41414C937.88 -2.23957 948.862 -0.423569 954.516 7.47028L954.662 7.69104C956.965 11.167 963.374 20.8394 966.931 26.7451C974.194 38.8056 983.841 56.1003 993.485 77.2084C1012.68 119.212 1032.35 177.374 1032.35 239.929C1032.35 280.285 1028.21 314.748 1024.51 345.598C1022.73 360.407 1021.06 374.384 1019.98 387.78C1016.63 429.762 1018.24 471.755 1038.42 530.26C1041.58 539.439 1036.71 549.447 1027.53 552.612C1018.35 555.777 1008.34 550.902 1005.18 541.722C983.158 477.864 981.261 430.899 984.934 384.976C986.21 369.031 988.047 353.855 989.912 338.45C993.497 308.829 997.185 278.358 997.185 239.929C997.185 184.342 979.584 131.392 961.504 91.8207C952.512 72.1411 943.523 56.0322 936.81 44.886C933.457 39.3184 927.833 30.8182 925.922 27.9332Z" fill="black"/>
<path d="M775.662 5.5106C768.926 12.5037 769.135 23.6333 776.128 30.3694C823.2 75.7113 852.84 113.229 871.034 154.617C889.196 195.931 896.622 242.634 896.622 307.44C896.622 371.683 887.605 417.186 878.43 457.261C877.353 461.964 876.265 466.624 875.183 471.257L875.17 471.313C867.087 505.919 859.351 539.043 859.351 577.482C859.351 602.928 869.965 626.692 883.881 648.052C897.832 669.466 916.269 690.185 934.043 709.539C936.843 712.588 939.623 715.6 942.372 718.578L942.434 718.645C957.503 734.969 971.646 750.289 983.126 765.285C996.869 783.237 1004.81 798.282 1006.47 811.113C1007.73 820.742 1016.55 827.532 1026.17 826.281C1035.8 825.029 1042.59 816.209 1041.34 806.58C1038.44 784.249 1025.72 763.078 1011.05 743.912C998.489 727.508 983.042 710.784 968.018 694.517L968.014 694.513C965.302 691.577 962.605 688.657 959.94 685.756C942.113 666.344 925.52 647.55 913.342 628.858C901.128 610.111 894.513 593.175 894.513 577.482C894.513 543.345 901.276 514.289 909.405 479.366C910.485 474.726 911.589 469.982 912.705 465.108C922.166 423.784 931.784 375.405 931.784 307.44C931.784 240.038 924.091 187.936 903.223 140.467C882.388 93.0719 849.088 51.8269 800.521 5.04508C793.528 -1.69092 782.398 -1.4825 775.662 5.5106Z" fill="black"/>
<path d="M657.981 5.04846C664.972 -1.68948 676.102 -1.48414 682.84 5.50711C777.968 104.211 829.112 188.534 829.112 315.176C829.112 378.667 809.315 441.279 788.821 492.425C779.726 515.124 770.346 535.907 762.365 553.589C761.328 555.888 760.313 558.135 759.327 560.328C750.462 580.019 744.395 594.057 742.039 603.04C739.575 612.432 729.965 618.048 720.573 615.585C711.181 613.121 705.564 603.511 708.028 594.119C711.297 581.653 718.855 564.573 727.264 545.894C728.265 543.671 729.286 541.407 730.326 539.103C738.323 521.381 747.386 501.299 756.182 479.347C776.124 429.578 793.95 371.937 793.95 315.176C793.95 201.311 749.455 125.296 657.522 29.9073C650.784 22.9161 650.989 11.7864 657.981 5.04846Z" fill="black"/>
<path d="M728.015 646.488C719.909 651.832 717.669 662.736 723.013 670.843C733.364 686.546 741.395 695.764 761.227 709.931C769.128 715.575 780.108 713.746 785.752 705.845C791.396 697.944 789.567 686.964 781.666 681.32C765.467 669.748 760.423 663.708 752.37 651.491C747.026 643.384 736.122 641.145 728.015 646.488Z" fill="black"/>
<path d="M822.877 771.798C818.326 768.942 810.756 764.345 808.213 762.801C799.855 757.861 797.082 747.08 802.021 738.721C806.961 730.362 817.745 727.592 826.104 732.531L826.162 732.566L826.195 732.586C828.956 734.262 836.906 739.09 841.566 742.014C850.983 747.923 863.925 756.261 878.027 765.975C905.707 785.044 939.706 810.658 959.337 834.138C970.701 847.731 977.823 865.763 982.49 883.554C987.228 901.615 989.828 920.984 991.239 938.501C992.654 956.082 992.902 972.207 992.8 983.918C992.761 988.411 992.518 995.532 992.349 1000.12H957.173C957.313 996.414 957.597 988.569 957.64 983.612C957.735 972.622 957.5 957.585 956.19 941.323C954.876 924.996 952.51 907.842 948.479 892.476C944.378 876.842 938.929 864.547 932.361 856.691C916.127 837.274 885.78 814.014 858.08 794.931C844.492 785.571 831.986 777.514 822.877 771.798Z" fill="black"/>
<path d="M84.2915 1000.12C84.1451 996.196 83.8917 988.976 83.8511 984.312C83.7553 973.322 83.991 958.285 85.3004 942.023C86.615 925.697 88.981 908.542 93.0117 893.177C97.1129 877.543 102.562 865.247 109.13 857.392C125.364 837.975 155.711 814.714 183.411 795.632C196.999 786.271 209.504 778.215 218.614 772.498C223.165 769.643 230.735 765.045 233.278 763.501C241.636 758.561 244.409 747.781 239.47 739.422C234.53 731.062 223.746 728.292 215.386 733.232L215.329 733.267L215.296 733.287C212.535 734.963 204.585 739.79 199.924 742.715C190.508 748.624 177.566 756.961 163.464 766.676C135.784 785.744 101.785 811.358 82.154 834.838C70.7893 848.431 63.6681 866.463 59.0008 884.255C54.263 902.315 51.6625 921.685 50.2521 939.201C48.8364 956.783 48.5886 972.908 48.6907 984.619C48.7279 988.89 48.949 995.534 49.1159 1000.12H84.2915Z" fill="black"/>
<path d="M111.505 4.11462C119.395 9.76572 121.213 20.7407 115.569 28.6337C113.657 31.5186 108.034 40.0189 104.681 45.5865C97.9678 56.7327 88.9787 72.8416 79.9872 92.5212C61.9073 132.092 44.3058 185.042 44.3058 240.63C44.3058 279.058 47.994 309.53 51.5792 339.15C53.4439 354.556 55.2808 369.731 56.5564 385.677C60.2302 431.599 58.3331 478.565 36.313 542.423C33.1478 551.602 23.1406 556.478 13.9613 553.312C4.7821 550.147 -0.0931992 540.14 3.07206 530.961C23.2461 472.456 24.8651 430.462 21.5066 388.481C20.4349 375.085 18.7579 361.108 16.9809 346.298C13.2793 315.449 9.14401 280.986 9.14401 240.63C9.14401 178.074 28.814 119.913 48.0055 77.9089C57.6497 56.8008 67.2964 39.5061 74.5601 27.4456C78.1169 21.5399 84.5254 11.8675 86.8284 8.39152L86.9747 8.17077C92.6284 0.276919 103.611 -1.53908 111.505 4.11462Z" fill="black"/>
<path d="M265.829 6.21109C272.565 13.2042 272.356 24.3338 265.363 31.0698C218.291 76.4118 188.651 113.929 170.456 155.318C152.295 196.632 144.868 243.334 144.868 308.14C144.868 372.384 153.886 417.886 163.061 457.962C164.139 462.672 165.229 467.339 166.313 471.979L166.318 472L166.318 472.002L166.32 472.01L166.321 472.013C174.403 506.62 182.14 539.744 182.14 578.183C182.14 603.629 171.526 627.392 157.61 648.752C143.658 670.166 125.222 690.886 107.448 710.24C104.638 713.3 101.848 716.322 99.0887 719.311L99.0568 719.345C83.9876 735.669 69.8449 750.989 58.3645 765.986C44.622 783.937 36.685 798.982 35.017 811.813C33.7653 821.442 24.945 828.233 15.3164 826.981C5.68776 825.729 -1.10306 816.909 0.148661 807.28C3.05167 784.95 15.7722 763.778 30.4448 744.612C43.0035 728.207 58.4519 711.481 73.4772 695.213L73.4868 695.203C76.1949 692.271 78.8892 689.354 81.5503 686.456C99.3773 667.044 115.971 648.251 128.149 629.558C140.363 610.812 146.978 593.876 146.978 578.183C146.978 544.046 140.215 514.99 132.086 480.067L132.085 480.064L132.077 480.03C131 475.401 129.899 470.669 128.786 465.809C119.325 424.485 109.707 376.105 109.707 308.14C109.707 240.738 117.4 188.637 138.268 141.167C159.103 93.7724 192.402 52.5274 240.97 5.74557C247.963 -0.990432 259.093 -0.78201 265.829 6.21109Z" fill="black"/>
<path d="M383.51 5.74894C376.519 -0.988992 365.389 -0.783648 358.651 6.20759C263.523 104.912 212.379 189.234 212.379 315.876C212.379 379.367 232.176 441.98 252.67 493.125C261.765 515.823 271.144 536.605 279.124 554.287L279.125 554.289L279.126 554.291C280.164 556.59 281.178 558.837 282.164 561.028C291.029 580.719 297.096 594.757 299.452 603.74C301.915 613.132 311.526 618.749 320.918 616.285C330.31 613.822 335.927 604.211 333.463 594.819C330.194 582.353 322.636 565.273 314.227 546.594C313.226 544.371 312.204 542.107 311.165 539.804C303.168 522.082 294.105 501.999 285.309 480.047C265.367 430.279 247.541 372.638 247.541 315.876C247.541 202.011 292.036 125.996 383.969 30.6078C390.707 23.6166 390.501 12.4869 383.51 5.74894Z" fill="black"/>
<path d="M313.475 647.189C321.582 652.533 323.822 663.437 318.478 671.544C308.127 687.247 300.096 696.464 280.263 710.632C272.363 716.276 261.382 714.446 255.738 706.545C250.094 698.645 251.924 687.664 259.825 682.02C276.024 670.449 281.067 664.409 289.121 652.192C294.465 644.085 305.369 641.845 313.475 647.189Z" fill="black"/>
<path fill-rule="evenodd" clip-rule="evenodd" d="M755.977 810.976C839.054 862.638 859.757 998.158 860.053 1000.12H180.735C181.031 998.158 201.733 862.638 284.81 810.976C368.495 758.937 438.819 667.517 438.819 667.517V566.225C438.819 566.225 401.547 547.967 386.779 528.276C378.883 517.748 375.209 499.982 371.994 484.438C369.197 470.911 366.747 459.067 362.166 455.14C358.222 451.76 351.006 447.589 343.048 442.991C331.141 436.109 317.574 428.269 310.83 420.681C299.578 408.023 294.655 377.784 294.655 358.094C294.655 338.403 308.017 315.196 325.598 315.196C343.179 315.196 355.837 332.777 355.837 332.777V218.15C355.837 218.15 374.002 74.6679 518.987 74.6679C663.15 74.6679 684.951 218.15 684.951 218.15V332.777C684.951 332.777 697.609 315.196 715.19 315.196C732.771 315.196 746.132 338.403 746.132 358.094C746.132 377.784 741.21 408.023 729.958 420.681C723.213 428.269 709.647 436.109 697.739 442.991C689.782 447.589 682.565 451.76 678.622 455.14C674.041 459.067 671.591 470.911 668.794 484.438C665.579 499.982 661.905 517.748 654.008 528.276C639.24 547.967 601.969 566.225 601.969 566.225V667.517C601.969 667.517 672.293 758.937 755.977 810.976ZM457.804 415.056C439.514 415.056 414.885 388.29 405.766 370.049C401.553 361.62 401.56 346.843 403.656 344.732C405.753 342.621 428.27 344.028 435.302 346.842C447.506 351.725 486.639 374.971 486.639 388.333C486.639 401.694 476.094 415.056 457.804 415.056ZM582.984 415.056C601.273 415.056 625.902 388.29 635.021 370.049C639.235 361.62 639.228 346.843 637.131 344.732C635.035 342.621 612.518 344.028 605.486 346.842C593.281 351.725 554.149 374.971 554.149 388.333C554.149 401.694 564.694 415.056 582.984 415.056Z" fill="black"/>
</svg>
