<svg width="1005" height="1001" viewBox="0 0 1005 1001" fill="none" xmlns="http://www.w3.org/2000/svg">
<path d="M351.978 41.0527C363.28 41.0527 372.442 31.8907 372.442 20.5888C372.442 9.28698 363.28 0.125 351.978 0.125C340.676 0.125 331.514 9.28698 331.514 20.5888C331.514 31.8907 340.676 41.0527 351.978 41.0527Z" fill="black"/>
<path d="M616.644 551.285C616.644 561.833 608.093 570.384 597.544 570.384C586.996 570.384 578.445 561.833 578.445 551.285C578.445 540.736 586.996 532.185 597.544 532.185C608.093 532.185 616.644 540.736 616.644 551.285Z" fill="black"/>
<path d="M111.869 952.376C111.869 978.747 90.4911 1000.13 64.1201 1000.13C37.749 1000.13 16.3711 978.747 16.3711 952.376C16.3711 926.005 37.749 904.627 64.1201 904.627C90.4911 904.627 111.869 926.005 111.869 952.376Z" fill="black"/>
<path d="M965.894 826.864C965.894 853.235 944.516 874.613 918.145 874.613C891.774 874.613 870.396 853.235 870.396 826.864C870.396 800.493 891.774 779.115 918.145 779.115C944.516 779.115 965.894 800.493 965.894 826.864Z" fill="black"/>
<path d="M863.574 161.107C886.932 161.107 905.866 142.173 905.866 118.815C905.866 95.4581 886.932 76.5234 863.574 76.5234C840.217 76.5234 821.282 95.4581 821.282 118.815C821.282 142.173 840.217 161.107 863.574 161.107Z" fill="black"/>
<path d="M73.6699 139.279C73.6699 159.623 57.1783 176.114 36.8349 176.114C16.4916 176.114 0 159.623 0 139.279C0 118.936 16.4916 102.444 36.8349 102.444C57.1783 102.444 73.6699 118.936 73.6699 139.279Z" fill="black"/>
<path d="M144.611 884.163C158.927 884.163 170.532 875.307 170.532 864.381C170.532 853.456 158.927 844.6 144.611 844.6C130.295 844.6 118.69 853.456 118.69 864.381C118.69 875.307 130.295 884.163 144.611 884.163Z" fill="black"/>
<path d="M989.086 305.718C989.086 314.76 977.786 322.09 963.847 322.09C949.908 322.09 938.608 314.76 938.608 305.718C938.608 296.677 949.908 289.347 963.847 289.347C977.786 289.347 989.086 296.677 989.086 305.718Z" fill="black"/>
<path fill-rule="evenodd" clip-rule="evenodd" d="M336.289 140.643C344.984 131.949 345.772 114.688 346.531 98.0708C347.498 76.8827 348.418 56.7416 365.621 56.7416C375.484 56.7416 390.59 95.9336 410.445 147.446L410.446 147.448L410.448 147.453C419.911 172.004 430.453 199.353 442.019 226.592C453.318 253.198 465.333 279.824 476.469 304.501C504.451 366.509 526.879 416.208 518.417 422.362C506.456 431.062 482.745 402.202 458.953 373.243C437.971 347.705 416.926 322.09 403.82 322.09C375.853 322.09 326.739 362.335 313.779 380.753C300.819 399.17 270.805 493.304 270.805 523.317C270.805 553.331 271.487 588.802 289.905 593.577C308.322 598.351 330.15 590.166 337.653 579.934C339.567 577.324 341.57 571.342 344.069 563.877C351.367 542.075 362.898 507.628 388.813 507.628C423.602 507.628 463.847 548.556 458.39 556.742C455.828 560.585 444.544 556.759 431.881 552.466C417.574 547.615 401.507 542.167 394.27 546.51C388.783 549.802 387.489 556.847 385.906 565.468C383.552 578.282 380.559 594.579 362.21 607.219C351.842 614.361 333.849 622.515 315.246 630.945C278.773 647.473 239.96 665.06 251.705 678.16C262.383 690.071 299.025 673.297 328.728 659.7C348.359 650.714 364.96 643.115 369.031 646.1C375.695 650.987 372.232 664.554 369.007 677.191C367.28 683.957 365.621 690.456 365.621 695.214C365.621 708.856 369.031 717.724 388.813 730.684C408.595 743.645 450.205 747.738 480.218 747.738C495.875 747.738 514.872 743.097 533.048 738.658C549.714 734.587 565.69 730.684 577.763 730.684C592.157 730.684 603.445 745.55 613.145 758.325C620.453 767.95 626.86 776.387 633.015 776.387C647.34 776.387 654.161 768.201 654.161 756.605C654.161 745.009 643.247 654.968 630.969 642.008C618.69 629.047 612.551 609.266 618.008 599.034C623.465 588.802 643.247 599.034 650.75 609.266C652.976 612.3 654.661 616.055 656.358 619.836C660.383 628.802 664.474 637.915 675.989 637.915C692.36 637.915 712.824 611.312 712.824 496.714C712.824 382.117 601.637 317.997 581.855 317.997C572.149 317.997 565.234 324.731 558.935 330.865C552.398 337.231 546.524 342.952 538.881 339.825C532.901 337.378 523.194 306.001 512.591 271.73L512.59 271.726C508.916 259.851 505.135 247.628 501.364 236.141C496.598 221.623 491.744 208.698 487.546 197.517C480.598 179.016 475.443 165.289 475.443 157.014C475.443 146.013 490.156 130.076 507.927 110.826L507.928 110.824C513.953 104.298 520.329 97.3907 526.603 90.1659C532.124 83.8078 537.533 77.1476 542.785 70.6815C559.799 49.7324 575.158 30.8208 587.312 30.8208C605.598 30.8208 617.927 52.0965 628.814 70.8837C637.42 85.7363 645.126 99.0336 654.161 99.0336C664.125 99.0336 671.179 90.1383 677.605 82.0343C684.375 73.4952 690.45 65.8345 698.499 70.3842C714.188 79.2519 680.764 140.643 654.161 140.643C638.494 140.643 624.719 127.394 613.394 116.502C605.49 108.899 598.779 102.444 593.452 102.444C580.491 102.444 567.531 109.266 567.531 120.18C567.531 131.094 583.22 153.604 597.544 161.107C604.507 164.754 614.692 165.984 624.967 167.225C635.833 168.537 646.799 169.861 654.161 174.068C658.458 176.523 664.289 181.863 671.14 188.137C687.126 202.777 708.662 222.499 729.195 222.499C743.861 222.499 754.263 216.701 764.666 210.903C775.068 205.105 785.471 199.306 800.136 199.306C817.186 199.306 829.856 220.74 841.497 240.432C849.883 254.617 857.734 267.899 866.303 271.612C874.794 275.292 887.278 277.562 898.98 279.69C915.479 282.69 930.423 285.407 930.423 291.394C930.423 301.626 873.124 312.54 849.25 300.944C837.65 295.309 827.177 281.785 817.441 269.211C807.138 255.906 797.658 243.664 788.54 242.963C770.805 241.598 745.566 248.42 749.659 265.473C752.22 276.145 774.817 299.105 793.878 318.472C805.275 330.053 815.407 340.349 819.236 345.964C824.141 353.158 827.008 369.442 829.941 386.101C833.127 404.197 836.391 422.735 842.428 430.548C854.025 445.555 879.945 465.336 902.456 468.065C924.966 470.793 937.244 466.019 952.933 451.012C961.322 442.987 963.08 422.286 964.569 404.758C965.864 389.507 966.955 376.66 972.033 376.66C982.947 376.66 1004.09 403.945 1004.09 446.919C1004.09 470.836 979.584 500.88 957.847 527.526C940.527 548.759 924.966 567.834 924.966 579.934C924.966 594.913 930.105 602.285 934.741 608.936C938.55 614.4 942.019 619.376 942.019 627.683C942.019 641.273 931.249 648.92 917.656 658.572C912.827 662.001 907.641 665.683 902.456 669.975C892.207 678.457 873.718 686.023 855.147 693.623C837.876 700.691 820.534 707.789 809.686 715.678C799.209 723.298 791.391 737.421 784.239 750.342C776.025 765.18 768.689 778.433 759.209 778.433C751.522 778.433 743.578 765.234 735.045 751.055C723.891 732.521 711.73 712.313 697.817 717.724C685.036 722.695 701.637 754.276 720.497 790.154C737.871 823.205 757.162 859.903 757.162 882.799C757.162 930.548 736.016 967.383 693.724 967.383C658.108 967.383 639.424 946.097 624.228 928.784C621.38 925.539 618.654 922.433 615.962 919.634C611.813 915.319 608.27 910.721 604.811 906.234C594.055 892.278 584.121 879.388 559.345 879.388C543.141 879.388 529.276 887.073 515.27 894.837C500.974 902.761 486.531 910.766 469.304 910.766C453.028 910.766 444.519 906.727 435.622 902.504C425.877 897.878 415.666 893.031 394.27 893.031C373.806 893.031 358.288 905.821 342.769 918.611C327.251 931.401 311.733 944.19 291.269 944.19C250.341 944.19 227.831 903.945 236.699 895.077C241.5 890.276 249.901 895.273 259.302 900.866C267.265 905.603 275.945 910.766 283.765 910.766C300.819 910.766 325.375 889.62 325.375 866.428C325.375 849.031 292.752 828.18 271.841 814.815C264.874 810.362 259.208 806.741 256.48 804.354C254.055 802.233 250.149 798.36 245.367 793.619L245.362 793.614L245.361 793.613C228.619 777.016 201.151 749.784 188.95 749.784C173.261 749.784 160.3 758.652 152.115 764.791C148.953 767.162 145.485 772.994 141.831 779.142C136.024 788.909 129.745 799.471 123.465 798.215C113.233 796.169 131.651 742.281 142.565 734.095C145.572 731.839 149.615 730.05 153.895 728.156C165.148 723.176 178.035 717.472 178.035 700.671C178.035 677.478 153.479 629.047 107.094 610.63C60.7094 592.212 21.146 545.145 21.146 496.714C21.146 448.283 38.1992 416.223 71.6235 401.899C81.7512 397.558 93.2567 394.846 104.375 392.225C129.951 386.196 153.479 380.65 153.479 356.878C153.479 340.716 125.755 314.292 98.6875 288.493C68.6334 259.848 39.3874 231.973 49.7954 219.77C60.3146 207.437 85.4933 231.56 111.895 256.855C135.142 279.127 159.337 302.308 175.307 302.308C201.821 302.308 208.06 290.463 215.115 277.073C216.535 274.378 217.987 271.62 219.645 268.884C221.195 266.365 223.619 263.09 226.366 259.378C231.789 252.05 238.469 243.023 242.156 234.777C245.422 227.47 247.403 219.929 249.271 212.816C251.921 202.726 254.344 193.499 259.891 187.028C268.242 177.286 282.803 170.561 297.692 163.685C311.994 157.08 326.597 150.335 336.289 140.643ZM885.402 515.814C863.574 511.721 824.693 603.809 824.693 622.908C824.693 642.008 838.336 652.922 860.164 652.922C881.992 652.922 899.727 605.173 902.456 581.98C905.184 558.788 907.231 519.907 885.402 515.814ZM687.585 930.548C714.71 930.548 736.699 908.559 736.699 881.435C736.699 854.31 714.71 832.321 687.585 832.321C660.461 832.321 638.472 854.31 638.472 881.435C638.472 908.559 660.461 930.548 687.585 930.548ZM114.598 425.091C83.9018 425.091 57.2988 468.065 57.2988 488.529C57.2988 508.993 87.9945 561.517 107.094 561.517C126.194 561.517 140.518 513.768 142.565 493.304C144.611 472.84 145.293 425.091 114.598 425.091Z" fill="black"/>
</svg>
