<svg width="954" height="1001" viewBox="0 0 954 1001" fill="none" xmlns="http://www.w3.org/2000/svg">
<path fill-rule="evenodd" clip-rule="evenodd" d="M953.232 366.4L647.959 588.652L706.413 830.742L817.597 948.67L766.38 1000.12L586.065 964.644L417.591 887.222L342.748 709.254L272.808 741.626L126.779 595.316C126.779 595.316 216.41 528.481 216.41 510.041C216.41 491.602 0.8125 292.316 0.8125 292.316V205.794C10.9353 206.371 40.3893 235.36 73.3118 267.767C121.144 314.846 176.307 369.139 190.169 354.017C213.573 328.486 0.8125 97.9949 0.8125 97.9949V0.125H40.5278C40.5278 0.125 194.425 182.391 222.793 161.823C251.161 141.256 124.923 0.125 124.923 0.125H263.217C263.217 0.125 502.218 273.168 512.856 273.168C523.494 273.168 656.675 68.6988 656.675 68.6988L953.232 366.4ZM487.325 300.497C487.325 300.497 401.512 383.803 355.414 383.803C317.615 383.803 305.088 375.479 293.203 367.578C290.594 365.843 288.012 364.129 285.203 362.527C269.6 353.635 229.885 294.444 245.487 283.806C253.46 278.37 270.88 290.898 287.618 302.935C303.631 314.454 319.023 325.524 324.918 319.975C329.893 315.293 313.981 296.362 295.508 274.394C269.218 243.121 237.753 205.693 253.998 194.445C270.381 183.105 301.686 213.667 326.852 238.234C344.177 255.147 358.588 269.217 363.215 264.815C368.196 260.074 363.06 247.703 357.591 234.537C350.61 217.724 343.086 199.616 355.414 194.445C377.399 185.225 487.325 300.497 487.325 300.497ZM278.82 408.625C278.82 424.685 265.799 437.703 249.742 437.703C233.686 437.703 220.665 424.685 220.665 408.625C220.665 392.566 233.686 379.548 249.742 379.548C265.799 379.548 278.82 392.566 278.82 408.625ZM203.644 263.239C217.745 263.239 229.176 251.809 229.176 237.708C229.176 223.607 217.745 212.176 203.644 212.176C189.543 212.176 178.113 223.607 178.113 237.708C178.113 251.809 189.543 263.239 203.644 263.239Z" fill="black"/>
</svg>
