<svg width="995" height="1001" viewBox="0 0 995 1001" fill="none" xmlns="http://www.w3.org/2000/svg">
<path fill-rule="evenodd" clip-rule="evenodd" d="M659.009 563.041C655.919 583.437 682.494 614.956 682.494 644.621C682.494 674.286 662.021 677.377 662.099 688.501C662.178 699.626 663.954 715.076 684.967 715.076C705.979 715.076 748.623 674.286 780.143 674.286C811.662 674.286 846.89 690.354 839.504 700.861C832.117 711.367 788.825 695.917 764.722 708.277C740.619 720.638 705.979 759.573 677.55 759.573C649.121 759.573 624.43 730.526 619.486 715.076C614.541 699.627 629.344 650.801 605.241 648.329C581.138 645.857 532.932 709.514 532.932 734.853C532.932 760.192 571.249 814.579 582.404 825.084C593.559 835.59 613.245 864.02 677.55 864.02C741.855 864.02 741.237 794.183 768.43 775.024C795.624 755.865 845.066 762.046 877.821 753.393C910.577 744.741 923.525 690.972 935.298 690.972C947.071 690.972 947.659 776.878 928.5 796.037C909.341 815.196 819.109 794.183 800.568 814.578C782.027 834.973 810.456 996.898 677.55 996.898C544.644 996.898 504.532 851.042 485.373 864.02C466.214 876.999 550.884 989.482 540.996 999.369C531.109 1009.26 373.511 920.261 375.365 841.771C377.219 763.282 467.421 726.2 467.421 700.861C467.421 675.522 441.343 652.037 421.717 652.037C402.09 652.037 381.575 672.431 366.094 672.431C350.613 672.431 307.97 655.745 295.609 668.105C283.249 680.466 336.399 737.326 336.399 763.901C336.399 790.475 323.45 841.771 308 833.737C292.549 825.702 316.622 763.283 295.609 737.943C274.596 712.603 232.6 706.424 249.287 655.127C265.974 603.829 340.107 619.281 348.171 600.74C356.236 582.199 310.502 540.174 267.21 540.174C223.918 540.174 144.192 618.046 144.192 681.084C144.192 744.122 212.823 757.101 233.836 774.406C244.079 782.842 251.216 804.249 252.995 831.265C254.864 859.67 251.257 893.754 257.909 903.574C270.888 922.733 308 933.856 308 945.6C308 957.343 293.785 964.759 257.909 964.759C246.549 964.759 212.909 952.516 204.789 919.025C197.173 887.613 215.35 835.651 197.373 812.106C173.986 781.476 123.827 796.037 96.634 796.037C52.1317 796.037 -1.03485 771.315 0.828905 689.118C2.69266 606.921 166.441 511.744 144.192 489.495C121.943 467.246 24.9122 564.276 10.0802 549.444C-4.7518 534.612 116.999 379.486 173.858 379.486C230.716 379.486 277.068 475.281 304.262 475.281C331.455 475.281 353.086 446.233 353.086 427.074C353.086 407.916 327.128 385.666 327.128 360.945C327.128 336.225 359.266 313.357 336.399 296.671C313.532 279.984 269.034 336.224 233.188 336.224C197.343 336.224 159.025 317.065 162.733 302.233C166.441 287.401 196.725 309.65 222.064 309.032C247.403 308.414 294.373 246.612 325.274 248.465C356.176 250.318 372.862 268.861 384.605 281.839C396.347 294.816 380.279 344.259 398.82 347.968C417.36 351.676 458.15 312.121 458.15 271.949C458.15 231.778 407.472 145.253 317.24 145.872C227.008 146.49 263.472 221.271 216.502 244.138C169.532 267.005 133.686 243.52 98.4582 258.971C63.2306 274.421 74.385 310.885 58.3163 307.795C42.2476 304.705 41.0115 286.781 41.0115 263.915C41.0115 241.049 47.7799 215.71 74.9731 203.349C102.166 190.988 167.059 216.945 186.836 197.168C206.613 177.391 202.287 164.413 202.287 131.039C202.287 97.6655 207.879 1.25262 301.171 1.25316C427.278 1.25388 491.553 157.614 508.24 136.601C524.927 115.588 429.103 15.4685 445.79 1.25388C462.476 -12.9608 620.103 110.646 620.103 170.594C620.103 230.543 531.078 281.839 531.078 308.414C531.078 334.989 555.502 359.092 579.902 359.092C604.301 359.092 616.983 338.079 641.705 338.079C666.426 338.079 701.035 356.002 706.598 338.079C712.16 320.156 671.988 268.86 671.988 237.341C671.988 205.821 698.563 165.032 706.598 167.504C714.632 169.976 693.03 234.868 700.447 248.465C707.863 262.062 756.04 285.547 756.04 351.676C756.04 417.805 660.863 394.32 653.447 408.534C646.031 422.749 689.293 472.191 733.173 472.191C777.053 472.191 856.16 410.388 856.16 329.427C856.16 248.465 780.173 257.735 760.396 231.778C740.619 205.82 756.688 119.915 736.293 102.61C715.898 85.305 688.705 68.6182 691.795 58.1117C694.885 47.6053 752.362 46.3692 773.375 63.674C782.817 71.4503 797.76 98.4282 798.096 125.477C798.507 158.62 791.579 194.653 815.401 205.202C837.888 215.161 883.555 202.841 922.319 212.001C958.131 220.463 987.96 248.467 990.302 300.997C995.18 410.388 848.744 511.966 856.16 520.563C863.577 529.159 989.036 446.852 994.599 451.178C1000.16 455.504 912.401 621.754 827.731 624.226C743.061 626.698 721.4 539.803 697.945 538.051C674.49 536.3 662.099 542.646 659.009 563.041ZM467.421 613.719L573.134 493.296C576.439 488.65 574.511 484.824 568.727 484.551H521.219L539.884 400.558C539.884 394.82 537.13 393.727 533.55 398.646L432.761 511.818C429.18 516.737 431.108 520.563 437.167 520.563H489.7L461.086 611.809C461.086 617.545 463.84 618.638 467.421 613.719Z" fill="black"/>
</svg>
