<svg width="1057" height="1001" viewBox="0 0 1057 1001" fill="none" xmlns="http://www.w3.org/2000/svg">
<path d="M861.205 13.8697C860.969 6.15989 857.597 0.0069264 853.672 0.12672C849.748 0.246513 846.757 6.5937 846.992 14.3036C847.228 22.0134 850.6 28.1664 854.525 28.0466C858.449 27.9268 861.44 21.5796 861.205 13.8697Z" fill="black"/>
<path d="M424.21 283.31C426.792 286.268 424.174 292.778 418.362 297.85C412.551 302.922 405.747 304.636 403.165 301.678C400.583 298.719 403.201 292.21 409.013 287.138C414.824 282.066 421.628 280.352 424.21 283.31Z" fill="black"/>
<path d="M123.455 311.899C120.027 312.895 115.795 308.7 114.003 302.53C112.21 296.361 113.536 290.552 116.964 289.556C120.391 288.56 124.623 292.754 126.416 298.924C128.208 305.094 126.883 310.903 123.455 311.899Z" fill="black"/>
<path d="M1036.03 262.558C1039.12 264.984 1037.76 271.867 1032.99 277.932C1028.22 283.997 1021.86 286.946 1018.77 284.52C1015.68 282.094 1017.04 275.211 1021.81 269.146C1026.58 263.082 1032.94 260.132 1036.03 262.558Z" fill="black"/>
<path d="M483.908 824.239C472.017 727.46 455.56 593.515 424.63 593.515C394.74 593.515 399.006 624.474 402.277 648.215C404.311 662.975 405.96 674.944 398.778 674.949C391.227 674.954 381.668 638.388 372.143 601.952C365.952 578.271 359.775 554.645 354.174 541.152C347.757 525.691 340.265 516.624 334.408 509.535C328.632 502.543 324.444 497.475 324.444 490.094C324.444 475.229 347.074 438.402 413.643 422.891C480.212 407.379 497.654 356.955 497.654 308.482C497.654 260.01 456.945 177.929 383.267 176.636C309.588 175.344 291.492 284.582 291.492 320.775C291.492 356.968 304.418 382.174 318.636 380.881C325.329 380.272 338.324 368.351 351.013 356.709C365.28 343.619 379.162 330.883 383.267 334.981C391.022 342.724 299.894 451.974 277.919 451.974C255.945 451.974 203.587 358.907 206.172 283.289C208.757 207.672 277.273 13.1335 477.618 13.1218C677.963 13.1101 705.135 117.202 705.126 124.299C705.117 131.395 612.049 255.485 603.001 251.608C599.833 250.25 601.893 243.743 604.494 235.526C609.322 220.273 616.015 199.127 594.599 194.087C561.646 186.331 526.091 248.389 526.091 300.08C526.091 351.772 580.389 411.245 620.451 411.245C660.513 411.245 712.873 351.126 712.873 305.897C712.873 278.739 697.492 262.985 685.203 250.397C677.025 242.022 670.217 235.048 670.217 227.048C670.217 207.025 729.685 143.029 754.236 131.395C766.021 125.811 777.215 126.33 787.527 126.807C798.698 127.325 808.836 127.795 817.574 120.408C826.181 113.132 832.923 97.8788 838.581 85.0773C843.97 72.8865 848.376 62.9187 852.474 64.1797C860.876 66.7649 846.02 123.652 831.792 138.505C827.251 143.245 817.708 147.397 806.819 152.135C783.593 162.24 754.242 175.01 754.236 201.842C754.231 223.152 759.525 244.28 764.285 263.279C768.328 279.419 771.987 294.023 771.686 305.897C771.243 323.385 726.15 383.756 690.416 431.598L690.414 431.6L690.412 431.602L690.41 431.606C673.321 454.485 658.373 474.497 651.474 485.582C641.044 502.339 630.768 547.994 621.252 590.275C611.309 634.453 602.195 674.949 594.599 674.949C587.662 674.949 587.057 651.719 586.415 627.073C585.681 598.907 584.9 568.893 574.564 569.589C564.635 570.258 559.281 627.408 554.075 682.992C549.119 735.903 544.296 787.393 535.785 787.393C518.335 787.393 529.969 485.582 529.969 485.582C529.969 485.582 529.969 400.904 509.296 401.563C488.767 402.217 480.338 428.99 473.252 451.502L473.103 451.974C465.985 474.582 449.198 534.067 473.103 534.701C487.995 535.096 490.85 524.715 492.762 517.765C493.918 513.559 494.73 510.611 497.654 512.068C499.326 512.902 498.899 531.964 498.234 561.589C497.504 594.114 496.489 639.37 497.654 687.216C498.554 724.228 500.238 762.69 501.762 797.503C504.793 866.764 507.192 921.584 501.54 921.824C495.927 922.063 490.652 879.129 483.908 824.239Z" fill="black"/>
<path fill-rule="evenodd" clip-rule="evenodd" d="M407.039 761.162C409.569 755.713 411.492 751.572 414.927 753.156C416.621 753.937 416.736 765.309 416.911 782.58C417.169 808.047 417.557 846.342 423.329 882.416C428.267 913.278 437.103 942.53 443.635 964.152C449.973 985.132 454.142 998.93 450.473 1000.05C444.519 1001.86 431.164 971.804 412.656 930.145C384.961 867.811 345.725 779.5 302.47 733.124C302.235 732.872 302.144 732.354 302.045 731.796C301.72 729.95 301.317 727.664 295.361 733.124C291.794 736.393 298.727 778.211 319.92 825.542C331.18 850.688 347.061 876.355 360.123 897.468C375.943 923.036 387.629 941.923 381.965 945.111C374.567 949.275 355.954 918.959 342.86 897.632C337.651 889.149 333.316 882.088 330.907 879.185C299.658 841.522 288.251 832.651 281.788 835.883C277.935 837.809 285.108 858.572 290.981 875.575C294.96 887.094 298.344 896.887 297.3 897.931C296.424 898.806 291.892 895.237 285.411 890.131C272.75 880.157 252.65 864.323 237.84 864.323C227.067 864.323 221.961 865.386 216.113 866.603C208.279 868.233 199.114 870.14 173.209 870.14C127.968 870.14 81.4342 836.532 67.2155 819.728C52.9969 802.925 0 728.6 0 621.313C0 514.027 57.521 447.466 93.0677 414.49C114.706 394.417 118.862 374.116 121.425 361.594C123.073 353.545 124.062 348.71 128.614 349.215C140.248 350.508 139.602 388.644 133.785 404.802C131.834 410.219 125.307 419.125 117.49 429.788C101.994 450.927 81.4342 478.975 81.4342 500.455C81.4342 521.62 90.0289 534.745 100.136 550.18C105.461 558.311 111.206 567.084 116.335 578.011C123.467 593.207 122.565 605.128 121.623 617.561C120.603 631.039 119.537 645.117 128.614 664.616C146.065 702.101 178.38 729.892 202.293 733.124C226.206 736.355 255.29 730.539 266.923 709.857C278.557 689.175 263.692 609.68 249.473 587.059C235.254 564.439 212.634 552.159 177.733 552.159C142.833 552.159 108.579 525.661 108.579 491.406C108.579 457.152 129.261 444.226 169.331 444.226C187.658 444.226 241.323 465.816 281.788 541.818C303.94 583.425 323.263 637.271 339.745 683.204C358.985 736.822 374.356 779.658 385.843 779.658C398.451 779.658 403.38 769.042 407.039 761.162ZM158.991 849.458C126.029 850.105 80.7879 798.4 81.4342 771.256C82.0805 744.111 96.2992 729.892 128.614 729.892C160.93 729.892 202.293 771.902 202.293 802.925C202.293 833.947 191.952 848.812 158.991 849.458Z" fill="black"/>
<path fill-rule="evenodd" clip-rule="evenodd" d="M578.192 916.054C583.138 884.496 588.754 848.658 599.125 823.589C621.85 768.655 687.659 695.622 702.524 707.901C716.01 719.042 674.172 773.804 656.159 797.381C654.318 799.791 652.725 801.876 651.466 803.554C637.894 821.651 617.212 909.548 626.907 915.365C631.555 918.153 640.068 895.836 650.306 868.995C661.423 839.852 674.574 805.376 687.019 791.919C710.926 766.069 777.502 710.486 788.489 719.533C799.476 728.58 754.235 775.117 742.601 785.456C730.968 795.796 692.177 859.138 708.987 861.721C714.654 862.592 726.056 848.006 741.103 828.756C752.686 813.937 766.429 796.355 781.38 780.932C800.319 761.395 823.757 748.513 839.687 739.757C843.306 737.768 846.538 735.991 849.242 734.398C860.765 727.608 876.284 720.949 893.589 713.523C930.635 697.626 975.864 678.218 1007.58 646.502C1054.11 599.972 1055.42 539.215 1056.06 504.314C1056.7 469.414 1037.32 394.443 996.592 395.09C955.869 395.738 849.242 455.194 849.242 484.279C849.242 498.123 853.047 503.914 856.827 509.665C860.988 515.998 865.119 522.283 864.106 539.216C862.174 571.53 799.483 632.281 774.917 632.929C750.351 633.576 738.077 628.405 738.077 609.662C738.077 598.21 759.064 574.456 777.899 553.137C789.892 539.562 801.012 526.975 805.286 519.181C809.222 512.004 812.661 499.436 816.495 485.429C823.363 460.334 831.495 430.617 846.013 419.003C858.905 408.69 882.707 403.835 904.386 399.413C920.747 396.076 935.9 392.985 944.242 387.981C963.637 376.346 1007.58 331.106 1003.7 324.643C1002.06 321.909 988.625 326.924 970.682 333.621C946.21 342.754 913.355 355.016 890.608 355.016C851.184 355.016 808.528 370.527 785.261 398.965C774.158 412.535 773.86 432.728 773.534 454.839C773.176 479.063 772.785 505.589 758.113 528.228C743.397 550.934 725.988 571.153 704.462 596.152C684.937 618.827 662.025 645.436 634.665 681.402C610.295 713.438 582.446 771.559 567.453 829.403C547.057 908.091 544.925 985.165 556.47 985.165C567.36 985.165 572.3 953.647 578.192 916.054ZM774.917 678.168C771.04 665.242 829.992 624.525 842.78 639.39C855.567 654.255 811.757 698.85 795.599 699.496C781.132 700.075 779.099 692.881 776.049 682.09C775.692 680.83 775.322 679.52 774.917 678.168ZM873.156 632.929C873.156 605.786 939.079 519.181 963.638 519.181C988.198 519.181 996.592 546.968 996.592 574.113C996.592 601.258 951.359 671.705 918.397 671.705C885.436 671.705 873.156 660.071 873.156 632.929Z" fill="black"/>
<path d="M716.75 495.264C702.532 485.429 653.413 535.232 675.387 553.137C697.361 571.042 730.969 505.099 716.75 495.264Z" fill="black"/>
</svg>
