<svg width="612" height="1001" viewBox="0 0 612 1001" fill="none" xmlns="http://www.w3.org/2000/svg">
<path d="M313.648 188.269C365.607 188.269 407.72 146.151 407.72 94.1972C407.72 42.243 365.607 0.125 313.648 0.125C261.689 0.125 219.576 42.243 219.576 94.1972C219.576 146.151 261.689 188.269 313.648 188.269Z" fill="black"/>
<path d="M174.473 216.62C146.716 216.62 124.215 239.121 124.215 266.878V283.63H43.0297V310.692H259.525V351.929H124.215V391.878H0.503906V433.115H205.401V474.352H124.215V514.3H43.0297V554.249H219.576V595.486H124.215V627.702C124.215 655.459 146.716 677.96 174.473 677.96H191.226V984.661C191.226 993.201 198.152 1000.13 206.689 1000.13H271.122C279.66 1000.13 286.586 993.201 286.586 984.661V636.723H340.71V984.661C340.71 993.201 347.637 1000.13 356.174 1000.13H420.607C429.144 1000.13 436.071 993.201 436.071 984.661V677.96H452.823C480.58 677.96 503.081 655.459 503.081 627.702V596.774H611.329V555.537H434.782V514.3H503.081V474.352H584.267V433.115H394.834V391.878H503.081V351.929H598.442V324.867H448.958V283.63H503.081V266.878C503.081 239.121 480.58 216.62 452.823 216.62H174.473Z" fill="black"/>
</svg>
