<svg width="996" height="1001" viewBox="0 0 996 1001" fill="none" xmlns="http://www.w3.org/2000/svg">
<path fill-rule="evenodd" clip-rule="evenodd" d="M498.157 0.125C435.068 0.125 407.101 23.3247 368.633 55.2391C338.001 80.6489 300.712 111.583 233.74 140.73C233.74 486.628 498.157 598.898 498.157 598.898C498.157 598.898 762.574 486.628 762.574 140.73C695.603 111.583 658.313 80.6489 627.686 55.2403C589.214 23.3247 561.247 0.125 498.157 0.125ZM355.457 229.366C355.457 159.383 391.131 145.66 391.131 145.66C391.131 145.66 426.805 159.383 426.805 229.366V378.94H355.457V229.366ZM355.457 420.098V392.653H426.805V420.098H355.457ZM498.124 145.66C498.124 145.66 462.45 159.383 462.45 229.366V378.94H533.797V229.366C533.797 159.383 498.124 145.66 498.124 145.66ZM533.797 392.653V420.098H462.45V392.653H533.797ZM605.184 145.66C605.184 145.66 569.51 159.383 569.51 229.366V378.94H640.857V229.366C640.857 159.383 605.184 145.66 605.184 145.66ZM569.51 420.098V392.653H640.857V420.098H569.51Z" fill="black"/>
<path d="M129.469 6.59428C123.387 1.19562 114.084 1.74861 108.682 7.82966C103.286 13.9107 103.837 23.2174 109.919 28.6161L185.638 95.8395C191.72 101.238 201.028 100.685 206.425 94.6035C211.827 88.5225 211.271 79.2164 205.188 73.8177L129.469 6.59428Z" fill="black"/>
<path d="M30.6868 160.218C33.0642 152.442 41.2984 148.068 49.0726 150.448L171.173 187.822C178.947 190.201 183.323 198.434 180.941 206.21C178.564 213.986 170.329 218.36 162.555 215.979L40.4549 178.606C32.6807 176.226 28.3048 167.993 30.6868 160.218Z" fill="black"/>
<path d="M0.524847 330.337C0.179755 322.213 6.48727 315.346 14.6113 315L187.871 307.622C195.996 307.276 202.864 313.582 203.209 321.706C203.554 329.83 197.251 336.697 189.122 337.043L15.8623 344.421C7.73823 344.767 0.874732 338.461 0.524847 330.337Z" fill="black"/>
<path d="M8.56741 498.524C1.20065 501.969 -1.98186 510.732 1.46426 518.099C4.91039 525.465 13.6719 528.644 21.0387 525.2L230.562 427.229C237.929 423.784 241.107 415.021 237.661 407.654C234.219 400.288 225.453 397.109 218.086 400.553L8.56741 498.524Z" fill="black"/>
<path d="M47.189 710.24C41.3703 715.923 41.2649 725.245 46.9493 731.061C52.6289 736.877 61.9512 736.986 67.7699 731.303L286.731 517.368C292.545 511.686 292.655 502.363 286.97 496.547C281.286 490.731 271.964 490.622 266.15 496.305L47.189 710.24Z" fill="black"/>
<path d="M162.277 955.434C158.754 962.762 161.836 971.56 169.165 975.084C176.493 978.607 185.293 975.523 188.816 968.194L366.854 597.901C370.377 590.572 367.291 581.774 359.962 578.251C352.634 574.727 343.839 577.811 340.311 585.14L162.277 955.434Z" fill="black"/>
<path d="M887.248 7.82966C881.847 1.74861 872.544 1.19562 866.461 6.59428L790.738 73.8177C784.66 79.2164 784.104 88.5225 789.506 94.6035C794.903 100.685 804.211 101.238 810.288 95.8395L886.012 28.6161C892.094 23.2174 892.645 13.9107 887.248 7.82966Z" fill="black"/>
<path d="M946.858 150.448C954.632 148.068 962.867 152.442 965.244 160.218C967.626 167.993 963.25 176.226 955.476 178.606L833.376 215.979C825.602 218.36 817.367 213.986 814.985 206.21C812.608 198.434 816.979 190.201 824.758 187.822L946.858 150.448Z" fill="black"/>
<path d="M981.32 315C989.444 315.346 995.751 322.213 995.401 330.337C995.056 338.461 988.193 344.767 980.064 344.421L806.804 337.043C798.68 336.697 792.377 329.83 792.722 321.706C793.067 313.582 799.935 307.276 808.059 307.622L981.32 315Z" fill="black"/>
<path d="M994.467 518.099C997.908 510.732 994.73 501.969 987.363 498.524L777.84 400.553C770.478 397.109 761.712 400.288 758.265 407.654C754.824 415.021 758.002 423.784 765.369 427.229L974.892 525.2C982.259 528.644 991.02 525.465 994.467 518.099Z" fill="black"/>
<path d="M948.982 731.061C954.666 725.245 954.556 715.923 948.742 710.24L729.781 496.305C723.962 490.622 714.64 490.731 708.96 496.547C703.276 502.363 703.386 511.686 709.2 517.368L928.161 731.303C933.98 736.986 943.297 736.877 948.982 731.061Z" fill="black"/>
<path d="M826.761 975.084C834.09 971.56 837.177 962.762 833.654 955.434L655.615 585.14C652.092 577.811 643.297 574.727 635.969 578.251C628.635 581.774 625.554 590.572 629.076 597.901L807.115 968.194C810.638 975.523 819.433 978.607 826.761 975.084Z" fill="black"/>
<path d="M531.899 666.996C531.899 685.632 516.792 700.739 498.157 700.739C479.522 700.739 464.415 685.632 464.415 666.996C464.415 648.361 479.522 633.254 498.157 633.254C516.792 633.254 531.899 648.361 531.899 666.996Z" fill="black"/>
<path d="M434.967 722.824C434.967 720.114 437.162 717.916 439.875 717.916H555.212C557.925 717.916 560.12 720.114 560.12 722.824V849.205C560.12 851.915 557.925 854.113 555.212 854.113H528.218V995.217C528.218 996.216 527.921 997.146 527.408 997.921C526.527 999.249 525.022 1000.13 523.311 1000.13H471.777C469.064 1000.13 466.869 997.927 466.869 995.217V854.113H439.875C437.162 854.113 434.967 851.915 434.967 849.205V722.824Z" fill="black"/>
</svg>
