<svg width="1131" height="1001" viewBox="0 0 1131 1001" fill="none" xmlns="http://www.w3.org/2000/svg">
<path d="M74.7693 0.125C52.6576 38.934 35.0946 80.46 22.6204 123.919C-11.2929 242.07 -5.74281 368.058 38.4288 482.769C82.6003 597.48 162.983 694.653 267.38 759.545L289.772 723.52C193.214 663.501 118.867 573.624 78.0122 467.527C37.1574 361.429 32.024 244.901 63.3909 135.621C77.2104 87.4756 97.7825 41.8947 124.249 0.125H74.7693Z" fill="black"/>
<path d="M875.311 0.125H815.343C858.801 38.8088 892.881 87.228 914.625 141.725C942.783 212.3 948.935 289.754 932.26 363.892C915.591 438.032 876.879 505.381 821.231 557.07L849.974 588.077C911.882 530.575 954.945 455.657 973.49 373.183C992.035 290.706 985.197 204.543 953.872 126.035C935.289 79.4592 908.603 36.8741 875.311 0.125Z" fill="black"/>
<path d="M315.826 0.125H255.856C220.308 39.366 192.333 85.2186 173.693 135.395C144.257 214.63 139.482 300.933 159.998 382.939C180.513 464.946 225.352 538.812 288.625 594.813L316.614 563.123C259.744 512.781 219.43 446.385 200.991 372.665C182.545 298.949 186.84 221.367 213.302 150.137C234.791 92.2972 270.079 40.8459 315.826 0.125Z" fill="black"/>
<path d="M1006.95 0.125H1056.43C1079.08 39.8783 1096.95 82.4755 1109.47 127.07C1142.7 245.416 1136.42 371.37 1091.58 485.823C1046.75 600.276 965.803 696.981 861.031 761.266L838.848 725.112C935.753 665.654 1010.62 576.21 1052.09 470.351C1093.56 364.492 1099.37 247.996 1068.64 138.536C1054.82 89.3261 1033.96 42.7458 1006.95 0.125Z" fill="black"/>
<path d="M494.119 990.457L790.388 579.759C800.634 565.364 794.658 553.508 776.728 552.661H609.382V253.737C609.382 235.955 600.844 232.567 589.745 247.81L293.475 658.513C282.376 673.755 288.352 685.61 307.136 685.61H474.481V984.538C474.481 1002.31 483.019 1005.7 494.119 990.457Z" fill="black"/>
<path d="M834.353 312.792C827.146 365.58 804.717 415.119 769.815 455.339L736.589 426.451C765.881 392.699 784.701 351.125 790.754 306.827C796.801 262.526 789.819 217.423 770.656 177.038C751.487 136.649 720.973 102.735 682.848 79.4405C644.722 56.1465 600.643 44.484 555.997 45.8848C511.351 47.2857 468.082 61.6877 431.49 87.3248C394.898 112.965 366.566 148.727 349.965 190.235C333.365 231.744 329.213 277.196 338.021 321.029C346.836 364.862 368.217 405.172 399.567 437.028L368.217 467.941C330.865 429.986 305.381 381.95 294.877 329.718C284.38 277.486 289.329 223.326 309.109 173.864C328.889 124.4 362.651 81.7868 406.256 51.2357C449.861 20.6845 501.42 3.52449 554.619 1.85528C607.818 0.186079 660.344 14.0826 705.775 41.8382C751.207 69.5938 787.568 110.01 810.403 158.137C833.243 206.26 841.565 260.005 834.353 312.792Z" fill="black"/>
</svg>
