<svg width="1034" height="1001" viewBox="0 0 1034 1001" fill="none" xmlns="http://www.w3.org/2000/svg">
<path d="M5.40448 172.877C7.32469 159.607 9.74995 146.448 12.6803 133.428L43.8486 141.653C41.2183 153.483 39.0281 165.434 37.2879 177.485C24.1865 268.13 37.0579 360.631 74.4069 444.256C111.756 527.882 172.047 599.203 248.291 649.946C291.75 678.869 339.375 700.43 389.256 714.028V747.338C332.98 733.017 279.249 709.242 230.444 676.761C149.13 622.643 84.828 546.579 44.9937 457.391C5.16445 368.204 -8.56702 269.551 5.40448 172.877Z" fill="black"/>
<path d="M645.283 747.01V713.676C669.001 707.142 692.223 698.8 714.745 688.704L731.367 716.537C703.579 729.238 674.771 739.427 645.283 747.01Z" fill="black"/>
<path d="M756.74 704.09L740.193 676.391C748.779 671.922 757.25 667.188 765.586 662.192C844.149 615.115 907.751 546.726 949.011 464.962C953.176 456.716 957.091 448.369 960.762 439.931L990.585 452.126C988.435 457.083 986.205 462.009 983.899 466.906C981.914 471.119 979.869 475.31 977.769 479.475C933.764 566.677 865.932 639.613 782.143 689.823C776.742 693.06 771.287 696.196 765.786 699.226C762.786 700.879 759.77 702.5 756.74 704.09Z" fill="black"/>
<path d="M1001.07 425.988C1028.02 353.162 1038.29 274.944 1030.78 197.154C1027.51 163.32 1020.94 130.05 1011.22 97.7955L980.614 107.87C989.595 137.867 995.681 168.797 998.716 200.246C1005.72 272.822 996.221 345.795 971.238 413.789L1001.07 425.988Z" fill="black"/>
<path d="M51.8195 110.658L20.6661 102.436C31.0072 66.8909 45.1337 32.5922 62.7756 0.125L92.4388 13.0239C75.392 43.9622 61.7655 76.7007 51.8195 110.658Z" fill="black"/>
<path d="M1000.22 65.2295C991.935 43.1609 982.144 21.6661 970.908 0.901333L941.25 13.7977C952.131 33.6336 961.602 54.1883 969.593 75.3093L1000.22 65.2295Z" fill="black"/>
<path d="M57.345 182.396C65.5509 125.613 84.1879 71.1164 112.051 21.5548L139.789 33.6161C112.886 80.6736 94.9341 132.575 87.1132 186.697C75.392 267.799 86.9082 350.561 120.322 425.383C141.014 471.705 169.567 513.807 204.511 549.934L182.653 570.596C145.394 532.017 114.941 487.078 92.8639 437.647C57.125 357.633 44.8137 269.126 57.345 182.396Z" fill="black"/>
<path d="M201.155 588.714C219.197 605.417 238.609 620.724 259.242 634.455C307.177 666.359 360.413 688.901 416.138 701.198V670.347C366.383 658.564 318.868 638.012 275.903 609.418C257.171 596.95 239.515 583.095 223.063 568.005L201.155 588.714Z" fill="black"/>
<path d="M617.97 669.837C660.285 659.591 701.024 642.976 738.738 620.375L742.288 618.222L745.289 616.37L760.715 642.194C758.555 643.538 756.38 644.864 754.195 646.173C712.27 671.297 666.855 689.503 619.68 700.332V669.837H617.97Z" fill="black"/>
<path d="M765.041 603.291C823.257 562.404 870.652 507.708 902.851 443.909C939.77 370.753 955.191 288.628 947.32 207.063C941.455 146.236 922.813 87.5794 892.885 34.8312L920.613 22.7737C951.701 78.4596 971.088 140.195 977.259 204.174C985.675 291.401 969.183 379.226 929.704 457.459C894.935 526.35 843.594 585.318 780.503 629.176L765.041 603.291Z" fill="black"/>
<path d="M152.205 39.0154C126.422 84.3015 109.206 134.211 101.69 186.244C92.0288 253.077 98.7095 321.078 120.917 384.489L148.3 376.898C127.093 317.275 120.647 253.231 129.743 190.298C136.899 140.771 153.48 93.3087 178.358 50.3904L152.205 39.0154Z" fill="black"/>
<path d="M133.773 416.816C132.783 414.606 131.818 412.388 130.868 410.163L158.446 402.518L159.656 405.257C189.749 472.641 238.334 530.11 299.771 570.999C339.655 597.545 383.9 616.395 430.22 626.831V655.836C378.274 644.962 328.634 624.258 284.064 594.596C218.167 550.738 166.052 489.094 133.773 416.816Z" fill="black"/>
<path d="M716.596 580.867C680.072 602.755 640.398 618.407 599.198 627.398V656.364C645.553 646.962 690.208 629.726 731.167 605.181C799.065 564.49 854.035 505.382 889.699 434.713C925.368 364.044 940.26 284.71 932.659 205.917C927.018 147.423 909.146 91.0085 880.468 40.2318L854.32 51.6018C881.918 99.6032 899.09 153.118 904.446 208.639C911.532 282.096 897.645 356.058 864.397 421.941C831.148 487.826 779.897 542.932 716.596 580.867Z" fill="black"/>
<path d="M146.2 201.167C152.41 150.27 169.067 101.416 194.905 57.5849L224.003 70.24C199.415 110.888 183.529 156.394 177.583 203.867H145.88L146.2 201.167Z" fill="black"/>
<path d="M143.789 230.75C141.324 290.289 153.22 349.705 178.673 403.907C208.346 467.091 255.226 520.629 313.943 558.38C327.599 567.159 341.766 575.003 356.347 581.88L369.018 553.058C355.942 546.85 343.226 539.79 330.959 531.904C277.224 497.356 234.319 448.355 207.166 390.529C183.684 340.528 172.807 285.677 175.293 230.75H143.789Z" fill="black"/>
<path d="M380.12 592.097L392.806 563.257C409.538 569.688 426.76 574.788 444.302 578.503V610.615C422.389 606.382 400.912 600.184 380.12 592.097Z" fill="black"/>
<path d="M587.677 610.112C630.246 601.578 671.186 585.604 708.55 562.726C735.613 546.16 760.3 526.278 782.098 503.646L758.945 482.31C739.113 502.816 716.686 520.843 692.118 535.884C659.735 555.711 624.416 569.872 587.677 577.951V610.112Z" fill="black"/>
<path d="M804.79 477.786L781.583 456.398C795.989 438.112 808.546 418.311 819.002 397.27C847.42 340.055 859.136 275.987 852.8 212.418C847.85 162.739 832.033 114.937 806.665 72.3252L835.743 59.6814C862.271 105.361 878.843 156.353 884.119 209.296C891.044 278.755 878.243 348.759 847.19 411.273C835.403 434.997 821.172 457.278 804.79 477.786Z" fill="black"/>
<path d="M240.515 77.4208C216.592 116.732 201.245 160.848 195.71 206.865C188.469 267.064 198.305 328.086 224.093 382.961C242.665 422.473 268.968 457.651 301.266 486.511L323.199 463.457C293.74 437.314 269.763 405.361 252.876 369.433C229.624 319.958 220.758 264.94 227.283 210.664C232.454 167.718 247.095 126.606 269.983 90.2359L240.515 77.4208Z" fill="black"/>
<path d="M343.366 479.805C348.381 483.513 353.522 487.065 358.782 490.456C387.46 508.933 419.024 522.146 451.982 529.644V562.176C412.873 554.193 375.404 538.999 341.555 517.19C334.61 512.711 327.849 507.979 321.293 503.006L343.366 479.805Z" fill="black"/>
<path d="M667.91 494.567C639.847 511.609 609.244 523.705 577.436 530.491V562.937C615.095 555.723 651.344 541.833 684.417 521.748C736.243 490.275 778.167 444.86 805.41 390.691C832.648 336.521 844.104 275.782 838.464 215.412C838.204 212.652 837.914 209.897 837.584 207.148C837.354 205.208 837.104 203.272 836.839 201.339L805.37 205.966C805.935 210.084 806.41 214.219 806.8 218.37C811.881 272.799 801.555 327.563 776.997 376.403C752.435 425.242 714.635 466.19 667.91 494.567Z" fill="black"/>
<path d="M793.204 78.1796C811.086 107.74 824.102 139.965 831.778 173.617L800.205 178.259C792.894 147.408 780.588 117.924 763.751 90.9897L793.204 78.1796Z" fill="black"/>
<path d="M244.72 211.245C250.461 170.605 265.302 131.938 287.97 98.058L313.673 109.235C291.71 140.658 277.374 176.908 271.973 215.097C265.417 261.51 272.338 308.832 291.91 351.423C311.487 394.015 342.896 430.081 382.39 455.326C404.717 469.598 429.1 480.07 454.543 486.457V514.75C423.814 507.858 394.361 495.648 367.563 478.521C323.624 450.433 288.68 410.306 266.897 362.92C245.12 315.533 237.419 262.884 244.72 211.245Z" fill="black"/>
<path d="M571.035 515.311C603.139 508.436 633.887 495.773 661.72 477.785C705.525 449.477 740.263 409.176 761.806 361.681C778.502 324.875 786.723 284.952 786.063 244.831H758.53C759.195 281.044 751.804 317.09 736.738 350.31C717.376 392.998 686.147 429.222 646.778 454.664C623.431 469.753 597.803 480.673 571.035 487.086V515.311Z" fill="black"/>
<path d="M783.623 212.707L783.228 209.896C777.492 170.723 763.301 133.429 741.808 100.532L716.161 111.686C736.933 142.193 750.604 177.118 755.99 213.885L756.38 216.668H784.133C783.973 215.347 783.803 214.027 783.623 212.707Z" fill="black"/>
<path d="M328.094 133.783C325.894 137.365 323.799 141.009 321.813 144.709L341.13 153.67C345.951 144.832 351.452 136.36 357.592 128.335L337.57 119.629C334.225 124.226 331.064 128.948 328.094 133.783Z" fill="black"/>
<path d="M299.776 206.605C301.976 195.213 305.072 184.065 309.017 173.256L328.369 182.236C325.104 191.46 322.513 200.952 320.643 210.639C313.307 248.57 317.288 287.821 332.089 323.507C337.54 336.646 344.366 349.087 352.417 360.644L337.175 375.885C327.294 362.219 318.983 347.385 312.457 331.649C296.061 292.113 291.65 248.628 299.776 206.605Z" fill="black"/>
<path d="M358.117 400.734C368.378 411.214 379.72 420.684 391.996 428.967C413.493 443.471 437.291 453.951 462.223 460.049V438.099C441.556 432.461 421.834 423.459 403.882 411.349C392.741 403.829 382.45 395.229 373.144 385.705L358.117 400.734Z" fill="black"/>
<path d="M632.712 431.234C611.734 444.819 588.697 454.629 564.634 460.358V438.444C584.572 433.149 603.664 424.728 621.16 413.395C653.589 392.394 679.127 362.323 694.598 326.921C710.065 291.52 714.785 252.351 708.17 214.288C707.8 212.161 707.395 210.044 706.955 207.935L728.112 205.307C728.467 207.082 728.797 208.862 729.107 210.648C736.438 252.817 731.212 296.21 714.07 335.431C696.934 374.651 668.641 407.967 632.712 431.234Z" fill="black"/>
<path d="M692.308 122.058C703.589 138.019 712.67 155.414 719.311 173.771L697.624 176.466C691.278 160.191 682.782 144.808 672.356 130.735L692.308 122.058Z" fill="black"/>
<path fill-rule="evenodd" clip-rule="evenodd" d="M613.225 216.303L537.536 141.105C523.84 127.497 501.538 127.497 487.841 141.105L412.328 216.303C410.993 217.63 409.788 219.036 408.713 220.509H378.374C365.293 220.509 354.692 231.112 354.692 244.191C354.692 257.27 365.293 267.874 378.374 267.874H414.538L488.016 340.876C501.713 354.484 524.015 354.484 537.712 340.876L611.189 267.874H648.483C661.565 267.874 672.166 257.27 672.166 244.191C672.166 231.112 661.565 220.509 648.483 220.509H616.87C615.79 219.032 614.57 217.625 613.225 216.303ZM563.879 232.704L502.943 317.321C500.663 320.463 498.902 319.764 498.902 316.103V254.512H464.484C460.623 254.512 459.393 252.069 461.673 248.929L522.61 164.31C524.895 161.17 526.65 161.867 526.65 165.531V227.121H561.069C564.759 227.294 565.985 229.737 563.879 232.704Z" fill="black"/>
<path d="M458.073 797.12C465.414 837.073 496.202 998.429 514.709 1000.11C533.176 1001.79 564.359 838.605 571.91 797.537C572.535 794.148 577.076 793.057 579.201 795.771C596.403 817.75 653.189 882.641 749.249 919.567C753.225 921.096 756.045 915.908 752.82 913.123C559.739 746.227 535.266 525.437 524.125 424.914C520.38 391.126 518.139 370.925 511.509 370.925C505.158 370.925 504.213 390.121 502.633 422.231C497.762 521.365 486.836 743.595 292.1 904.122C288.62 907.122 292.74 913.99 296.966 912.176C347.956 890.273 395.481 869.214 451.067 795.531C453.107 792.827 457.458 793.79 458.073 797.12Z" fill="black"/>
</svg>
