<svg width="988" height="1001" viewBox="0 0 988 1001" fill="none" xmlns="http://www.w3.org/2000/svg">
<path fill-rule="evenodd" clip-rule="evenodd" d="M140.927 213.163C200.475 163.256 286.66 91.0253 356.721 167.195C403.107 217.627 416.832 265.944 430.117 312.708C447.328 373.294 463.799 431.275 549.589 487.875C610.594 528.124 710.475 506.726 748.008 438.347C795.919 351.06 773.452 107.804 549.589 27.6531C213.11 -92.8179 44.8103 219.369 75.6615 248.913C86.2137 259.018 109.971 239.107 140.927 213.163ZM427.329 122.619C427.33 99.7136 434.14 88.5703 455.187 88.5703C476.235 88.5703 514.618 126.953 514.618 150.478C514.618 174.002 502.236 188.86 482.426 188.86C462.616 188.86 427.329 145.525 427.329 122.619ZM519.571 331.866C519.581 392.535 568.487 432.775 599.431 432.775C630.375 432.775 679.911 393.154 679.911 337.438C679.911 281.721 611.194 185.146 577.145 185.146C561.101 185.146 555.528 209.27 548.755 238.589C547.014 246.127 545.194 254.008 543.096 261.911C540.241 272.665 535.847 282.117 531.626 291.197C525.41 304.57 519.569 317.136 519.571 331.866Z" fill="black"/>
<path fill-rule="evenodd" clip-rule="evenodd" d="M372.931 957.427C305.973 944.57 196.433 923.536 196.433 772.654C196.433 662.539 249.276 634.454 300.565 607.195C350.488 580.663 398.938 554.913 395.756 455.061C393.427 382.012 329.534 326.914 251.531 326.913C137.434 326.912 0.167969 391.911 0.167969 681.023C0.167969 1028.94 423.626 1022.13 423.626 980.029C423.626 967.162 402.404 963.087 372.931 957.427ZM101.077 713.215C101.077 729.93 105.41 749.121 120.887 749.121C136.364 749.121 151.222 720.644 151.222 707.024C151.222 693.405 136.983 675.451 124.602 674.832C112.22 674.213 101.077 696.5 101.077 713.215ZM131.411 463.109C147.507 444.537 203.224 406.155 234.797 406.155C266.369 406.155 305.371 419.774 305.371 479.205C305.371 525.313 268.109 535.277 230.877 545.233C220.118 548.109 209.363 550.985 199.509 554.732C174.511 564.239 155.319 591.768 139.999 613.744C128.383 630.407 118.991 643.879 110.982 643.879C92.4098 643.879 76.3139 634.592 76.3139 585.066C76.3139 535.541 115.316 481.682 131.411 463.109Z" fill="black"/>
<path fill-rule="evenodd" clip-rule="evenodd" d="M937.492 498.632C930.807 569.352 920.368 679.783 789.485 679.783C699.069 679.783 656.165 647.834 616.854 618.561C572.456 585.501 532.641 555.852 434.137 579.493C363.069 596.549 338.384 668.18 358.571 743.526C388.101 853.735 535.882 973.123 764.096 906.36C1042.07 825.04 999.351 440.82 956.635 440.82C942.957 440.82 940.641 465.321 937.492 498.632ZM533.189 794.932C462.36 769.856 431.038 715.565 467.566 673.594C504.095 631.623 563.521 651.935 609.325 710.741C629.452 736.582 657.216 758.673 678.376 775.51L678.377 775.51C697.665 790.857 711.465 801.838 708.996 807.314C703.51 819.476 601.563 819.14 533.189 794.932ZM826.629 762.122C826.629 774.43 816.651 784.408 804.343 784.408C792.034 784.408 782.056 774.43 782.056 762.122C782.056 749.813 792.034 739.835 804.343 739.835C816.651 739.835 826.629 749.813 826.629 762.122Z" fill="black"/>
</svg>
