<svg width="1001" height="1001" viewBox="0 0 1001 1001" fill="none" xmlns="http://www.w3.org/2000/svg">
<path d="M906.332 759.622C904.792 759.573 903.245 759.548 901.693 759.548C863.337 759.548 828.521 774.698 802.9 799.339V788.206C802.9 774.977 799.766 761.929 793.738 750.132C730.828 626.865 691.97 559.116 621.185 441.796L621.183 441.794C597.298 402.211 545.847 389.481 506.262 413.365L506.26 413.366C466.673 437.253 453.956 488.701 477.829 528.279L477.831 528.284C531.664 617.508 565.874 676.146 606.866 753.515H479.271L405.408 631.691L405.404 631.684C394.109 613.052 375.994 599.561 354.911 594.074L354.908 594.073L202.082 554.292C201.524 554.115 200.812 553.891 199.971 553.63C197.94 553.001 195.107 552.143 191.855 551.216C185.858 549.506 176.707 547.057 168.352 545.707L166.404 545.383L166.338 545.372C165.323 545.199 163.699 544.922 161.82 544.674L161.806 544.672L161.79 544.67C159.292 544.341 156.826 544.122 153.995 543.947L152.648 543.863H151.297C105.063 543.863 67.5873 581.342 67.5873 627.573C67.5873 667.005 94.8102 699.972 131.435 708.903L279.855 747.535L349.324 862.112H40.4618C28.0559 862.112 16.2807 864.81 5.69096 869.652H1.24633V0.125C445.309 45.6699 716.969 173.381 906.332 759.622Z" fill="black"/>
<path d="M528.858 450.068C547.758 438.664 572.327 444.741 583.733 463.644C654.14 580.335 692.46 647.158 754.788 769.287C757.663 774.913 759.16 781.139 759.16 787.457V985.042H40.4618C18.3854 985.042 0.492188 967.147 0.492188 945.073C0.492188 922.998 18.3854 905.103 40.4618 905.103H397.171V855.913L308.053 708.929L142.065 665.723C124.443 661.556 111.328 645.722 111.328 626.824C111.328 604.749 129.221 586.855 151.297 586.855C153.418 586.986 154.844 587.124 156.093 587.289C157.136 587.426 158.055 587.582 159.145 587.768L161.29 588.124C172.684 589.951 189.888 595.567 189.888 595.567L343.892 635.654C353.961 638.275 362.61 644.717 368.001 653.613L454.639 796.506H678.926C620.392 682.23 583.203 617.512 515.283 504.939C503.883 486.038 509.957 461.472 528.858 450.068Z" fill="black"/>
<path d="M901.693 1000.12C956.256 1000.12 1000.49 955.894 1000.49 901.332C1000.49 846.77 956.256 802.54 901.693 802.54C847.13 802.54 802.9 846.77 802.9 901.332C802.9 955.894 847.13 1000.12 901.693 1000.12Z" fill="black"/>
</svg>
