<svg width="1042" height="1001" viewBox="0 0 1042 1001" fill="none" xmlns="http://www.w3.org/2000/svg">
<path d="M138.487 681.357V323.191H570.435V183.506L928.601 504.423L570.435 815.311V681.357H138.487Z" fill="black"/>
<path d="M138.487 681.357V323.191H570.435V183.506L928.601 504.423L570.435 815.311V681.357H138.487Z" fill="black"/>
<path d="M215.045 39.673C215.045 17.8318 232.763 0.125 254.611 0.125C276.47 0.125 294.188 17.8318 294.188 39.673V114.531H215.045V39.673Z" fill="black"/>
<path d="M483.557 0.125C461.698 0.125 443.991 17.8318 443.991 39.673V114.531H523.123V39.673C523.123 17.8318 505.417 0.125 483.557 0.125Z" fill="black"/>
<path d="M712.504 0.125C690.644 0.125 672.926 17.8318 672.926 39.673V114.531H752.07V39.673C752.07 17.8318 734.352 0.125 712.504 0.125Z" fill="black"/>
<path d="M83.6199 175.267C37.562 175.267 0.234375 212.576 0.234375 258.599V741.651C0.234375 787.675 37.562 824.983 83.6199 824.983H525.619C524.937 821.845 524.59 818.606 524.59 815.313V736.001H89.2723V264.249H524.59V183.507C524.59 180.711 524.847 177.956 525.34 175.267H83.6199Z" fill="black"/>
<path d="M629.935 175.267L729.248 264.249H877.842V397.391L959.191 470.28C968.996 479.06 974.547 491.627 974.446 504.785C974.346 517.942 968.593 530.421 958.654 539.046L877.842 609.191V736.001H731.744L629.23 824.983H883.506C929.553 824.983 966.88 787.675 966.88 741.651V618.769H1006.45C1025.97 618.769 1041.78 602.959 1041.78 583.459V416.791C1041.78 397.291 1025.97 381.481 1006.45 381.481H966.88V258.599C966.88 212.576 929.553 175.267 883.506 175.267H629.935Z" fill="black"/>
<path d="M215.045 960.577C215.045 982.418 232.763 1000.12 254.611 1000.12C276.47 1000.12 294.188 982.418 294.188 960.577V885.719H215.045V960.577Z" fill="black"/>
<path d="M443.991 960.577C443.991 982.418 461.698 1000.12 483.557 1000.12C505.417 1000.12 523.123 982.418 523.123 960.577V885.719H443.991V960.577Z" fill="black"/>
<path d="M672.926 960.577C672.926 982.418 690.644 1000.12 712.504 1000.12C734.352 1000.12 752.07 982.418 752.07 960.577V885.719H672.926V960.577Z" fill="black"/>
</svg>
