<svg width="993" height="1001" viewBox="0 0 993 1001" fill="none" xmlns="http://www.w3.org/2000/svg">
<path d="M253.307 0.125L315.415 129.36C262.09 141.907 164.223 225.972 123.445 315.683L0.484375 259.849C50.0452 161.355 163.596 46.5491 253.307 0.125Z" fill="black"/>
<path d="M740.133 0.752353L678.025 129.987C731.35 142.534 829.217 226.599 869.995 316.311L992.956 260.476C943.395 161.982 829.844 47.1764 740.133 0.752353Z" fill="black"/>
<path d="M802.2 601.029L716.863 685.666L593.618 562.529L642.447 494.84C649.246 485.289 645.28 477.423 633.384 476.86H522.352V278.528C522.352 266.729 516.688 264.481 509.324 274.595L423.924 392.982L313.692 282.846L397.159 199.869C441.346 156.045 513.289 156.045 557.475 199.869L801.63 442.026C845.818 485.289 845.818 557.205 802.2 601.029Z" fill="black"/>
<path fill-rule="evenodd" clip-rule="evenodd" d="M394.605 433.625L394.612 433.615L278.614 317.718L278.605 317.726L226.14 265.362C222.901 262.126 217.65 262.126 214.412 265.362L183.483 296.264C180.244 299.5 180.244 304.746 183.483 307.982L235.841 360.239L153.571 442.026C109.385 485.85 109.385 557.205 153.571 601.029L224.987 671.86H331.208V777.212L397.726 843.186C441.912 887.009 513.856 887.009 558.041 843.186L638.922 762.968L691.999 815.927C695.238 819.162 700.489 819.162 703.728 815.927L734.656 785.025C737.895 781.789 737.895 776.542 734.656 773.307L681.736 720.505L681.745 720.497L564.307 603.161L564.3 603.172L394.605 433.625ZM358.871 483.162L312.753 547.092C305.389 557.205 309.354 565.071 321.817 565.071H432.848V763.407C432.848 775.2 438.512 777.449 445.877 767.334L528.565 652.708L358.871 483.162Z" fill="black"/>
<path d="M678.025 870.263L740.133 999.498C829.844 953.074 943.395 838.268 992.956 739.774L869.995 683.939C829.217 773.651 731.35 857.716 678.025 870.263Z" fill="black"/>
<path d="M315.415 870.89L253.307 1000.13C163.596 953.701 50.0452 838.895 0.484375 740.401L123.445 684.567C164.223 774.278 262.09 858.343 315.415 870.89Z" fill="black"/>
</svg>
