<svg width="799" height="1001" viewBox="0 0 799 1001" fill="none" xmlns="http://www.w3.org/2000/svg">
<path fill-rule="evenodd" clip-rule="evenodd" d="M358.948 505.552C358.948 538.478 341.824 559.967 315.475 579.322C302.134 589.116 286.871 598.034 270.629 607.511L270.472 607.602C254.475 616.94 237.595 626.791 221.911 638.116C153.814 687.31 120.819 736.994 120.819 802.665C120.819 835.454 132.886 884.973 173.389 926.366C214.118 967.998 282.353 1000.13 392.149 1000.13C501.593 1000.13 571.513 971.436 614.085 930.87C656.617 890.349 670.38 839.392 670.38 797.744C670.38 748.439 634.797 673.527 558.897 623.101C550.761 617.696 542.665 612.933 534.783 608.597C527.059 604.342 519.541 600.495 512.414 596.854L512.277 596.78C497.721 589.341 485.134 582.91 474.489 575.382C464 567.964 455.845 559.784 450.218 549.202C444.572 538.602 441.033 524.801 441.033 505.552V483.653C441.033 464.834 444.572 451.342 450.218 440.979C455.845 430.632 464 422.636 474.489 415.383C485.134 408.023 497.721 401.735 512.277 394.463L512.414 394.39C526.804 387.202 542.772 379.198 558.897 368.729C634.797 319.429 670.38 246.191 670.38 197.987C670.38 157.269 656.617 107.449 614.085 67.8325C571.513 28.1733 501.593 0.125 392.149 0.125C282.353 0.125 214.118 31.5343 173.389 72.2362C132.886 112.705 120.819 161.118 120.819 193.176C120.819 257.38 153.814 305.954 221.911 354.05C237.595 365.122 254.475 374.753 270.472 383.882L270.629 383.97C286.871 393.237 302.134 401.955 315.475 411.531C341.824 430.452 358.948 451.462 358.948 483.653V505.552ZM371.456 946.662C365.82 954.278 361.095 960.677 361.095 964.993C361.095 975.658 366.741 984.441 381.17 984.441C395.599 984.441 429.476 949.309 429.476 899.749C429.476 872.268 418.292 862.147 408.323 853.128C400.314 845.882 393.09 839.348 393.09 825.094C393.09 806.204 407.088 794.968 420.87 783.898C430.437 776.217 439.906 768.616 444.533 758.594C448.885 749.171 448.67 733.976 448.454 718.853V718.765C448.101 694.658 447.758 670.765 465.863 670.765C481.655 670.765 485.752 698.477 489.81 725.954C493.329 749.778 496.829 773.425 507.896 778.67C520.443 784.615 544.292 787.429 564.896 789.861C583.423 792.049 599.322 793.925 601.998 797.49C602.93 798.733 603.4 800.164 603.537 801.751C603.861 805.583 602.243 810.331 600.459 815.558C598.499 821.282 596.352 827.58 596.352 833.877C596.352 848.306 604.508 854.579 619.564 854.579C634.621 854.579 652.187 823.839 652.187 806.9C652.187 789.962 641.522 763.613 624.583 751.693C615.261 745.137 600.44 742.376 586.373 739.758C582.325 739.004 578.335 738.262 574.562 737.444C567.621 735.94 561.407 734.179 556.829 731.618C548.35 726.869 546.468 705.612 544.654 685.005C543.106 667.502 541.596 650.467 536.126 644.416C530.745 638.47 517.698 631.117 502.455 622.531C483.939 612.096 462.187 599.84 447.042 586.072C419.439 560.978 420.694 503.262 420.694 503.262C420.694 503.262 418.811 456.838 437.005 434.253C455.198 411.668 489.075 393.475 500.995 387.829C512.914 382.183 529.226 371.518 547.419 352.697C558.309 341.429 561.113 319.815 563.485 301.456C565.073 289.152 566.475 278.309 570.003 273.023C574.552 266.208 585.638 263.422 597.283 260.497C608.154 257.767 619.496 254.916 626.465 248.557C640.894 235.382 642.149 208.406 642.149 194.604C642.149 180.803 621.446 127.478 607.017 127.478C592.588 127.478 583.805 133.751 583.805 148.808C583.805 150.963 584.305 153.273 585.129 155.686C586.52 159.773 588.824 164.161 591.157 168.606C597.078 179.879 603.194 191.528 595.098 199.623C589.402 205.317 578.669 206.792 565.837 208.557C548.977 210.874 528.49 213.691 511.032 227.227C495.417 239.335 492.751 261.316 490.379 280.922C488.075 299.915 486.036 316.68 472.764 320.075C445.788 326.976 432.613 305.018 438.887 284.316C440.279 279.722 443.151 274.419 446.778 268.59C449.218 264.677 451.993 260.528 454.894 256.198C467.137 237.904 481.547 216.385 481.547 195.859C481.547 178.136 460.628 156.85 441.514 137.406C425.448 121.059 410.656 106.014 410.656 95.4826C410.656 81.758 417.547 69.2588 423.125 59.139C426.918 52.2565 430.104 46.4743 430.104 42.1576C430.104 31.4926 425.085 22.7097 410.656 22.7097C396.227 22.7097 368.623 56.5867 368.623 106.148C368.623 133.629 379.622 143.557 389.414 152.404C397.285 159.512 404.382 165.921 404.382 180.175C404.382 199.12 390.963 210.146 377.681 221.067C368.525 228.592 359.429 236.067 354.822 246.047C350.42 255.578 350.881 271.201 351.332 286.725C352.038 311.052 352.743 335.131 334.746 335.131C318.847 335.131 312.799 305.754 306.858 276.914C301.791 252.279 296.791 228.038 285.813 222.835C273.119 216.823 250.465 214.722 231.213 212.937C214.295 211.37 199.993 210.044 197.356 206.524C194.249 202.376 196.278 197.278 198.728 191.122C199.464 189.29 200.228 187.365 200.904 185.342C201.159 184.581 201.404 183.806 201.63 183.017C202.443 180.162 203.002 177.125 203.002 173.902C203.002 159.473 192.965 151.317 177.908 151.317C162.852 151.317 148.423 182.057 148.423 198.996C148.423 215.934 161.597 244.165 179.163 254.203C188.259 259.402 199.552 261.572 210.491 263.676C220.686 265.634 230.576 267.535 238.134 271.769C246.701 276.568 250.22 298.978 253.583 320.468C256.376 338.304 259.082 355.506 264.483 361.48C269.864 367.426 282.911 374.779 298.154 383.365C316.671 393.8 338.422 406.056 353.567 419.824C381.17 444.918 381.798 503.262 381.798 503.262C381.798 503.262 381.798 549.059 363.604 571.643C345.411 594.228 311.534 612.421 299.614 618.067C287.695 623.713 271.384 634.378 253.19 653.199C242.271 664.491 239.261 685.27 236.703 702.93C234.997 714.705 233.488 725.093 229.978 730.363C225.401 737.23 214.177 740.517 202.434 743.957C191.651 747.117 180.427 750.404 173.517 756.712C159.088 769.887 149.05 793.726 149.05 807.528C149.05 821.33 181.045 879.046 195.474 879.046C209.903 879.046 216.804 872.145 216.804 857.089C216.804 853.953 215.559 850.302 213.697 846.365C212.05 842.886 209.923 839.185 207.756 835.42C200.63 822.992 193.112 809.888 201.12 801.882C206.766 796.231 217.265 795.543 229.841 794.72C246.584 793.622 267.002 792.284 284.558 778.67C299.977 766.713 304.035 744.497 307.643 724.689C311.24 705.003 314.396 687.696 327.845 685.194C354.822 680.175 365.487 700.878 359.213 721.58C356.929 729.127 350.969 738.59 344.333 749.15C332.747 767.561 319.062 789.305 319.062 810.037C319.062 827.76 339.981 848.306 359.095 867.072C375.161 882.851 389.953 897.373 389.953 907.904C389.953 921.629 379.729 935.462 371.456 946.662Z" fill="black"/>
<path d="M105.763 661.355V888.916L169.272 990.401H0.847656L65.612 886.911V661.355C51.0555 661.355 39.2632 649.557 39.2632 635.006C39.2632 620.454 51.0555 608.657 65.612 608.657V530.982C47.2227 523.537 34.2444 505.504 34.2444 484.441C34.2444 463.378 47.2227 445.346 65.612 437.901V357.716C51.0555 357.716 39.2632 345.919 39.2632 331.367C39.2632 316.816 51.0555 305.018 65.612 305.018V118.358L0.847656 14.8678H169.272L105.763 116.353V305.018H107.017C121.574 305.018 133.366 316.816 133.366 331.367C133.366 345.919 121.574 357.716 107.017 357.716H105.763V438.997C122.819 447.014 134.621 464.349 134.621 484.441C134.621 504.534 122.819 521.868 105.763 529.885V608.657H107.017C121.574 608.657 133.366 620.454 133.366 635.006C133.366 649.557 121.574 661.355 107.017 661.355H105.763Z" fill="black"/>
<path d="M735.144 889.229V661.668H736.399C750.955 661.668 762.748 649.871 762.748 635.32C762.748 620.768 750.955 608.971 736.399 608.971H735.144V530.199C752.2 522.182 764.002 504.847 764.002 484.755C764.002 464.662 752.2 447.328 735.144 439.311V358.03H736.399C750.955 358.03 762.748 346.232 762.748 331.681C762.748 317.129 750.955 305.332 736.399 305.332H735.144V116.667L798.654 15.1815H630.229L694.994 118.671V305.332C680.437 305.332 668.645 317.129 668.645 331.681C668.645 346.232 680.437 358.03 694.994 358.03V438.214C676.604 445.659 663.626 463.692 663.626 484.755C663.626 505.818 676.604 523.85 694.994 531.295V608.971C680.437 608.971 668.645 620.768 668.645 635.32C668.645 649.871 680.437 661.668 694.994 661.668V887.225L630.229 990.715H798.654L735.144 889.229Z" fill="black"/>
</svg>
