<svg width="985" height="1001" viewBox="0 0 985 1001" fill="none" xmlns="http://www.w3.org/2000/svg">
<path fill-rule="evenodd" clip-rule="evenodd" d="M389.91 573.383C417.669 574.029 391.201 504.308 427.352 503.663C463.504 503.017 446.073 597.269 492.554 597.269C539.034 597.269 513.212 550.789 552.591 550.789C591.97 550.789 574.54 681.838 615.21 681.838C655.881 681.838 651.362 432.651 659.754 410.702C668.146 388.753 764.34 306.121 764.34 195.73C764.34 85.3391 684.931 0.125 513.857 0.125C342.784 0.125 237.557 153.123 237.557 249.957C237.557 346.791 298.24 366.804 328.581 418.449C358.923 470.094 362.15 572.738 389.91 573.383ZM469.314 340.336C441.565 337.108 411.859 391.981 438.327 418.449C464.795 444.917 506.111 406.829 506.111 381.652C506.111 356.475 497.063 343.564 469.314 340.336ZM318.898 275.78C317.132 315.523 343.429 353.247 373.125 353.247C402.821 353.247 424.124 308.831 424.124 269.324C424.124 234.464 408.326 207.996 373.125 207.996C335.037 207.996 320.567 238.211 318.898 275.78ZM469.314 202.186C469.314 241.556 506.756 314.513 560.983 315.804C615.21 317.096 631.995 249.957 631.35 207.996C630.704 166.034 615.856 111.807 560.983 111.807C506.111 111.807 469.314 162.815 469.314 202.186Z" fill="black"/>
<path d="M286.62 503.663C235.61 508.249 213.658 429.423 233.038 422.322C252.419 415.221 337.629 499.077 286.62 503.663Z" fill="black"/>
<path d="M176.878 448.79C-34.8719 324.197 -43.8908 126.009 86.5101 126.009C216.911 126.01 134.271 250.603 134.271 286.754C134.271 322.906 142.029 392.624 176.878 448.79Z" fill="black"/>
<path d="M784.358 399.727C765.636 367.449 698.492 421.031 717.219 458.474C735.946 495.916 803.079 432.005 784.358 399.727Z" fill="black"/>
<path d="M808.889 539.838C914.761 479.161 1077.44 149.912 917.989 162.815C758.535 175.718 936.71 308.705 808.889 539.838Z" fill="black"/>
<path d="M555.183 836.151C377.008 794.836 453.83 668.95 445.438 625.698C548.728 657.976 467.899 787.734 555.183 836.151Z" fill="black"/>
<path d="M459.64 836.151C358.933 744.482 391.211 633.444 274.364 645.065C331.174 707.685 336.984 829.05 459.64 836.151Z" fill="black"/>
<path d="M832.769 1000.12H604.886C604.886 1000.12 568.095 967.846 445.438 967.846C429.944 967.846 415.742 949.124 358.933 920.72C330.069 906.288 299.018 902.393 280.174 887.151C261.93 872.393 255.55 846.433 248.545 823.887C234.306 778.053 152.355 728.987 178.823 702.52C205.291 676.053 328.578 807.748 344.079 823.887C359.58 840.025 366.674 878.114 494.495 878.114C622.316 878.114 690.1 771.596 695.91 760.621C701.72 749.647 695.91 697.356 703.011 665.724C710.112 634.091 751.428 608.914 764.34 612.787C777.251 616.661 772.732 697.357 771.441 707.685C770.15 718.013 748.846 787.089 749.492 814.847C750.137 842.605 832.769 1000.12 832.769 1000.12Z" fill="black"/>
</svg>
