<svg width="1028" height="1001" viewBox="0 0 1028 1001" fill="none" xmlns="http://www.w3.org/2000/svg">
<path d="M673.183 648.618C743.088 578.892 810.358 511.794 833.374 437.353C876.223 298.766 813.173 170.678 684.626 170.678C618.893 170.678 575.568 198.554 548.923 225.797C553.063 228.459 556.983 231.593 560.605 235.199L713.464 387.389C741.128 414.578 741.128 459.776 713.82 487.318L560.96 639.507C533.297 667.049 488.255 667.049 460.591 639.507L307.733 487.318C280.069 459.776 280.069 414.931 307.733 387.389L460.237 235.199C464.147 231.306 468.404 227.964 472.91 225.171C444.134 198.129 398.857 170.678 333.627 170.678C205.08 170.678 146.015 298.766 188.864 437.353C212.29 513.118 280.514 580.679 352.058 651.529C411.381 710.276 472.987 771.284 513.23 841.103C550.752 770.736 612.946 708.701 673.183 648.618Z" fill="black"/>
<path d="M490.737 591.836L613.804 420.581C618.06 414.578 615.578 409.634 608.13 409.281H538.616V284.634C538.616 277.219 535.07 275.806 530.46 282.163L407.392 453.42C402.782 459.776 405.264 464.719 413.067 464.719H482.58V589.368C482.58 596.78 486.127 598.193 490.737 591.836Z" fill="black"/>
<path fill-rule="evenodd" clip-rule="evenodd" d="M555.447 126.783C537.521 141.285 516.276 158.961 516.276 158.961C515.431 158.102 514.541 157.206 513.609 156.275C505.325 148.007 493.58 136.965 479.782 125.942C449.129 101.454 395.693 86.0799 312.386 86.0799C226.193 86.0799 163.631 145.307 126.919 215.695C90.2738 285.953 76.8284 371.746 91.6991 433.097C104.208 484.702 134.851 531.63 172.653 576.092C203.825 612.755 240.793 648.766 277.832 684.845L277.833 684.846C285.651 692.461 293.472 700.079 301.242 707.707C328.394 734.363 356.536 769.614 384.182 804.244C393.682 816.144 403.123 827.971 412.446 839.35C430.339 861.19 447.873 881.443 464.057 896.312C472.16 903.756 480.348 910.25 488.461 914.954C496.447 919.585 505.512 923.157 515.067 923.157C524.394 923.157 533.391 919.853 541.462 915.483C549.659 911.044 558.016 904.891 566.347 897.787C582.989 883.597 601.132 864.215 619.688 843.121C631.81 829.34 644.121 814.83 656.486 800.257L656.492 800.25C682.686 769.377 709.121 738.22 734.516 713.11C822.962 625.654 897.302 530.686 927.431 434.086C954.751 346.488 928.046 259.601 883.855 195.425C861.703 163.254 834.801 136.218 807.166 117.098C779.805 98.1664 750.369 86.0799 723.335 86.0799C639.996 86.0799 595.664 94.2499 555.447 126.783ZM155.117 230.403C121.207 295.417 109.932 373.309 122.608 425.605C133.407 470.157 160.392 512.571 196.883 555.492C226.993 590.905 262.644 625.64 299.652 661.697C307.561 669.402 315.531 677.167 323.522 685.012C352.18 713.146 382.164 750.712 410.127 785.747C419.361 797.316 428.375 808.609 437.048 819.194C454.849 840.923 471.174 859.662 485.574 872.892C492.764 879.498 499.05 884.331 504.414 887.441C509.905 890.625 513.32 891.354 515.067 891.354C517.043 891.354 520.664 890.578 526.317 887.516C531.844 884.524 538.317 879.892 545.712 873.587C560.522 860.958 577.417 843.021 595.808 822.115C607.073 809.309 618.904 795.369 631.017 781.097C657.706 749.65 685.763 716.591 712.154 690.495C799.529 604.098 869.309 513.625 897.069 424.616C920.668 348.953 898.077 272.155 857.661 213.462C837.51 184.198 813.281 160.003 789.07 143.252C764.586 126.311 741.463 117.884 723.335 117.884C641.344 117.884 606.672 126.252 575.449 151.51C557.656 165.904 545.132 176.272 537.078 183.023C533.052 186.399 525.53 192.83 525.53 192.83L513.589 203.266L500.084 188.024C492.372 180.327 472.57 160.887 459.932 150.791C437.713 133.041 393.144 117.884 312.386 117.884C242.788 117.884 188.96 165.518 155.117 230.403Z" fill="black"/>
<path fill-rule="evenodd" clip-rule="evenodd" d="M527.553 45.3049C522.766 48.7828 518.519 52.0887 514.985 54.9506C513.093 53.2483 510.975 51.3864 508.644 49.4024C497.92 40.2713 482.549 28.4151 464.024 17.6354C452.504 10.9311 435.483 6.77688 417.459 4.1597C398.89 1.46337 377.276 0.139489 355.222 0.125118C311.614 0.0967009 263.792 5.19409 233.174 16.4536C71.6383 75.8559 0.742496 222.804 0.750001 362.774C0.753553 429.019 28.5161 500.739 69.4464 568.994C110.537 637.515 165.786 704.018 222.848 760.205C245.475 782.485 266.574 808.047 287.658 834.39C291.184 838.795 294.715 843.229 298.253 847.671L298.266 847.688L298.279 847.704L298.292 847.72C315.699 869.581 333.282 891.663 351.385 911.702C394.777 959.736 444.643 1000.12 510.699 1000.12C576.532 1000.12 626.15 961.489 669.655 914.544C688.484 894.225 706.763 871.675 724.944 849.245C727.828 845.687 730.71 842.131 733.591 838.588C754.816 812.489 776.173 786.846 799.227 763.982C910.311 653.809 1006.46 508.596 1025.3 382.942C1036.51 308.186 1004.94 224.974 959.027 157.903C913.238 91.0145 850.155 35.7778 793.128 19.8762C758.165 10.1268 715.098 6.25393 676.543 6.17307C638.321 6.0929 602.309 9.73659 581.795 16.216C561.246 22.7064 541.569 35.1221 527.553 45.3049ZM355.201 31.929C312.865 31.9014 269.496 36.9826 244.151 46.3031C97.8006 100.121 32.5469 233.042 32.5539 362.773C32.557 420.77 57.1418 486.635 96.7219 552.637C136.142 618.373 189.566 682.799 245.162 737.544C269.242 761.255 291.351 788.107 312.488 814.516C316.108 819.038 319.695 823.542 323.258 828.016L323.293 828.059L323.331 828.107L323.334 828.111L323.365 828.15C340.765 849.998 357.609 871.148 374.985 890.382C417.121 937.027 458.894 968.321 510.699 968.321C562.725 968.321 604.346 938.228 646.328 892.926C664.382 873.443 681.919 851.813 700.155 829.318C703.057 825.739 705.975 822.139 708.917 818.522C730.168 792.39 752.458 765.573 776.831 741.4C885.9 633.227 976.487 493.992 993.85 378.225C1003.38 314.705 976.472 239.689 932.783 175.868C888.968 111.864 831.323 63.5438 784.586 50.5113C753.397 41.8144 713.456 38.0544 676.476 37.9769C639.164 37.8986 607.116 41.5709 591.374 46.5431C575.667 51.5041 559.254 61.5847 546.246 71.0353C539.866 75.6705 534.551 79.9717 530.848 83.1C529 84.6609 525.253 88.0004 525.253 88.0004L513.735 98.7559L502.047 86.4762C501.426 85.8502 500.468 84.9004 499.198 83.6822C496.655 81.2441 492.871 77.7421 488.027 73.6179C478.307 65.3423 464.488 54.7022 448.028 45.1237C442.057 41.6487 430.156 38.1407 412.889 35.6335C396.167 33.2054 376.12 31.9426 355.201 31.929ZM833.374 437.353C810.358 511.794 743.088 578.892 673.183 648.618C612.946 708.701 550.752 770.736 513.23 841.103C472.987 771.284 411.381 710.276 352.058 651.529C280.514 580.679 212.29 513.118 188.864 437.353C146.015 298.766 205.08 170.678 333.627 170.678C398.857 170.678 444.134 198.129 472.91 225.171C468.404 227.964 464.147 231.306 460.237 235.199L307.733 387.389C280.069 414.931 280.069 459.776 307.733 487.318L460.591 639.507C488.255 667.049 533.297 667.049 560.96 639.507L713.82 487.318C741.128 459.776 741.128 414.578 713.464 387.389L560.605 235.199C556.983 231.593 553.063 228.459 548.923 225.797C575.568 198.554 618.893 170.678 684.626 170.678C813.173 170.678 876.223 298.766 833.374 437.353ZM613.804 420.581L490.737 591.836C486.127 598.193 482.58 596.78 482.58 589.368V464.719H413.067C405.264 464.719 402.782 459.776 407.392 453.42L530.46 282.163C535.07 275.806 538.616 277.219 538.616 284.634V409.281H608.13C615.578 409.634 618.06 414.578 613.804 420.581Z" fill="black"/>
</svg>
