<?xml version="1.0" encoding="UTF-8"?>
<svg id="Layer_2" data-name="Layer 2" xmlns="http://www.w3.org/2000/svg" viewBox="0 0 32.24 24.7">
  <defs>
    <style>
      .cls-1 {
        fill: #de972d;
      }

      .cls-2 {
        fill: #825512;
        fill-rule: evenodd;
      }

      .cls-3 {
        fill: #322309;
      }
    </style>
  </defs>
  <g id="Layer_1-2" data-name="Layer 1">
    <g>
      <g>
        <polygon class="cls-2" points="4.15 16.71 7.48 10.42 4.21 7.19 .99 9.91 2.14 .86 10.61 2.17 7.77 4.95 12.44 9.32 10.43 14.13 17.42 17.7 15.99 21.98 4.15 16.71"/>
        <path class="cls-3" d="M2.78,1.72l6.23.96-2.33,2.29,4.86,4.55-2.08,4.96,7.04,3.6-.96,2.89-10.36-4.61,3.22-6.08-4.15-4.1-2.28,1.92.81-6.38M1.49,0l-.19,1.53L.48,7.91l-.48,3.82,2.94-2.48,1.23-1.04,2.38,2.36-2.69,5.09-.75,1.42,1.47.65,10.36,4.61,1.51.67.52-1.57.96-2.89.41-1.22-1.15-.59-5.8-2.96,1.54-3.68.4-.96-.76-.71-3.72-3.48,1.21-1.19,2.14-2.1-2.96-.46L3.01.24l-1.52-.24h0Z"/>
      </g>
      <g>
        <g>
          <path class="cls-1" d="M9.77,23.95c-1.04,0-1.23-.77-1.26-1.01-.07-.43.03-1.03.97-1.35.31-.12.65-.24.98-.36.28-.1,3.91-1.42,4.62-1.69-.08-.1-.16-.2-.24-.3-.55-.67-.37-1.28-.21-1.59.17-.33.53-.72,1.26-.72.06,0,.12,0,.18,0,.78.04,1.56.08,2.34.13-.59-1.21-1.45-2.8-2.23-4.25-1.74-3.23-2.18-4.1-2.21-4.57-.02-.31.08-.59.28-.8.22-.24.54-.36.95-.36.94,0,2.55.65,4.41,1.39,1.23.5,2.73,1.1,3.52,1.24,0-.09-.02-.6-.03-.77-.02-.58.24-1.05.72-1.29.19-.11.42-.16.65-.16.29,0,.57.09.83.27.2.15.38.29.56.43.16.12.32.25.48.37.14.1.24.13.27.13,0,0,.06-.06.12-.21.38-.99.75-1.98,1.12-2.97.37-.99.74-1.98,1.12-2.97.02-.04.03-.09.04-.13.08-.26.31-1.06,1.19-1.06.09,0,.19.01.29.03.47.09,1.02.41.95,1.46v.13c0,3.13.01,6.26.01,9.39l.02,9.35c0,1.56-.65,2.19-2.23,2.19l-19.49.03Z"/>
          <path class="cls-3" d="M30.21,2.11s.09,0,.14.02c.48.09.35.53.35.86.01,3.13.02,6.26.02,9.39.01,3.12.01,6.24.02,9.35,0,1.13-.32,1.44-1.48,1.44-6.4.01-12.8.02-19.2.03h-.19s-.07,0-.1,0c-.24,0-.47-.05-.52-.36-.06-.35.21-.45.47-.54.61-.23,1.22-.44,1.84-.67,1.47-.54,2.95-1.07,4.42-1.62.16-.06.28-.08.36-.08.02,0,.03,0,.05,0-.07-.05-.15-.13-.25-.26-.23-.3-.48-.58-.71-.88-.19-.23-.3-.48-.14-.78.14-.26.35-.32.6-.32.04,0,.09,0,.13,0,1.2.06,2.39.13,3.59.2-1.01-2.48-4.84-8.97-4.88-9.68-.01-.26.17-.36.48-.36,1.59,0,6.64,2.67,8.22,2.67.31,0,.49-.11.47-.36-.03-.41-.03-.82-.05-1.23-.01-.25.07-.46.31-.58.11-.06.21-.09.32-.09.14,0,.27.05.4.14.34.25.67.52,1.02.78.25.18.5.28.72.28.35,0,.65-.23.82-.7.75-1.98,1.48-3.96,2.23-5.94.11-.28.14-.71.53-.71M30.21.61h0c-.54,0-1.49.21-1.91,1.6l-.02.08c-.38.99-.75,1.99-1.12,2.98-.29.77-.58,1.54-.87,2.32-.17-.13-.34-.26-.51-.39-.41-.29-.85-.43-1.29-.43-.36,0-.71.09-1.03.27-.64.32-1.04.95-1.09,1.71-.78-.26-1.77-.66-2.47-.95-2.24-.9-3.67-1.45-4.68-1.45-.78,0-1.24.32-1.5.59-.34.36-.51.84-.48,1.35.03.6.33,1.24,2.29,4.88.55,1.02,1.13,2.1,1.63,3.07-.35-.02-.71-.04-1.07-.06-.05,0-.13,0-.21,0-1.21,0-1.75.8-1.93,1.14-.16.29-.44,1.02-.05,1.85-.42.15-.83.3-1.25.46-.54.2-1.08.39-1.62.59-.28.1-.55.2-.82.3-.34.12-.69.25-1.03.38-1.57.54-1.48,1.82-1.42,2.2.1.72.69,1.61,1.99,1.61.04,0,.09,0,.13,0h.17l16.8-.03h2.4c1.97,0,2.98-.99,2.98-2.94,0-1.56,0-3.12-.01-4.68,0-1.56,0-3.12-.01-4.68,0-3.13-.01-6.26-.02-9.39v-.08c.12-1.79-1.17-2.18-1.57-2.25-.12-.03-.27-.04-.42-.04h0Z"/>
        </g>
        <g>
          <path class="cls-1" d="M13.79,15.45c-.13,0-.26-.01-.4-.04-1.17-.21-2.34-.4-3.51-.6-.76-.12-1.43-.48-2.05-1.07-.93-.72-1.21-1.78-1.47-2.72-.05-.18-.09-.35-.15-.53-.33-1.11.13-1.72.58-2.04.28-.19.58-.29.9-.29.35,0,.71.12,1.08.36,1.28.83,2.55,1.68,3.83,2.52l1.97,1.3c1.05.69.93,1.55.76,2-.26.7-.83,1.1-1.55,1.1Z"/>
          <path class="cls-3" d="M7.69,8.91c.23,0,.46.1.67.24,1.94,1.26,3.86,2.54,5.8,3.81.4.26.66.59.47,1.11-.16.43-.46.61-.85.61-.09,0-.18,0-.27-.03-1.17-.21-2.35-.4-3.52-.6-.64-.1-1.17-.4-1.68-.9,0,0,0,0,0,0h0s0,0,0,0c-.91-.68-1.07-1.83-1.38-2.89-.13-.45-.15-.9.29-1.21.16-.11.31-.16.47-.16M7.69,7.41c-.47,0-.93.15-1.33.43-.43.3-1.37,1.18-.86,2.87.05.17.1.34.14.51.27.99.6,2.22,1.7,3.09.72.69,1.51,1.09,2.42,1.24,1.17.19,2.34.39,3.5.6.18.03.36.05.54.05,1.04,0,1.88-.59,2.25-1.59.15-.42.53-1.85-1.05-2.89l-1.93-1.27c-1.29-.85-2.58-1.7-3.87-2.55-.5-.33-.99-.49-1.49-.49h0Z"/>
        </g>
      </g>
    </g>
  </g>
</svg>