<svg width="657" height="1001" viewBox="0 0 657 1001" fill="none" xmlns="http://www.w3.org/2000/svg">
<path d="M140.732 504.327C140.732 504.327 78.7282 529.117 78.7282 655.55C78.7282 806.774 78.7282 925.77 78.7282 925.77H202.735C202.735 925.77 202.735 806.774 202.735 655.55C202.735 529.117 140.732 504.327 140.732 504.327Z" fill="black"/>
<path d="M202.735 950.543H78.7282V1000.12H202.735V950.543Z" fill="black"/>
<path d="M326.692 504.327C326.692 504.327 264.689 529.117 264.689 655.55C264.689 806.774 264.689 925.77 264.689 925.77H388.697C388.697 925.77 388.697 806.774 388.697 655.55C388.697 529.117 326.692 504.327 326.692 504.327Z" fill="black"/>
<path d="M388.697 950.543H264.689V1000.12H388.697V950.543Z" fill="black"/>
<path d="M512.772 504.327C512.772 504.327 450.768 529.117 450.768 655.55C450.768 806.774 450.768 925.77 450.768 925.77H574.775C574.775 925.77 574.775 806.774 574.775 655.55C574.775 529.117 512.772 504.327 512.772 504.327Z" fill="black"/>
<path d="M574.775 950.543H450.768V1000.12H574.775V950.543Z" fill="black"/>
<path d="M254.327 566.411C168.893 486.129 40.1935 354.525 12.9902 267.038C-28.5067 133.581 33.7387 0.125 158.23 0.125C282.72 0.125 332.165 102.784 332.165 102.784C332.165 102.784 373.662 0.125 498.153 0.125C622.644 0.125 684.889 133.581 643.393 267.038C615.373 357.151 483.294 494.069 400.457 573.499C380.899 509.128 337.872 488.878 328.196 485.06L536.921 272.904H134.371L328.181 485.054C326.928 484.56 326.239 484.343 326.239 484.343C326.239 484.343 277.547 499.652 254.327 566.411Z" fill="black"/>
</svg>
