<svg width="997" height="987" viewBox="0 0 997 987" fill="none" xmlns="http://www.w3.org/2000/svg">
<path d="M455.964 8.95884C459.952 7.10742 474.991 0.125 494.844 0.125C514.681 0.125 529.708 7.09536 533.699 8.94697L533.817 9.00165C540.183 11.9529 545.617 15.2364 549.454 17.6991C557.301 22.7356 565.399 28.8493 572.853 34.7827C588.115 46.931 606.897 63.3258 627.241 81.8243C668.24 119.105 719.515 168.528 769.464 218.436C819.408 268.34 868.907 319.607 906.257 360.657C924.789 381.024 941.233 399.863 953.426 415.209C959.383 422.706 965.53 430.87 970.595 438.803C973.075 442.688 976.366 448.172 979.316 454.596L979.343 454.656C981.213 458.728 988.065 473.648 988.065 493.346C988.065 513.016 981.233 527.918 979.367 531.99L979.34 532.048C976.397 538.469 973.112 543.952 970.635 547.837C965.579 555.771 959.441 563.935 953.493 571.434C951.086 574.467 948.514 577.636 945.793 580.927V547.575C945.793 541.157 940.591 535.955 934.173 535.955H873.969C892.833 513.809 904.14 498.356 904.14 493.346C904.14 464.296 523.249 84.0501 494.844 84.0501C466.438 84.0501 84.9017 464.941 84.9017 493.346C84.9017 521.752 465.793 902.643 494.844 902.643C504.966 902.643 557.722 856.482 622.174 795.099L674.913 860.759C658.152 876.665 642.168 891.554 627.49 904.89C607.12 923.398 588.28 939.819 572.931 951.995C565.433 957.944 557.268 964.082 549.334 969.138C545.449 971.615 539.966 974.899 533.545 977.843L533.487 977.869C529.416 979.736 514.514 986.568 494.844 986.568C475.159 986.568 460.245 979.725 456.177 977.858L456.114 977.829C449.695 974.884 444.213 971.597 440.328 969.12C432.394 964.06 424.226 957.918 416.721 951.963C401.36 939.774 382.497 923.333 362.101 904.803C320.991 867.455 269.644 817.959 219.659 768.015C169.671 718.068 120.166 666.794 82.8238 625.796C64.2949 605.453 47.8731 586.671 35.705 571.41C29.7621 563.956 23.6381 555.858 18.5929 548.011C16.126 544.174 12.8358 538.738 9.87792 532.369L9.82244 532.25C7.96736 528.258 0.976562 513.213 0.976562 493.346C0.976562 473.452 7.98753 458.389 9.84589 454.396L9.90226 454.275C12.8664 447.903 16.1631 442.466 18.6337 438.629C23.6869 430.783 29.8202 422.685 35.7714 415.233C47.9566 399.975 64.4014 381.195 82.9538 360.854C120.343 319.861 169.905 268.592 219.925 218.654C269.945 168.715 321.295 119.237 362.349 81.9115C382.72 63.3906 401.525 46.9762 416.8 34.8149C424.26 28.875 432.362 22.7568 440.208 17.7176C444.045 15.2537 449.479 11.9685 455.843 9.01535L455.964 8.95884Z" fill="black"/>
<path fill-rule="evenodd" clip-rule="evenodd" d="M719.388 535.955H833.449L851.708 517.696C864.807 504.597 864.807 483.359 851.708 470.26L517.929 136.482C504.83 123.383 483.593 123.383 470.494 136.482L137.98 468.996C124.881 482.095 124.881 503.333 137.98 516.432L471.758 850.21C484.857 863.309 506.095 863.309 519.194 850.21L707.767 661.636V547.575C707.767 541.157 712.97 535.955 719.388 535.955ZM679.479 435.244H312.791V551.448H679.479V435.244Z" fill="black"/>
<path d="M833.449 986.568L657.852 762.552H743.068V564.36H923.83V762.552H996.134L833.449 986.568Z" fill="black"/>
</svg>
