<svg width="1072" height="1001" viewBox="0 0 1072 1001" fill="none" xmlns="http://www.w3.org/2000/svg">
<path d="M104.52 287.553C69.7591 222.997 62.3103 -26.5386 258.462 31.8102C258.462 31.8102 249.726 2.19513 195.727 0.745527C141.728 -0.704081 53.6795 57.3049 49.2302 196.897C44.7808 336.491 157.26 409.877 228.045 478.717C266.185 515.808 281.388 545.874 281.388 565.641C281.388 585.408 274.94 612.411 259.663 630.796C249.513 643.01 233.565 648.03 219.936 638.865C210.564 632.564 209.702 618.044 214.349 610.312C219.523 601.703 235.571 602.866 242.903 592.931C252.978 579.28 252.214 550.825 242.903 545.135C233.592 539.445 216.915 540.381 205.659 550.101C186.836 566.354 174.042 588.628 174.042 624.609C174.042 660.591 195.101 689.145 226.143 689.145C257.184 689.145 326.702 641.999 326.702 565.641C326.702 466.323 139.281 352.109 104.52 287.553Z" fill="black"/>
<path d="M69.1162 450.156C160.362 502.297 167.817 545.135 167.817 545.135C167.817 545.135 181.3 469.399 100.778 425.327C20.2554 381.255 11.3919 176.413 11.3919 176.413C11.3919 176.413 -22.1296 398.014 69.1162 450.156Z" fill="black"/>
<path d="M142.371 550.101C140.625 603.923 128.715 638.865 153.544 689.145C113.818 636.996 116.301 653.135 116.301 578.648C13.8527 521.438 0.21875 494.849 0.21875 409.188C32.0188 473.568 51.7444 522.168 142.371 550.101Z" fill="black"/>
<path d="M967.282 286.959C1002.04 222.403 1009.49 -27.1327 813.34 31.2162C813.34 31.2162 822.076 1.60107 876.075 0.151466C930.074 -1.29814 1018.12 56.7109 1022.57 196.303C1027.02 335.897 914.542 409.283 843.757 478.123C805.617 515.214 790.414 545.28 790.414 565.047C790.414 584.814 796.862 611.817 812.14 630.202C822.289 642.416 838.237 647.436 851.867 638.271C861.238 631.97 862.1 617.449 857.453 609.718C852.279 601.109 836.231 602.271 828.899 592.337C818.824 578.686 819.588 550.231 828.899 544.541C838.21 538.851 854.887 539.787 866.143 549.507C884.966 565.759 897.76 588.033 897.76 624.015C897.76 659.997 876.701 688.551 845.659 688.551C814.618 688.551 745.1 641.405 745.1 565.047C745.1 465.728 932.521 351.515 967.282 286.959Z" fill="black"/>
<path d="M1002.69 449.562C911.44 501.703 903.985 544.541 903.985 544.541C903.985 544.541 890.502 468.805 971.024 424.733C1051.55 380.661 1060.41 175.819 1060.41 175.819C1060.41 175.819 1093.93 397.42 1002.69 449.562Z" fill="black"/>
<path d="M929.431 549.507C931.177 603.329 943.087 638.271 918.258 688.551C957.985 636.402 955.502 652.541 955.502 578.054C1057.95 520.844 1071.58 494.255 1071.58 408.594C1039.78 472.974 1020.06 521.574 929.431 549.507Z" fill="black"/>
<path d="M535.295 884.669V1000.12C669.373 895.842 714.063 821.3 778.001 705.898L702.893 630.169C675.96 765.996 614.749 833.148 535.295 884.669Z" fill="black"/>
<path d="M506.741 962.881V884.669C420.323 802.243 381.514 749.904 354.041 630.169L309.348 680.448C334.029 754.057 354.048 794.178 400.596 863.564C341.644 806.319 317.745 770.76 285.76 705.898C330.316 822.888 358.201 887.322 506.741 962.881Z" fill="black"/>
<path d="M357.765 445.19C371.038 701.568 424.216 762.435 530.329 850.528C651.305 771.733 687.849 674.938 707.858 441.466C707.858 441.466 625.761 406.32 546.468 399.256V646.864C506.12 636.376 506.12 390.134 506.12 390.134C429.46 398.919 357.765 445.19 357.765 445.19Z" fill="black"/>
<path d="M517.914 365.116C477.567 365.116 291.347 384.358 334.178 470.64C291.968 411.05 255.965 384.979 194.513 348.356C194.513 348.356 245.413 365.116 274.587 365.116C289.701 365.116 333.774 329.853 378.25 312.974C419.625 297.272 464.703 304.733 477.567 291.869C504.258 265.178 517.914 222.347 517.914 222.347V365.116Z" fill="black"/>
<path d="M729.584 470.64C764.776 428.107 879.181 340.907 879.181 340.907C859.938 348.977 822.073 365.736 796.002 365.116C769.932 364.495 649.51 244.073 546.468 254.005C616.611 279.455 659.428 281.3 694.202 332.838C638.317 295.34 607.36 287.474 546.468 279.455V362.633C600.472 355.805 674.339 384.979 714.066 406.705C753.793 428.43 729.584 470.64 729.584 470.64Z" fill="black"/>
</svg>
