<svg width="700" height="1001" viewBox="0 0 700 1001" fill="none" xmlns="http://www.w3.org/2000/svg">
<path fill-rule="evenodd" clip-rule="evenodd" d="M349.853 1000.13C230.827 928.222 173.787 878.466 113.397 682.728V585.848C113.397 585.848 268.91 451.365 349.853 451.368C430.796 451.37 585.672 585.848 585.672 585.848V682.728C547.092 847.781 494.743 911.997 349.853 1000.13ZM309.063 553.344C309.063 548.415 313.056 544.421 317.986 544.421H382.995C387.925 544.421 391.918 548.415 391.918 553.344V648.946H487.52C492.45 648.946 496.443 652.941 496.443 657.869V722.878C496.443 727.807 492.45 731.801 487.52 731.801H391.918V828.678C391.918 833.606 387.925 837.601 382.995 837.601H317.986C313.056 837.601 309.063 833.606 309.063 828.678V731.801H212.186C207.256 731.801 203.263 727.807 203.263 722.878V657.869C203.263 652.941 207.256 648.946 212.186 648.946H309.063V553.344Z" fill="black"/>
<path d="M351.128 420.138C246.544 420.138 172.033 517.652 172.033 517.652C172.033 517.652 227.482 393.369 256.8 393.369C286.118 393.369 300.14 405.479 300.14 405.479V336.008H398.291V405.479C398.291 405.479 419.324 393.369 448.005 393.369C476.685 393.369 530.223 517.652 530.223 517.652C530.223 517.652 455.712 420.138 351.128 420.138Z" fill="black"/>
<path d="M154.187 309.239C154.187 336.008 236.405 328.997 236.405 328.997L205.456 315.492C204.28 314.979 204.468 313.267 205.74 313.096C223.341 310.729 290.777 302.228 351.128 302.228C411.262 302.228 477.961 310.669 495.722 313.07C497.006 313.244 497.179 314.978 495.982 315.474L463.301 328.997C463.301 328.997 544.882 336.008 544.882 309.239C544.882 282.47 398.291 280.558 398.291 280.558V234.032C398.291 234.032 405.94 211.087 426.972 211.087C448.005 211.087 456.928 247.416 500.267 247.416C543.607 247.416 547.431 211.087 572.288 211.087C597.144 211.087 602.243 239.131 627.1 239.131C651.956 239.131 699.12 215.549 699.12 165.198C699.12 114.848 646.857 44.1021 613.078 44.1021C579.299 44.1021 574.837 65.1346 555.079 56.2117C535.321 47.2888 521.3 12.872 486.883 12.872C452.466 12.872 458.84 28.8057 435.258 28.8057C411.676 28.8057 395.105 0.125 347.941 0.125C300.777 0.125 303.327 30.0804 270.184 30.0804C237.042 30.0804 251.701 12.872 211.548 12.872C171.395 12.872 164.385 56.2117 135.704 56.2117C107.023 56.2117 119.133 44.1021 74.5184 44.1021C29.904 44.1021 0.585938 128.232 0.585938 165.198C0.585938 202.165 37.5522 239.131 77.0678 239.131C116.583 239.131 95.5509 211.087 127.418 211.087C159.286 211.087 163.747 242.317 198.164 243.592C232.581 244.867 245.328 211.087 272.734 211.087C300.14 211.087 300.14 234.032 300.14 234.032V280.558C300.14 280.558 154.187 282.47 154.187 309.239Z" fill="black"/>
</svg>
