<svg width="817" height="1001" viewBox="0 0 817 1001" fill="none" xmlns="http://www.w3.org/2000/svg">
<path d="M369.648 579.125C369.648 614.896 340.649 643.894 304.879 643.894C269.109 643.894 240.11 614.896 240.11 579.125C240.11 543.354 269.109 514.355 304.879 514.355C340.649 514.355 369.648 543.354 369.648 579.125Z" fill="black"/>
<path d="M574.319 579.125C574.319 614.896 545.32 643.894 509.55 643.894C473.78 643.894 444.781 614.896 444.781 579.125C444.781 543.354 473.78 514.355 509.55 514.355C545.32 514.355 574.319 543.354 574.319 579.125Z" fill="black"/>
<path d="M409.157 641.303C400.09 641.303 365.438 688.584 367.705 697.652C369.972 706.72 444.781 706.72 447.371 697.652C449.962 688.584 418.225 641.303 409.157 641.303Z" fill="black"/>
<path fill-rule="evenodd" clip-rule="evenodd" d="M273.145 413.969C313.36 413.969 364.469 361.507 364.469 328.474C364.469 295.442 332.732 276.653 332.732 242.972C332.732 209.29 355.399 127.035 288.687 127.035C207.725 127.035 249.177 333.001 181.172 330.41C135.87 328.685 165.625 268.232 113.81 268.232C61.9941 268.232 73.0077 410.726 65.8831 438.575C58.7584 466.424 2.27232 541.576 0.467681 630.94C-1.89557 747.964 50.6796 798.418 78.4479 816.844C85.2853 821.381 93.0447 815.294 92.2769 807.124C89.3805 776.304 93.1324 724.303 166.217 786.395C239.785 848.898 186.681 864.277 155.242 868.059C147.144 869.033 142.499 878.005 147.65 884.329C175.658 918.713 257.57 1000.12 405.271 1000.12C468.609 1000.12 510.219 962.918 560.07 953.491C762.15 915.277 841.816 655.552 808.784 632.883C775.751 610.213 743.367 698.27 710.334 682.755C677.302 667.24 756.265 609.573 756.265 435.993C756.265 262.412 690.256 245.563 655.281 245.563C556.184 245.563 617.068 318.76 593.105 342.723C569.142 366.687 520.563 226.785 477.757 227.434C434.951 228.083 433.815 264.394 431.827 322.645C429.285 397.123 534.211 367.976 603.41 431.459C653.695 477.59 650.75 504.005 650.75 555.814C650.75 678.876 532.753 708.672 510.79 747.533C488.826 786.395 503.121 825.904 475.918 825.904C448.715 825.904 461.626 768.907 438.954 768.907C416.282 768.907 428.588 825.904 403.328 825.904C378.068 825.904 382.605 768.907 364.469 768.907C346.334 768.907 352.808 825.904 330.139 825.904C307.47 825.904 308.167 742.695 304.879 738.457C304.879 738.457 284.196 711.333 248.53 690.527C201.896 663.324 163.682 624.734 163.682 568.761C163.682 511.118 204.487 388.703 226.508 388.703C248.53 388.703 232.93 413.969 273.145 413.969ZM641.679 322.645C628.723 334.304 643.997 426.674 682.484 426.916C720.97 427.158 721.891 379.267 710.334 346.603C698.778 313.938 654.636 310.987 641.679 322.645Z" fill="black"/>
<path d="M129.354 133.512C113.162 127.682 75.5957 160.067 82.7203 183.384C89.2682 204.814 110.352 213.395 129.354 201.519C144.899 191.804 143.049 138.442 129.354 133.512Z" fill="black"/>
<path d="M293.22 71.3303C270.638 80.6921 262.131 40.8916 266.665 18.8677C269.865 3.32526 307.192 -6.38987 313.299 5.26966C320.423 18.8721 319.776 60.3214 293.22 71.3303Z" fill="black"/>
<path d="M497.244 156.179C510.532 156.179 524.639 139.212 527.038 116.022C530.924 78.4528 499.923 63.2968 484.29 73.2759C453.848 92.707 473.927 156.179 497.244 156.179Z" fill="black"/>
</svg>
