<svg width="962" height="1001" viewBox="0 0 962 1001" fill="none" xmlns="http://www.w3.org/2000/svg">
<path fill-rule="evenodd" clip-rule="evenodd" d="M51.0348 909.513L195.935 634.4C195.935 634.4 275.747 439.376 275.747 408.006C275.747 376.635 116.531 261.584 116.531 261.584C103.24 250.588 98.8235 232.839 104.164 217.443L210.035 21.1087C220.645 1.61383 245.051 -5.58802 264.545 5.02201C284.039 15.6327 291.244 40.0375 280.634 59.5324L193.007 220.53L311.994 318.94C315.514 321.851 318.412 325.236 320.67 328.926H490.766C490.766 328.926 577.035 241.35 630.627 241.35C684.218 241.35 812.968 345.265 812.968 345.265V426.959C790.747 500.157 751.528 593.1 629.32 664.852C530.349 612.106 503.979 561.86 458.319 474.855L458.312 474.843C458.319 474.855 452.166 463.132 448.939 457.022V585.119C448.939 585.119 437.829 594.922 437.829 604.725C437.829 614.529 441.75 621.718 441.75 621.718L516.943 728.229C525.178 737.546 528.87 750.416 526.235 763.05L479.169 892.16C650.183 854.647 832.274 815.029 961.325 787.067V1000.13H0.601562C5.46458 997.049 177.363 958.564 386.017 912.629L441.753 760.753C441.753 760.753 382.93 628.253 327.378 628.253C291.348 628.253 249.438 709.966 202.565 801.355C177.168 850.872 150.315 903.229 122.149 946.969C111.806 966.607 87.502 974.142 67.8642 963.799C48.2265 953.456 40.6917 929.151 51.0348 909.513ZM605.792 313.894C597.851 313.894 591.414 320.332 591.414 328.272V392.321H526.058C518.117 392.321 511.68 398.758 511.68 406.699V449.833C511.68 457.774 518.117 464.212 526.058 464.212H591.414V528.26C591.414 536.201 597.851 542.638 605.792 542.638H648.926C656.867 542.638 663.304 536.201 663.304 528.26V464.212H726.045C733.986 464.212 740.424 457.774 740.424 449.833V406.699C740.424 398.758 733.986 392.321 726.045 392.321H663.304V328.272C663.304 320.332 656.867 313.894 648.926 313.894H605.792Z" fill="black"/>
<path d="M433.254 282.524C483.064 282.524 523.444 242.144 523.444 192.333C523.444 142.523 483.064 102.143 433.254 102.143C383.443 102.143 343.063 142.523 343.063 192.333C343.063 242.144 383.443 282.524 433.254 282.524Z" fill="black"/>
</svg>
