<svg width="970" height="1001" viewBox="0 0 970 1001" fill="none" xmlns="http://www.w3.org/2000/svg">
<path d="M484.206 269.854C430.613 269.854 418.835 219.206 418.835 219.206L418.839 110.843C432.214 49.3028 471.249 0.125 484.206 0.125C497.162 0.125 536.63 49.3028 550.166 110.843V219.206C550.166 219.206 537.798 269.854 484.206 269.854Z" fill="black"/>
<path d="M484.206 301.656C460.649 301.656 418.839 275.743 418.839 275.743C418.839 275.743 430.613 338.17 484.206 338.17C537.798 338.17 550.166 275.743 550.166 275.743C550.166 275.743 507.763 301.656 484.206 301.656Z" fill="black"/>
<path d="M523.761 587.774C523.761 609.185 506.465 626.542 485.135 626.542C463.8 626.542 446.51 609.185 446.51 587.774C446.51 566.363 463.8 549.006 485.135 549.006C506.465 549.006 523.761 566.363 523.761 587.774Z" fill="black"/>
<path d="M461.187 818.268V982.616C461.187 992.286 452.698 1000.13 442.222 1000.13C431.75 1000.13 423.261 992.286 423.261 982.616V821.793C423.261 821.793 415.853 691.743 399.699 691.743C391.445 691.743 374.417 722.052 379.335 744.96C386.292 777.385 394.081 834.832 366.337 839.414C338.598 843.996 329.819 761.525 334.738 719.233C338.073 690.516 384.985 636.41 384.985 636.41H576.364C576.364 636.41 634.272 688.571 636.02 722.405C637.769 756.239 621.656 851.75 589.003 839.414C565.805 830.651 574.666 792.535 581.742 762.097C584.627 749.693 587.213 738.564 587.213 731.216C587.213 716.062 571.063 690.686 561.585 690.686C548.592 690.686 540.545 821.793 540.545 821.793V982.616C540.545 992.286 532.056 1000.13 521.584 1000.13C511.112 1000.13 502.619 992.286 502.619 982.616V818.268H461.187Z" fill="black"/>
<path d="M205.56 373.928C205.56 373.928 237.348 408.956 277.791 385.864C318.229 362.771 304.665 317.338 304.665 317.338L255.669 231.534C217.628 188.637 165.609 166.702 155.832 172.285C146.055 177.867 138.836 233.627 156.568 288.121L205.56 373.928Z" fill="black"/>
<path d="M231.128 418.693C231.128 418.693 274.391 421.196 292.169 411.045C309.947 400.895 330.229 362.105 330.229 362.105C330.229 362.105 349.12 416.865 308.678 439.958C268.239 463.05 231.128 418.693 231.128 418.693Z" fill="black"/>
<path d="M690.377 385.784C649.869 362.812 663.746 317.591 663.746 317.591L712.489 231.643C750.282 188.565 801.905 166.291 811.7 171.845C821.491 177.398 829.203 233.321 811.756 287.936L763.017 373.886C763.017 373.886 730.888 408.757 690.377 385.784Z" fill="black"/>
<path d="M676.072 411.008C658.266 400.911 638.316 362.435 638.316 362.435C638.316 362.435 619.139 416.998 659.651 439.97C700.158 462.942 737.587 418.729 737.587 418.729C737.587 418.729 693.878 421.106 676.072 411.008Z" fill="black"/>
<path d="M799.876 506.949C799.876 506.949 769.914 533.115 788.139 565.695C806.368 598.276 844.542 586.789 844.542 586.789L917.224 546.128C953.899 514.806 973.462 472.36 969.055 464.483C964.647 456.606 918.388 451.329 872.562 466.289L799.876 506.949Z" fill="black"/>
<path d="M761.959 528.166C761.959 528.166 758.798 563.307 766.808 577.629C774.819 591.949 806.621 608.005 806.621 608.005C806.621 608.005 760.546 623.91 742.317 591.33C724.093 558.75 761.959 528.166 761.959 528.166Z" fill="black"/>
<path d="M182.256 566.284C200.48 533.704 170.519 507.538 170.519 507.538L97.8321 466.878C52.0061 451.918 5.74763 457.195 1.33987 465.072C-3.06789 472.949 16.4956 515.395 53.1701 546.717L125.852 587.378C125.852 587.378 164.027 598.865 182.256 566.284Z" fill="black"/>
<path d="M203.586 578.218C211.596 563.896 208.436 528.755 208.436 528.755C208.436 528.755 246.302 559.339 228.077 591.918C209.848 624.499 163.774 608.594 163.774 608.594C163.774 608.594 195.576 592.538 203.586 578.218Z" fill="black"/>
<path d="M497.162 366.438H471.249V519.56H497.162V366.438Z" fill="black"/>
<path d="M312.786 471.093L335.124 457.963L410.373 585.992L388.036 599.122L312.786 471.093Z" fill="black"/>
<path d="M633.66 454.779L655.998 467.909L580.749 595.939L558.411 582.808L633.66 454.779Z" fill="black"/>
<path d="M729.715 611.472L714.872 590.231L640.861 641.951L655.703 663.193L729.715 611.472Z" fill="black"/>
<path d="M252.877 590.231L238.034 611.472L312.045 663.193L326.888 641.951L252.877 590.231Z" fill="black"/>
</svg>
