<svg width="611" height="1001" viewBox="0 0 611 1001" fill="none" xmlns="http://www.w3.org/2000/svg">
<path d="M136.17 481.767C136.17 500.852 121.01 516.324 102.309 516.324C83.6084 516.324 68.4484 500.852 68.4484 481.767C68.4484 462.681 83.6084 447.209 102.309 447.209C121.01 447.209 136.17 462.681 136.17 481.767Z" fill="black"/>
<path d="M68.4484 585.438C68.4484 604.524 53.2883 619.995 34.5875 619.995C15.8866 619.995 0.726562 604.524 0.726562 585.438C0.726562 566.353 15.8866 550.881 34.5875 550.881C53.2883 550.881 68.4484 566.353 68.4484 585.438Z" fill="black"/>
<path d="M68.4484 792.782C68.4484 811.867 53.2883 827.339 34.5875 827.339C15.8866 827.339 0.726562 811.867 0.726562 792.782C0.726562 773.696 15.8866 758.224 34.5875 758.224C53.2883 758.224 68.4484 773.696 68.4484 792.782Z" fill="black"/>
<path d="M136.17 896.453C136.17 915.539 121.01 931.011 102.309 931.011C83.6084 931.011 68.4484 915.539 68.4484 896.453C68.4484 877.368 83.6084 861.896 102.309 861.896C121.01 861.896 136.17 877.368 136.17 896.453Z" fill="black"/>
<path d="M237.753 965.568C237.753 984.653 222.593 1000.12 203.892 1000.12C185.191 1000.12 170.031 984.653 170.031 965.568C170.031 946.482 185.191 931.011 203.892 931.011C222.593 931.011 237.753 946.482 237.753 965.568Z" fill="black"/>
<path d="M440.918 965.568C440.918 984.653 425.758 1000.12 407.057 1000.12C388.356 1000.12 373.196 984.653 373.196 965.568C373.196 946.482 388.356 931.011 407.057 931.011C425.758 931.011 440.918 946.482 440.918 965.568Z" fill="black"/>
<path d="M542.501 896.453C542.501 915.539 527.341 931.011 508.64 931.011C489.939 931.011 474.779 915.539 474.779 896.453C474.779 877.368 489.939 861.896 508.64 861.896C527.341 861.896 542.501 877.368 542.501 896.453Z" fill="black"/>
<path d="M610.223 792.782C610.223 811.867 595.063 827.339 576.362 827.339C557.661 827.339 542.501 811.867 542.501 792.782C542.501 773.696 557.661 758.224 576.362 758.224C595.063 758.224 610.223 773.696 610.223 792.782Z" fill="black"/>
<path d="M610.223 585.438C610.223 604.524 595.063 619.995 576.362 619.995C557.661 619.995 542.501 604.524 542.501 585.438C542.501 566.353 557.661 550.881 576.362 550.881C595.063 550.881 610.223 566.353 610.223 585.438Z" fill="black"/>
<path d="M542.501 481.767C542.501 500.852 527.341 516.324 508.64 516.324C489.939 516.324 474.779 500.852 474.779 481.767C474.779 462.681 489.939 447.209 508.64 447.209C527.341 447.209 542.501 462.681 542.501 481.767Z" fill="black"/>
<path fill-rule="evenodd" clip-rule="evenodd" d="M90.4382 634.865C61.1184 664.767 61.1184 713.454 90.4382 743.356L252.449 908.585C281.769 938.486 329.508 938.486 358.828 908.585L520.841 743.356C549.784 713.454 549.784 664.384 520.463 634.865L384.646 496.351C457.977 424.291 561.438 312.973 584.6 238.004C621.348 119.064 566.226 0.125 455.984 0.125C345.741 0.125 308.994 91.6169 308.994 91.6169C308.994 91.6169 265.208 0.125 154.965 0.125C44.7228 0.125 -10.3985 119.064 26.3491 238.004C49.2365 312.083 153.256 421.653 228.466 493.768L90.4382 634.865ZM284.4 856.829L414.836 670.901C419.347 664.384 416.716 659.017 408.822 658.633H335.146V523.306C335.146 515.256 331.387 513.722 326.501 520.623L196.065 706.554C191.178 713.454 193.809 718.821 202.079 718.821H275.755V854.149C275.755 862.196 279.513 863.731 284.4 856.829ZM305.475 432.315L490.315 243.232H133.837L305.475 432.315Z" fill="black"/>
</svg>
