<svg width="860" height="1001" viewBox="0 0 860 1001" fill="none" xmlns="http://www.w3.org/2000/svg">
<path d="M535.339 454.864L409.834 633.377C405.132 640.004 401.515 638.531 401.515 630.805V500.873H330.625C322.668 500.873 320.137 495.72 324.838 489.095L450.343 310.58C455.045 303.954 458.661 305.427 458.661 313.156V443.086H529.552C537.147 443.454 539.679 448.607 535.339 454.864Z" fill="black"/>
<path fill-rule="evenodd" clip-rule="evenodd" d="M430.112 0.125C327.605 0.125 282.168 38.87 219.663 92.1698C169.898 134.607 109.315 186.268 0.5 234.946C0.5 812.625 430.112 1000.13 430.112 1000.13C430.112 1000.13 859.723 812.625 859.723 234.946C750.908 186.268 690.325 134.606 640.562 92.1715C578.055 38.87 532.619 0.125 430.112 0.125ZM332.369 240.094C350.363 240.094 364.95 225.239 364.95 206.915C364.95 188.591 350.363 173.736 332.369 173.736C314.375 173.736 299.789 188.591 299.789 206.915C299.789 225.239 314.375 240.094 332.369 240.094ZM636.972 420.265L481.086 261.626C452.874 232.917 406.941 232.917 378.729 261.626L223.205 420.265C194.993 448.975 194.993 495.72 223.205 524.43L379.091 683.069C407.302 711.778 453.236 711.778 481.447 683.069L637.336 524.43C665.185 495.72 665.185 448.607 636.972 420.265ZM267.208 273.273C267.208 291.598 252.621 306.452 234.627 306.452C216.633 306.452 202.046 291.598 202.046 273.273C202.046 254.949 216.633 240.094 234.627 240.094C252.621 240.094 267.208 254.949 267.208 273.273ZM202.046 372.81C202.046 391.134 187.459 405.989 169.465 405.989C151.472 405.989 136.885 391.134 136.885 372.81C136.885 354.486 151.472 339.631 169.465 339.631C187.459 339.631 202.046 354.486 202.046 372.81ZM169.465 605.063C187.459 605.063 202.046 590.209 202.046 571.884C202.046 553.56 187.459 538.705 169.465 538.705C151.472 538.705 136.885 553.56 136.885 571.884C136.885 590.209 151.472 605.063 169.465 605.063ZM267.208 671.421C267.208 689.746 252.621 704.6 234.627 704.6C216.633 704.6 202.046 689.746 202.046 671.421C202.046 653.097 216.633 638.242 234.627 638.242C252.621 638.242 267.208 653.097 267.208 671.421ZM332.369 770.958C350.363 770.958 364.95 756.104 364.95 737.779C364.95 719.455 350.363 704.6 332.369 704.6C314.375 704.6 299.789 719.455 299.789 737.779C299.789 756.104 314.375 770.958 332.369 770.958ZM560.435 737.779C560.435 756.104 545.848 770.958 527.854 770.958C509.86 770.958 495.273 756.104 495.273 737.779C495.273 719.455 509.86 704.6 527.854 704.6C545.848 704.6 560.435 719.455 560.435 737.779ZM625.596 704.6C643.59 704.6 658.177 689.746 658.177 671.421C658.177 653.097 643.59 638.242 625.596 638.242C607.602 638.242 593.016 653.097 593.016 671.421C593.016 689.746 607.602 704.6 625.596 704.6ZM723.339 571.884C723.339 590.209 708.752 605.063 690.758 605.063C672.764 605.063 658.177 590.209 658.177 571.884C658.177 553.56 672.764 538.705 690.758 538.705C708.752 538.705 723.339 553.56 723.339 571.884ZM690.758 405.989C708.752 405.989 723.339 391.134 723.339 372.81C723.339 354.486 708.752 339.631 690.758 339.631C672.764 339.631 658.177 354.486 658.177 372.81C658.177 391.134 672.764 405.989 690.758 405.989ZM658.177 273.273C658.177 291.598 643.59 306.452 625.596 306.452C607.602 306.452 593.016 291.598 593.016 273.273C593.016 254.949 607.602 240.094 625.596 240.094C643.59 240.094 658.177 254.949 658.177 273.273ZM527.854 240.094C545.848 240.094 560.435 225.239 560.435 206.915C560.435 188.591 545.848 173.736 527.854 173.736C509.86 173.736 495.273 188.591 495.273 206.915C495.273 225.239 509.86 240.094 527.854 240.094Z" fill="black"/>
</svg>
