<svg width="999" height="1001" viewBox="0 0 999 1001" fill="none" xmlns="http://www.w3.org/2000/svg">
<path fill-rule="evenodd" clip-rule="evenodd" d="M202.879 598.775L0.328125 501.25C0.328125 501.25 52.8413 889.097 299.653 889.097C546.465 889.097 692.751 571.018 692.751 458.49C692.751 394.8 716.729 349.994 738.496 309.32C751.855 284.358 764.38 260.952 770.021 235.693C792.545 134.816 770.021 22.6306 770.021 22.6306C770.021 22.6306 673.997 0.118744 516.457 0.125001C235.137 0.136183 10.0806 402.234 10.0806 402.234C10.0806 402.234 137.362 532.758 202.879 598.775ZM656.134 145.388C653.76 142.81 650.105 141.844 646.767 142.912L291.636 256.582C284.648 258.819 283.127 268.029 289.027 272.393L463.634 401.564C469.32 405.77 468.158 414.588 461.577 417.178L258.037 497.281C251.728 499.764 250.325 508.066 255.467 512.485L335.755 581.483C338.438 583.789 342.224 584.309 345.43 582.812L632.319 448.884C638.376 446.056 639.347 437.847 634.117 433.684L471.565 304.292C465.849 299.742 467.648 290.636 474.666 288.602L708.042 220.976C714.464 219.115 716.688 211.151 712.159 206.232L656.134 145.388Z" fill="black"/>
<path d="M801.401 47.3868C801.401 47.3868 962.012 147.912 962.012 222.931C962.012 410.478 729.383 534.259 729.383 534.259V408.227C780.466 342.211 835.91 207.177 801.401 47.3868Z" fill="black"/>
<path d="M927.503 426.982C935.417 443.446 936.208 458.592 937.113 475.9C937.974 492.387 938.938 510.836 946.258 534.259C961.168 511.692 970.227 489.007 978.097 469.301C984.878 452.321 990.776 437.554 998.771 426.982C988.53 398.219 988.355 378.964 988.139 355.224C988.004 340.48 987.854 324.006 985.268 302.451C980.01 314.566 976.596 325.385 973.17 336.24L973.169 336.242L973.168 336.245C965.352 361.013 957.474 385.976 927.503 426.982Z" fill="black"/>
<path d="M658.914 734.426C665.384 762.032 676.032 807.466 671.953 846.211C671.666 848.931 674.8 850.765 676.928 849.046C696.411 833.313 757.168 783.062 764.712 762.316C767.783 753.87 770.331 741.408 773.218 727.282C778.794 700.003 785.638 666.522 799.971 643.786C812.77 623.484 845.823 609.413 871.77 598.368C889.926 590.639 904.603 584.39 906.428 578.525C910.858 564.276 886.923 491.498 876.42 492.248C874.945 492.353 870.304 498.132 863.016 507.205L863.013 507.209C851.584 521.439 833.649 543.768 811.224 565.016L765.525 593.077C751.767 599.7 738.013 606.573 725.702 617.529C684.532 654.168 654.364 706.058 654.364 711.303C654.364 715.015 656.297 723.263 658.914 734.426Z" fill="black"/>
<path d="M301.026 1000.13C435.042 1000.13 609.353 882.35 609.353 882.35V758.57C609.353 758.57 475.14 937.109 307.098 937.109C139.056 937.109 37.0301 756.314 37.0301 756.314C25.7759 805.826 106.299 970.676 145.096 975.369C162.739 977.503 184.904 981.867 207.647 986.344L207.664 986.348L207.666 986.348L207.667 986.348C241.998 993.107 277.641 1000.13 301.026 1000.13Z" fill="black"/>
</svg>
