<svg width="1005" height="1001" viewBox="0 0 1005 1001" fill="none" xmlns="http://www.w3.org/2000/svg">
<path d="M271.961 43.398L330.541 101.978L373.814 58.7048L315.234 0.125L275.242 3.40648L271.961 43.398Z" fill="black"/>
<path d="M110.054 103.85V271.94L27.2358 190.349L22.9415 17.3506H193.486L272.01 103.85H110.054Z" fill="black"/>
<path d="M60.4273 365.702L1.84756 307.123L5.12904 267.131L45.1205 263.85L103.7 322.429L60.4273 365.702Z" fill="black"/>
<path d="M896.49 103.898V271.988L979.309 190.397L983.603 17.3986H813.059L734.535 103.898H896.49Z" fill="black"/>
<path d="M1004.7 307.17L946.117 365.75L902.844 322.477L961.424 263.898L1001.42 267.179L1004.7 307.17Z" fill="black"/>
<path d="M676.004 102.026L734.584 43.4459L731.302 3.45441L691.311 0.172927L632.731 58.7527L676.004 102.026Z" fill="black"/>
<path d="M474.734 568.383C482.177 557.222 475.354 504.506 452.411 481.561C429.468 458.615 364.972 456.751 346.989 481.56C329.007 506.368 330.859 546.677 354.427 564.042C377.995 581.407 467.291 579.544 474.734 568.383Z" fill="black"/>
<path d="M477.832 681.256C459.85 681.256 483.394 589.469 502.627 589.469C521.86 589.469 547.29 681.256 527.442 681.256C516.102 681.256 513.266 677.004 510.835 673.359C509.012 670.625 507.416 668.232 502.627 668.232C497.703 668.232 495.796 670.762 493.664 673.592C490.958 677.183 487.888 681.256 477.832 681.256Z" fill="black"/>
<path d="M533.429 568.931C525.986 557.77 532.809 505.053 555.752 482.108C578.694 459.163 643.191 457.299 661.173 482.107C679.156 506.915 677.304 547.224 653.736 564.589C630.168 581.954 540.872 580.092 533.429 568.931Z" fill="black"/>
<path fill-rule="evenodd" clip-rule="evenodd" d="M867.977 409.917L595 138.807C545.598 89.7428 465.164 89.7428 415.761 138.807L143.424 409.917C94.0215 458.981 94.0215 538.867 143.424 587.93L416.396 859.041C465.799 908.103 546.232 908.103 595.635 859.041L868.612 587.93C917.38 538.867 917.38 458.352 867.977 409.917ZM400.316 705.443C407.758 712.885 446.846 727.149 503.898 727.149C560.951 727.149 596.299 715.346 606.202 705.443C610.702 700.943 616.23 688.758 622.262 675.46L622.268 675.447C629.51 659.481 637.477 641.914 645.27 634.122C649.595 629.796 657.447 626.326 666.289 622.42L666.302 622.414C686.65 613.424 712.245 602.116 712.245 572.725C712.245 530.552 698.621 515.668 698.621 515.668V392.873C698.621 392.873 652.092 263.876 500.177 263.876C348.263 263.876 309.175 392.873 309.175 392.873V515.668C309.175 515.668 296.133 532.413 296.152 572.725C296.167 598.428 316.839 607.995 335.994 616.859L336.001 616.862C346.887 621.898 357.284 626.708 363.127 634.122C372.264 645.718 380.598 664.682 387.458 680.295L387.469 680.319C392.71 692.249 397.092 702.22 400.316 705.443Z" fill="black"/>
<path d="M945.125 634.5L1003.7 693.08L1000.42 733.071L960.432 736.353L901.852 677.773L945.125 634.5Z" fill="black"/>
<path d="M0.855469 693.128L59.4353 634.548L102.708 677.821L44.1284 736.4L4.13695 733.119L0.855469 693.128Z" fill="black"/>
<path d="M109.062 728.31V896.4H271.018L192.494 982.899H21.9494L26.2437 809.901L109.062 728.31Z" fill="black"/>
<path d="M329.549 898.272L270.969 956.852L274.25 996.844L314.242 1000.13L372.821 941.545L329.549 898.272Z" fill="black"/>
<path d="M895.498 728.262V896.352H733.542L812.066 982.851H982.611L978.317 809.853L895.498 728.262Z" fill="black"/>
<path d="M733.591 956.804L675.012 898.224L631.739 941.497L690.319 1000.08L730.31 996.796L733.591 956.804Z" fill="black"/>
</svg>
