<svg width="1257" height="1001" viewBox="0 0 1257 1001" fill="none" xmlns="http://www.w3.org/2000/svg">
<path d="M1071.2 328.328C1071.2 325.031 1070.05 321.999 1068.86 319.626C1068.23 318.371 1067.49 317.098 1066.66 315.81C1066.17 315.062 1065.66 314.312 1065.11 313.556C1064.72 313.012 1064.32 312.468 1063.91 311.922C1059.93 306.699 1054.3 300.654 1047.38 294.005C1033.49 280.664 1013.64 264.156 989.458 245.86C941.053 209.233 874.665 164.969 802.413 123.89C730.194 82.8311 651.829 44.7861 579.505 20.772C507.63 -3.09198 452.152 -5.77715 402.279 10.1721C399.456 11.0749 397.258 13.3098 396.402 16.1474C395.545 18.985 396.139 22.0619 397.991 24.3765C413.248 43.4471 422.361 52.5673 446.871 68.9644C469.941 84.4 496.342 99.5659 523.849 115.37L529.095 118.383C583.437 149.62 641.922 183.791 691.322 228.975C598.261 246.723 528.531 274.784 475.599 325.078C420.286 377.635 384.415 453.42 358.228 563.657C249.645 594.65 169.022 623.481 111.502 656.278C52.8407 689.724 17.4392 727.741 1.22092 777.033C0.232454 780.037 0.89202 783.339 2.95808 785.731C5.02413 788.126 8.19357 789.261 11.3091 788.721C155.064 763.863 235.84 734.997 353.021 693.12L372.149 686.288C379.859 683.54 387.737 680.735 395.808 677.872C396.527 677.619 397.209 677.274 397.84 676.847C432.5 653.438 469.301 623.582 502.049 597.014L502.107 596.965L502.125 596.951L503.466 595.863C508.915 591.445 514.248 587.118 519.436 582.934C537.906 568.04 554.481 554.98 568.138 545.506C574.967 540.766 580.884 537.054 585.812 534.486C590.942 531.813 594.193 530.814 595.899 530.666C597.745 530.506 601.13 530.896 606.238 532.411C611.167 533.874 617.032 536.177 623.55 539.202C636.574 545.246 651.604 553.89 665.975 563.519C680.36 573.157 693.815 583.602 703.786 593.168C707.176 596.421 710.085 599.498 712.46 602.335C712.889 602.847 713.3 603.351 713.694 603.848C714.332 604.652 714.923 605.436 715.467 606.198C717.193 608.611 718.231 610.513 718.82 611.92C719.184 612.79 719.375 613.47 719.452 613.967C719.441 614.075 719.384 614.624 718.954 615.759C718.371 617.297 717.33 619.33 715.711 621.931C712.456 627.163 707.6 633.549 701.578 641.269L698.457 645.263C687.09 659.784 672.985 677.806 661.447 697.953C648.816 720.009 638.789 745.388 638.85 772.601C638.912 800.13 649.3 828.523 675.636 856.287C679.034 859.868 684.683 860.046 688.3 856.685C743.15 805.705 777.312 763.783 809.709 721.198C815.825 713.157 821.867 705.108 827.967 696.987L828.345 696.48L828.593 696.15C854.593 661.505 881.705 625.379 920.036 582.256C922.371 579.63 922.965 575.882 921.554 572.662C907.334 540.187 869.084 501.57 841.575 473.797C822.991 455.036 809.309 441.223 811.245 437.592C814.428 431.624 859.724 419.432 903.171 407.739C925.291 401.785 946.932 395.959 962.291 391.15L964.149 390.568L964.457 390.47C968.146 389.318 971.788 388.176 975.374 387.043C1000.94 378.981 1024.02 371.352 1040.72 363.027C1049.08 358.862 1056.44 354.24 1061.81 348.851C1067.28 343.363 1071.2 336.536 1071.2 328.328Z" fill="black"/>
<path d="M6.17266 955.699C6.17266 931.164 26.0628 911.273 50.5987 911.273H165.266C189.802 911.273 209.692 931.164 209.692 955.699C209.692 980.234 189.802 1000.13 165.266 1000.13H50.5987C26.0628 1000.13 6.17266 980.234 6.17266 955.699Z" fill="black"/>
<path d="M1052.59 955.699C1052.59 931.164 1072.48 911.273 1097.01 911.273H1211.68C1236.22 911.273 1256.11 931.164 1256.11 955.699C1256.11 980.234 1236.22 1000.13 1211.68 1000.13H1097.01C1072.48 1000.13 1052.59 980.234 1052.59 955.699Z" fill="black"/>
<path d="M334.565 911.273C310.03 911.273 290.139 931.164 290.139 955.699C290.139 980.234 310.03 1000.13 334.565 1000.13H980.545C1005.08 1000.13 1024.97 980.234 1024.97 955.699C1024.97 931.164 1005.08 911.273 980.545 911.273H334.565Z" fill="black"/>
<path d="M1131.23 288.107C1195.89 288.107 1248.3 235.693 1248.3 171.038C1248.3 106.383 1195.89 53.9696 1131.23 53.9696C1066.58 53.9696 1014.16 106.383 1014.16 171.038C1014.16 235.693 1066.58 288.107 1131.23 288.107Z" fill="black"/>
</svg>
