<svg width="681" height="1001" viewBox="0 0 681 1001" fill="none" xmlns="http://www.w3.org/2000/svg">
<path fill-rule="evenodd" clip-rule="evenodd" d="M139.106 0.125H543.224V54.1791H544.511C603.502 54.1791 651.332 102.004 651.332 161V661.644H30.9974V161C30.9974 102.004 78.8276 54.1791 137.819 54.1791H139.106V0.125ZM159.205 363.703C159.205 262.362 240.386 180.207 340.521 180.207V146.843C222.177 146.843 126.235 243.934 126.235 363.703C126.235 483.472 222.177 580.563 340.521 580.563C458.865 580.563 554.807 483.472 554.807 363.703C554.807 299.652 527.348 239.077 483.72 197.275L480.392 194.103L476.461 190.39C473.716 187.816 471.262 185.559 469.071 183.586L485.58 150.171H373.491L439.429 243.587L453.757 214.582L457.648 218.252L461.057 221.499C498.37 257.256 521.838 309.181 521.838 363.703C521.838 465.044 440.656 547.199 340.521 547.199C240.386 547.199 159.205 465.044 159.205 363.703ZM322.805 502.324L433.256 349.714C437.076 344.365 434.844 339.961 428.158 339.647H365.769V228.57C365.769 225.446 365.065 223.518 363.878 222.952C362.551 222.321 360.631 223.382 358.449 226.368L247.998 378.978C243.865 384.642 246.087 389.048 253.096 389.048H315.485V500.125C315.485 501.392 315.606 502.46 315.827 503.322C316.269 505.105 317.154 506.002 318.33 505.911C318.914 505.866 319.567 505.582 320.271 505.047C321.055 504.454 321.91 503.551 322.805 502.324Z" fill="black"/>
<path d="M0.109375 734.359C0.109375 714.813 15.9556 698.967 35.5019 698.967H645.541C665.087 698.967 680.933 714.813 680.933 734.359C680.933 751.932 668.123 766.514 651.332 769.279V830.884C651.332 850.431 635.486 866.277 615.939 866.277H66.3899C46.8436 866.277 30.9974 850.431 30.9974 830.884V769.468C13.5827 767.256 0.109375 752.38 0.109375 734.359Z" fill="black"/>
<path d="M544.511 904.887H137.819V985.968H220.187V1000.12H299.981V985.968H382.349V1000.12H462.143V985.968H544.511V904.887Z" fill="black"/>
</svg>
