<?xml version="1.0" encoding="UTF-8"?>
<svg id="Layer_2" data-name="Layer 2" xmlns="http://www.w3.org/2000/svg" viewBox="0 0 319.44 291.75">
  <g id="Layer_1-2" data-name="Layer 1">
    <g>
      <path d="M158.72,291.75c12.59,0,46.93-28.47,50.89-39.48,0,0-30.22,16.67-51.33,16.67-31.6,0-69.94-21.97-92.72-47.81-21.67-24.58-20.7-46.57-17.4-82.05.91-9.84,15.35,36.41,15.35,36.41,0,0-5.4-88.9,31.15-121.56,35.64-31.85,104.85-37.69,104.85-37.69,0,0-36.94-16.23-59.23-16.23C120.21,0,44.86,58.46,23.59,86.43c-8.97,11.79-20.18,30.56-20.18,55.72,0,0,9.41-8.14,10.53-6.58,9.25,12.93,14.48,77.65,14.48,77.65-4.86,2.72-17.99-13.16-17.99-13.16.15,13.63,6.72,27.04,12.72,33.78,33.35,37.41,91.24,53.9,110.12,57.91l-38.17-23.25c18.75-1.11,60.24,23.25,63.61,23.25Z"/>
      <path d="M5.05,174.4c-2.48.47-6.82,9.02-4.27,9.38,6.3.88,9.81-2.26,9.62-4.96-.12-1.73-3.65-4.74-5.35-4.42Z"/>
      <path d="M226.36,244.84c3.25-3.25,4.15-4.84,2.81-6.54-1.41-1.79-6.82-.08-8.49,1.47-1.87,1.74-4.56,5.24-2.6,6.87,1.74,1.45,6.67-.21,8.27-1.81Z"/>
      <path d="M316.59,213.37c7.27-29.59-.95-87.05-6.8-104.78-5.98-18.11-36.24-36.68-36.24-36.68,33.82,38.95,24.92,61.03,24.92,61.03-8.89-25.16-13.04-32.25-24.09-40.52-21.18-15.84-44.62-24.57-64.77-29.45-8.89-2.15-35.64-1.92-35.64-1.92,4.85-6.14,19.53-12.15,19.53-12.15-34.83,0-89.21,47.5-96.04,63.46-11.05,25.81-16.4,55.74-16.4,84.89,0,21.96,58.93,47.86,82.95,47.86,57.67,0,65.76-50.08,65.76-65.95,0-30.67-19.73-44.9-38.45-44.9-26.39,0-35.97,20.49-35.97,30.24,0,17.04,7.74,22.55,18.11,22.55,6.4,0,19.7-15.36,19.7-15.36,0,27.84-11.29,33.62-22.32,33.62-22.07,0-37.36-27.84-37.36-46.98,0-51.52,45.1-71.35,63.46-71.35s67.91,29.28,67.91,64.83-28.47,76.49-28.47,76.49c0,5.77,31.37-27.86,31.37-27.86,0,25.51-76.81,90.29-78.01,91.3,1.06-.58,68.91-37.82,90.14-54.27,12.94-10.03,30.63-32.48,28.61-43.92-1.44-8.15,8.1,19.82,8.1,19.82ZM145.34,109.94c-9.43,13.41-17.92,41.53-17.92,41.53,0,0-3.13-25.43,13.51-48.05,6.92-9.41,30.51-18.62,31.24-18.9-.74.6-20.59,16.55-26.83,25.42Z"/>
    </g>
  </g>
</svg>