<?xml version="1.0" encoding="UTF-8"?>
<svg id="Layer_2" data-name="Layer 2" xmlns="http://www.w3.org/2000/svg" viewBox="0 0 314.19 402.75">
  <g id="Layer_1-2" data-name="Layer 1">
    <g>
      <path d="M304.66,306.95c-5.28,0-6.74,15.66-14.17,15.66s-13.71-8.05-13.71-19.84c0-15.25,5.51-38.74,5.88-51.73.49-17.21-8.73-65.24-21.99-65.24-6.66,0-5.97,3.85-5.97,5.96,0,10.6,8.58,10.6,8.58,34.67,0,6.93-2.3,18.51-10.07,18.51-8.97,0-7.12-21.15-9.16-33.43-1.16-6.95-15.07-21.56-15.07-32.79,0-11.78,4.47-23.41,4.47-31.32,0-27.07-18.21-44.72-18.21-54.56,0-8.95,2.75-31.51-6.16-31.51-7.73,0-23.5,8.06-23.5,32.52,0,11.72,3.18,16.32,3.18,22.43s-.72,13.6-7.87,13.6c-12.83,0-19.01-45.29-19.01-64.12,0-11.92,2.57-33.04,2.57-47.6,0-7.71-1.55-18.16-7.85-18.16-5.87,0-2.33,14.43-12.31,26.05-20.96,24.41-32.28,46.22-32.28,66.67,0,13.4,7.75,34.14,7.75,45.74,0,10.5-23.28,23.4-30.62,38.64-9.05,18.79-15.12,36.36-21.35,36.36-5.09,0,.99-14.33-1-19.01-2.89-6.79-11.44-10.46-15.63-18.34-2.83-5.35.75-19.79-4.31-19.79-6.93,0-21.62,19.44-21.62,47.66,0,16.38,11.2,34.96,11.2,46.85s-9.79,29.14-9.79,40.93c0,19,7.56,32.14,20.05,43.15,9.36,8.25,33.18,14.23,33.18,22.74,0,7.95-14.86,15.28-23.49,15.28-22.07,0-13.98-35.03-24.6-34.66-4.75.16-5.22,8.54-5.22,18.26,0,27.42,20.43,46.22,40.56,46.22,27.14,0,34.59-18.24,43.32-18.24,7.84,0,14.96,3.89,28.7,3.89,66.09,0,69.95-40.51,82.35-40.51s25.21,7.52,40.67,7.52c31.69,0,49.58-21.77,49.58-37.27,0-3.57.41-11.19-7.08-11.19ZM180.46,184.06c1.83.11,4.83,3.69,4.83,5.53,0,2.07-3.37,6.21-5.44,6.22-2.06.01-5.55-4.16-5.44-6.22.12-2.04,4-5.64,6.05-5.53ZM83.31,289.41c-2.43-.11-6.99-4.14-7.17-6.56-.17-2.39,3.66-7.31,6.05-7.42,2.96-.14,8.49,5.5,8.29,8.46-.16,2.26-4.91,5.64-7.17,5.52ZM206.54,320.33c-1.93-.34-4.64-4.44-4.49-6.39.17-2.32,4.06-6.71,6.39-6.74,2.38-.03,6.91,4.36,6.73,6.74-.2,2.68-5.99,6.86-8.63,6.39ZM225.2,301.33c-1.86,0-5.98-1.64-5.98-5.81,0-2.51,3.44-5.82,3.44-8.34,0-6.7-8.03-11.76-12.51-11.76-8.11,0-13.05,36.06-35.74,36.06-13.75,0-18.87,11.42-38.4,11.42-11.91,0-41.13-6.91-43.88-18.49-.47-1.97,1.27-6.17,5.26-6.17,4.71,0,21.39,13.6,38.62,13.6,9.34,0,20.84-6.27,20.84-12.33,0-3.8-2.98-4.88-5.17-5.63-3.57-1.23-12.8.74-16.58.74-14.32,0-31.91-21.76-31.91-46.82,0-16.3,8.16-46.37,27.92-57.87,5.86-3.41,24.43.12,24.43,5.88,0,8.89-18.45,2.36-26.17,7.8-3.91,2.74-6.96,10.88-6.96,17.77,0,4.89,1.27,11.05,8.16,11.05,8.52,0,11.42-17.76,34.99-17.76,15.77,0,40.42,14.5,40.42,28.82,0,6.53-17.76,5.04-17.76,10.16,0,9.06,24.45,8.51,31.91,12.32,8.15,4.17,14.86,13.95,14.86,20.67,0,7.43-3.62,14.69-9.79,14.69Z"/>
      <path d="M8.08,315.02c-3.42.2-8.44,7.69-8.06,11.09.37,3.31,6.71,8.91,10.04,8.76,3.01-.14,8.25-5.74,8.29-8.76.05-3.78-6.5-11.32-10.27-11.09Z"/>
      <path d="M57.79,142.04c3.9-.02,9.37-5.46,9.37-12.17,0-4.19-5.16-9.59-8.64-9.34-3.92.29-7.77,7.33-7.77,11.78,0,6.72,3.97,9.75,7.04,9.73Z"/>
      <path d="M210.06,45.63c4.01.1,8.51-4.12,8.51-13.49,0-8.35-4.63-14.73-9.04-14.51-4.16.21-6.89,11.03-6.89,15.19,0,8.01,3.53,12.71,7.41,12.81Z"/>
      <path d="M255.1,160.23c2.77-.06,6.35-4.17,6.35-9.06,0-5.83-3.94-11.07-7.29-11.25-2.94-.15-7.3,6.25-7.3,10.15,0,6.4,4.76,10.23,8.24,10.15Z"/>
      <path d="M306.06,283.91c4.25,0,8.08-4.55,8.13-7.28.05-2.94-3.59-7.65-8.6-7.65-3.97,0-6.43,5.05-6.43,7.65,0,4.91,4.39,7.28,6.9,7.28Z"/>
      <path d="M159.27,247.8c-6.78,0-13.92,7.16-13.92,13.03,0,8.18,8.3,12.91,14.94,12.91,7.41,0,12.91-7.03,12.91-13.24,0-7.59-5.24-12.7-13.93-12.7Z"/>
    </g>
  </g>
</svg>