<svg width="1028" height="1001" viewBox="0 0 1028 1001" fill="none" xmlns="http://www.w3.org/2000/svg">
<path d="M0.625 78.2191V180.323C11.7113 158.727 187.925 -77.5794 432.991 135.979C551.439 239.2 603.953 137.723 589.366 128.976C586.114 127.026 583.297 129.339 579.091 132.792C564.433 144.826 532.909 170.707 407.317 78.2191C249.373 -38.0946 156.768 -12.9627 0.625 78.2191Z" fill="black"/>
<path d="M508.256 942.361C518.671 942.361 527.653 941.483 530.815 940.147L530.849 940.133C535.774 938.052 540.988 935.371 546.149 932.476C556.582 926.624 569.309 918.475 583.501 908.523C612 888.539 648.227 860.006 686.63 824.892C762.933 755.125 850.886 656.592 902.453 544.58C919.037 508.557 932.143 467.564 936.609 426.958C941.038 386.679 937.301 343.275 915.995 305.948C878.902 240.963 824.414 201.912 756.823 201.912C678.687 201.912 626.526 223.344 588.113 244.689C578.845 249.839 570.465 254.934 563.236 259.345L562.387 259.863C555.291 264.193 549.674 267.621 544.44 270.512C533.63 276.482 529.552 277.132 528.261 277.179L528.238 277.176C527.95 277.132 526.333 276.888 522.99 275.637C518.661 274.017 513.072 271.338 505.786 267.287C496.719 262.245 488.074 256.895 478.127 250.739L478.124 250.737L478.12 250.735C470.416 245.967 461.931 240.716 451.863 234.751C410.131 210.021 353.624 180.907 287.115 180.907C209.117 180.907 144.093 228.95 105.696 292.095C67.101 355.563 52.0192 439.013 76.4874 519.536C90.4811 565.588 123.773 614.515 161.89 659.92C188.187 691.243 251.526 762.646 267.863 746.308C276.004 738.167 243.047 694.773 205.523 645.363C167.738 595.61 125.321 539.759 115.567 507.661C73.9259 370.621 166.765 221.751 287.115 221.751C353.386 221.751 410.252 256.849 455.313 284.662C484.882 302.913 509.369 318.027 528.094 318.027C545.492 318.027 562.201 307.828 583.318 294.938C619.569 272.812 668.811 242.756 756.823 242.756C806.025 242.756 848.642 270.343 880.522 326.195C911.621 380.678 895.779 461.407 865.352 527.499C768.634 737.586 530.984 907.302 508.256 906.184C489.959 905.284 463.179 886.339 439.809 869.807C417.723 854.183 398.684 840.715 392.73 846.668C380.477 858.921 408.045 885.228 419.498 893.697C437.102 906.712 452.693 917.525 464.99 925.262C471.066 929.084 476.952 932.544 482.212 935.197C484.813 936.508 487.92 937.959 491.239 939.171C493.568 940.023 500.115 942.361 508.256 942.361Z" fill="black"/>
<path d="M507.027 804.073C528.678 804.073 720.071 689.137 788.339 540.517C810.054 493.242 807.9 442.788 783.928 404.394C759.354 365.036 713.652 342.545 675.725 342.545C592.648 342.545 543.15 388.153 520.921 408.634C514.423 414.621 510.256 418.461 508.261 418.387C506.139 418.308 500.04 412.222 490.822 403.025C461.722 373.989 401.542 313.942 337.29 313.942C244.521 313.942 173.814 423.055 208.921 518.747C247.882 624.943 485.377 804.073 507.027 804.073Z" fill="black"/>
<path d="M375.461 995.759C182.259 870.605 121.12 789.067 25.0276 660.914L25.018 660.901L24.956 660.818C18.434 652.12 11.751 643.208 4.85458 634.052C3.50723 632.263 0.625 633.17 0.625 635.409V689.998C0.625 690.564 0.830463 691.11 1.20317 691.536L151.1 862.69C152.859 864.698 150.408 867.538 148.144 866.124C83.2183 825.584 57.7146 800.529 20.7327 764.197C15.6156 759.169 10.2788 753.926 4.58733 748.396C3.10968 746.961 0.625 747.998 0.625 750.058V782.613C0.625 783.274 0.913482 783.911 1.4034 784.353C92.4424 866.576 147.237 913.172 309.934 999.846C310.272 1000.03 310.658 1000.12 311.041 1000.12H374.28C376.61 1000.12 377.417 997.026 375.461 995.759Z" fill="black"/>
<path d="M1022.74 582.735C873.583 780.581 788.518 873.49 648.363 996C646.739 997.419 647.71 1000.12 649.868 1000.12H709.918C710.448 1000.12 710.969 999.939 711.383 999.608C722 991.116 732.352 982.868 742.455 974.817C861.558 879.914 946.247 812.432 1026.98 695.545C1027.75 694.429 1027.17 692.517 1026.4 691.827C1025.63 691.139 1023.34 691.166 1022.32 692.044L926.968 775.828C924.84 777.645 921.899 774.861 923.597 772.637L1025.82 637.779C1026.13 637.373 1026.4 636.875 1026.4 636.363V584.036C1026.4 581.795 1024.09 580.945 1022.74 582.735Z" fill="black"/>
<path d="M625.349 98.5425C620.947 101.468 619.75 107.407 622.675 111.809C625.6 116.211 631.54 117.408 635.942 114.483L652.418 103.534C656.82 100.609 658.017 94.6697 655.092 90.2679C652.167 85.8661 646.227 84.669 641.825 87.594L625.349 98.5425Z" fill="black"/>
<path d="M1026.4 180.301C945.953 42.1649 840.195 21.6503 696.859 76.0846C688.791 79.1488 682.283 69.9279 688.645 64.0959C781.408 -20.9325 913.971 -12.2947 1026.4 110.293V180.301Z" fill="black"/>
<path d="M927.295 18.7971C965.358 30.5497 994.306 46.0544 1026.4 76.4385V52.5273C995.334 22.7719 966.593 12.9798 927.784 14.3731C925.188 14.4664 924.812 18.0307 927.295 18.7971Z" fill="black"/>
<path d="M323.856 783.976C319.392 779.93 312.493 780.268 308.447 784.732C304.4 789.197 304.739 796.096 309.203 800.142L329.223 818.289C333.687 822.336 340.587 821.997 344.633 817.533C348.679 813.069 348.341 806.17 343.877 802.123L323.856 783.976Z" fill="black"/>
</svg>
