<svg width="1086" height="1001" viewBox="0 0 1086 1001" fill="none" xmlns="http://www.w3.org/2000/svg">
<path fill-rule="evenodd" clip-rule="evenodd" d="M368.067 201.484C368.067 136.629 395.245 0.125 562.632 0.125C688.76 0.125 720.2 102.528 735.699 153.011C740.77 169.525 744.134 180.483 748.549 180.483C758.535 180.483 776.775 166.278 791.819 154.562C803.761 145.262 813.688 137.531 815.875 139.717C820.816 144.659 802.087 175.068 744.843 215.073C719.201 232.993 687.405 248.237 658.062 262.307C611.596 284.585 571.279 303.916 571.279 326.252C571.279 336.135 591.045 341.694 622.545 341.694C668.425 341.694 697.589 296.936 717.012 267.128L717.013 267.126C727.922 250.385 735.757 238.361 741.755 241.632C749.119 245.649 740.319 265.389 730.599 287.193C718.308 314.767 704.544 345.641 720.137 352.194C736.318 358.995 748.265 321.614 758.696 288.975C766.266 265.291 773.037 244.103 780.05 244.103C796.727 244.103 804.139 260.78 804.139 301.546C804.139 326.091 775.252 348.845 749.838 368.864C733.044 382.093 717.766 394.128 713.342 404.696C712.712 406.201 711.989 407.991 711.166 410.03L711.162 410.038C697.45 443.99 655.943 546.759 553.985 546.759C453.417 546.759 408.348 436.617 397.189 409.344L397.188 409.342L397.184 409.332C396.351 407.298 395.708 405.726 395.245 404.696C387.884 388.338 371.259 375.248 354.627 362.153C332.323 344.592 310.007 327.021 310.007 301.546C310.007 257.074 323.595 241.632 331.625 241.632C334.663 241.632 340.885 257.992 348.417 277.797C360.79 310.331 376.698 352.161 387.833 346.018C397.16 340.871 391.414 319.478 383.763 290.997C376.722 264.784 368.067 232.566 368.067 201.484ZM532.984 331.194C539.778 313.899 505.277 293.804 479.865 280.545C455.578 267.874 423.657 253.368 411.304 265.721C398.951 278.074 408.833 299.693 433.54 319.458C458.246 339.223 526.19 348.488 532.984 331.194ZM525.572 81.6568C525.572 94.9608 514.787 105.746 501.483 105.746C488.179 105.746 477.394 94.9608 477.394 81.6568C477.394 68.3529 488.179 57.5679 501.483 57.5679C514.787 57.5679 525.572 68.3529 525.572 81.6568ZM530.513 145.894C530.513 159.198 519.728 169.983 506.424 169.983C493.12 169.983 482.335 159.198 482.335 145.894C482.335 132.59 493.12 121.805 506.424 121.805C519.728 121.805 530.513 132.59 530.513 145.894ZM512.601 229.279C525.905 229.279 536.69 218.494 536.69 205.19C536.69 191.886 525.905 181.101 512.601 181.101C499.297 181.101 488.512 191.886 488.512 205.19C488.512 218.494 499.297 229.279 512.601 229.279ZM608.957 229.279C595.653 229.279 584.868 218.494 584.868 205.19C584.868 191.886 595.653 181.101 608.957 181.101C622.261 181.101 633.046 191.886 633.046 205.19C633.046 218.494 622.261 229.279 608.957 229.279ZM615.133 169.983C601.829 169.983 591.045 159.198 591.045 145.894C591.045 132.59 601.829 121.805 615.133 121.805C628.437 121.805 639.222 132.59 639.222 145.894C639.222 159.198 628.437 169.983 615.133 169.983ZM622.545 105.746C609.241 105.746 598.456 94.9608 598.456 81.6568C598.456 68.3529 609.241 57.5679 622.545 57.5679C635.849 57.5679 646.634 68.3529 646.634 81.6568C646.634 94.9608 635.849 105.746 622.545 105.746Z" fill="black"/>
<path d="M555.84 975.419C550.281 981.596 572.509 1006.92 581.162 998.272C589.816 989.625 561.399 969.242 555.84 975.419Z" fill="black"/>
<path d="M980.794 430.641C978.322 428.482 978.628 416.466 978.938 404.283C979.249 392.067 979.564 379.684 977.088 376.901C972.143 371.342 914.7 388.019 914.73 394.195C914.735 395.145 918.806 400.068 925.39 408.029L925.392 408.032C939.492 425.081 965.113 456.061 986.997 491.787C1006.79 524.093 1024 559.826 1035.79 584.281C1044.48 602.317 1050.21 614.219 1051.84 614.084C1059.27 613.47 1090.12 551.082 1085.17 541.2C1082.11 535.071 1068.6 536.545 1058.33 537.666C1052.04 538.352 1046.98 538.905 1046.27 537.497C1045.5 535.955 1046.22 527.354 1047.06 517.346C1048.25 503.304 1049.66 486.492 1047.5 482.525C1045.38 478.63 1037.98 480.825 1031.24 482.825C1026.21 484.314 1021.56 485.696 1019.71 484.378C1017.58 482.859 1018.59 471.481 1019.65 459.5C1020.75 447.119 1021.9 434.094 1019.71 430.641C1017.35 426.924 1007.4 428.569 998.066 430.113C990.341 431.391 983.035 432.599 980.794 430.641Z" fill="black"/>
<path d="M743.608 530.699C763.343 526.993 881.965 680.174 875.171 688.204C874.066 689.509 868.708 688.11 860.967 686.089C845.844 682.14 821.63 675.818 802.286 682.645C783.264 689.359 773.182 696.1 767.405 699.962C763.616 702.496 761.678 703.792 760.285 703.028C756.36 700.878 745.06 677.241 740.519 637.434C738.748 621.905 731.703 607.359 725.587 594.731C720.361 583.94 715.813 574.549 715.813 567.142C715.813 567.142 723.873 534.406 743.608 530.699Z" fill="black"/>
<path d="M849.846 399.137C843.361 388.019 768.932 420.137 768.932 484.378C768.932 495.542 783.16 510.219 802.355 530.019C807.584 535.413 813.183 541.188 818.963 547.376C833.682 563.135 847.7 581.042 858.104 594.332C867.223 605.981 873.565 614.084 875.171 614.084C881.965 614.084 857.876 452.874 849.846 450.403C846.416 449.347 840.844 454.154 835.008 459.187C827.184 465.936 818.885 473.094 814.639 467.08C810.904 461.788 821.522 447.399 832.145 433.002C842.601 418.83 853.063 404.652 849.846 399.137Z" fill="black"/>
<path d="M1014.12 637.434C1027.56 618.951 901.084 408.28 878.23 415.692C867.836 419.063 888.461 510.039 902.773 573.174L902.948 573.942C903.803 577.715 904.635 581.387 905.436 584.932C911.931 613.681 914.383 635.944 916.096 651.497C918.045 669.189 919.037 678.199 923.937 678.199C932.897 678.199 941.255 672.819 951.5 666.223L951.501 666.223C955.38 663.725 959.53 661.054 964.085 658.434C972.901 653.365 983.767 649.872 993.186 646.844C1003.19 643.626 1011.57 640.934 1014.12 637.434Z" fill="black"/>
<path d="M597.221 645.585C597.221 632.736 665.164 593.701 676.282 593.701C687.4 593.701 711.489 683.88 704.695 690.675C697.901 697.469 597.221 658.434 597.221 645.585Z" fill="black"/>
<path d="M492.218 645.585C492.836 632.736 428.599 601.731 409.451 603.584C390.303 605.437 388.45 751.824 395.862 763.559C403.274 775.295 681.841 1000.13 754.108 1000.13H1014.12C1014.12 1000.13 923.32 833.355 898.642 833.355C888.486 833.355 877.588 846.537 866.47 859.983C850.574 879.21 834.229 898.98 818.963 881.533C804.852 865.406 861.651 824.789 913.215 787.916L913.217 787.914C956.447 757.001 995.997 728.719 986.997 719.705C977.07 709.764 952.277 724.823 923.717 742.171C895.495 759.314 863.595 778.69 838.728 778.383C815.643 778.098 765.337 757.693 711.352 735.796C648.339 710.237 580.315 682.645 544.72 682.645C509.181 682.645 480.251 699.433 457.641 712.553C438.203 723.833 423.436 732.402 413.157 725.264C399.527 715.799 432.079 692.828 459.461 673.506C476.75 661.305 491.979 650.558 492.218 645.585Z" fill="black"/>
<path d="M535.455 954.418C546.573 943.3 402.657 778.383 287.771 778.383C172.885 778.383 69.1173 1000.13 69.1173 1000.13H272.329C299.604 1000.13 329.703 981.688 360.367 962.905C392.2 943.406 424.64 923.535 455.158 923.535C485.258 923.535 503.855 938.002 516.331 947.707C525.113 954.538 530.862 959.011 535.455 954.418Z" fill="black"/>
<path d="M106.824 406.754C107.134 418.937 107.44 430.953 104.968 433.112C102.727 435.07 95.4212 433.861 87.6965 432.583C78.3625 431.039 68.4168 429.394 66.0554 433.112C63.8623 436.565 65.017 449.589 66.1147 461.97C67.1769 473.951 68.1858 485.33 66.0554 486.849C64.2069 488.167 59.5477 486.785 54.526 485.296C47.7802 483.295 40.3803 481.101 38.2605 484.996C36.1014 488.963 37.5163 505.774 38.6981 519.817C39.5403 529.825 40.2642 538.426 39.4915 539.968C38.7863 541.375 33.7177 540.822 27.4312 540.136C17.1656 539.016 3.65227 537.541 0.587704 543.67C-4.35362 553.553 26.4962 615.941 33.92 616.555C35.5496 616.689 41.284 604.788 49.9747 586.751C61.7579 562.297 78.9755 526.563 98.7653 494.257C120.65 458.532 146.27 427.552 160.37 410.503C166.955 402.54 171.028 397.616 171.032 396.666C171.062 390.49 113.619 373.813 108.674 379.371C106.199 382.155 106.513 394.538 106.824 406.754Z" fill="black"/>
<path d="M211.18 693.763C204.386 685.733 323.625 528.229 343.361 531.935C363.096 535.641 365.597 573.936 365.597 573.936C365.597 582.081 363.111 592.337 360.23 604.22C357.425 615.792 354.246 628.906 352.626 643.115C350.568 661.154 349.659 680.034 348.915 695.488C348.018 714.135 347.36 727.794 345.214 728.97C343.565 729.873 336.406 726.266 326.02 721.033C314.248 715.102 298.33 707.082 281.594 701.175C263.379 694.746 241.804 694.945 227.332 695.079C218.569 695.16 212.41 695.216 211.18 693.763Z" fill="black"/>
<path d="M318.684 484.996C317.026 421.99 236.535 386.783 232.211 394.195C230.286 397.496 239.5 410.595 249.661 425.039C262.317 443.031 276.441 463.108 272.329 468.933C268.089 474.94 260.423 468.212 253.135 461.817C247.682 457.033 242.442 452.434 239.005 453.491C230.976 455.962 226.004 581.966 232.799 581.966C239.593 581.966 319.178 503.77 318.684 484.996Z" fill="black"/>
<path d="M203.151 412.725C180.297 405.313 53.8225 615.985 67.2644 634.467C69.8101 637.967 78.1854 640.66 88.1944 643.878C97.6134 646.905 108.48 650.399 117.295 655.468C121.851 658.088 126.002 660.76 129.881 663.257C140.126 669.852 148.484 675.233 157.444 675.233C179.438 675.233 195.739 631.379 193.268 562.818C192.156 531.964 197.264 495.805 201.375 466.696C205.579 436.932 208.742 414.539 203.151 412.725Z" fill="black"/>
<path d="M835.025 131.07C830.699 124.893 856.029 103.896 861.577 109.455C867.125 115.014 839.35 137.247 835.025 131.07Z" fill="black"/>
</svg>
