<svg width="1028" height="1001" viewBox="0 0 1028 1001" fill="none" xmlns="http://www.w3.org/2000/svg">
<path d="M936.039 467.032L925.998 330.268L915.957 467.032C907.057 469.951 899.87 476.648 896.288 485.224L824.769 497.617L896.288 510.01C899.87 518.586 907.057 525.283 915.957 528.202L925.998 669.647L936.039 528.202C944.938 525.283 952.125 518.586 955.707 510.01L1027.23 497.617L955.707 485.224C952.125 476.648 944.938 469.951 936.039 467.032Z" fill="black"/>
<path d="M123.868 560.654L113.827 453.732L103.786 560.654C94.8863 563.573 87.699 570.27 84.1173 578.846L12.5979 591.239L84.1173 603.632C87.699 612.208 94.8863 618.905 103.786 621.824L113.827 728.746L123.868 621.824C132.767 618.905 139.955 612.208 143.536 603.632L215.056 591.239L143.536 578.846C139.955 570.27 132.767 563.573 123.868 560.654Z" fill="black"/>
<path d="M841.733 549.694C803.159 510.298 780.696 472.715 772.687 420.379C772.687 420.379 752.792 464.264 725.876 464.849C698.96 465.434 623.477 420.379 623.477 420.379H525.174L484.214 405.165C484.214 405.165 588.369 511.66 646.882 511.66C705.396 511.66 841.733 549.694 841.733 549.694Z" fill="black"/>
<path d="M730.557 436.177C681.32 432.875 659.443 434.417 633.241 394.048H508.022C432.777 367.648 394.903 337.507 364.846 265.317L447.351 298.67C447.351 298.67 301.066 186.909 260.692 165.844C298.14 165.844 445.157 229.775 561.452 319.735C505.279 212.655 236.116 129.565 166.485 49.4015L308.673 125.469L144.834 0.25C337.93 125.469 447.351 180.472 643.372 315.054L614.7 244.837C683.832 299.484 710.127 340.65 730.557 436.177Z" fill="black"/>
<path d="M364.846 298.67C327.397 274.679 330.908 244.837 278.246 244.837C309.258 277.02 313.354 305.107 364.846 298.67Z" fill="black"/>
<path d="M248.989 294.574C266.479 316.224 267.128 319.735 301.066 315.054C278.246 304.521 275.364 296.91 248.989 294.574Z" fill="black"/>
<path d="M230.85 279.946C150.686 256.54 114.542 219.091 42.4354 175.206C104.46 188.664 166.485 238.986 230.85 279.946Z" fill="black"/>
<path d="M265.373 235.475C228.509 183.983 107.386 122.544 0.890625 57.5935V94.4571C81.6396 121.959 157.122 193.931 265.373 235.475Z" fill="black"/>
<path d="M202.178 137.172C197.7 123.473 189.873 118.413 171.751 111.426C179.195 124.159 183.17 131.41 202.178 137.172Z" fill="black"/>
<path d="M137.228 111.426L0.890625 0.25V33.6028L137.228 111.426Z" fill="black"/>
<path d="M157.122 53.4975L120.979 8.44192H77.0935L157.122 53.4975Z" fill="black"/>
<path d="M31.3178 159.407C22.0289 149.984 9.95573 155.239 0.890625 156.482C9.48227 161.949 21.2344 160.74 31.3178 159.407Z" fill="black"/>
<path d="M447.351 601.186L0.890625 270.584V298.67L260.692 485.329L0.890625 319.735V365.961L413.998 601.186H447.351Z" fill="black"/>
<path d="M171.751 525.703C179.943 546.768 198.667 561.397 226.169 561.397C220.902 539.747 199.189 525.263 171.751 525.703Z" fill="black"/>
<path d="M19.0299 436.177C19.0438 453.265 23.1292 466.414 54.1381 471.871C49.8562 450.9 43.4839 438.902 19.0299 436.177Z" fill="black"/>
<path d="M103.29 752.152L0.890625 651.508V703L103.29 752.152Z" fill="black"/>
<path d="M381.23 980.355C302.322 888.776 256.491 838.83 163.559 759.758L215.636 841.678H185.794L151.856 796.622C116.748 788.43 0.890625 729.331 0.890625 729.331C0.890625 729.331 168.24 852.795 176.432 872.105H230.265C277.262 920.723 314.293 942.317 381.23 980.355Z" fill="black"/>
<path d="M301.651 958.705C266.657 937.816 249.907 925.037 230.265 898.436C204.839 901.434 193.587 900.079 163.559 898.436C155.954 876.647 145.927 865.811 126.11 846.944C111.794 844.159 105.733 843.287 88.0761 846.944C120.045 869.059 130.015 885.881 145.42 921.256C145.42 921.256 175.262 915.405 185.794 921.256C196.327 927.108 215.636 949.928 215.636 949.928H263.617C263.617 949.928 290.729 955.389 301.651 958.705Z" fill="black"/>
<path d="M88.0761 832.901C58.2341 796.622 27.807 798.963 0.890625 779.653C13.1785 810.665 48.2868 832.901 88.0761 832.901Z" fill="black"/>
<path d="M507.035 817.687C394.166 735.251 324.648 702.032 210.955 645.072C312.874 726.204 380.945 764.218 507.035 817.687Z" fill="black"/>
<path d="M460.224 735.768C438.574 662.04 340.27 616.985 260.692 592.409C315.695 648.582 397.029 690.712 460.224 735.768Z" fill="black"/>
<path d="M460.224 627.517C477.193 662.626 533.951 691.883 603.582 714.703C574.911 671.988 507.035 627.517 460.224 627.517Z" fill="black"/>
<path d="M522.248 601.186C535.706 601.186 547.994 608.208 550.92 621.081C538.047 621.081 526.344 611.719 522.248 601.186Z" fill="black"/>
<path d="M890.885 883.808L842.324 783.164L565.553 627.517L777.373 783.164H710.662C767.421 796.622 826.027 825.364 890.885 883.808Z" fill="black"/>
<path d="M691.943 1000.25H1007.92L904.348 879.127L933.605 958.705L814.232 846.944C814.232 846.944 759.814 846.359 747.526 841.678C735.238 836.997 610.019 752.152 610.019 752.152L752.792 910.724L646.882 852.795C646.882 852.795 752.792 958.705 752.792 972.163C752.792 985.622 691.943 1000.25 691.943 1000.25Z" fill="black"/>
<path d="M679.65 939.396C646.882 883.808 584.858 838.167 544.483 835.826C576.584 891.617 610.019 903.702 679.65 939.396Z" fill="black"/>
<path d="M627.573 828.22C589.991 763.185 556.186 719.384 494.162 714.703C498.843 767.365 554.431 797.792 627.573 828.22Z" fill="black"/>
<path d="M477.193 436.177C477.193 436.177 426.871 383.515 408.146 371.812C389.422 360.11 313.354 334.949 313.354 334.949L477.193 436.177Z" fill="black"/>
<path d="M1019.03 327.342C1019.03 327.342 962.857 239.571 930.674 239.571C898.492 239.571 892.055 251.274 867.479 251.274C842.904 251.274 745.186 200.367 745.186 200.367C745.186 200.367 806.04 256.54 836.467 270.584C866.894 284.627 897.321 279.946 920.142 284.627C942.962 289.308 1019.03 327.342 1019.03 327.342Z" fill="black"/>
<path d="M696.034 171.11C700.628 180.582 706.26 184.028 718.854 188.664C714.068 178.96 711.245 173.619 696.034 171.11Z" fill="black"/>
<path d="M962.857 218.506C932.127 186.782 909.808 174.866 867.479 156.482L892.055 200.367L807.795 175.206L591.294 63.4448L836.467 218.506H962.857Z" fill="black"/>
<path d="M856.362 137.172L635.765 0.25L793.752 137.172H856.362Z" fill="black"/>
<path d="M682.576 78.0733L561.452 4.34596L689.012 98.5531L682.576 78.0733Z" fill="black"/>
<path d="M477.193 4.34596L574.325 57.5935L498.258 0.25L477.193 4.34596Z" fill="black"/>
<path d="M912.535 712.362C925.408 704.756 937.696 703.585 948.228 712.362C933.605 716.458 925.408 716.458 912.535 712.362Z" fill="black"/>
</svg>
