<svg width="963" height="1001" viewBox="0 0 963 1001" fill="none" xmlns="http://www.w3.org/2000/svg">
<path fill-rule="evenodd" clip-rule="evenodd" d="M593.442 148.678C596.489 136.637 598.125 124.69 598.125 113.458C598.125 107.468 597.658 101.586 596.764 95.8475H942.15C953.613 95.8475 962.905 86.556 962.905 75.0928C962.905 63.6295 953.613 54.338 942.15 54.338H581.483C561.578 21.8916 525.773 0.25 484.917 0.25C444.061 0.25 408.257 21.8916 388.352 54.338H21.3953C9.93209 54.338 0.640625 63.6295 0.640625 75.0928C0.640625 86.556 9.93209 95.8475 21.3953 95.8475H373.071C372.177 101.586 371.71 107.468 371.71 113.458C371.71 124.69 373.346 136.637 376.392 148.678H21.3953C9.93209 148.678 0.640625 157.969 0.640625 169.432C0.640625 180.896 9.93209 190.187 21.3953 190.187H392.435C400.916 206.259 411.671 221.088 424.073 232.954H349.068C338.863 232.954 329.537 236.755 322.442 243.017H21.3953C9.93209 243.017 0.640625 252.309 0.640625 263.772C0.640625 275.235 9.93209 284.527 21.3953 284.527H308.817V337.357H21.3953C9.93209 337.357 0.640625 346.648 0.640625 358.112C0.640625 369.575 9.93209 378.866 21.3953 378.866H308.817V431.697H21.3953C9.93209 431.697 0.640625 440.988 0.640625 452.451C0.640625 463.914 9.93209 473.206 21.3953 473.206H308.817V526.036H21.3953C9.93209 526.036 0.640625 535.328 0.640625 546.791C0.640625 558.254 9.93209 567.546 21.3953 567.546H308.817V592.703C308.817 608.844 318.315 622.764 332.028 629.181H21.3953C9.93209 629.181 0.640625 638.472 0.640625 649.936C0.640625 661.399 9.93209 670.69 21.3953 670.69H375.483V723.52H21.3953C9.93209 723.52 0.640625 732.812 0.640625 744.275C0.640625 755.738 9.93209 765.03 21.3953 765.03H375.483V817.86H21.3953C9.93209 817.86 0.640625 827.152 0.640625 838.615C0.640625 850.078 9.93209 859.369 21.3953 859.369H375.483V912.2H21.3953C9.93209 912.2 0.640625 921.491 0.640625 932.954C0.640625 944.418 9.93209 953.709 21.3953 953.709H375.483V959.998C375.483 982.23 393.506 1000.25 415.735 1000.25H555.358C577.586 1000.25 595.609 982.23 595.609 959.998V953.709H942.15C953.613 953.709 962.905 944.418 962.905 932.954C962.905 921.491 953.613 912.2 942.15 912.2H595.609V859.369H942.15C953.613 859.369 962.905 850.078 962.905 838.615C962.905 827.152 953.613 817.86 942.15 817.86H595.609V765.03H942.15C953.613 765.03 962.905 755.738 962.905 744.275C962.905 732.812 953.613 723.52 942.15 723.52H595.609V670.69H942.15C953.613 670.69 962.905 661.399 962.905 649.936C962.905 638.472 953.613 629.181 942.15 629.181H637.806C651.52 622.764 661.018 608.844 661.018 592.703V567.546H942.15C953.613 567.546 962.905 558.254 962.905 546.791C962.905 535.328 953.613 526.036 942.15 526.036H661.018V473.206H942.15C953.613 473.206 962.905 463.914 962.905 452.451C962.905 440.988 953.613 431.697 942.15 431.697H661.018V378.866H942.15C953.613 378.866 962.905 369.575 962.905 358.112C962.905 346.648 953.613 337.357 942.15 337.357H661.018V284.527H942.15C953.613 284.527 962.905 275.235 962.905 263.772C962.905 252.309 953.613 243.017 942.15 243.017H647.393C640.298 236.755 630.972 232.954 620.766 232.954H545.761C558.163 221.088 568.919 206.259 577.4 190.187H942.15C953.613 190.187 962.905 180.896 962.905 169.432C962.905 157.969 953.613 148.678 942.15 148.678H593.442ZM593.442 148.678H376.392C379.945 162.711 385.409 176.874 392.435 190.187H577.4C584.426 176.874 589.89 162.711 593.442 148.678ZM647.393 243.017H322.442C314.084 250.392 308.817 261.183 308.817 273.206V284.527H661.018V273.206C661.018 261.183 655.751 250.392 647.393 243.017ZM661.018 337.357H308.817V378.866H661.018V337.357ZM661.018 431.697H308.817V473.206H661.018V431.697ZM661.018 526.036H308.817V567.546H661.018V526.036ZM637.806 629.181H332.028C337.202 631.601 342.98 632.954 349.068 632.954H376.191C375.729 635.399 375.483 637.922 375.483 640.502V670.69H595.609V640.502C595.609 637.922 595.363 635.399 594.902 632.954H620.766C626.854 632.954 632.633 631.601 637.806 629.181ZM595.609 723.52H375.483V765.03H595.609V723.52ZM595.609 817.86H375.483V859.369H595.609V817.86ZM595.609 912.2H375.483V953.709H595.609V912.2ZM373.071 95.8475H596.764C594.42 80.8293 589.123 66.7889 581.483 54.338H388.352C380.711 66.7889 375.415 80.8293 373.071 95.8475Z" fill="black"/>
</svg>
