<svg width="883" height="1001" viewBox="0 0 883 1001" fill="none" xmlns="http://www.w3.org/2000/svg">
<path fill-rule="evenodd" clip-rule="evenodd" d="M477.802 88.8713C474.569 73.8408 468.696 57.6169 463.126 42.2231L463.034 41.9613C460.904 36.084 458.819 30.327 456.949 24.8035C455.894 21.6926 454.906 18.6597 454.017 15.721C453.281 13.2965 452.611 10.9357 452.024 8.65267C451.56 6.839 451.145 5.07251 450.788 3.3579C450.515 2.0348 449.609 1.05604 448.505 0.577267C447.194 0.00887559 445.6 0.148025 444.442 1.25415C412.916 31.4378 398.067 63.1923 395.47 89.4633C329.747 97.6873 269.715 124.22 220.64 163.793C208.055 155.88 193.111 148.88 178.906 142.225C165.241 135.824 152.258 129.741 142.704 123.47C140.235 121.85 136.794 123.52 136.728 126.472C135.798 169.191 147.234 201.677 163.425 222.174C124.235 272.846 98.6995 334.617 92.3411 401.97C76.4686 405.024 59.0749 411.319 42.6293 417.272C28.4407 422.408 14.9574 427.288 3.76407 429.609C0.872583 430.208 -0.379764 433.823 1.66031 435.955C33.5869 469.3 67.2729 483.99 94.3647 485.255C103.645 549.655 130.541 608.362 170.013 656.331C160.937 669.72 153.081 686.489 145.654 702.342C139.253 716.007 133.171 728.991 126.9 738.545C125.279 741.014 126.949 744.455 129.902 744.521C175.984 745.523 210.156 732.137 230.22 713.915C276.778 748.865 332.379 772.422 392.881 780.452C394.202 788.412 395.544 796.452 396.881 804.469L396.909 804.631C406.661 863.063 416.216 920.31 416.216 937.458C416.216 972.477 383.612 1000.25 383.612 1000.25H495.913C495.913 1000.25 463.31 973.078 463.31 938.059C463.31 920.911 472.864 863.664 482.616 805.233L482.644 805.07C484.026 796.79 485.411 788.488 486.774 780.273C551.516 771.424 610.594 744.79 658.921 705.453C673.159 716.955 693.48 726.474 712.487 735.377C726.152 741.778 739.135 747.861 748.689 754.132C751.158 755.752 754.599 754.082 754.665 751.13C755.781 699.779 739.029 663.215 717.633 644.484C753.92 596.294 777.988 538.381 785.236 475.351C802.566 472.861 822.174 465.764 840.594 459.097C854.782 453.96 868.266 449.08 879.459 446.76C882.351 446.161 883.603 442.545 881.563 440.413C848.009 405.368 812.514 390.928 784.769 391.024C777.271 331.673 754.842 276.978 721.364 230.816C734.279 214.094 739.526 184.63 744.34 157.611C746.986 142.758 749.5 128.642 753.085 117.791C754.012 114.987 751.51 112.093 748.64 112.796C705.109 123.451 675.975 144.333 660.914 166.432C610.011 124.373 546.955 96.5033 477.802 88.8713ZM396.947 114.277C403.114 139.541 423.869 154.069 452.222 146.689C471.38 141.703 478.965 129.661 480.142 114.119C544.693 122.277 603.315 149.453 650.223 189.854C644.574 213.667 655.525 235.153 682.661 242.634C689.296 244.462 695.145 244.853 700.322 244.044C707.355 253.639 713.869 263.636 719.828 273.995C714.321 276.485 709.041 280.863 704.817 287.197C704.272 288.013 703.737 288.865 703.208 289.749C702.142 291.532 701.097 293.452 700.036 295.506C698.671 298.152 697.279 301.02 695.784 304.101C690.072 315.874 682.857 330.744 669.798 348.18C650.664 373.727 618.881 403.475 613.044 404.932C600.969 407.951 470.555 412.177 463.31 404.932C459.432 401.055 461.779 390.435 464.8 376.77L464.807 376.741C467.427 364.883 470.555 350.73 470.555 336.706C470.555 306.518 457.876 282.973 439.763 282.973C421.649 282.973 408.97 305.917 408.97 336.105C408.97 350.128 412.098 364.282 414.718 376.14L414.725 376.168C417.746 389.833 420.093 400.453 416.216 404.331C408.97 411.576 278.556 407.35 266.481 404.331C260.644 402.873 228.861 373.126 209.727 347.579C196.668 330.143 189.453 315.273 183.741 303.499L183.699 303.414C182.663 301.275 181.673 299.235 180.706 297.303C178.685 293.261 176.765 289.683 174.708 286.596C170.307 279.997 164.763 275.525 159.01 273.094C165.862 261.273 173.442 249.926 181.685 239.113C204.25 253.651 229.93 249.596 245.069 223.806C255.484 206.066 251.668 191.774 240.55 179.651C284.896 145.126 338.469 121.895 396.947 114.277ZM760.345 395.581C757.09 368.862 750.576 343.147 741.215 318.848C738.861 320.629 736.451 322.291 734.187 323.855C731.253 325.881 728.562 327.739 726.552 329.461C723.89 331.744 715.468 343.329 704.529 358.369L704.423 358.517L704.373 358.588C680.628 391.258 645.183 440.021 631.157 445.385C622.339 448.757 607.504 449.677 592.061 450.635C571.554 451.906 549.976 453.245 539.988 460.479C522.479 473.158 484.441 538.367 484.441 570.367C484.441 585.676 488.727 598.772 493.194 612.437C498.066 627.334 503.158 642.902 503.158 662.741C503.158 676.699 497.793 712.769 491 754.573C548.028 745.389 600.068 721.304 643.001 686.437C638.716 676.956 639.03 666.222 646.324 653.796C658.445 633.147 677.322 626.43 695.947 632.034C730.253 587.362 753.165 533.481 760.335 474.738C748.88 471.679 740.177 463.752 736.128 448.194C729.59 423.069 740.253 403.911 760.345 395.581ZM388.657 754.785C381.801 712.637 376.367 676.189 376.367 662.14C376.367 642.3 381.459 626.732 386.331 611.836L386.346 611.801C390.808 598.147 395.084 585.063 395.084 569.766C395.084 537.766 357.046 472.557 339.537 459.877C329.549 452.644 307.971 451.304 287.464 450.033C272.021 449.076 257.186 448.156 248.368 444.783C234.342 439.42 198.897 390.656 175.152 357.987C169.928 350.801 165.27 344.393 161.532 339.397C157.39 333.864 154.378 330.065 152.973 328.86C151.586 327.671 149.876 326.419 147.982 325.089L146.697 324.192L145.338 323.254C142.831 321.523 140.147 319.669 137.558 317.671C127.369 343.817 120.48 371.616 117.407 400.555C131.551 402.43 142.423 410.218 147.095 428.175C154.043 454.877 141.565 474.84 118.985 482.226C127.485 540.509 151.52 593.749 186.753 637.612C198.071 628.963 211.255 626.798 227.236 636.18C251.076 650.173 256.342 673.173 245.521 694.394C286.74 725.229 335.556 746.464 388.657 754.785Z" fill="black"/>
</svg>
