<svg width="884" height="1001" viewBox="0 0 884 1001" fill="none" xmlns="http://www.w3.org/2000/svg">
<path fill-rule="evenodd" clip-rule="evenodd" d="M441.843 0.125C336.537 0.125 289.86 38.87 225.648 92.1698C174.524 134.607 112.287 186.268 0.5 234.946C0.5 812.625 441.843 1000.13 441.843 1000.13C441.843 1000.13 883.186 812.625 883.186 234.946C771.399 186.268 709.162 134.606 658.04 92.1715C593.826 38.87 547.149 0.125 441.843 0.125ZM203.658 382.977C203.658 266.098 263.202 243.181 263.202 243.181C263.202 243.181 322.746 266.098 322.746 382.977V632.777H203.658V382.977ZM203.658 701.514V655.679H322.746V701.514H203.658ZM441.786 243.181C441.786 243.181 382.243 266.098 382.243 382.977V632.777H501.332V382.977C501.332 266.098 441.786 243.181 441.786 243.181ZM382.243 655.679H501.332V701.514H382.243V655.679ZM620.484 243.181C620.484 243.181 560.941 266.098 560.941 382.977V632.777H680.028V382.977C680.028 266.098 620.484 243.181 620.484 243.181ZM560.941 701.514V655.679H680.028V701.514H560.941Z" fill="black"/>
</svg>
