<svg width="996" height="1001" viewBox="0 0 996 1001" fill="none" xmlns="http://www.w3.org/2000/svg">
<path fill-rule="evenodd" clip-rule="evenodd" d="M498.278 0.125C435.189 0.125 407.222 23.3247 368.754 55.2391C338.122 80.6489 300.833 111.583 233.861 140.73C233.861 486.628 498.278 598.898 498.278 598.898C498.278 598.898 762.695 486.628 762.695 140.73C695.724 111.583 658.434 80.6489 627.808 55.2403C589.335 23.3247 561.368 0.125 498.278 0.125ZM355.578 229.366C355.578 159.383 391.252 145.66 391.252 145.66C391.252 145.66 426.926 159.383 426.926 229.366V378.94H355.578V229.366ZM355.578 420.098V392.653H426.926V420.098H355.578ZM498.245 145.66C498.245 145.66 462.571 159.383 462.571 229.366V378.94H533.919V229.366C533.919 159.383 498.245 145.66 498.245 145.66ZM533.919 392.653V420.098H462.571V392.653H533.919ZM605.305 145.66C605.305 145.66 569.631 159.383 569.631 229.366V378.94H640.979V229.366C640.979 159.383 605.305 145.66 605.305 145.66ZM569.631 420.098V392.653H640.979V420.098H569.631Z" fill="black"/>
<path d="M129.591 6.59428C123.508 1.19562 114.205 1.74861 108.804 7.82966C103.407 13.9107 103.958 23.2174 110.04 28.6161L185.759 95.8395C191.841 101.238 201.149 100.685 206.546 94.6035C211.948 88.5225 211.392 79.2164 205.309 73.8177L129.591 6.59428Z" fill="black"/>
<path d="M30.8079 160.218C33.1852 152.442 41.4195 148.068 49.1937 150.448L171.294 187.822C179.068 190.201 183.444 198.434 181.062 206.21C178.685 213.986 170.45 218.36 162.676 215.979L40.576 178.606C32.8018 176.226 28.4258 167.993 30.8079 160.218Z" fill="black"/>
<path d="M0.64594 330.337C0.300848 322.213 6.60836 315.346 14.7324 315L187.993 307.622C196.117 307.276 202.985 313.582 203.33 321.706C203.675 329.83 197.372 336.697 189.244 337.043L15.9834 344.421C7.85932 344.767 0.995825 338.461 0.64594 330.337Z" fill="black"/>
<path d="M8.6885 498.524C1.32175 501.969 -1.86077 510.732 1.58536 518.099C5.03149 525.465 13.793 528.644 21.1597 525.2L230.683 427.229C238.05 423.784 241.228 415.021 237.782 407.654C234.34 400.288 225.574 397.109 218.207 400.553L8.6885 498.524Z" fill="black"/>
<path d="M47.3101 710.24C41.4914 715.923 41.386 725.245 47.0704 731.061C52.75 736.877 62.0723 736.986 67.891 731.303L286.852 517.368C292.666 511.686 292.776 502.363 287.092 496.547C281.407 490.731 272.085 490.622 266.271 496.305L47.3101 710.24Z" fill="black"/>
<path d="M162.398 955.434C158.875 962.762 161.957 971.56 169.286 975.084C176.614 978.607 185.414 975.523 188.937 968.194L366.976 597.901C370.498 590.572 367.412 581.774 360.083 578.251C352.755 574.727 343.96 577.811 340.432 585.14L162.398 955.434Z" fill="black"/>
<path d="M887.37 7.82966C881.968 1.74861 872.665 1.19562 866.583 6.59428L790.859 73.8177C784.781 79.2164 784.225 88.5225 789.627 94.6035C795.024 100.685 804.332 101.238 810.409 95.8395L886.133 28.6161C892.215 23.2174 892.766 13.9107 887.37 7.82966Z" fill="black"/>
<path d="M946.979 150.448C954.754 148.068 962.988 152.442 965.365 160.218C967.747 167.993 963.371 176.226 955.597 178.606L833.497 215.979C825.723 218.36 817.488 213.986 815.106 206.21C812.729 198.434 817.1 190.201 824.879 187.822L946.979 150.448Z" fill="black"/>
<path d="M981.441 315C989.565 315.346 995.872 322.213 995.522 330.337C995.177 338.461 988.314 344.767 980.185 344.421L806.925 337.043C798.801 336.697 792.498 329.83 792.843 321.706C793.188 313.582 800.056 307.276 808.18 307.622L981.441 315Z" fill="black"/>
<path d="M994.588 518.099C998.029 510.732 994.851 501.969 987.485 498.524L777.961 400.553C770.599 397.109 761.833 400.288 758.387 407.654C754.945 415.021 758.123 423.784 765.49 427.229L975.013 525.2C982.38 528.644 991.142 525.465 994.588 518.099Z" fill="black"/>
<path d="M949.103 731.061C954.787 725.245 954.677 715.923 948.863 710.24L729.902 496.305C724.083 490.622 714.761 490.731 709.082 496.547C703.397 502.363 703.507 511.686 709.321 517.368L928.282 731.303C934.101 736.986 943.418 736.877 949.103 731.061Z" fill="black"/>
<path d="M826.883 975.084C834.211 971.56 837.298 962.762 833.775 955.434L655.736 585.14C652.213 577.811 643.418 574.727 636.09 578.251C628.757 581.774 625.675 590.572 629.198 597.901L807.236 968.194C810.759 975.523 819.554 978.607 826.883 975.084Z" fill="black"/>
<path d="M532.021 666.996C532.021 685.632 516.913 700.739 498.278 700.739C479.643 700.739 464.536 685.632 464.536 666.996C464.536 648.361 479.643 633.254 498.278 633.254C516.913 633.254 532.021 648.361 532.021 666.996Z" fill="black"/>
<path d="M435.088 722.824C435.088 720.114 437.283 717.916 439.996 717.916H555.333C558.046 717.916 560.241 720.114 560.241 722.824V849.205C560.241 851.915 558.046 854.113 555.333 854.113H528.34V995.217C528.34 996.216 528.042 997.146 527.53 997.921C526.648 999.249 525.143 1000.13 523.432 1000.13H471.898C469.185 1000.13 466.99 997.927 466.99 995.217V854.113H439.996C437.283 854.113 435.088 851.915 435.088 849.205V722.824Z" fill="black"/>
</svg>
