<svg width="895" height="1001" viewBox="0 0 895 1001" fill="none" xmlns="http://www.w3.org/2000/svg">
<path fill-rule="evenodd" clip-rule="evenodd" d="M281.254 259.468C328.246 218.325 379.44 173.503 448.424 173.504C518.25 173.505 571.458 219.429 619.595 260.976C659.355 295.294 695.656 326.625 735.005 326.625C735.005 546.474 652.784 699.003 448.424 823.528C251.809 718.664 162.438 502.983 162.438 326.625C204.55 326.625 241.39 294.37 281.254 259.468ZM410.888 513.708V706.748L602.737 433.87H489.534V237.851L292.919 513.708H410.888Z" fill="black"/>
<path fill-rule="evenodd" clip-rule="evenodd" d="M109.366 291.148C95.9248 541.517 218.411 753.545 447.729 883.223C568.843 808.601 652.736 731.903 706.8 638.556C760.396 546.016 785.464 435.747 786.78 292.196C764.781 287.011 742.703 274.648 720.982 259.916C703.133 247.81 684.278 233.188 664.995 218.235C656.142 211.37 647.199 204.435 638.222 197.641C579.785 153.419 517.453 113.328 448.057 113.328C378.571 113.328 328.074 146.875 276.074 187.458C269.901 192.276 263.693 197.209 257.422 202.191C214.174 236.556 167.941 273.294 109.366 291.148ZM258.479 164.912C311.068 123.87 368.231 84.7291 448.057 84.7291C527.974 84.7291 597.198 130.732 655.479 174.837C665.131 182.141 674.431 189.354 683.452 196.351C702.309 210.977 719.947 224.657 737.035 236.248C762.358 253.423 783.825 264.063 802.548 265.923L815.434 267.203V280.153C815.434 432.772 789.95 552.05 731.548 652.888C673.175 753.676 582.751 834.6 455.488 912.005L448.401 916.316L441.142 912.304C195.147 776.377 63.1568 548.508 81.4427 279.184L82.14 268.915L92.0996 266.316C149.235 251.411 193.263 216.518 239.409 179.948C245.714 174.952 252.057 169.924 258.479 164.912Z" fill="black"/>
<path fill-rule="evenodd" clip-rule="evenodd" d="M31.9802 239.121C6.51646 528.103 128.838 824.152 447.212 968.635C606.12 892.224 714.635 794.309 781.301 673.278C847.22 553.603 872.962 409.985 864.439 239.554C833.111 236.435 803.541 222.867 775.081 204.996C748.797 188.492 722.249 167.496 695.391 146.254C689.143 141.313 682.878 136.358 676.596 131.443C608.921 78.5001 537.258 28.7252 447.395 28.7236C357.196 28.7219 276.191 78.8733 204.341 131.699C191.674 141.012 179.175 150.498 166.972 159.759C145.295 176.211 124.551 191.954 105.458 204.761C80.5511 221.467 55.6764 235.215 31.9802 239.121ZM187.401 108.657C259.393 55.7269 347.071 0.123172 447.395 0.125C548.056 0.126835 626.71 56.107 694.217 108.918C700.821 114.084 707.302 119.208 713.683 124.253C740.451 145.415 765.451 165.181 790.289 180.777C820.909 200.004 849.428 211.635 878.013 211.635H891.487L892.287 225.085C902.979 404.706 877.271 558.321 806.351 687.076C735.365 815.95 619.859 918.508 453.517 997.315L447.586 1000.12L441.588 997.459C101.138 846.154 -26.4156 528.962 4.6449 224.483L5.95556 211.635H18.8704C36.9082 211.635 59.9476 200.851 89.5272 181.01C108.011 168.612 127.513 153.804 148.627 137.772C160.962 128.406 173.847 118.622 187.401 108.657Z" fill="black"/>
</svg>
