<svg width="798" height="1001" viewBox="0 0 798 1001" fill="none" xmlns="http://www.w3.org/2000/svg">
<path d="M674.582 898.966C681.152 897.593 685.797 894.493 686.806 890.092C688.7 881.832 677.083 872.121 660.856 868.399C644.629 864.678 629.94 868.356 628.046 876.616C626.55 883.138 633.481 890.566 644.454 895.235C631.801 896.153 622.526 900.686 620.875 907.884C618.559 917.984 632.044 929.903 651.896 936.164C638.946 938.949 629.816 945.116 627.816 953.836C624.027 970.354 647.263 989.778 679.717 997.221C712.171 1004.66 741.548 997.307 745.336 980.788C749.06 964.55 726.673 945.505 695.079 937.792C701.245 935.617 705.407 932.107 706.461 927.512C708.81 917.268 694.902 905.151 674.582 898.966Z" fill="black"/>
<path d="M540.609 508.502C573.979 467.547 615.698 430.334 656.165 396.574C656.165 396.574 813.436 263.019 796.05 229.445C778.664 195.872 754.875 220.577 737.138 210.441C719.401 200.306 747.907 156.597 699.763 154.696C651.62 152.796 638.314 252.107 611.707 250.983C585.1 249.859 586.688 210.447 587 202.841C590.118 126.827 678.839 0.126241 564.814 0.125C476.074 0.124034 431.313 101.493 320.29 190.165C147.384 328.264 -21.1466 378.302 2.92101 419.476C26.9886 460.65 111.206 391.641 210.059 328.258C307.342 265.882 386.912 170.149 414.674 197.259C427.039 209.335 356.227 271.115 285.447 316.856C197.325 373.802 108.66 413.127 125.814 439.748C135.151 454.237 209.89 408.309 281.013 356.764C340.559 313.609 398.073 262.917 407.706 275.047C417.748 287.693 376.328 325.992 327.889 359.931C274.376 397.425 213.272 430.784 225.268 444.801C238.614 460.394 298.276 423.704 347.526 387.17C382.618 361.139 410.866 330.693 420.375 339.66C431.772 350.408 408.789 374.222 384.216 396.574C359.516 419.044 322.188 435.284 327.889 444.801C330.856 449.753 370.223 446.773 402.004 424.544C431.291 404.061 446.98 359.931 473.586 359.931C500.191 359.931 498.924 371.967 512.227 371.967C525.53 371.967 578.107 349.796 578.107 349.796C558.222 378.658 528.126 416.5 506.026 445.964L506.025 445.965L506.024 445.966L506.023 445.968L506.014 445.979L506.006 445.99C495.632 459.821 485.287 473.612 475.229 487.265C428.611 550.544 370.301 602.026 327.166 631.062L327.137 631.081L327.121 631.092L327.112 631.098L327.11 631.099C312.352 640.882 263.307 662.106 261.999 691.207C260.691 720.309 262.109 732.36 273.76 745.972C285.351 759.514 302.976 768.81 321.795 775.455C340.615 782.1 378.48 779.636 405.203 793.867C431.722 807.989 494.817 969.383 605.443 971.842C606.842 971.873 608 970.736 608 969.336L608 853.31C608 852.233 607.341 851.286 606.333 850.908C540.22 826.093 467.073 698.801 475.229 642.639C482.28 594.076 507.237 549.457 540.609 508.502Z" fill="black"/>
</svg>
