<svg width="603" height="1001" viewBox="0 0 603 1001" fill="none" xmlns="http://www.w3.org/2000/svg">
<path d="M301.313 0.125C404.316 75.3698 471.731 111.63 602.082 164.714C602.082 169.831 602.176 177.777 602.285 186.927C602.559 210.121 602.925 241.046 602.082 253.242C486.083 196.717 403.843 151.085 301.313 76.1849C217.64 135.47 141.169 187.349 0.545069 253.242C-0.288624 241.153 0.0655434 212.757 0.338167 190.898C0.448109 182.072 0.544663 174.312 0.544663 169.117C142.321 102.697 217.287 59.6604 301.313 0.125Z" fill="black"/>
<path d="M602.073 304.78C471.721 251.697 404.306 215.436 301.304 140.192C217.278 199.727 142.312 242.764 0.535332 309.183C0.535332 314.378 0.438778 322.139 0.328836 330.965C0.0562126 352.824 -0.297955 381.22 0.535738 393.309C141.16 327.415 217.631 275.537 301.304 216.251C403.834 291.152 486.074 336.783 602.073 393.309C602.915 381.113 602.549 350.187 602.275 326.993C602.167 317.843 602.073 309.897 602.073 304.78Z" fill="black"/>
<path fill-rule="evenodd" clip-rule="evenodd" d="M301.625 306.858C404.627 382.168 472.042 416.522 602.393 469.651C602.393 870.137 301.625 1000.13 301.625 1000.13C301.625 1000.13 0.855827 870.137 0.855827 469.651C142.633 403.173 217.598 366.446 301.625 306.858ZM346.156 461.605H263.231V582.468H142.033V671.724H263.231V789.668H346.156V671.724H467.354V582.468H346.156V461.605Z" fill="black"/>
</svg>
