<svg width="1040" height="1001" viewBox="0 0 1040 1001" fill="none" xmlns="http://www.w3.org/2000/svg">
<path d="M905.074 578.798C823.586 619.659 705.414 660.503 558.034 660.503C546.921 660.503 537.912 651.494 537.912 640.382C537.912 629.269 546.921 620.26 558.034 620.26C697.838 620.26 809.841 581.534 887.036 542.825C925.631 523.471 955.474 504.147 975.66 489.732C985.748 482.529 993.427 476.549 998.591 472.397C1001.17 470.32 1003.14 468.69 1004.53 467.541C1004.53 467.541 1008.11 464.691 1008.79 464.262C1009.1 464.067 1009.84 463.61 1010.82 463.133L1010.83 463.132C1010.93 463.076 1014.61 461.12 1019.6 461.12H1039.72V501.362H1026.76C1025.88 502.086 1024.89 502.887 1023.81 503.761C1018.14 508.312 1009.85 514.766 999.046 522.482C977.447 537.906 945.82 558.366 905.074 578.798Z" fill="black"/>
<path fill-rule="evenodd" clip-rule="evenodd" d="M86.1302 793.445C82.6447 705.394 80.7136 656.609 102.645 623.752C129.893 582.93 193.977 566.694 337.678 530.286L337.72 530.276C353.115 526.375 369.423 522.244 386.698 517.825C388.95 593.917 395.287 653.826 400.341 701.605C419.91 886.607 420.245 889.772 89.7588 946.468C89.7592 885.12 87.7722 834.925 86.1302 793.445ZM323.896 589.774C298.897 575.75 243.411 586.725 212.924 600.139C182.437 613.553 148.902 642.211 148.902 657.454C148.902 672.698 176.95 684.892 210.485 684.283C244.02 683.673 273.897 673.307 289.751 661.722C305.604 650.137 348.895 603.798 323.896 589.774ZM109.269 772.694C109.269 758.06 134.878 730.622 148.902 730.622C163.918 730.622 167.386 745.977 167.804 765.987C168.221 785.997 149.362 806.324 129.39 805.01C111.948 803.863 109.269 787.328 109.269 772.694Z" fill="black"/>
<path fill-rule="evenodd" clip-rule="evenodd" d="M225.769 0.197291L225.733 20.3185C225.727 23.3557 225.011 25.9965 224.844 26.6117C224.844 26.6117 222.054 35.2316 221.304 37.4151C219.272 43.3468 216.501 51.5605 213.403 62.0508C207.21 83.0238 199.658 113.27 194.369 151.966C184.056 227.409 182.292 335.33 216.327 469.556C240.852 464.124 284.819 455.141 326.004 446.846C352.892 441.43 378.919 436.244 398.222 432.412C400.63 431.632 407.143 422.614 415.482 411.068C432.695 387.234 457.689 352.627 470.422 357.465C489.324 364.647 494.316 396.488 494.316 396.488C527.242 406.244 781.806 451.396 1038.5 314.784V380.635C798.903 484.021 582.754 451.564 502.9 439.573C483.384 436.642 472.009 434.934 470.422 436.73C462.344 445.876 456.496 489.732 456.496 489.732C463.606 516.357 469.115 542.687 472.044 562.953C475.041 583.692 476.89 601.835 477.992 614.81C478.013 615.011 478.31 619.112 478.649 623.776L478.654 623.853L478.656 623.87L478.658 623.909C479.101 630.009 479.61 637.016 479.66 637.516C479.836 639.29 480.087 641.879 480.39 645.175C480.996 651.767 481.808 661.196 482.642 672.602C484.306 695.384 486.066 725.327 486.414 757.225C486.761 788.98 483.246 819.34 479.123 847.27C477.065 861.209 474.148 874.424 469.932 885.595C465.868 896.363 459.752 907.54 449.832 914.625C422.051 934.469 385.908 953.329 347.352 966.747C327.848 973.535 308.941 979.191 292.889 983.174C277.38 987.022 262.98 989.714 253.231 989.714L8.62507 1000.12C8.62507 1000.12 0.0437321 676.023 0.117662 670.972C0.26513 660.895 0.716501 647.132 1.94458 632.523C3.16447 618.011 5.1909 602.156 8.62446 588.078C11.8426 574.883 17.0661 559.773 26.8286 550.01C35.077 541.762 49.112 533.627 63.523 526.365C78.6074 518.763 96.4559 510.987 114.159 503.836C136.911 494.646 160.047 486.239 177.556 480.378C141.893 340.267 143.526 226.78 154.497 146.516C160.105 105.489 168.139 73.238 174.809 50.6531C178.142 39.3644 181.817 28.5115 183.929 22.3484C184.602 20.3891 185.11 18.9087 185.495 17.7353L185.527 0.125L225.769 0.197291ZM417.184 473.322C408.38 475.07 396.249 475.418 383.11 475.794C367.475 476.242 350.413 476.731 335.827 479.669C282.434 490.424 226.311 505.393 212.277 509.136L211.704 509.289C199.022 512.671 162.451 523.786 127.861 537.758C110.657 544.707 93.8269 552.06 79.9871 559.035C65.4738 566.349 56.3389 572.238 52.6975 575.879C50.5702 578.007 47.1804 584.39 44.1667 596.746C41.3684 608.22 39.5444 621.975 38.4001 635.587C37.2639 649.103 36.8478 661.442 36.7084 670.972V967.199L249 956.788C253.887 956.788 264.488 955.136 279.847 951.324C294.664 947.648 312.493 942.328 331.097 935.854C368.756 922.748 405.132 901.595 428.568 884.855C429.777 883.992 432.616 880.862 435.704 872.678C438.641 864.897 441.073 854.516 442.931 841.928C446.64 816.802 450.171 788.662 449.832 757.625C449.495 726.732 447.786 697.593 446.155 675.268C445.34 664.121 444.547 654.921 443.96 648.522C443.746 645.148 442.066 624.111 441.539 617.904C440.484 605.481 438.71 588.07 435.836 568.186C431.117 535.533 419.111 504.242 420.522 482.036C419.412 479.142 418.298 476.238 417.184 473.322Z" fill="black"/>
<path d="M324.506 20.2808L324.505 0.159536L284.263 0.160852L284.264 20.2821C284.266 92.6444 284.499 144.382 296.237 195.619C308.084 247.332 331.313 297.364 375.079 368.056C380.928 377.505 393.33 380.422 402.778 374.572C412.227 368.723 415.144 356.321 409.295 346.873C366.561 277.847 345.891 232.151 335.463 186.633C324.927 140.64 324.508 93.6449 324.506 20.2808Z" fill="black"/>
</svg>
