<svg width="913" height="1001" viewBox="0 0 913 1001" fill="none" xmlns="http://www.w3.org/2000/svg">
<path d="M503.822 0.125C643.641 108.755 735.156 158.309 912.102 234.945C912.102 339.83 898.642 431.853 876.612 512.227H579.618L670.701 367.641H103.13C98.2136 325.893 95.5414 281.697 95.5414 234.945C287.998 139.054 389.759 86.0768 503.822 0.125Z" fill="black"/>
<path d="M847.815 599.488C732.822 894.959 503.822 1000.13 503.822 1000.13C503.822 1000.13 274.821 894.959 159.828 599.488H422.293L330.573 751.717L847.815 599.488Z" fill="black"/>
<path d="M191.944 430.698C281.753 430.698 299.363 488.023 299.363 488.023C299.363 488.023 281.753 545.348 191.944 545.348H0V430.698H191.944Z" fill="black"/>
</svg>
