<svg width="1004" height="1001" viewBox="0 0 1004 1001" fill="none" xmlns="http://www.w3.org/2000/svg">
<path fill-rule="evenodd" clip-rule="evenodd" d="M518.28 139.994L451.613 0.125L407.169 156.127C298.253 188.603 209.385 267.596 163.623 370.06L0.632812 379.864L133.027 479.864C131.056 495.709 130.045 511.851 130.045 528.23C130.045 581.002 140.574 631.315 159.65 677.182L84.2929 819.079L224.305 781.824C246.109 807.074 271.109 829.485 298.672 848.428V1000.13L401.286 898.527C406.26 900.095 411.264 901.566 416.319 902.938V1000.13H455.535V911.421C475.96 914.74 496.915 916.465 518.28 916.465L519.587 916.463V1000.13H558.803V914.375C596.844 910.429 633.261 900.99 667.228 886.864L808.476 996.203L754.228 836.565C797.273 803.574 833.21 761.77 859.354 713.851H1003.9L896.599 615.811C903.084 587.665 906.515 558.347 906.515 528.23C906.515 478.919 897.324 431.756 880.555 388.36L982.986 252.413L820.445 284.439C749.275 196.338 640.359 139.994 518.28 139.994ZM455.535 881.394C475.909 884.988 496.875 886.864 518.28 886.864L519.587 886.861V706.097C503.135 695.476 480.198 680.233 455.535 662.529V881.394ZM416.319 633.206C373.253 599.529 332.393 561.931 317.606 531.228C281.546 456.344 310.151 373.033 387.765 362.922C465.38 352.81 504.044 408.989 504.044 408.989C504.044 408.989 522.069 345.423 599.683 335.311C660.008 327.452 708.159 369.93 716.973 427.576V826.839C795.945 774.191 852.839 691.051 870.853 594.243L771.875 541.955L876.113 504.047C868.596 391.194 808.884 292.625 720.894 232.273L637.234 287.707L643.77 192.163C604.708 177.572 562.428 169.596 518.28 169.596C425.03 169.596 340.094 205.186 276.307 263.524L315.012 343.916L218.801 330.844C183.21 384.744 161.775 448.821 159.793 517.772L238.541 567.445L172.304 623.001C204.953 742.487 297.845 837.097 416.319 872.163V633.206ZM558.803 884.6C601.123 879.841 641.207 867.718 677.757 849.544V552.829C641.135 612.314 584.773 677.625 558.803 706.645V884.6Z" fill="black"/>
</svg>
