<svg width="881" height="1001" viewBox="0 0 881 1001" fill="none" xmlns="http://www.w3.org/2000/svg">
<path d="M536.613 96.0245C536.613 148.988 493.677 191.924 440.713 191.924C387.749 191.924 344.814 148.988 344.814 96.0245C344.814 43.0607 387.749 0.125 440.713 0.125C493.677 0.125 536.613 43.0607 536.613 96.0245Z" fill="black"/>
<path d="M273.385 289.808C273.385 252.55 303.591 222.347 340.846 222.347H539.258C576.512 222.347 606.719 252.55 606.719 289.808V489.748C503.612 507.912 375.548 507.89 273.385 489.137V289.808Z" fill="black"/>
<path d="M262.576 527.484C244.891 526.322 227.023 524.962 209.473 523.375C162.262 519.105 118.478 513.283 86.9439 505.559C72.9652 502.135 62.3843 498.481 55.5016 495.16C54.0469 494.458 53.6742 492.608 54.88 491.534C55.8865 490.637 57.1643 489.661 58.7861 488.604C66.4387 483.614 78.1842 479.456 92.2284 476.403C105.876 473.435 119.814 471.9 130.53 471.124C135.838 470.739 144.688 470.457 147.724 470.363C161.595 470.353 172.856 459.104 172.856 445.23C172.856 431.35 161.604 420.099 147.724 420.099L147.422 420.108C143.523 420.229 132.835 420.56 126.897 420.991C114.801 421.867 98.3207 423.639 81.5494 427.286C65.1742 430.846 46.4983 436.609 31.3306 446.5C15.7293 456.673 0.912914 473.432 0.898444 498.126C0.88582 519.676 18.0767 532.013 28.8108 537.944C41.2755 544.831 57.5499 550.109 74.9853 554.38C110.278 563.025 157.091 569.107 204.945 573.435C227.61 575.485 250.762 577.162 273.385 578.529V588.749C273.385 616.616 290.281 640.537 314.39 650.824V667.208C345.859 669.121 378.987 670.313 412.274 670.706V621.818C412.274 612.321 419.973 604.622 429.47 604.622H451.957C461.454 604.622 469.152 612.321 469.152 621.818V670.581C503.404 670.013 536.572 668.535 567.036 666.109V650.243C590.432 639.655 606.719 616.103 606.719 588.749V575.208C630.334 573.26 654.559 570.998 678.211 568.43C725.69 563.275 771.821 556.786 806.44 548.892C823.546 544.991 839.204 540.452 851.089 534.97C856.95 532.268 863.332 528.694 868.613 523.805C873.849 518.957 880.528 510.354 880.528 498.14C880.528 474.412 862.855 459.605 849.9 451.687C835.786 443.062 818.281 436.945 802.598 432.589C786.766 428.191 751.228 422.269 739.124 420.252C725.328 418.719 712.902 428.66 711.37 442.455C709.837 456.248 719.774 468.671 733.565 470.208L750.818 472.708C761.466 474.482 775.411 477.205 789.145 481.02C797.022 483.208 807.526 487.356 814.23 490.13C816.499 491.069 816.312 494.257 813.952 494.936C808.624 496.47 801.17 498.539 795.265 499.886C763.539 507.12 719.72 513.363 672.785 518.459C666.79 519.11 660.761 519.741 654.716 520.351C539.852 547.771 384.019 550.397 262.576 527.484Z" fill="black"/>
<path d="M209.473 698.642C222.629 699.832 235.964 700.894 249.267 701.841C307.36 707.648 375.474 710.7 441.926 710.525C517.571 710.325 592.678 705.949 649.152 696.174C657.06 695.393 664.952 694.577 672.785 693.726C719.72 688.63 763.539 682.387 795.265 675.153C801.17 673.806 808.624 671.737 813.952 670.203C816.312 669.524 816.499 666.336 814.23 665.397C807.526 662.623 797.022 658.475 789.145 656.287C775.411 652.472 761.466 649.749 750.818 647.975L733.565 645.475C719.774 643.938 709.837 631.515 711.37 617.722C712.902 603.927 725.328 593.986 739.124 595.519C751.228 597.536 786.766 603.458 802.598 607.856C818.281 612.213 835.786 618.329 849.9 626.954C862.855 634.872 880.528 649.679 880.528 673.408C880.528 685.621 873.849 694.224 868.613 699.072C863.332 703.961 856.95 707.535 851.089 710.237C839.204 715.719 823.546 720.258 806.44 724.159C771.821 732.054 725.69 738.542 678.211 743.697C641.038 747.733 602.451 751.012 567.036 753.509V841.406C561.271 842.343 555.236 843.213 548.946 844.012C524.679 847.095 497.524 849.018 469.152 849.848V758.83C458.092 759.2 448.878 759.386 442.005 759.386C434.687 759.386 424.563 759.305 412.274 759.103V850.091C378.54 849.43 345.064 847.38 314.39 844.14V755.984C279.498 754.356 241.586 752.016 204.945 748.702C157.091 744.374 110.278 738.292 74.9853 729.647C57.5499 725.376 41.2755 720.098 28.8108 713.211C18.0767 707.28 0.88582 694.944 0.898444 673.393C0.912914 648.699 15.7293 631.941 31.3306 621.767C46.4983 611.876 65.1742 606.113 81.5494 602.553C98.3207 598.906 114.801 597.134 126.897 596.258C132.835 595.827 143.523 595.496 147.422 595.375L147.724 595.366C161.604 595.366 172.856 606.617 172.856 620.498C172.856 634.371 161.595 645.62 147.724 645.63C144.688 645.725 135.838 646.006 130.53 646.391C119.814 647.168 105.876 648.703 92.2284 651.67C78.1842 654.723 66.4387 658.881 58.7861 663.871C57.1643 664.928 55.8865 665.904 54.88 666.801C53.6742 667.876 54.0469 669.725 55.5016 670.427C62.3843 673.748 72.9652 677.402 86.9439 680.826C118.478 688.55 162.262 694.372 209.473 698.642Z" fill="black"/>
<path d="M250.77 875.228C236.969 874.254 223.125 873.157 209.473 871.922C162.262 867.653 118.478 861.83 86.9439 854.106C72.9652 850.682 62.3843 847.029 55.5016 843.708C54.0469 843.006 53.6742 841.156 54.88 840.081C55.8865 839.184 57.1643 838.209 58.7861 837.151C66.4387 832.161 78.1842 828.004 92.2284 824.95C105.876 821.983 119.814 820.448 130.53 819.671C135.838 819.287 144.688 819.005 147.724 818.911C161.595 818.9 172.856 807.652 172.856 793.778C172.856 779.898 161.604 768.646 147.724 768.646L147.422 768.655L147.417 768.656C143.514 768.777 132.832 769.108 126.897 769.538C114.801 770.415 98.3207 772.187 81.5494 775.833C65.1742 779.394 46.4983 785.157 31.3306 795.048C15.7293 805.221 0.912914 821.98 0.898444 846.673C0.88582 868.224 18.0767 880.561 28.8108 886.492C41.2755 893.378 57.5499 898.657 74.9853 902.927C110.278 911.572 157.091 917.655 204.945 921.983C241.586 925.297 279.498 927.637 314.39 929.264V951.183C314.39 978.213 336.299 1000.12 363.332 1000.12C390.366 1000.12 412.274 978.213 412.274 951.183V932.383C424.563 932.585 434.687 932.667 442.005 932.667C448.878 932.667 458.092 932.48 469.152 932.11V951.183C469.152 978.213 491.06 1000.12 518.094 1000.12C545.128 1000.12 567.036 978.213 567.036 951.183V926.789C602.451 924.293 641.038 921.014 678.211 916.978C725.69 911.823 771.821 905.334 806.44 897.44C823.546 893.539 839.204 888.999 851.089 883.518C856.95 880.815 863.332 877.241 868.613 872.353C873.849 867.505 880.528 858.901 880.528 846.688C880.528 822.959 862.855 808.152 849.9 800.235C835.786 791.61 818.281 785.493 802.598 781.137C786.766 776.739 751.23 770.817 739.125 768.8C725.329 767.267 712.902 777.207 711.37 791.003C709.837 804.795 719.774 817.219 733.565 818.756L750.818 821.255C761.466 823.03 775.411 825.752 789.145 829.567C797.022 831.755 807.526 835.903 814.23 838.677C816.499 839.616 816.312 842.805 813.952 843.484C808.624 845.017 801.17 847.087 795.265 848.433C763.539 855.668 719.72 861.911 672.785 867.007C651.83 869.282 630.444 871.309 609.481 873.085C592.787 877.483 573.897 880.843 553.948 883.378C517.596 887.996 475.835 890.089 433.559 890.005C369.505 889.878 302.77 884.746 250.77 875.228Z" fill="black"/>
</svg>
