<svg width="1049" height="1001" viewBox="0 0 1049 1001" fill="none" xmlns="http://www.w3.org/2000/svg">
<path d="M834.136 8.77055C936.441 28.2241 946.528 76.4945 946.528 76.4945C946.528 76.4945 927.796 121.935 834.136 141.336C798.286 148.762 773.376 151.422 743.267 151.422C672.175 151.422 622.32 151.421 622.32 151.421V0.125C622.32 0.125 672.175 0.125327 743.267 0.12533C773.376 0.125332 798.17 1.93149 834.136 8.77055Z" fill="black"/>
<path d="M415.433 204.736C520.466 224.19 530.822 272.46 530.822 272.46C530.822 272.46 511.59 317.901 415.433 337.302C378.627 344.728 353.052 347.387 322.141 347.387C249.153 347.387 197.969 347.387 197.969 347.387V196.09C197.969 196.09 249.153 196.091 322.141 196.091C353.052 196.091 378.507 197.897 415.433 204.736Z" fill="black"/>
<path d="M287.306 528.944C287.306 528.944 276.951 480.674 171.917 461.22C134.992 454.381 109.537 452.575 78.6249 452.575L13.5308 452.575V603.871L78.6249 603.871C109.537 603.871 135.111 601.212 171.917 593.786C268.074 574.385 287.306 528.944 287.306 528.944Z" fill="black"/>
<path d="M13.5308 855.906V704.826C39.6539 705.261 63.1995 707.39 95.5481 713.382C200.582 732.835 210.937 781.106 210.937 781.106C210.937 781.106 191.706 826.547 95.5481 845.947C63.3023 852.453 39.677 855.301 13.5308 855.906Z" fill="black"/>
<path d="M0.5625 270.298C0.5625 256.371 11.8521 245.082 25.7786 245.082H142.493C156.42 245.082 167.709 256.371 167.709 270.298C167.709 284.224 156.42 295.514 142.493 295.514H25.7786C11.8521 295.514 0.5625 284.224 0.5625 270.298Z" fill="black"/>
<path d="M25.7786 43.3527C11.8521 43.3527 0.5625 54.6423 0.5625 68.5688C0.5625 82.4953 11.8522 93.7849 25.7786 93.7849H553.156C567.083 93.7849 578.372 82.4953 578.372 68.5688C578.372 54.6423 567.083 43.3527 553.156 43.3527H25.7786Z" fill="black"/>
<path d="M916.989 283.987C562.657 283.987 329.813 551.109 329.813 864.678C329.813 879.798 317.556 892.056 302.436 892.056C287.316 892.056 275.058 879.798 275.058 864.678C275.058 522.628 530.686 229.232 916.989 229.232C932.109 229.232 944.367 241.489 944.367 256.609C944.367 271.729 932.109 283.987 916.989 283.987Z" fill="black"/>
<path d="M604.438 554.111C528.31 628.48 482.551 735.213 482.551 864.678C482.551 879.798 470.294 892.056 455.173 892.056C440.053 892.056 427.796 879.798 427.796 864.678C427.796 721.81 478.579 600.516 566.175 514.943C653.702 429.439 776.279 381.249 916.989 381.249C932.109 381.249 944.367 393.506 944.367 408.626C944.367 423.747 932.109 436.004 916.989 436.004C788.967 436.004 680.637 479.672 604.438 554.111Z" fill="black"/>
<path d="M916.989 585.86C728.561 585.86 631.686 728.032 631.686 864.678C631.686 879.798 619.429 892.056 604.309 892.056C589.189 892.056 576.931 879.798 576.931 864.678C576.931 703.054 693.313 531.105 916.989 531.105C932.109 531.105 944.367 543.362 944.367 558.482C944.367 573.603 932.109 585.86 916.989 585.86Z" fill="black"/>
<path fill-rule="evenodd" clip-rule="evenodd" d="M896.096 1000.12C980.052 1000.12 1048.11 932.065 1048.11 848.108C1048.11 764.151 980.052 696.09 896.096 696.09C812.139 696.09 744.078 764.151 744.078 848.108C744.078 932.065 812.139 1000.12 896.096 1000.12ZM896.096 909.757C862.047 909.757 834.446 882.156 834.446 848.108C834.446 814.059 862.047 786.458 896.096 786.458C930.144 786.458 957.745 814.059 957.745 848.108C957.745 882.156 930.144 909.757 896.096 909.757Z" fill="black"/>
</svg>
