<svg width="1098" height="1098" viewBox="0 0 1098 1098" fill="none" xmlns="http://www.w3.org/2000/svg">
<path fill-rule="evenodd" clip-rule="evenodd" d="M549.238 720.548C643.895 720.548 720.626 643.825 720.626 549.16C720.626 454.495 643.895 377.772 549.238 377.772C454.581 377.772 377.85 454.495 377.85 549.16C377.85 643.825 454.581 720.548 549.238 720.548ZM549.238 651.993C606.027 651.993 652.071 605.966 652.071 549.16C652.071 492.354 606.027 446.327 549.238 446.327C492.449 446.327 446.405 492.354 446.405 549.16C446.405 605.966 492.449 651.993 549.238 651.993Z" fill="black"/>
<path fill-rule="evenodd" clip-rule="evenodd" d="M549.238 891.936C738.551 891.936 892.014 738.457 892.014 549.16C892.014 359.863 738.551 206.384 549.238 206.384C359.925 206.384 206.462 359.863 206.462 549.16C206.462 738.457 359.925 891.936 549.238 891.936ZM549.238 823.381C700.684 823.381 823.459 700.597 823.459 549.16C823.459 397.723 700.684 274.939 549.238 274.939C397.793 274.939 275.018 397.723 275.018 549.16C275.018 700.597 397.793 823.381 549.238 823.381Z" fill="black"/>
<path fill-rule="evenodd" clip-rule="evenodd" d="M549.238 1097.6C852.138 1097.6 1097.68 852.068 1097.68 549.16C1097.68 246.252 852.138 0.71875 549.238 0.71875C246.338 0.71875 0.796875 246.252 0.796875 549.16C0.796875 852.068 246.338 1097.6 549.238 1097.6ZM549.238 994.769C795.34 994.769 994.847 795.262 994.847 549.16C994.847 303.058 795.34 103.551 549.238 103.551C303.136 103.551 103.63 303.058 103.63 549.16C103.63 795.262 303.136 994.769 549.238 994.769Z" fill="black"/>
</svg>
