<svg width="1243" height="1098" viewBox="0 0 1243 1098" fill="none" xmlns="http://www.w3.org/2000/svg">
<path d="M1241.94 534.821C1242.25 696.93 1242.62 859.035 1242.88 1021.14C1242.95 1080 1226.37 1095.98 1165.89 1096.06C833.007 1096.58 500.119 1097.05 167.234 1097.51C163.896 1097.51 160.608 1097.51 157.269 1097.56C142.62 1097.79 127.926 1097.61 124.968 1078.95C122.054 1060.62 135.93 1055.45 149.505 1050.52C181.312 1038.92 213.215 1027.56 245.023 1015.96C321.862 987.969 398.796 960.321 475.395 931.742C516.574 916.369 510.56 948.664 483.629 913.946C471.556 898.37 458.631 883.512 446.405 868.077C436.822 855.96 431.137 843.216 439.24 827.594C447.551 811.583 461.623 809.985 477.205 810.855C584.917 816.761 692.583 822.613 800.3 828.519C806.923 828.863 649.939 1041.03 672.356 871.445C719.255 873.316 412.944 363.752 410.2 317.565C404.714 224.896 893.221 511.689 887.583 419.019C886.305 397.882 885.924 376.71 884.997 355.529C884.398 342.272 888.445 331.334 900.949 324.871C913.9 318.221 926.891 319.196 938.467 327.679C956.453 340.803 973.577 354.99 991.517 368.163C1025.86 393.36 1057.07 385.369 1071.9 346.335C1110.95 243.624 1148.91 140.456 1187.91 37.6952C1194.08 21.3618 1195.16 -3.89545 1222.38 1.44716C1247.31 6.36465 1240.74 29.2426 1240.84 46.1094C1241.54 209.051 1241.69 371.887 1241.94 534.821Z" fill="black"/>
<path d="M76.5695 575.931C102.96 601.877 130.792 617.341 163.897 622.801C224.988 632.911 286.023 643.093 347.045 653.957C374.201 658.801 394.941 651.09 405.256 623.427C415.252 596.412 401.527 579.237 380.689 565.546C280.213 499.448 179.952 432.961 79.1997 367.202C60.8949 355.29 40.4482 348.119 19.8233 362.688C-3.04825 378.76 -2.37898 402.299 4.61158 425.733C21.0393 480.944 29.3461 540.72 76.6335 575.987L76.5695 575.931Z" fill="black"/>
</svg>
