<svg width="1080" height="1098" viewBox="0 0 1080 1098" fill="none" xmlns="http://www.w3.org/2000/svg">
<path fill-rule="evenodd" clip-rule="evenodd" d="M914.837 284.104C832.245 163.85 695.057 85.0943 539.942 85.0943C287.866 85.0943 83.1275 293.083 83.1275 549.16C83.1275 650.348 115.095 744.027 169.32 820.333L123.821 898.424C46.537 803.53 0.0703125 681.811 0.0703125 549.16C0.0703125 246.484 241.995 0.71875 539.942 0.71875C837.893 0.71875 1079.81 246.484 1079.81 549.16C1079.81 572.459 1061.22 591.348 1038.29 591.348C1015.35 591.348 996.757 572.459 996.757 549.16C996.757 451.138 966.757 360.16 915.585 285.199L916.274 284.104H914.837ZM218.778 879.009C233.986 894.298 250.244 908.499 267.431 921.509L199.036 974.303C190.95 967.604 183.059 960.668 175.372 953.513L218.778 879.009ZM262.105 1019.39L335.727 964.296C397.2 995.6 466.565 1013.23 539.942 1013.23C688.439 1013.23 821.083 940.739 904.547 828.074L831.523 796.668L1029.02 644.792L1060.4 895.108L983.003 861.822C885.493 1004.43 723.003 1097.6 539.942 1097.6C438.362 1097.6 343.294 1069.03 262.105 1019.39Z" fill="black"/>
<path d="M853.343 247.209H402.239L207.221 591.063H379.586L121.39 1023.65L885.703 515.222H695.472L853.343 247.209Z" fill="black"/>
</svg>
