<svg width="1106" height="1098" viewBox="0 0 1106 1098" fill="none" xmlns="http://www.w3.org/2000/svg">
<path d="M656.448 943.352L518.267 789.103H690.993L829.175 943.352L690.993 1097.6H518.267L656.448 943.352Z" fill="black"/>
<path d="M345.54 943.352L207.358 789.103H380.085L518.267 943.352L380.085 1097.6H207.358L345.54 943.352Z" fill="black"/>
<path d="M898.266 86.4127C898.266 86.4127 867.784 0.718771 712.33 0.718764C526.395 0.718756 380.085 0.71875 380.085 0.71875V172.107C380.085 172.107 526.395 172.107 712.33 172.107C867.784 172.107 898.266 86.4127 898.266 86.4127Z" fill="black"/>
<path d="M898.266 600.576C898.266 600.576 867.784 514.882 712.33 514.882C526.395 514.882 380.085 514.882 380.085 514.882V686.27C380.085 686.27 526.395 686.27 712.33 686.27C867.784 686.27 898.266 600.576 898.266 600.576Z" fill="black"/>
<path d="M1105.54 343.495C1105.54 343.495 1075.06 274.939 919.603 274.939C733.667 274.939 587.357 274.939 587.357 274.939V412.05C587.357 412.05 733.667 412.05 919.603 412.05C1075.06 412.05 1105.54 343.495 1105.54 343.495Z" fill="black"/>
<path d="M0.0859375 583.438H345.54V617.715H0.0859375V583.438Z" fill="black"/>
<path d="M0.0859375 69.2739H345.54V103.552H0.0859375V69.2739Z" fill="black"/>
<path d="M0.0859375 309.217H552.812V377.772H0.0859375V309.217Z" fill="black"/>
</svg>
