<?xml version="1.0" encoding="UTF-8"?>
<svg id="Layer_2" data-name="Layer 2" xmlns="http://www.w3.org/2000/svg" viewBox="0 0 235.46 170.37">
  <defs>
    <style>
      .cls-1 {
        fill-rule: evenodd;
      }
    </style>
  </defs>
  <g id="Layer_1-2" data-name="Layer 1">
    <g>
      <path class="cls-1" d="M74.17,69.64L38.99,27.87c-.46-.46-1.05-.72-1.65-.72s-1.19.26-1.65.72L.52,69.64c-1.19,1.38-.2,3.49,1.65,3.49h15.55v59.43h39.27v-59.43h15.55c1.84,0,2.83-2.11,1.65-3.49Z"/>
      <path class="cls-1" d="M235.39,115.82l-37.03-1.12-48.69-29.52L163.12.2l-96.19-.2,10.54,48.03,9.29,11c4.68,5.47,5.73,13.24,2.7,19.83-2.77,5.8-8.3,9.82-14.63,10.54l-1.38,18.91-.33,4.61-4.22,36.1-2.44,21.15,47.31.07,6.06-16.47,40.91,16.6,39.79-14.69,34.92-23.32-.07-16.54Z"/>
    </g>
  </g>
</svg>