<?xml version="1.0" encoding="UTF-8"?>
<svg id="Layer_2" data-name="Layer 2" xmlns="http://www.w3.org/2000/svg" viewBox="0 0 235.46 170.37">
  <defs>
    <style>
      .cls-1 {
        fill-rule: evenodd;
      }
    </style>
  </defs>
  <g id="Layer_1-2" data-name="Layer 1">
    <g>
      <path class="cls-1" d="M74.18,101.59c.73-.86.66-2.04-.07-2.77v-.07c-.4-.4-.92-.66-1.58-.66h-15.55v-59.43H17.71v59.43H2.1c-1.78,0-2.77,2.11-1.58,3.49l35.18,41.7c.4.53,1.06.79,1.65.79s1.19-.26,1.65-.79l34.92-41.38.26-.33Z"/>
      <path class="cls-1" d="M75.36,81.89c6.06.86,11.4,4.81,14.03,10.48,3.03,6.52,2.04,14.36-2.64,19.83l-15.75,18.71-4.61,39.33h47.3l6.13-16.47,40.91,16.6,39.79-14.69,34.92-23.32-.07-16.54-37.09-1.05-48.62-29.58L163.12.2l-96.19-.2,4.88,22.2,1.65,7.44,4.88,22.2-2.97,30.04Z"/>
    </g>
  </g>
</svg>