<svg width="746" height="1098" viewBox="0 0 746 1098" fill="none" xmlns="http://www.w3.org/2000/svg">
<path d="M190.484 317.464C244.72 271.674 373.089 238.387 373.089 238.387C373.089 238.387 501.459 271.674 555.694 317.464C598.873 353.92 651.44 398.302 745.858 440.122C745.858 936.403 373.089 1097.48 373.089 1097.48C373.089 1097.48 0.320312 936.403 0.320312 440.122C94.7378 398.302 147.305 353.92 190.484 317.464Z" fill="black"/>
<path d="M373.089 107.989C373.089 107.989 252.579 140.517 201.664 185.261C161.129 220.887 111.78 264.256 23.1429 305.119C23.1429 332.487 24.2579 358.813 26.361 384.127C106.454 344.261 153.598 302.883 192.873 268.409C246.399 221.429 373.089 187.274 373.089 187.274C373.089 187.274 499.779 221.429 553.305 268.409C592.58 302.883 639.724 344.261 719.817 384.127C721.92 358.813 723.035 332.487 723.035 305.119C634.398 264.256 585.049 220.887 544.514 185.261C493.599 140.517 373.089 107.989 373.089 107.989Z" fill="black"/>
<path d="M373.089 0.601562C373.089 0.601562 252.579 33.1302 201.664 77.8742C161.129 113.5 111.78 156.868 23.1429 197.732C23.1429 225.1 24.2579 251.426 26.361 276.74C106.454 236.874 153.598 195.496 192.873 161.022C246.399 114.042 373.089 79.8873 373.089 79.8873C373.089 79.8873 499.779 114.042 553.305 161.022C592.58 195.496 639.724 236.874 719.817 276.74C721.92 251.426 723.035 225.1 723.035 197.732C634.398 156.868 585.049 113.5 544.514 77.8742C493.599 33.1302 373.089 0.601562 373.089 0.601562Z" fill="black"/>
</svg>
