<?xml version="1.0" encoding="UTF-8"?>
<svg id="Layer_2" data-name="Layer 2" xmlns="http://www.w3.org/2000/svg" viewBox="0 0 170.22 168.91">
  <g id="Layer_1-2" data-name="Layer 1">
    <g>
      <path d="M162.33,65.5L104.14,7.8c-10.55-10.4-27.69-10.4-38.2,0l-12.28,12.19,24.56,25.62,14.45-19.99c1.73-2.41,3.08-1.88,3.08.96v37.28l9.54,9.97h16.91c2.84.1,3.8,1.97,2.17,4.29l-6.41,8.91,29.77,31.02,14.74-14.64c10.36-10.45,10.36-27.6-.14-37.91Z"/>
      <path d="M77.56,143c-1.78,2.41-3.13,1.88-3.13-.91v-44.84l-2.31-2.41h-24.13c-2.99,0-3.9-1.88-2.17-4.29l9.54-13.2-28.99-30.2-18.45,18.35c-10.55,10.45-10.55,27.45,0,37.91l58.18,57.7c10.5,10.4,27.65,10.4,38.2,0l16.09-15.99-25.33-26.35-17.48,24.23Z"/>
      <path d="M112.24,94.93l-39.74-41.37-25.67-26.73-15.51-16.18s-6.85-4.66-12.72,1.21c-6.45,6.45-1.2,12.13-1.2,12.13l15.75,16.42,27.89,29.04,39.74,41.37,26.44,27.55,17.24,17.92s5.87,5.55,12.32-.91c6.74-6.74,1.55-12.43,1.55-12.43l-17.44-18.16-28.66-29.86Z"/>
    </g>
  </g>
</svg>