<svg width="695" height="1098" viewBox="0 0 695 1098" fill="none" xmlns="http://www.w3.org/2000/svg">
<path fill-rule="evenodd" clip-rule="evenodd" d="M196.022 134.739C228.286 87.9346 307.608 23.9485 371.886 0.71875C370.181 4.52341 368.458 8.32015 366.741 12.1082C364.997 15.9494 363.258 19.7816 361.547 23.6043C356.643 34.5225 351.543 45.3713 346.442 56.2198C334.811 80.9615 323.18 105.7 313.909 131.25C301.568 165.25 312.693 191.995 342.914 217.152C395.755 261.165 447.017 307.965 492.739 358.93C548.096 420.596 548.196 490.791 507.632 561.905C506.896 563.194 506.16 564.483 505.42 565.772C488.384 595.531 471.224 625.512 475.528 661.895C475.624 662.739 475.531 663.617 475.437 664.488C475.335 665.466 475.232 666.444 475.395 667.37C480.024 693.254 488.547 720.24 514.942 729.031C542.504 738.22 559.245 714.363 572.107 694.652C582.102 679.36 590.531 663.099 598.966 646.825C603.599 637.889 608.231 628.949 613.129 620.165C616.069 614.888 619.733 609.994 623.393 605.107C625.008 602.953 626.62 600.802 628.168 598.617C630.516 600.467 633.078 602.185 635.64 603.907C641.284 607.697 646.93 611.49 650.295 616.658C709.181 707.757 707.657 801.717 657.094 894.422C615.761 970.134 561.747 1035.48 478.168 1072.52C357.382 1126.04 183.728 1091.36 87.0752 992.889C-4.11264 899.977 -25.9089 753.497 34.9138 637.7C71.4925 567.911 133.534 525.406 203.19 491.592C214.686 486.016 226.395 480.818 238.103 475.62C245.135 472.497 252.167 469.377 259.151 466.172C305.293 445.002 320.147 398.71 290.126 357.544C264.896 322.992 235.581 291.087 206.35 259.559C166.866 216.966 163.183 182.394 196.022 134.739ZM377.044 622.7C400.252 593.179 392.52 563.398 353.752 534.498C360.871 584.757 330.481 609.674 299.896 634.75C292.898 640.488 285.89 646.234 279.319 652.294C237.322 690.825 211.903 738.308 201.158 794.149C182.86 889.032 260.5 931.028 332.346 921.878C403.964 912.752 432.571 854.599 397.512 792.778C394.37 787.257 390.929 781.885 387.483 776.51C384.009 771.09 380.533 765.663 377.355 760.072C351.268 714.448 340.008 669.711 377.044 622.7Z" fill="black"/>
</svg>
