<svg width="1029" height="1098" viewBox="0 0 1029 1098" fill="none" xmlns="http://www.w3.org/2000/svg">
<path fill-rule="evenodd" clip-rule="evenodd" d="M733.956 16.0976C726.978 -4.56377 697.728 -4.56377 690.749 16.0976L661.945 101.4C660.208 106.52 656.703 110.87 652.07 113.66L573.883 160.563C559.124 169.425 559.124 190.798 573.883 199.66L652.07 246.563C656.703 249.354 660.208 253.703 661.945 258.823L690.749 344.126C693.629 352.631 700.281 357.633 707.587 359.132C718.039 361.284 729.858 356.282 733.956 344.126L762.76 258.823C764.501 253.703 768.005 249.354 772.635 246.563L850.822 199.66C865.578 190.798 865.578 169.425 850.822 160.563L772.635 113.66C768.005 110.87 764.501 106.52 762.76 101.4L733.956 16.0976ZM272.651 137.275C279.66 116.658 308.82 116.658 315.829 137.275L389.473 353.997C391.211 359.132 394.73 363.466 399.377 366.242L576.897 472.116C591.729 480.963 591.729 502.425 576.897 511.272L399.377 617.146C394.73 619.921 391.211 624.256 389.473 629.391L315.829 846.115C308.82 866.733 279.66 866.733 272.651 846.115L199.006 629.391C197.269 624.256 193.75 619.921 189.102 617.146L11.583 511.272C3.32772 506.344 -0.339689 497.512 0.595713 489.112C1.35295 482.432 5.00549 476.035 11.583 472.116L189.102 366.242C193.75 363.466 197.269 359.132 199.006 353.997L272.651 137.275ZM766.781 516.912C773.821 496.325 802.922 496.325 809.961 516.912L867.068 684.192C868.816 689.328 872.351 693.662 877.011 696.423L1017.61 779.87C1032.5 788.7 1032.5 810.253 1017.61 819.083L877.011 902.534C875.111 903.659 873.408 905.042 871.918 906.646C870.823 907.831 869.843 909.138 869.014 910.529C868.223 911.851 867.569 913.28 867.068 914.762L809.961 1082.04C802.922 1102.63 773.821 1102.63 766.781 1082.04L709.68 914.762C707.928 909.625 704.395 905.293 699.732 902.534L559.138 819.083C544.246 810.253 544.246 788.7 559.138 779.87L699.732 696.423C704.395 693.662 707.928 689.328 709.68 684.192L766.781 516.912Z" fill="black"/>
</svg>
