<svg width="892" height="1098" viewBox="0 0 892 1098" fill="none" xmlns="http://www.w3.org/2000/svg">
<path fill-rule="evenodd" clip-rule="evenodd" d="M877.3 171.205C893.873 183.066 896.097 207.107 881.987 221.88L698.138 414.377C688.843 424.109 686.243 438.551 691.548 450.981L764.237 621.29C766.526 626.653 770.16 631.316 774.777 634.818L853.514 694.531C867.813 705.375 871.033 725.759 860.788 740.582L853.45 751.198C847.119 760.358 836.694 765.716 825.657 765.482L689.328 762.593C686.714 762.537 684.116 762.168 681.587 761.493L543.832 724.711C535.81 722.569 528.875 717.452 524.401 710.374L460.427 609.153C450.316 593.155 429.114 588.86 413.707 599.687L406.422 604.807C395.005 612.83 379.856 612.772 368.499 604.661L272.641 536.195C256.481 524.653 253.858 501.424 267.027 486.484L387.514 349.789L462.296 256.758L532.857 174.08C535.131 171.416 536.976 168.406 538.324 165.16L598.104 21.2454C606.303 1.50709 630.423 -5.48464 647.689 6.87216L877.3 171.205Z" fill="black"/>
<path d="M507.869 1092.44C499.627 1084.98 498.919 1072.16 506.286 1063.81L739.198 799.88C746.565 791.531 759.219 790.814 767.46 798.277C775.701 805.74 776.41 818.558 769.043 826.906L536.131 1090.84C528.764 1099.19 516.11 1099.9 507.869 1092.44Z" fill="black"/>
<path d="M214.252 653.378C217.483 641.801 229.367 635.069 240.796 638.343L489.186 709.48C500.615 712.753 507.26 724.791 504.029 736.368C500.798 747.945 488.914 754.677 477.485 751.404L229.095 680.267C217.666 676.994 211.021 664.956 214.252 653.378Z" fill="black"/>
<path d="M220.634 646.244C228.834 637.54 242.446 637.219 251.037 645.525L459.508 847.082C468.1 855.388 468.417 869.177 460.217 877.88C452.018 886.584 438.405 886.905 429.814 878.599L221.343 677.042C212.751 668.736 212.434 654.947 220.634 646.244Z" fill="black"/>
<path d="M147.822 786.092C150.788 774.443 162.515 767.434 174.015 770.438L447.222 841.811C458.722 844.815 465.641 856.694 462.675 868.344C459.709 879.994 447.982 887.003 436.482 883.998L163.275 812.626C151.775 809.622 144.856 797.742 147.822 786.092Z" fill="black"/>
<path d="M153.428 778.107C161.934 769.711 175.548 769.889 183.837 778.505L384.194 986.777C392.483 995.393 392.307 1009.19 383.802 1017.58C375.296 1025.98 361.681 1025.8 353.392 1017.18L153.035 808.912C144.746 800.296 144.922 786.504 153.428 778.107Z" fill="black"/>
<path d="M79.0288 934.769C81.7227 923.051 93.2834 915.765 104.85 918.493L372.846 981.719C384.413 984.448 391.606 996.159 388.913 1007.88C386.219 1019.59 374.658 1026.88 363.091 1024.15L95.095 960.926C83.528 958.197 76.3349 946.486 79.0288 934.769Z" fill="black"/>
<path d="M83.9406 926.065C91.7327 916.985 105.315 916.024 114.278 923.917L216.169 1013.65C225.132 1021.54 226.081 1035.3 218.289 1044.38C210.497 1053.46 196.914 1054.42 187.951 1046.53L86.0607 956.797C77.0977 948.904 76.1485 935.144 83.9406 926.065Z" fill="black"/>
<path d="M6.56744 591.795C-1.58204 584.225 -2.12986 571.395 5.34385 563.139L449.203 72.8558C456.677 64.6004 469.342 64.0455 477.491 71.6163C485.641 79.1872 486.188 92.0169 478.715 100.272L34.8557 590.556C27.382 598.811 14.7169 599.366 6.56744 591.795Z" fill="black"/>
<path d="M12.3867 362.202C4.2396 354.634 3.69194 341.808 11.1635 333.555L231.328 90.3621C238.8 82.1091 251.461 81.5544 259.608 89.123C267.755 96.6917 268.303 109.518 260.831 117.771L40.6667 360.963C33.1952 369.216 20.5338 369.771 12.3867 362.202Z" fill="black"/>
</svg>
