<svg width="1107" height="1098" viewBox="0 0 1107 1098" fill="none" xmlns="http://www.w3.org/2000/svg">
<path d="M1054.67 426.174L676.873 51.5648C608.502 -16.2299 497.18 -16.2299 428.808 51.5648L51.888 426.174C-16.4835 493.968 -16.4835 604.353 51.888 672.147L429.684 1046.76C498.056 1114.55 609.38 1114.55 677.75 1046.76L1055.55 672.147C1123.04 604.353 1123.04 493.1 1054.67 426.174ZM808.357 507.876L504.192 929.416C492.796 945.064 484.031 941.585 484.031 923.34V616.521H312.226C292.941 616.521 286.806 604.353 298.201 588.708L602.367 167.164C613.762 151.518 622.527 154.995 622.527 173.247V480.062H794.332C812.741 480.932 818.876 493.1 808.357 507.876Z" fill="black"/>
</svg>
