<?xml version="1.0" encoding="UTF-8"?>
<svg id="Layer_2" data-name="Layer 2" xmlns="http://www.w3.org/2000/svg" viewBox="0 0 226.85 167.27">
  <g id="Layer_1-2" data-name="Layer 1">
    <g>
      <polygon points="67.77 100.59 50.6 71.02 33.43 100.59 0 107.78 22.82 133.25 19.33 167.27 50.6 153.43 81.88 167.27 78.38 133.25 101.2 107.78 67.77 100.59"/>
      <polygon points="226.85 49.48 206.06 45.01 195.38 26.61 184.7 45.01 163.91 49.48 178.1 65.32 175.93 86.47 195.38 77.87 214.83 86.47 212.66 65.32 226.85 49.48"/>
      <path d="M192.24,92.33c-7.61,0-8.16,4.14-8.16,4.14-8.6,24.69-35.64,43.29-68.43,45.53,0,0-5.44.46-5.44,8.26,0,8.43,5.44,8.56,5.44,8.56,42.34-2.51,77.09-28.38,85.86-62.34,0,0-.57-4.14-9.27-4.14Z"/>
      <path d="M169.9,18.77S132.08,0,108.79,0C62.2,0,23.32,28.27,15.39,65.41c0,0-.3,7.5,8.48,7.5,7.02,0,8.5-6.66,8.5-6.66,7.6-28.27,38.99-49.49,76.42-49.49,19.38,0,50.83,15.19,50.83,15.19,7.14,2.8,17.55-5.91,10.28-13.18Z"/>
    </g>
  </g>
</svg>