<?xml version="1.0" encoding="UTF-8"?>
<svg id="Layer_2" data-name="Layer 2" xmlns="http://www.w3.org/2000/svg" viewBox="0 0 219.6 130.51">
  <g id="Layer_1-2" data-name="Layer 1">
    <g>
      <path d="M109.8,0C45.03,0,0,65.26,0,65.26c0,0,45.03,65.25,109.8,65.25s109.8-65.25,109.8-65.25c0,0-45.02-65.26-109.8-65.26ZM111.76,108.79c-24.82,0-44.94-20.12-44.94-44.95s20.12-44.94,44.94-44.94,44.95,20.12,44.95,44.94-20.13,44.95-44.95,44.95Z"/>
      <path d="M136.59,63.88c0,13.71-11.12,24.83-24.83,24.83s-24.82-11.12-24.82-24.83,11.11-24.83,24.82-24.83,24.83,11.12,24.83,24.83Z"/>
    </g>
  </g>
</svg>