<svg width="1038" height="1098" viewBox="0 0 1038 1098" fill="none" xmlns="http://www.w3.org/2000/svg">
<path fill-rule="evenodd" clip-rule="evenodd" d="M602.292 7.68276C605.297 12.986 608.311 18.3127 610.471 23.9797C656.941 145.697 747.726 213.9 871.226 238.58C903.013 244.941 935.701 246.565 968.401 248.189C983.381 248.933 998.365 249.677 1013.26 250.877C1019.01 251.343 1024.75 251.778 1032.85 252.39L1037.25 252.724C1034.08 266.646 1031.11 280.381 1028.17 293.962C1021.97 322.594 1015.93 350.55 1008.48 378.136C961.22 552.863 887.936 716.048 794.905 870.754C772.003 908.823 739.828 934.759 703.872 957.467C583.616 1033.48 451.555 1074.69 311.969 1096.22C279.297 1101.26 258.43 1090.89 236.482 1070.54C150.062 990.373 78.2324 898.834 21.5753 795.079C7.56689 769.436 0.791298 742.571 0.458754 713.068C-1.95219 494.145 36.4983 281.558 96.4808 72.2469C102.425 51.429 110.531 47.106 127.781 55.2483C277.468 125.719 420.378 105.908 558.593 22.6785C563.701 19.6075 568.782 16.4885 573.866 13.3673C579.41 9.96346 584.966 6.55304 590.558 3.20379C591.634 2.52489 592.885 2.17983 594.734 1.6684C595.744 1.38938 596.936 1.06084 598.373 0.601562C599.624 2.97642 600.957 5.32747 602.292 7.68276ZM368.447 277.981L462.473 408.747L359.017 850.178C299.352 711.928 178.88 433.744 174.322 427.003C169.763 420.265 301.84 324.847 368.447 277.981ZM509.963 420.078L652.06 345.734C690.801 417.771 766.516 562.837 759.448 566.801C752.383 570.761 521.209 764.924 406.506 861.512L509.963 420.078Z" fill="black"/>
</svg>
