<svg width="1106" height="1098" viewBox="0 0 1106 1098" fill="none" xmlns="http://www.w3.org/2000/svg">
<path d="M384.96 161.651L355.176 57.4722C354.593 55.0461 353.474 52.7796 351.897 50.8377C350.322 48.8963 348.329 47.3284 346.065 46.2485C343.8 45.1685 341.325 44.6038 338.812 44.5955C336.3 44.5872 333.821 45.135 331.55 46.1999C220.975 94.2504 129.283 176.938 70.4861 281.625C11.6887 386.313 -10.9798 507.243 5.94448 625.932C6.24272 628.402 7.08792 630.778 8.41928 632.886C9.75065 634.993 11.535 636.781 13.6447 638.124C15.7548 639.467 18.1375 640.328 20.6225 640.647C23.1071 640.969 25.6325 640.737 28.0169 639.972L133.002 610.366C138.181 608.665 142.632 605.278 145.633 600.754C148.635 596.23 150.013 590.832 149.543 585.434C142.058 504.59 159.358 423.388 199.171 352.486C238.984 281.581 299.45 224.289 372.636 188.129C377.346 185.688 381.111 181.767 383.338 176.976C385.569 172.186 386.139 166.796 384.96 161.651Z" fill="black"/>
<path d="M942.788 381.882L1047.77 352.273C1050.2 351.665 1052.46 350.531 1054.39 348.963C1056.32 347.39 1057.89 345.416 1058.97 343.176C1060.06 340.939 1060.63 338.489 1060.66 336.006C1060.68 333.523 1060.16 331.067 1059.12 328.807C1010.65 219.21 927.445 128.352 822.173 70.0698C716.904 11.7874 595.337 -10.7245 475.992 5.9632C473.496 6.24254 471.095 7.07165 468.964 8.38951C466.83 9.7073 465.021 11.4813 463.668 13.5813C462.315 15.6816 461.447 18.0556 461.135 20.5302C460.821 23.0048 461.068 25.5177 461.856 27.886L491.639 132.064C493.321 137.228 496.724 141.669 501.287 144.655C505.849 147.642 511.3 148.995 516.74 148.493C598.138 141.059 679.894 158.241 751.283 197.784C822.672 237.327 880.353 297.382 916.763 370.069C919.265 374.537 923.141 378.093 927.824 380.217C932.504 382.341 937.749 382.926 942.788 381.882Z" fill="black"/>
<path d="M751.29 1040.13L721.479 935.852C720.294 930.779 720.809 925.458 722.947 920.701C725.087 915.945 728.735 912.016 733.335 909.51C806.519 873.349 866.984 816.055 906.797 745.153C946.61 674.248 963.909 593.046 956.425 512.202C955.936 506.801 957.306 501.396 960.311 496.866C963.316 492.338 967.778 488.958 972.966 487.27L1078.42 457.531C1080.81 456.783 1083.33 456.567 1085.81 456.896C1088.29 457.222 1090.66 458.086 1092.76 459.425C1094.87 460.765 1096.65 462.547 1097.99 464.644C1099.33 466.745 1100.18 469.108 1100.5 471.571C1117.39 590.257 1094.7 711.173 1035.91 815.853C977.117 920.535 885.445 1003.23 774.893 1051.3C772.628 1052.36 770.156 1052.91 767.654 1052.91C765.152 1052.9 762.679 1052.34 760.422 1051.27C758.164 1050.2 756.171 1048.65 754.593 1046.72C753.015 1044.79 751.886 1042.54 751.29 1040.13Z" fill="black"/>
<path d="M163.32 715.697L58.3345 745.306C55.9015 745.901 53.6313 747.021 51.6864 748.59C49.7414 750.159 48.1703 752.137 47.0853 754.381C46.0006 756.624 45.4292 759.077 45.4121 761.567C45.3946 764.053 45.932 766.513 46.9855 768.773C95.3872 878.584 178.659 969.635 284.074 1028.01C389.489 1086.39 511.249 1108.88 630.749 1092.04C633.234 1091.77 635.626 1090.94 637.753 1089.63C639.88 1088.32 641.686 1086.56 643.043 1084.47C644.399 1082.38 645.27 1080.02 645.592 1077.55C645.917 1075.09 645.682 1072.58 644.912 1070.22L615.101 965.946C613.42 960.781 610.016 956.34 605.454 953.352C600.891 950.367 595.441 949.014 590.001 949.516C508.603 956.952 426.846 939.767 355.458 900.226C284.069 860.682 226.386 800.626 189.978 727.939C187.496 723.282 183.544 719.563 178.728 717.352C173.913 715.142 168.499 714.56 163.32 715.697Z" fill="black"/>
<path fill-rule="evenodd" clip-rule="evenodd" d="M295.916 406.183C333.951 338.449 397.518 288.493 472.635 267.309C547.753 246.124 628.27 255.446 696.466 293.222C764.666 330.997 814.964 394.134 836.292 468.742C857.621 543.35 848.238 623.32 810.204 691.054C772.17 758.788 708.599 808.743 633.482 829.929C558.365 851.112 477.851 841.792 409.652 804.016C341.452 766.24 291.156 703.103 269.826 628.495C248.497 553.887 257.882 473.921 295.916 406.183ZM481.355 676.319C515.453 695.205 555.712 699.865 593.27 689.272L593.324 689.462C611.939 684.213 629.325 675.372 644.496 663.442C659.665 651.513 672.32 636.728 681.733 619.939C691.147 603.15 697.133 584.679 699.354 565.59C701.575 546.498 699.987 527.16 694.674 508.679C684.011 471.375 658.864 439.808 624.762 420.921C590.664 402.032 550.406 397.372 512.847 407.965C475.289 418.555 443.505 443.534 424.488 477.401C405.471 511.271 400.778 551.254 411.444 588.558C422.106 625.862 447.257 657.429 481.355 676.319Z" fill="black"/>
</svg>
