<?xml version="1.0" encoding="UTF-8"?>
<svg id="Layer_2" data-name="Layer 2" xmlns="http://www.w3.org/2000/svg" viewBox="0 0 46.17 31.58">
  <defs>
    <style>
      .cls-1 {
        fill: #efdfbf;
      }

      .cls-2 {
        fill: #212020;
      }
    </style>
  </defs>
  <g id="Layer_1-2" data-name="Layer 1">
    <g>
      <path class="cls-1" d="M23.08,29.08c-1.6,0-3.11-.62-4.24-1.76L4.26,12.74c-1.13-1.13-1.76-2.64-1.76-4.24s.62-3.11,1.76-4.24c1.13-1.13,2.64-1.76,4.24-1.76s3.11.62,4.24,1.76l10.34,10.34,10.34-10.34c1.13-1.13,2.64-1.76,4.24-1.76s3.11.62,4.24,1.76c1.13,1.13,1.76,2.64,1.76,4.24s-.62,3.11-1.76,4.24l-14.58,14.58c-1.13,1.13-2.64,1.76-4.24,1.76Z"/>
      <path class="cls-2" d="M37.67,5c.9,0,1.79.34,2.47,1.03,1.37,1.37,1.37,3.58,0,4.95l-14.58,14.58c-.68.68-1.58,1.03-2.47,1.03s-1.79-.34-2.47-1.03L6.03,10.97c-1.37-1.37-1.37-3.58,0-4.95.68-.68,1.58-1.03,2.47-1.03s1.79.34,2.47,1.03l12.11,12.11,12.11-12.11c.68-.68,1.58-1.03,2.47-1.03M37.67,0c-2.27,0-4.4.88-6.01,2.49l-8.57,8.57L14.51,2.49c-1.61-1.61-3.74-2.49-6.01-2.49S4.1.88,2.49,2.49C.88,4.09,0,6.23,0,8.5s.88,4.41,2.49,6.01l14.58,14.58c1.61,1.61,3.74,2.49,6.01,2.49s4.4-.88,6.01-2.49l14.58-14.58c1.61-1.6,2.49-3.74,2.49-6.01s-.88-4.41-2.49-6.01c-1.6-1.6-3.74-2.49-6.01-2.49h0Z"/>
    </g>
  </g>
</svg>