<?xml version="1.0" encoding="UTF-8"?>
<svg id="Layer_2" data-name="Layer 2" xmlns="http://www.w3.org/2000/svg" viewBox="0 0 205.62 152.69">
  <defs>
    <style>
      .cls-1 {
        fill: none;
        stroke: #212020;
        stroke-linejoin: round;
        stroke-width: 10px;
      }

      .cls-2 {
        fill: #efdfbf;
      }
    </style>
  </defs>
  <g id="Layer_1-2" data-name="Layer 1">
    <g>
      <g>
        <path class="cls-1" d="M67.43,2.02l13.25,40.78c.39,1.21,1.52,2.02,2.79,2.02h42.88c2.84,0,4.02,3.63,1.72,5.3l-34.69,25.21c-1.03.75-1.46,2.07-1.06,3.28l13.25,40.78c.88,2.7-2.21,4.94-4.51,3.28l-34.69-25.21c-1.03-.75-2.42-.75-3.44,0l-34.69,25.21c-2.3,1.67-5.39-.58-4.51-3.28l13.25-40.78c.39-1.21-.04-2.53-1.06-3.28L1.21,50.13c-2.3-1.67-1.12-5.3,1.72-5.3h42.88c1.27,0,2.39-.82,2.79-2.02L61.86,2.02c.88-2.7,4.7-2.7,5.57,0Z"/>
        <path class="cls-1" d="M205.62,89.63c0,30.57-51.14,63.06-51.14,63.06,0,0-51.13-39.74-51.13-63.06,0-16.05,13-29.06,29.06-29.06,8.55,0,16.22,3.69,21.54,9.55,5.4-6.14,13.33-10.02,22.15-10.02,16.31,0,29.52,13.22,29.52,29.52Z"/>
      </g>
      <g>
        <path class="cls-2" d="M67.43,2.02l13.25,40.78c.39,1.21,1.52,2.02,2.79,2.02h42.88c2.84,0,4.02,3.63,1.72,5.3l-34.69,25.21c-1.03.75-1.46,2.07-1.06,3.28l13.25,40.78c.88,2.7-2.21,4.94-4.51,3.28l-34.69-25.21c-1.03-.75-2.42-.75-3.44,0l-34.69,25.21c-2.3,1.67-5.39-.58-4.51-3.28l13.25-40.78c.39-1.21-.04-2.53-1.06-3.28L1.21,50.13c-2.3-1.67-1.12-5.3,1.72-5.3h42.88c1.27,0,2.39-.82,2.79-2.02L61.86,2.02c.88-2.7,4.7-2.7,5.57,0Z"/>
        <path class="cls-2" d="M205.62,89.63c0,30.57-51.14,63.06-51.14,63.06,0,0-51.13-39.74-51.13-63.06,0-16.05,13-29.06,29.06-29.06,8.55,0,16.22,3.69,21.54,9.55,5.4-6.14,13.33-10.02,22.15-10.02,16.31,0,29.52,13.22,29.52,29.52Z"/>
      </g>
    </g>
  </g>
</svg>