<?xml version="1.0" encoding="UTF-8"?>
<svg id="Layer_2" data-name="Layer 2" xmlns="http://www.w3.org/2000/svg" viewBox="0 0 791.68 169.61">
  <defs>
    <style>
      .cls-1 {
        stroke-linejoin: round;
      }

      .cls-1, .cls-2 {
        fill: none;
        stroke-width: 10px;
      }

      .cls-1, .cls-2, .cls-3, .cls-4 {
        stroke: #212020;
      }

      .cls-5, .cls-3 {
        fill: #efdfbf;
      }

      .cls-6, .cls-4 {
        fill: #212020;
      }

      .cls-3, .cls-4 {
        stroke-miterlimit: 10;
        stroke-width: .5px;
      }
    </style>
  </defs>
  <g id="Layer_1-2" data-name="Layer 1">
    <polygon class="cls-6" points="768.39 14.54 425.27 14.54 82.15 14.54 82.15 86.75 82.15 158.95 425.27 158.95 768.39 158.95 768.39 86.75 768.39 59.61 755.37 33.14 768.39 23.22 768.39 14.54"/>
    <g>
      <g>
        <g>
          <path class="cls-2" d="M24.97,28.96C40.56,13.37,60.87,5.39,81.3,5.02v11.25c-17.61.37-35.1,7.26-48.51,20.67-13.41,13.41-20.3,30.9-20.67,48.51H1.02c.34-20.49,8.33-40.87,23.95-56.49Z"/>
          <path class="cls-2" d="M81.3,5.02v11.25c-17.61.37-35.1,7.26-48.51,20.67-13.41,13.41-20.3,30.9-20.67,48.51H1.02c.34-20.49,8.33-40.87,23.95-56.49C40.56,13.37,60.87,5.39,81.3,5.02M82.3,4l-1.02.02c-21.53.39-41.78,9-57.02,24.23C8.98,43.53.38,63.84.02,85.43l-.02,1.02h13.1l.02-.98c.38-18.08,7.62-35.06,20.38-47.82,12.76-12.76,29.75-20,47.82-20.38l.98-.02V4h0Z"/>
        </g>
        <g>
          <path class="cls-2" d="M132.81,36.94c-13.41-13.41-30.9-20.3-48.51-20.67V5.02c20.44.36,40.76,8.35,56.36,23.94,15.63,15.62,23.61,36,23.95,56.49h-11.14c-.37-17.61-7.25-35.1-20.66-48.51Z"/>
          <path class="cls-2" d="M84.3,5.02c20.44.36,40.76,8.35,56.36,23.94,15.63,15.62,23.61,36,23.95,56.49h-11.14c-.37-17.61-7.25-35.1-20.66-48.51-13.41-13.41-30.9-20.3-48.51-20.67V5.02M83.3,4v13.25l.98.02c18.08.38,35.06,7.62,47.82,20.38,12.75,12.75,19.99,29.74,20.37,47.82l.02.98h13.14l-.02-1.02c-.36-21.61-8.97-41.92-24.24-57.18-15.26-15.25-35.52-23.85-57.05-24.23l-1.02-.02h0Z"/>
        </g>
        <g>
          <path class="cls-2" d="M153.47,88.45h11.13c-.4,20.39-8.38,40.66-23.94,56.21-15.6,15.59-35.92,23.57-56.36,23.93v-10.97c17.61-.37,35.1-7.25,48.51-20.66,13.41-13.41,20.29-30.9,20.66-48.51Z"/>
          <path class="cls-2" d="M164.6,88.45c-.4,20.39-8.38,40.66-23.94,56.21-15.6,15.59-35.92,23.57-56.36,23.93v-10.97c17.61-.37,35.1-7.25,48.51-20.66,13.41-13.41,20.29-30.9,20.66-48.51h11.13M165.62,87.45h-13.13l-.02.98c-.38,18.09-7.61,35.07-20.37,47.82-12.75,12.75-29.74,19.99-47.82,20.37l-.98.02v12.97l1.02-.02c21.54-.38,41.8-8.98,57.05-24.22,15.21-15.2,23.81-35.4,24.23-56.9l.02-1.02h0Z"/>
        </g>
        <g>
          <path class="cls-2" d="M32.79,136.96c13.4,13.41,30.9,20.29,48.51,20.66v10.97c-20.43-.37-40.74-8.34-56.33-23.93C9.42,129.11,1.43,108.84,1.03,88.45h11.09c.37,17.61,7.26,35.1,20.67,48.51Z"/>
          <path class="cls-2" d="M12.12,88.45c.37,17.61,7.26,35.1,20.67,48.51,13.4,13.41,30.9,20.29,48.51,20.66v10.97c-20.43-.37-40.74-8.34-56.33-23.93C9.42,129.11,1.43,108.84,1.03,88.45h11.09M13.1,87.45H0l.02,1.02c.42,21.49,9.03,41.69,24.23,56.9,15.23,15.23,35.48,23.83,57.02,24.22l1.02.02v-12.97l-.98-.02c-18.1-.38-35.08-7.61-47.82-20.37-12.76-12.76-20-29.75-20.38-47.82l-.02-.98h0Z"/>
        </g>
        <path class="cls-2" d="M153.46,85.45c-.37-17.61-7.25-35.1-20.66-48.51-13.41-13.41-30.9-20.3-48.51-20.67V5.02c-1-.03-2-.03-3,0v11.25c-17.61.37-35.1,7.26-48.51,20.67-13.41,13.41-20.3,30.9-20.67,48.51H1.01c-.02,1-.02,2,.01,3h11.09c.37,17.61,7.26,35.1,20.67,48.51,13.4,13.41,30.9,20.29,48.51,20.66v10.97c1,.03,2,.03,3,0v-10.97c17.61-.37,35.1-7.25,48.51-20.66,13.41-13.41,20.29-30.9,20.66-48.51h11.13c.03-1,.03-2,.01-3h-11.14ZM127.28,35.89c-.37,2.56-1.1,4.67-1.86,6.3l-22.97,22.97c-5.91-2.93-12.07-5.04-18.16-5.34V19.28c15.39.33,30.69,5.87,42.99,16.61ZM81.29,19.28v40.54c-6.09.3-12.25,2.42-18.15,5.36l-23.15-23.15c-.74-1.62-1.42-3.67-1.72-6.12,12.31-10.75,27.61-16.3,43.02-16.63ZM31.72,42.46c2.51.34,4.59,1.03,6.22,1.76l22.41,22.41c-6.9,3.75-13.35,8.43-18.82,12.4-3.73,2.71-6.97,5.06-9.42,6.42H15.11c.33-15.38,5.87-30.68,16.61-42.99ZM31.65,131.35c-10.7-12.3-16.21-27.55-16.54-42.9h16.93c2.47,1.36,5.73,3.72,9.49,6.45,5.46,3.96,11.91,8.64,18.8,12.39l-22.22,22.22c-1.67.78-3.85,1.53-6.46,1.84ZM81.29,154.62c-15.4-.33-30.7-5.87-43-16.62.31-2.44.96-4.48,1.67-6.1l23.16-23.16c5.91,2.95,12.07,5.06,18.17,5.37v40.51ZM82.8,106.07c-.51,0-1.01-.02-1.51-.07-4.15-.31-7.93-1.95-10.93-4.5-.77-.64-1.49-1.35-2.14-2.11-2.58-2.98-4.26-6.77-4.6-10.94-.06-.54-.08-1.09-.08-1.64,0-.46.02-.91.06-1.36.28-4.21,1.93-8.04,4.5-11.07.64-.77,1.35-1.48,2.11-2.13,3.02-2.62,6.86-4.31,11.08-4.63.5-.05,1-.07,1.51-.07s1,.02,1.49.07c4.23.31,8.08,2,11.1,4.61.76.65,1.47,1.37,2.11,2.13,2.58,3.03,4.23,6.87,4.51,11.09.04.45.06.9.06,1.36,0,.55-.02,1.1-.08,1.64-.34,4.18-2.03,7.97-4.62,10.96-.65.76-1.37,1.47-2.14,2.11-3,2.54-6.79,4.17-10.94,4.48-.49.05-.99.07-1.49.07ZM84.29,154.62v-40.51c6.1-.3,12.26-2.41,18.18-5.35l23.13,23.13c.73,1.61,1.4,3.65,1.7,6.09-12.31,10.76-27.61,16.31-43.01,16.64ZM133.83,131.45c-2.49-.34-4.56-1.03-6.18-1.76l-22.39-22.39c6.9-3.75,13.35-8.43,18.82-12.4,3.76-2.73,7.02-5.1,9.49-6.45h16.89c-.33,15.39-5.88,30.69-16.63,43ZM133.5,85.45c-2.46-1.36-5.7-3.71-9.42-6.42-5.48-3.97-11.94-8.66-18.84-12.41l22.72-22.72c1.55-.68,3.48-1.29,5.76-1.58,10.82,12.34,16.4,27.69,16.74,43.13h-16.96Z"/>
        <path class="cls-2" d="M81.29,114.11v40.51c-15.4-.33-30.7-5.87-43-16.62.31-2.44.96-4.48,1.67-6.1l23.16-23.16c5.91,2.95,12.07,5.06,18.17,5.37Z"/>
        <path class="cls-2" d="M60.33,107.29l-22.22,22.22c-1.67.78-3.85,1.53-6.46,1.84-10.7-12.3-16.21-27.55-16.54-42.9h16.93c2.47,1.36,5.73,3.72,9.49,6.45,5.46,3.96,11.91,8.64,18.8,12.39Z"/>
        <path class="cls-2" d="M127.3,137.98c-12.31,10.76-27.61,16.31-43.01,16.64v-40.51c6.1-.3,12.26-2.41,18.18-5.35l23.13,23.13c.73,1.61,1.4,3.65,1.7,6.09Z"/>
        <path class="cls-2" d="M150.46,88.45c-.33,15.39-5.88,30.69-16.63,43-2.49-.34-4.56-1.03-6.18-1.76l-22.39-22.39c6.9-3.75,13.35-8.43,18.82-12.4,3.76-2.73,7.02-5.1,9.49-6.45h16.89Z"/>
        <path class="cls-2" d="M150.46,85.45h-16.96c-2.46-1.36-5.7-3.71-9.42-6.42-5.48-3.97-11.94-8.66-18.84-12.41l22.72-22.72c1.55-.68,3.48-1.29,5.76-1.58,10.82,12.34,16.4,27.69,16.74,43.13Z"/>
        <path class="cls-2" d="M127.28,35.89c-.37,2.56-1.1,4.67-1.86,6.3l-22.97,22.97c-5.91-2.93-12.07-5.04-18.16-5.34V19.28c15.39.33,30.69,5.87,42.99,16.61Z"/>
        <path class="cls-2" d="M81.29,19.28v40.54c-6.09.3-12.25,2.42-18.15,5.36l-23.15-23.15c-.74-1.62-1.42-3.67-1.72-6.12,12.31-10.75,27.61-16.3,43.02-16.63Z"/>
        <path class="cls-2" d="M60.35,66.63c-6.9,3.75-13.35,8.43-18.82,12.4-3.73,2.71-6.97,5.06-9.42,6.42H15.11c.33-15.38,5.87-30.68,16.61-42.99,2.51.34,4.59,1.03,6.22,1.76l22.41,22.41Z"/>
        <path class="cls-2" d="M102.01,85.45c-.28-4.22-1.93-8.06-4.51-11.09-.64-.76-1.35-1.48-2.11-2.13-3.02-2.61-6.87-4.3-11.1-4.61-.49-.05-.99-.07-1.49-.07s-1.01.02-1.51.07c-4.22.32-8.06,2.01-11.08,4.63-.76.65-1.47,1.36-2.11,2.13-2.57,3.03-4.22,6.86-4.5,11.07-.04.45-.06.9-.06,1.36,0,.55.02,1.1.08,1.64.34,4.17,2.02,7.96,4.6,10.94.65.76,1.37,1.47,2.14,2.11,3,2.55,6.78,4.19,10.93,4.5.5.05,1,.07,1.51.07s1-.02,1.49-.07c4.15-.31,7.94-1.94,10.94-4.48.77-.64,1.49-1.35,2.14-2.11,2.59-2.99,4.28-6.78,4.62-10.96.06-.54.08-1.09.08-1.64,0-.46-.02-.91-.06-1.36ZM94.1,88.45c-.26,2.03-1.06,3.89-2.25,5.44-.61.8-1.32,1.51-2.12,2.13-1.55,1.18-3.41,1.98-5.44,2.24-.49.07-.99.1-1.49.1s-1.01-.03-1.51-.1c-2.03-.27-3.89-1.07-5.43-2.26-.12-.09-.24-.19-.35-.28-.13-.11-.25-.21-.36-.32-.31-.27-.59-.56-.85-.86-.1-.1-.2-.21-.28-.33-.1-.11-.19-.22-.27-.34-1.18-1.54-1.98-3.4-2.24-5.42-.07-.48-.1-.98-.1-1.48s.03-1.02.1-1.52c.27-2.02,1.07-3.87,2.25-5.41.61-.8,1.32-1.51,2.12-2.12,1.54-1.18,3.39-1.98,5.41-2.25.5-.07,1-.1,1.51-.1s1,.03,1.49.1c2.02.26,3.88,1.06,5.42,2.24.8.6,1.51,1.31,2.13,2.11,1.19,1.54,1.99,3.4,2.26,5.43.07.5.1,1.01.1,1.52s-.03,1-.1,1.48Z"/>
        <path class="cls-2" d="M94.2,86.97c0,.5-.03,1-.1,1.48-.26,2.03-1.06,3.89-2.25,5.44-.61.8-1.32,1.51-2.12,2.13-1.55,1.18-3.41,1.98-5.44,2.24-.49.07-.99.1-1.49.1s-1.01-.03-1.51-.1c-2.03-.27-3.89-1.07-5.43-2.26-.12-.09-.24-.19-.35-.28-.13-.11-.25-.21-.36-.32-.31-.27-.59-.56-.85-.86-.1-.11-.19-.22-.28-.33-.1-.11-.19-.22-.27-.34-1.18-1.54-1.98-3.4-2.24-5.42-.07-.48-.1-.98-.1-1.48s.03-1.02.1-1.52c.27-2.02,1.07-3.87,2.25-5.41.61-.8,1.32-1.51,2.12-2.12,1.54-1.18,3.39-1.98,5.41-2.25.5-.07,1-.1,1.51-.1s1,.03,1.49.1c2.02.26,3.88,1.06,5.42,2.24.8.6,1.51,1.31,2.13,2.11,1.19,1.54,1.99,3.4,2.26,5.43.07.5.1,1.01.1,1.52Z"/>
      </g>
      <g>
        <path class="cls-5" d="M24.97,28.96C40.56,13.37,60.87,5.39,81.3,5.02v11.25c-17.61.37-35.1,7.26-48.51,20.67-13.41,13.41-20.3,30.9-20.67,48.51H1.02c.34-20.49,8.33-40.87,23.95-56.49Z"/>
        <path class="cls-5" d="M132.81,36.94c-13.41-13.41-30.9-20.3-48.51-20.67V5.02c20.44.36,40.76,8.35,56.36,23.94,15.63,15.62,23.61,36,23.95,56.49h-11.14c-.37-17.61-7.25-35.1-20.66-48.51Z"/>
        <path class="cls-5" d="M153.47,88.45h11.13c-.4,20.39-8.38,40.66-23.94,56.21-15.6,15.59-35.92,23.57-56.36,23.93v-10.97c17.61-.37,35.1-7.25,48.51-20.66,13.41-13.41,20.29-30.9,20.66-48.51Z"/>
        <path class="cls-5" d="M32.79,136.96c13.4,13.41,30.9,20.29,48.51,20.66v10.97c-20.43-.37-40.74-8.34-56.33-23.93C9.42,129.11,1.43,108.84,1.03,88.45h11.09c.37,17.61,7.26,35.1,20.67,48.51Z"/>
        <path class="cls-4" d="M153.46,85.45c-.37-17.61-7.25-35.1-20.66-48.51-13.41-13.41-30.9-20.3-48.51-20.67V5.02c-1-.03-2-.03-3,0v11.25c-17.61.37-35.1,7.26-48.51,20.67-13.41,13.41-20.3,30.9-20.67,48.51H1.01c-.02,1-.02,2,.01,3h11.09c.37,17.61,7.26,35.1,20.67,48.51,13.4,13.41,30.9,20.29,48.51,20.66v10.97c1,.03,2,.03,3,0v-10.97c17.61-.37,35.1-7.25,48.51-20.66,13.41-13.41,20.29-30.9,20.66-48.51h11.13c.03-1,.03-2,.01-3h-11.14ZM127.28,35.89c-.37,2.56-1.1,4.67-1.86,6.3l-22.97,22.97c-5.91-2.93-12.07-5.04-18.16-5.34V19.28c15.39.33,30.69,5.87,42.99,16.61ZM81.29,19.28v40.54c-6.09.3-12.25,2.42-18.15,5.36l-23.15-23.15c-.74-1.62-1.42-3.67-1.72-6.12,12.31-10.75,27.61-16.3,43.02-16.63ZM31.72,42.46c2.51.34,4.59,1.03,6.22,1.76l22.41,22.41c-6.9,3.75-13.35,8.43-18.82,12.4-3.73,2.71-6.97,5.06-9.42,6.42H15.11c.33-15.38,5.87-30.68,16.61-42.99ZM31.65,131.35c-10.7-12.3-16.21-27.55-16.54-42.9h16.93c2.47,1.36,5.73,3.72,9.49,6.45,5.46,3.96,11.91,8.64,18.8,12.39l-22.22,22.22c-1.67.78-3.85,1.53-6.46,1.84ZM81.29,154.62c-15.4-.33-30.7-5.87-43-16.62.31-2.44.96-4.48,1.67-6.1l23.16-23.16c5.91,2.95,12.07,5.06,18.17,5.37v40.51ZM82.8,106.07c-.51,0-1.01-.02-1.51-.07-4.15-.31-7.93-1.95-10.93-4.5-.77-.64-1.49-1.35-2.14-2.11-2.58-2.98-4.26-6.77-4.6-10.94-.06-.54-.08-1.09-.08-1.64,0-.46.02-.91.06-1.36.28-4.21,1.93-8.04,4.5-11.07.64-.77,1.35-1.48,2.11-2.13,3.02-2.62,6.86-4.31,11.08-4.63.5-.05,1-.07,1.51-.07s1,.02,1.49.07c4.23.31,8.08,2,11.1,4.61.76.65,1.47,1.37,2.11,2.13,2.58,3.03,4.23,6.87,4.51,11.09.04.45.06.9.06,1.36,0,.55-.02,1.1-.08,1.64-.34,4.18-2.03,7.97-4.62,10.96-.65.76-1.37,1.47-2.14,2.11-3,2.54-6.79,4.17-10.94,4.48-.49.05-.99.07-1.49.07ZM84.29,154.62v-40.51c6.1-.3,12.26-2.41,18.18-5.35l23.13,23.13c.73,1.61,1.4,3.65,1.7,6.09-12.31,10.76-27.61,16.31-43.01,16.64ZM133.83,131.45c-2.49-.34-4.56-1.03-6.18-1.76l-22.39-22.39c6.9-3.75,13.35-8.43,18.82-12.4,3.76-2.73,7.02-5.1,9.49-6.45h16.89c-.33,15.39-5.88,30.69-16.63,43ZM133.5,85.45c-2.46-1.36-5.7-3.71-9.42-6.42-5.48-3.97-11.94-8.66-18.84-12.41l22.72-22.72c1.55-.68,3.48-1.29,5.76-1.58,10.82,12.34,16.4,27.69,16.74,43.13h-16.96Z"/>
        <path class="cls-3" d="M81.29,114.11v40.51c-15.4-.33-30.7-5.87-43-16.62.31-2.44.96-4.48,1.67-6.1l23.16-23.16c5.91,2.95,12.07,5.06,18.17,5.37Z"/>
        <path class="cls-3" d="M60.33,107.29l-22.22,22.22c-1.67.78-3.85,1.53-6.46,1.84-10.7-12.3-16.21-27.55-16.54-42.9h16.93c2.47,1.36,5.73,3.72,9.49,6.45,5.46,3.96,11.91,8.64,18.8,12.39Z"/>
        <path class="cls-3" d="M127.3,137.98c-12.31,10.76-27.61,16.31-43.01,16.64v-40.51c6.1-.3,12.26-2.41,18.18-5.35l23.13,23.13c.73,1.61,1.4,3.65,1.7,6.09Z"/>
        <path class="cls-3" d="M150.46,88.45c-.33,15.39-5.88,30.69-16.63,43-2.49-.34-4.56-1.03-6.18-1.76l-22.39-22.39c6.9-3.75,13.35-8.43,18.82-12.4,3.76-2.73,7.02-5.1,9.49-6.45h16.89Z"/>
        <path class="cls-3" d="M150.46,85.45h-16.96c-2.46-1.36-5.7-3.71-9.42-6.42-5.48-3.97-11.94-8.66-18.84-12.41l22.72-22.72c1.55-.68,3.48-1.29,5.76-1.58,10.82,12.34,16.4,27.69,16.74,43.13Z"/>
        <path class="cls-3" d="M127.28,35.89c-.37,2.56-1.1,4.67-1.86,6.3l-22.97,22.97c-5.91-2.93-12.07-5.04-18.16-5.34V19.28c15.39.33,30.69,5.87,42.99,16.61Z"/>
        <path class="cls-3" d="M81.29,19.28v40.54c-6.09.3-12.25,2.42-18.15,5.36l-23.15-23.15c-.74-1.62-1.42-3.67-1.72-6.12,12.31-10.75,27.61-16.3,43.02-16.63Z"/>
        <path class="cls-3" d="M60.35,66.63c-6.9,3.75-13.35,8.43-18.82,12.4-3.73,2.71-6.97,5.06-9.42,6.42H15.11c.33-15.38,5.87-30.68,16.61-42.99,2.51.34,4.59,1.03,6.22,1.76l22.41,22.41Z"/>
        <path class="cls-3" d="M102.01,85.45c-.28-4.22-1.93-8.06-4.51-11.09-.64-.76-1.35-1.48-2.11-2.13-3.02-2.61-6.87-4.3-11.1-4.61-.49-.05-.99-.07-1.49-.07s-1.01.02-1.51.07c-4.22.32-8.06,2.01-11.08,4.63-.76.65-1.47,1.36-2.11,2.13-2.57,3.03-4.22,6.86-4.5,11.07-.04.45-.06.9-.06,1.36,0,.55.02,1.1.08,1.64.34,4.17,2.02,7.96,4.6,10.94.65.76,1.37,1.47,2.14,2.11,3,2.55,6.78,4.19,10.93,4.5.5.05,1,.07,1.51.07s1-.02,1.49-.07c4.15-.31,7.94-1.94,10.94-4.48.77-.64,1.49-1.35,2.14-2.11,2.59-2.99,4.28-6.78,4.62-10.96.06-.54.08-1.09.08-1.64,0-.46-.02-.91-.06-1.36ZM94.1,88.45c-.26,2.03-1.06,3.89-2.25,5.44-.61.8-1.32,1.51-2.12,2.13-1.55,1.18-3.41,1.98-5.44,2.24-.49.07-.99.1-1.49.1s-1.01-.03-1.51-.1c-2.03-.27-3.89-1.07-5.43-2.26-.12-.09-.24-.19-.35-.28-.13-.11-.25-.21-.36-.32-.31-.27-.59-.56-.85-.86-.1-.1-.2-.21-.28-.33-.1-.11-.19-.22-.27-.34-1.18-1.54-1.98-3.4-2.24-5.42-.07-.48-.1-.98-.1-1.48s.03-1.02.1-1.52c.27-2.02,1.07-3.87,2.25-5.41.61-.8,1.32-1.51,2.12-2.12,1.54-1.18,3.39-1.98,5.41-2.25.5-.07,1-.1,1.51-.1s1,.03,1.49.1c2.02.26,3.88,1.06,5.42,2.24.8.6,1.51,1.31,2.13,2.11,1.19,1.54,1.99,3.4,2.26,5.43.07.5.1,1.01.1,1.52s-.03,1-.1,1.48Z"/>
        <path class="cls-4" d="M94.2,86.97c0,.5-.03,1-.1,1.48-.26,2.03-1.06,3.89-2.25,5.44-.61.8-1.32,1.51-2.12,2.13-1.55,1.18-3.41,1.98-5.44,2.24-.49.07-.99.1-1.49.1s-1.01-.03-1.51-.1c-2.03-.27-3.89-1.07-5.43-2.26-.12-.09-.24-.19-.35-.28-.13-.11-.25-.21-.36-.32-.31-.27-.59-.56-.85-.86-.1-.11-.19-.22-.28-.33-.1-.11-.19-.22-.27-.34-1.18-1.54-1.98-3.4-2.24-5.42-.07-.48-.1-.98-.1-1.48s.03-1.02.1-1.52c.27-2.02,1.07-3.87,2.25-5.41.61-.8,1.32-1.51,2.12-2.12,1.54-1.18,3.39-1.98,5.41-2.25.5-.07,1-.1,1.51-.1s1,.03,1.49.1c2.02.26,3.88,1.06,5.42,2.24.8.6,1.51,1.31,2.13,2.11,1.19,1.54,1.99,3.4,2.26,5.43.07.5.1,1.01.1,1.52Z"/>
      </g>
    </g>
    <g>
      <g>
        <path class="cls-5" d="M182.24,106.51c-.96,0-1.83-.55-2.25-1.41s-.31-1.89.29-2.64c.05-.06,5.31-6.94,5.31-17.46v-51.86c0-12.6-5.09-18.05-5.14-18.1-.69-.72-.9-1.8-.5-2.72.39-.92,1.29-1.53,2.29-1.53h41.36c2.23,0,13.65,1.42,24.69,7.99,9.97,5.93,21.85,17.55,21.85,39.25,0,44.75-50.2,48.46-50.71,48.49-.05,0-.11,0-.16,0h-37.03ZM211.7,99.6c6.08-.34,11.67-2.1,16.27-5.14,9.91-6.53,14.94-18.61,14.94-35.89,0-35.12-21.42-40.72-31.21-41.44v82.46Z"/>
        <path class="cls-6" d="M223.6,13.28c3.7,0,44.04,5.45,44.04,44.73,0,42.92-48.37,45.99-48.37,45.99h-37.02s5.85-7.41,5.85-19.01v-51.86c0-13.98-5.85-19.85-5.85-19.85h41.36M209.48,102.16c5.08,0,35.93-.43,35.93-43.59s-32.85-44.04-36.21-44.04v87.62c.08,0,.18,0,.28,0M223.6,8.28h-41.36c-2.06,0-3.97,1.19-4.72,3.1-.75,1.9-.33,4,1.15,5.39.45.51,4.42,5.34,4.42,16.35v51.86c0,9.58-4.75,15.88-4.79,15.94-1.19,1.5-1.4,3.54-.56,5.27.84,1.72,2.59,2.81,4.51,2.81h37.02c.11,0,.21,0,.32-.01.54-.03,13.27-.91,26.13-7.43,17.61-8.93,26.92-23.99,26.92-43.55,0-22.87-12.55-35.13-23.07-41.4-11.52-6.86-23.59-8.34-25.96-8.34h0ZM214.2,96.87V19.94c9.78,1.54,26.21,8.6,26.21,38.64s-14.77,36.85-26.21,38.29h0Z"/>
      </g>
      <g>
        <path class="cls-5" d="M363.94,106.51c-.94,0-1.8-.52-2.22-1.36-.43-.83-.35-1.84.19-2.6.06-.08,6.28-9.02,6.28-22.98v-16.87c-5.67,2.9-16.92,12.33-18.85,15.29-.04,1.84-.17,7.79-.17,9.98,0,8.49,4.12,14.55,4.16,14.61.53.76.59,1.76.16,2.59s-1.28,1.34-2.21,1.34h-81.44c-.92,0-1.76-.5-2.2-1.3-.44-.8-.4-1.78.09-2.55.05-.08,5.2-8.28,5.2-20.04v-48c0-11.49-5.16-19.93-5.21-20.02-.48-.77-.5-1.74-.06-2.54.44-.79,1.28-1.29,2.18-1.29h61.53c1.3,0,2.39,1,2.49,2.3l1.75,21.77c.1,1.24-.72,2.36-1.93,2.64-.19.04-.38.06-.56.06-1.01,0-1.94-.61-2.33-1.59-.07-.19-7.66-18.92-22.46-18.92-8.73,0-9.67,6.8-9.67,9.73,0,5.23,2.17,8.75,6.65,10.74,4.24,1.89,9.44,1.9,11.18,1.9,0,0,1.23,0,1.23,0,4.41,0,5.76-1.02,5.96-1.2.46-.72,1.26-1.14,2.1-1.14.19,0,.37.02.56.06,1.13.26,1.94,1.27,1.94,2.44v20.61c0,1.04-.65,1.98-1.62,2.34-.29.11-.58.16-.88.16-.71,0-1.4-.3-1.89-.86-4.14-4.75-15.95-16.41-24.9-18.42v44.91c0,2.33,7.64,5.4,12.14,5.4,11.19,0,20.33-16.63,25.24-25.56,1.22-2.23,2.19-3.98,2.98-5.12,4.9-7.06,35.89-51.55,36.2-52,.47-.67,1.23-1.07,2.05-1.07h19.41c.95,0,1.82.54,2.24,1.39.42.85.32,1.87-.25,2.62-.04.06-4.75,6.49-4.75,17.53v53.01c0,10.14,4.84,18.11,4.89,18.19.48.77.5,1.74.05,2.53-.44.79-1.28,1.28-2.18,1.28h-33.07ZM368.49,35.42c-7.53,10.98-11.82,20.45-14.14,26.65,4.27-3.24,9.71-6.88,13.98-8.03l.17-18.63Z"/>
        <path class="cls-6" d="M397.01,12.46s-5.26,6.92-5.26,19.04v53.01c0,10.96,5.26,19.5,5.26,19.5h-33.07s6.75-9.41,6.75-24.44v-20.22c-5.32,0-23.26,15.58-23.84,18.04,0,0-.18,7.94-.18,10.58,0,9.46,4.61,16.04,4.61,16.04h-81.44s5.59-8.68,5.59-21.39v-48c0-12.42-5.59-21.34-5.59-21.34h61.53l1.76,21.77s-8.05-20.51-24.79-20.51c-10.79,0-12.18,8.68-12.18,12.23,0,14.55,14.9,15.14,20.34,15.14.48,0,.89,0,1.21,0,6.92,0,8.06-2.35,8.06-2.35v20.61s-17.04-19.58-29.29-19.58v47.71c0,4.92,10.48,7.9,14.64,7.9,15.54,0,26.42-26.19,30.27-31.75,4.95-7.14,36.2-51.99,36.2-51.99h19.41M349.47,69.29s14.83-13.12,21.33-13.12l.25-28.56c-17.84,23.34-21.58,41.68-21.58,41.68M397.01,7.46h-19.41c-1.64,0-3.17.8-4.1,2.14-.31.45-31.3,44.94-36.2,52-.86,1.24-1.85,3.05-3.11,5.34-4.33,7.88-13.34,24.26-23.05,24.26-2.97,0-8.38-1.9-9.64-3.33v-41.02c7.01,3.07,15.73,11.12,20.52,16.61.97,1.11,2.35,1.71,3.77,1.71.59,0,1.18-.1,1.75-.32,1.95-.73,3.25-2.6,3.25-4.68v-20.61s0-.07,0-.1c.71.38,1.52.59,2.35.59.38,0,.76-.04,1.14-.13,2.41-.56,4.05-2.8,3.85-5.26l-1.76-21.77c-.21-2.6-2.38-4.6-4.98-4.6h-61.53c-1.82,0-3.49.99-4.37,2.58-.88,1.59-.83,3.54.14,5.08.04.06,4.83,7.97,4.83,18.68v48c0,10.95-4.76,18.63-4.81,18.7-.97,1.54-1.04,3.5-.16,5.09.88,1.59,2.55,2.6,4.37,2.6h81.44c1.86,0,3.57-1.04,4.44-2.69.86-1.65.73-3.65-.34-5.18-.02-.03-3.7-5.52-3.7-13.17,0-1.9.1-6.7.15-9.08,2.19-2.62,8.83-8.28,13.87-11.73v12.41c0,13.08-5.77,21.47-5.82,21.55-1.09,1.52-1.23,3.52-.38,5.19s2.58,2.71,4.46,2.71h33.07c1.81,0,3.48-.98,4.37-2.56.88-1.58.84-3.52-.11-5.06-.04-.06-4.52-7.56-4.52-16.88V31.5c0-10.16,4.2-15.96,4.24-16.01,1.15-1.51,1.35-3.55.5-5.25-.84-1.7-2.58-2.78-4.48-2.78h0ZM316.5,36.91c-15.34,0-15.34-7.11-15.34-10.14,0-7.23,5.4-7.23,7.18-7.23,10.35,0,16.9,10.77,19.2,15.34-.21-.08-.42-.14-.64-.19-.37-.09-.75-.13-1.12-.13-1.47,0-2.87.65-3.82,1.77-.41.18-1.62.58-4.24.58h-.51s-.7,0-.7,0h0ZM359.96,55.2c1.56-3.32,3.51-7.07,5.95-11.14l-.07,8.2c-1.9.72-3.9,1.76-5.88,2.94h0Z"/>
      </g>
      <g>
        <path class="cls-5" d="M404.15,106.51c-.96,0-1.83-.55-2.25-1.41s-.31-1.89.29-2.64c.05-.06,5.31-6.94,5.31-17.46v-51.86c0-12.73-5.19-18.98-5.24-19.04-.63-.74-.78-1.79-.37-2.68.41-.88,1.29-1.46,2.26-1.46h41.36c1.81,0,13.4,1.46,24.72,8.42,9.95,6.12,21.82,17.96,21.82,39.64,0,44.75-50.2,48.46-50.71,48.49-.05,0-.11,0-.16,0h-37.02ZM433.61,99.6c10.9-.63,31.21-6.46,31.21-41.02s-21.42-40.72-31.21-41.44v82.46Z"/>
        <path class="cls-6" d="M445.51,12.46c3.7,0,44.04,6.28,44.04,45.56,0,42.92-48.37,45.99-48.37,45.99h-37.02s5.85-7.41,5.85-19.01v-51.86c0-13.98-5.85-20.68-5.85-20.68h41.36M431.39,102.16c5.08,0,35.93-.43,35.93-43.59s-32.85-44.04-36.21-44.04v87.62c.08,0,.18,0,.28,0M445.51,7.46h-41.36c-1.99,0-3.83,1.12-4.62,2.94-.79,1.81-.49,3.87.84,5.32.39.49,4.64,6.04,4.64,17.41v51.86c0,9.58-4.75,15.88-4.79,15.94-1.19,1.5-1.4,3.54-.56,5.27s2.59,2.81,4.51,2.81h37.02c.11,0,.21,0,.32-.01.54-.03,13.27-.91,26.13-7.43,17.61-8.93,26.92-23.99,26.92-43.55,0-22.84-12.51-35.32-23.01-41.77-11.76-7.23-23.7-8.79-26.02-8.79h0ZM436.11,96.87V19.94c9.78,1.54,26.21,8.6,26.21,38.64s-14.77,36.85-26.21,38.29h0Z"/>
      </g>
      <g>
        <path class="cls-5" d="M498.14,104.37c-.95-.02-1.81-.57-2.22-1.43-.41-.86-.29-1.88.3-2.62.05-.06,5.31-6.94,5.31-17.46V29.15c0-12.6-5.09-18.05-5.14-18.1-.69-.72-.9-1.8-.5-2.72.39-.92,1.29-1.53,2.29-1.53h31.89c.85,0,1.65.44,2.11,1.15.46.72.52,1.62.16,2.4-.05.11-4.98,10.85-4.98,18.01l-.11,64.36c49.7-.76,65.57-23.84,65.72-24.08.47-.71,1.26-1.12,2.08-1.12.24,0,.48.03.72.11,1.06.32,1.78,1.29,1.78,2.39,0,18.36,13.84,31.65,13.98,31.78.75.71.99,1.8.6,2.76-.38.94-1.3,1.56-2.32,1.56-.01,0-111.68-1.75-111.68-1.75Z"/>
        <path class="cls-6" d="M530.07,9.3s-5.21,11.25-5.21,19.06l-.12,66.88c53.62,0,70.31-25.21,70.31-25.21,0,19.65,14.76,33.6,14.76,33.6l-111.64-1.75s5.85-7.41,5.85-19.01V29.15c0-13.98-5.85-19.85-5.85-19.85h31.89M530.07,4.3h-31.89c-2.06,0-3.97,1.19-4.72,3.1-.75,1.9-.33,4,1.15,5.39.45.51,4.42,5.34,4.42,16.35v53.71c0,9.58-4.75,15.88-4.79,15.94-1.18,1.49-1.4,3.51-.58,5.23.82,1.72,2.55,2.81,4.45,2.84l111.64,1.75s.05,0,.08,0c2.03,0,3.86-1.23,4.63-3.12.78-1.91.3-4.1-1.2-5.52-.12-.12-13.19-12.8-13.19-29.96,0-2.21-1.45-4.15-3.56-4.79-.48-.14-.96-.21-1.44-.21-1.65,0-3.23.82-4.17,2.24-.02.03-4.01,5.75-14.03,11.41-8.73,4.93-23.82,10.74-47.1,11.48l.11-61.79c0-5.49,3.43-14.11,4.75-16.97.71-1.55.59-3.36-.33-4.79-.92-1.44-2.51-2.31-4.21-2.31h0Z"/>
      </g>
      <g>
        <path class="cls-5" d="M566.77,72.62c-23.84,0-34.95-20.43-34.95-34.24,0-22.46,17.53-35.88,34.47-35.88,23.33,0,35.53,22.29,35.53,34.24,0,23.11-20.73,35.89-35.06,35.89ZM559.13,11.8c-4.28,0-6.9,9.05-6.9,15.54,0,17.75,12.43,35.12,21.72,35.12,4.74,0,6.9-7.54,6.9-14.54,0-15.52-12.38-36.11-21.72-36.11Z"/>
        <path class="cls-6" d="M566.3,5c21.51,0,33.03,20.29,33.03,31.74,0,21.16-18.69,33.39-32.56,33.39-22.69,0-32.45-19.51-32.45-31.74,0-21.28,16.69-33.39,31.97-33.39M573.94,64.95c6.58,0,9.4-8.49,9.4-17.05,0-15.99-12.82-38.61-24.22-38.61-6.58,0-9.4,10.98-9.4,18.04,0,18.69,13.03,37.62,24.22,37.62M566.3,0c-18.18,0-36.97,14.36-36.97,38.39,0,14.82,11.9,36.74,37.45,36.74,8.48,0,17.75-3.75,24.81-10.02,8.23-7.32,12.76-17.39,12.76-28.36,0-7.49-3.7-16.47-9.65-23.42-7.36-8.59-17.44-13.32-28.38-13.32h0ZM573.94,59.95c-7.24,0-19.22-15.24-19.22-32.62,0-6.72,2.75-13.04,4.4-13.04,2.74,0,7.55,3.37,12.1,10.9,4.39,7.25,7.11,15.96,7.11,22.71s-1.98,12.05-4.4,12.05h0Z"/>
      </g>
      <g>
        <path class="cls-5" d="M655.6,106.18c-8.91,0-22.54-2.89-34.1-11.02-9.28-6.52-20.35-18.75-20.35-39.94s14.8-50.54,55.56-50.54c20.91,0,37.72,9.84,38.42,10.26.76.45,1.22,1.27,1.22,2.15v33.56c0,1.21-.87,2.25-2.07,2.46-.14.03-.29.04-.43.04-1.04,0-1.99-.65-2.35-1.65-.14-.39-14.28-38.84-40.45-38.84-8.89,0-23.79,3.7-23.79,28.46,0,33.28,25.66,45.68,41.83,45.68,20.95,0,27.84-16.02,27.91-16.18.39-.95,1.31-1.54,2.31-1.54.16,0,.33.02.49.05,1.17.23,2.01,1.26,2.01,2.45,0,8.9-15.89,34.62-46.21,34.62Z"/>
        <path class="cls-6" d="M656.71,7.17c20.47,0,37.15,9.91,37.15,9.91v33.56s-14.53-40.49-42.8-40.49c-13.28,0-26.3,7.73-26.3,30.96,0,34.19,26,48.18,44.33,48.18,22.86,0,30.21-17.72,30.21-17.72,0,7.74-15.18,32.12-43.71,32.12-17.84,0-51.95-12.02-51.95-48.46,0-17.65,12.8-48.04,53.06-48.04M656.71,2.17c-24.25,0-38.11,10.43-45.46,19.19-7.89,9.4-12.6,22.06-12.6,33.86,0,22.27,11.64,35.12,21.41,41.99,12.04,8.46,26.25,11.47,35.54,11.47,17.23,0,29.1-7.91,36.01-14.55,7.48-7.17,12.7-16.45,12.7-22.57,0-2.38-1.68-4.44-4.02-4.9-.33-.07-.66-.1-.98-.1-1.99,0-3.83,1.19-4.62,3.08-.25.57-6.54,14.64-25.6,14.64-15.21,0-39.33-11.72-39.33-43.18,0-22.59,13.34-25.96,21.3-25.96,24.39,0,37.96,36.82,38.1,37.19.72,2.01,2.63,3.31,4.7,3.31.29,0,.57-.02.86-.07,2.39-.42,4.14-2.49,4.14-4.92V17.08c0-1.76-.93-3.4-2.45-4.3-.73-.43-18.11-10.61-39.7-10.61h0Z"/>
      </g>
      <g>
        <path class="cls-5" d="M755.88,105.21c-1.38,0-2.5-1.12-2.5-2.5,0-4.85-6.3-25.07-18.37-47.75-1.57,3.05-3.49,8.42-3.49,16.47,0,18.29,7.74,29.75,7.82,29.87.53.77.59,1.76.15,2.58-.43.82-1.28,1.34-2.21,1.34h-35.44c-.88,0-1.7-.47-2.15-1.23-.45-.76-.46-1.71-.03-2.48.06-.1,5.57-10.17,5.57-19.62v-47.88c0-13.65-5.54-24.42-5.6-24.53-.41-.78-.38-1.71.08-2.45.45-.75,1.26-1.2,2.14-1.2h32.74c1.01,0,1.91.6,2.3,1.53.39.93.19,2-.52,2.72-.04.04-4.33,4.48-5.53,8.8l-9.34,44.82c1.3-2.83,2.5-5.32,3.42-6.99,2.6-4.72,7.14-11.04,11.95-17.74,5.07-7.06,10.31-14.36,12.64-19.04,2.16-4.35,3.75-12.02,3.76-12.1.24-1.16,1.26-2,2.45-2h27.33c1.07,0,2.02.68,2.36,1.69s.01,2.13-.83,2.78l-29.23,22.75,33.56,68.58c.38.77.33,1.69-.12,2.42-.46.73-1.26,1.18-2.12,1.18h-30.8Z"/>
        <path class="cls-6" d="M783.06,8.31l-30.83,24,34.45,70.4h-30.8c0-5.98-7.42-28.69-20.66-52.6,0,0-6.2,6.38-6.2,21.32,0,19.39,8.26,31.29,8.26,31.29h-35.44s5.88-10.59,5.88-20.83v-47.88c0-14.42-5.88-25.69-5.88-25.69h32.74s-4.8,4.92-6.17,9.97l-14.42,69.23s9.22-22.52,13.13-29.61c5.35-9.71,20.06-27.67,24.63-36.87,2.33-4.7,3.97-12.71,3.97-12.71h27.33M783.06,3.31h-27.33c-2.38,0-4.42,1.67-4.9,4-.42,2.06-1.88,8.13-3.55,11.49-2.23,4.49-7.42,11.71-12.43,18.69-2.7,3.76-5.31,7.4-7.56,10.73l5.99-28.76c.88-3.04,3.82-6.55,4.9-7.66,1.4-1.44,1.8-3.58,1.02-5.43-.78-1.85-2.59-3.05-4.6-3.05h-32.74c-1.75,0-3.37.91-4.28,2.41-.91,1.5-.97,3.36-.16,4.91.05.09,5.31,10.44,5.31,23.37v47.88c0,8.78-5.2,18.32-5.26,18.41-.85,1.55-.83,3.44.07,4.96.9,1.52,2.53,2.46,4.3,2.46h35.44c1.86,0,3.57-1.03,4.43-2.68.86-1.65.74-3.64-.32-5.17-.06-.09-7.37-11.02-7.37-28.44,0-4.31.56-7.75,1.3-10.42,10.11,20.05,15.56,37.54,15.56,41.71,0,2.76,2.24,5,5,5h30.8c1.73,0,3.33-.89,4.24-2.35.91-1.46,1.01-3.29.25-4.84l-32.67-66.75,27.63-21.5c1.69-1.31,2.35-3.55,1.66-5.57-.69-2.02-2.59-3.38-4.73-3.38h0Z"/>
      </g>
    </g>
    <g>
      <g>
        <path class="cls-1" d="M182.85,139.23c0-3.54.65-6.72,1.96-9.54,1.3-2.82,3.13-5.23,5.47-7.21,2.34-1.98,5.07-3.49,8.2-4.53,3.13-1.03,6.49-1.57,10.09-1.62,1.8,0,3.59.1,5.37.29,1.78.19,3.42.38,4.93.55,1.51.17,2.73.26,3.68.26l1.28,12.35h-.13c-3.02-3.84-7.81-5.76-14.38-5.76-3.02,0-5.69.57-8.03,1.71-2.34,1.14-4.17,2.8-5.5,4.98-1.33,2.18-1.99,4.8-1.99,7.86,0,3.28.62,6.07,1.86,8.38,1.24,2.31,2.94,4.05,5.1,5.24,2.16,1.19,4.61,1.78,7.36,1.78,1.53,0,2.87-.11,4.02-.32,1.15-.22,2.19-.47,3.14-.78.04-1.21.07-2.38.07-3.52v-3.07c0-2.29-.1-4.05-.3-5.3-.2-1.25-.6-2.29-1.18-3.1-.58-.82-1.49-1.72-2.7-2.72v-.13h16.81v.13c-.95.82-1.65,1.61-2.13,2.36-.47.75-.81,1.76-1.01,3.01-.2,1.25-.3,3.02-.3,5.3,0,1.94.03,4.04.1,6.31.07,2.26.17,4.41.3,6.43-2.48,1.08-5.16,1.92-8.07,2.52-2.9.6-5.97.91-9.21.91-4.77,0-9.02-.93-12.76-2.78-3.74-1.85-6.67-4.48-8.81-7.89-2.14-3.41-3.21-7.44-3.21-12.09Z"/>
        <path class="cls-1" d="M229.09,161.15v-.13c.72-.47,1.3-.96,1.75-1.46.45-.5.81-1.16,1.08-2,.27-.84.47-2,.61-3.49.14-1.49.23-3.43.27-5.82.04-2.39.07-5.4.07-9.02s-.02-6.64-.07-9.05c-.04-2.41-.13-4.37-.27-5.85-.13-1.49-.34-2.65-.61-3.49-.27-.84-.63-1.52-1.08-2.04-.45-.52-1.04-1.01-1.75-1.49v-.13c1.26.04,2.47.08,3.65.1,1.17.02,2.86.03,5.06.03,1.35,0,2.6,0,3.75-.03,1.15-.02,2.45-.04,3.92-.06,1.46-.02,3.36-.03,5.7-.03,4.86,0,8.41,1.02,10.63,3.07,2.23,2.05,3.34,4.93,3.34,8.63,0,2.72-.7,5.08-2.09,7.08-1.4,2-3.2,3.57-5.4,4.69,2.12,3.54,3.92,6.48,5.4,8.83,1.48,2.35,2.73,4.24,3.75,5.66s1.87,2.51,2.57,3.27c.7.75,1.34,1.29,1.92,1.62.58.32,1.19.57,1.82.74v.13c-1.8.04-3.61.13-5.43.26-1.82.13-3.75.19-5.77.19-.94,0-1.69-.18-2.23-.55-.54-.37-1.1-.94-1.69-1.71-1.21-1.72-2.7-4.11-4.46-7.15-1.76-3.04-3.6-6.24-5.54-9.6-1.89-.04-3.53-.15-4.93-.32,0,3.88.04,6.96.13,9.25.09,2.29.26,4.03.51,5.24.25,1.21.62,2.12,1.11,2.75.5.63,1.15,1.22,1.96,1.78v.13h-17.69ZM243.06,135.61c.99.09,1.95.14,2.87.16.92.02,1.68.03,2.26.03,2.03,0,3.63-.55,4.83-1.65s1.79-2.6,1.79-4.5c0-2.07-.55-3.6-1.65-4.59-1.1-.99-2.85-1.49-5.23-1.49-.67,0-1.38.01-2.13.03-.74.02-1.59.05-2.53.1-.09,1.73-.15,3.56-.17,5.5-.02,1.94-.03,4.07-.03,6.4Z"/>
        <path class="cls-1" d="M271.15,161.15v-.13c.45-.3.88-.64,1.28-1,.41-.37.87-.93,1.38-1.68.52-.75,1.16-1.9,1.92-3.43s1.74-3.58,2.94-6.14c1.19-2.56,2.69-5.83,4.49-9.8,1.71-3.75,3.12-6.81,4.22-9.18s1.97-4.25,2.6-5.63c.63-1.38,1.1-2.44,1.42-3.17-.54-.69-1.13-1.31-1.76-1.88-.63-.56-1.35-1.16-2.16-1.81v-.13h12.76c.04.26.13.58.27.97.13.39.38.99.74,1.81.36.82.88,1.98,1.55,3.49.67,1.51,1.6,3.53,2.77,6.05,1.17,2.52,2.63,5.68,4.39,9.47,1.8,3.97,3.3,7.23,4.49,9.8,1.19,2.57,2.16,4.59,2.9,6.08.74,1.49,1.36,2.62,1.86,3.4.49.78.94,1.35,1.35,1.71s.88.72,1.42,1.07v.13h-17.69v-.13c.63-.56,1.12-1.11,1.48-1.65s.54-1.26.54-2.17-.24-2.23-.71-3.85c-.47-1.62-1.27-3.78-2.4-6.5-1.08-.04-2.21-.06-3.38-.06h-3.71c-1.58,0-3.05.01-4.42.03-1.37.02-2.67.05-3.88.1-1.04,2.63-1.77,4.74-2.19,6.34-.43,1.6-.64,2.87-.64,3.82s.18,1.7.54,2.26c.36.56.83,1.12,1.42,1.68v.13h-15.8ZM290.18,141.04c.9.04,1.86.06,2.87.06h7.73c-.5-1.08-1.04-2.31-1.62-3.69-.77-1.68-1.44-3.22-2.03-4.62-.58-1.4-1.15-2.71-1.69-3.91-.86,2.11-2.09,4.96-3.71,8.54-.54,1.29-1.06,2.5-1.55,3.62Z"/>
        <path class="cls-1" d="M322.25,161.15v-.13c.72-.47,1.3-.96,1.75-1.46.45-.5.81-1.16,1.08-2,.27-.84.47-2,.61-3.49.14-1.49.23-3.43.27-5.82.04-2.39.07-5.4.07-9.02s-.02-6.64-.07-9.05c-.04-2.41-.13-4.37-.27-5.85-.13-1.49-.34-2.65-.61-3.49-.27-.84-.63-1.52-1.08-2.04-.45-.52-1.04-1.01-1.75-1.49v-.13c1.26.04,2.47.08,3.65.1,1.17.02,2.86.03,5.06.03,1.26,0,2.43,0,3.51-.03,1.08-.02,2.29-.04,3.65-.06,1.35-.02,3.13-.03,5.33-.03,4.68,0,8.1,1.03,10.26,3.1,2.16,2.07,3.24,5,3.24,8.8,0,2.72-.64,5.1-1.92,7.15-1.28,2.05-3.03,3.63-5.23,4.75-2.21,1.12-4.73,1.68-7.56,1.68-2.48,0-4.48-.06-6.01-.19,0,3.75.04,6.75.13,8.99.09,2.24.26,3.95.51,5.11.25,1.16.62,2.06,1.11,2.68.5.63,1.15,1.22,1.96,1.78v.13h-17.69ZM336.22,136.19c.72.09,1.39.15,2.03.19.63.04,1.28.06,1.96.06,2.11,0,3.8-.6,5.06-1.81,1.26-1.21,1.89-2.82,1.89-4.85s-.53-3.67-1.59-4.66c-1.06-.99-2.71-1.49-4.96-1.49-.99,0-2.32.04-3.98.13-.18,1.42-.29,3.08-.34,4.98-.04,1.9-.07,4.38-.07,7.44Z"/>
        <path class="cls-1" d="M358.09,161.15v-.13c.85-.65,1.53-1.34,2.03-2.07.49-.73.87-1.8,1.11-3.2.25-1.4.42-3.41.51-6.01.09-2.61.13-6.11.13-10.51s-.04-7.91-.13-10.54c-.09-2.63-.26-4.65-.51-6.05s-.62-2.48-1.11-3.23c-.5-.75-1.17-1.46-2.03-2.1v-.13h17.69v.13c-.72.56-1.32,1.14-1.79,1.75-.47.6-.84,1.4-1.11,2.39-.27.99-.46,2.35-.57,4.08s-.19,3.99-.24,6.79c1.35,0,2.78.01,4.29.03,1.51.02,3.16.03,4.96.03h4.52c1.39,0,2.72-.02,3.98-.07-.04-2.8-.12-5.07-.24-6.79s-.3-3.08-.57-4.08c-.27-.99-.64-1.79-1.11-2.39-.47-.6-1.07-1.19-1.79-1.75v-.13h17.69v.13c-.86.65-1.53,1.35-2.03,2.1-.5.75-.87,1.83-1.11,3.23-.25,1.4-.41,3.42-.47,6.05s-.1,6.14-.1,10.54.03,7.9.1,10.51c.07,2.61.22,4.61.47,6.01.25,1.4.62,2.47,1.11,3.2.49.73,1.17,1.42,2.03,2.07v.13h-17.69v-.13c.85-.65,1.53-1.34,2.03-2.07.5-.73.87-1.78,1.11-3.14.25-1.36.41-3.32.47-5.88.07-2.56.1-6,.1-10.32-1.21-.04-2.53-.06-3.95-.06h-9.55c-1.53,0-2.95.02-4.25.06,0,4.31.03,7.75.1,10.32.07,2.57.22,4.53.47,5.88.25,1.36.63,2.4,1.15,3.14.52.73,1.18,1.42,1.99,2.07v.13h-17.69Z"/>
        <path class="cls-1" d="M407.03,161.15v-.13c.85-.65,1.53-1.34,2.03-2.07.49-.73.87-1.8,1.11-3.2.25-1.4.42-3.41.51-6.01.09-2.61.13-6.11.13-10.51s-.04-7.91-.13-10.54c-.09-2.63-.26-4.65-.51-6.05s-.62-2.48-1.11-3.23c-.5-.75-1.17-1.46-2.03-2.1v-.13h17.69v.13c-.86.65-1.53,1.35-2.03,2.1-.5.75-.87,1.83-1.11,3.23-.25,1.4-.41,3.42-.47,6.05s-.1,6.14-.1,10.54.03,7.9.1,10.51c.07,2.61.22,4.61.47,6.01.25,1.4.62,2.47,1.11,3.2.5.73,1.17,1.42,2.03,2.07v.13h-17.69Z"/>
        <path class="cls-1" d="M426.88,139.23c0-3.54.67-6.72,2.03-9.54,1.35-2.82,3.22-5.23,5.6-7.21,2.38-1.98,5.16-3.5,8.34-4.56,3.17-1.06,6.6-1.58,10.29-1.58,1.35,0,2.74.08,4.19.23,1.44.15,2.77.32,3.98.52,1.22.19,2.16.31,2.84.36l.81,12.68h-.13c-1.17-1.51-2.29-2.68-3.34-3.53-1.06-.84-2.21-1.42-3.44-1.75-1.24-.32-2.76-.48-4.56-.48-2.88,0-5.48.55-7.8,1.65-2.32,1.1-4.16,2.67-5.54,4.72-1.37,2.05-2.06,4.52-2.06,7.41,0,3.41.7,6.29,2.09,8.67,1.39,2.37,3.32,4.16,5.77,5.37,2.45,1.21,5.25,1.81,8.4,1.81,2.12,0,4.03-.4,5.74-1.2,1.71-.8,3.58-2.17,5.6-4.11h.07l-.95,10.67c-1.17.65-2.95,1.23-5.33,1.75-2.39.52-5.09.78-8.1.78-4.59,0-8.74-.92-12.46-2.75-3.71-1.83-6.65-4.44-8.81-7.83s-3.24-7.41-3.24-12.06Z"/>
        <path class="cls-1" d="M488.04,161.15v-.13c.85-.73,1.53-1.48,2.03-2.23.49-.75.85-1.83,1.08-3.23.22-1.4.38-3.38.47-5.95.09-2.57.13-6.03.13-10.38s-.04-7.83-.13-10.41c-.09-2.59-.25-4.59-.47-6.01-.23-1.42-.59-2.51-1.08-3.27-.5-.75-1.17-1.5-2.03-2.23v-.13c.99.04,2.22.09,3.68.13,1.46.04,3.48.06,6.04.06,1.84,0,3.98-.06,6.41-.19,2.43-.13,4.61-.19,6.55-.19,6.98,0,12.41,1.74,16.3,5.21,3.89,3.47,5.84,8.27,5.84,14.39,0,5.09-.93,9.49-2.8,13.19-1.87,3.71-4.43,6.55-7.7,8.54-3.26,1.98-6.96,2.97-11.11,2.97-2.25,0-4.5-.04-6.75-.13-2.25-.09-4.3-.15-6.14-.19-2.75,0-4.88.02-6.41.07s-2.83.09-3.92.13ZM502.35,153.72c1.08.04,2.26.09,3.54.13s2.6.06,3.95.06c3.46,0,6.28-1.36,8.44-4.07,2.16-2.72,3.24-6.51,3.24-11.38,0-9.4-4.01-14.1-12.02-14.1-2.52,0-4.88.09-7.09.26-.13,1.68-.23,3.74-.27,6.18-.04,2.44-.07,5.38-.07,8.83,0,3.23.02,5.99.07,8.28s.11,4.23.2,5.82Z"/>
        <path class="cls-1" d="M535.36,161.15v-.13c.81-.65,1.46-1.34,1.96-2.07.49-.73.87-1.8,1.11-3.2.25-1.4.42-3.41.51-6.01.09-2.61.13-6.11.13-10.51s-.04-7.91-.13-10.54c-.09-2.63-.26-4.65-.51-6.05s-.62-2.48-1.11-3.23c-.5-.75-1.15-1.46-1.96-2.1v-.06c5.31,0,9.69-.01,13.13-.03,3.44-.02,6.18-.04,8.2-.07,2.03-.02,3.53-.06,4.52-.13.99-.06,1.69-.14,2.09-.23h.14l.47,8.86h-.14c-1.35-.65-2.75-1.1-4.18-1.36-1.44-.26-3.17-.39-5.2-.39h-2.53c-.79,0-1.54.02-2.26.06-.05,1.12-.1,2.45-.17,3.98-.07,1.53-.1,3.27-.1,5.21.45.04.92.07,1.42.07h1.55c1.49,0,3.13-.04,4.93-.13,1.8-.09,3.71-.24,5.74-.45l.2,7.31c-2.93-.21-5.52-.34-7.8-.39s-4.31-.07-6.11-.07c0,3.28.02,6.07.07,8.38s.11,4.26.2,5.85h5.13c2.16,0,3.97-.21,5.43-.65,1.46-.43,2.98-1.01,4.56-1.75h.13l-.47,10.22h-.13c-.81-.22-3.04-.33-6.68-.36-3.65-.02-8.3-.03-13.97-.03h-8.17Z"/>
        <path class="cls-1" d="M569.05,161.02l-.81-10.8h.13c2.12,1.55,3.79,2.63,5.03,3.23,1.24.6,2.55.91,3.95.91,1.71,0,3.09-.45,4.15-1.36,1.06-.91,1.59-2.13,1.59-3.69,0-.99-.36-1.99-1.08-3.01-.72-1.01-1.71-2.1-2.97-3.27l-5.2-4.72c-3.2-2.85-4.79-5.99-4.79-9.44,0-2.63.7-4.87,2.09-6.73,1.39-1.85,3.29-3.27,5.67-4.24,2.38-.97,5.04-1.46,7.97-1.46,1.21,0,2.42.09,3.61.26,1.19.17,2.17.37,2.94.58l1.08,10.22h-.13c-1.58-1.55-2.97-2.65-4.19-3.3s-2.43-.97-3.65-.97c-1.62,0-2.89.36-3.81,1.07-.92.71-1.38,1.69-1.38,2.94,0,.86.33,1.72.98,2.59.65.86,1.54,1.81,2.67,2.85l5.67,4.98c3.51,3.02,5.27,6.58,5.27,10.67,0,3.02-.7,5.54-2.09,7.57-1.4,2.03-3.31,3.55-5.74,4.56-2.43,1.01-5.18,1.52-8.24,1.52-1.4,0-2.96-.11-4.69-.32-1.73-.22-3.07-.43-4.02-.65Z"/>
        <path class="cls-1" d="M596.72,161.15v-.13c.85-.65,1.53-1.34,2.03-2.07.49-.73.87-1.8,1.11-3.2.25-1.4.42-3.41.51-6.01.09-2.61.13-6.11.13-10.51s-.04-7.91-.13-10.54c-.09-2.63-.26-4.65-.51-6.05s-.62-2.48-1.11-3.23c-.5-.75-1.17-1.46-2.03-2.1v-.13h17.69v.13c-.86.65-1.53,1.35-2.03,2.1-.5.75-.87,1.83-1.11,3.23-.25,1.4-.41,3.42-.47,6.05s-.1,6.14-.1,10.54.03,7.9.1,10.51c.07,2.61.22,4.61.47,6.01.25,1.4.62,2.47,1.11,3.2.5.73,1.17,1.42,2.03,2.07v.13h-17.69Z"/>
        <path class="cls-1" d="M616.7,139.23c0-3.54.65-6.72,1.96-9.54,1.3-2.82,3.13-5.23,5.47-7.21,2.34-1.98,5.07-3.49,8.2-4.53,3.13-1.03,6.49-1.57,10.09-1.62,1.8,0,3.59.1,5.37.29,1.78.19,3.42.38,4.93.55,1.51.17,2.73.26,3.68.26l1.28,12.35h-.13c-3.02-3.84-7.81-5.76-14.38-5.76-3.02,0-5.69.57-8.03,1.71-2.34,1.14-4.17,2.8-5.5,4.98-1.33,2.18-1.99,4.8-1.99,7.86,0,3.28.62,6.07,1.86,8.38,1.24,2.31,2.94,4.05,5.1,5.24,2.16,1.19,4.61,1.78,7.36,1.78,1.53,0,2.87-.11,4.02-.32,1.15-.22,2.19-.47,3.14-.78.04-1.21.07-2.38.07-3.52v-3.07c0-2.29-.1-4.05-.3-5.3-.2-1.25-.6-2.29-1.18-3.1-.58-.82-1.49-1.72-2.7-2.72v-.13h16.81v.13c-.95.82-1.65,1.61-2.13,2.36-.47.75-.81,1.76-1.01,3.01-.2,1.25-.3,3.02-.3,5.3,0,1.94.03,4.04.1,6.31.07,2.26.17,4.41.3,6.43-2.48,1.08-5.16,1.92-8.07,2.52-2.9.6-5.97.91-9.21.91-4.77,0-9.02-.93-12.76-2.78-3.74-1.85-6.67-4.48-8.81-7.89-2.14-3.41-3.21-7.44-3.21-12.09Z"/>
        <path class="cls-1" d="M662.47,161.15v-.13c.72-.47,1.32-.96,1.79-1.46.47-.5.83-1.15,1.08-1.97.25-.82.44-1.96.57-3.43s.22-3.4.27-5.79c.04-2.39.07-5.44.07-9.15v-7.96c0-2.16-.02-4.4-.07-6.73-.05-2.33-.14-5.11-.27-8.34l.74-.13c1.84,1.51,3.92,3.24,6.21,5.21,2.3,1.96,4.7,4.05,7.22,6.27,2.52,2.22,5.03,4.44,7.53,6.66,2.5,2.22,4.85,4.32,7.05,6.31-.04-.73-.07-1.51-.07-2.33v-2.59c0-3.49-.05-6.31-.13-8.44-.09-2.13-.27-3.79-.54-4.98-.27-1.19-.68-2.13-1.22-2.85-.54-.71-1.28-1.39-2.23-2.04v-.13h16.27v.13c-.63.47-1.15.96-1.55,1.46-.41.5-.73,1.16-.98,2s-.43,2-.54,3.46c-.11,1.47-.19,3.41-.24,5.82-.04,2.42-.07,5.48-.07,9.18s.01,6.67.03,9.15c.02,2.48.06,4.56.1,6.24.04,1.68.1,3.1.17,4.27.07,1.16.15,2.2.24,3.1l-.47.13c-1.58-1.59-3.48-3.47-5.7-5.63-2.23-2.16-4.65-4.46-7.26-6.92-2.61-2.46-5.25-4.93-7.93-7.41-2.68-2.48-5.21-4.82-7.59-7.02,0,.91.01,1.91.03,3.01.02,1.1.03,2.3.03,3.59,0,3.75.04,6.76.14,9.02.09,2.26.27,4.02.54,5.27.27,1.25.67,2.23,1.21,2.94.54.71,1.28,1.39,2.23,2.04v.13h-16.67Z"/>
        <path class="cls-1" d="M709.66,161.15v-.13c.81-.65,1.46-1.34,1.96-2.07.49-.73.87-1.8,1.11-3.2.25-1.4.42-3.41.51-6.01.09-2.61.13-6.11.13-10.51s-.04-7.91-.13-10.54c-.09-2.63-.26-4.65-.51-6.05s-.62-2.48-1.11-3.23c-.5-.75-1.15-1.46-1.96-2.1v-.06c5.31,0,9.69-.01,13.13-.03,3.44-.02,6.18-.04,8.2-.07,2.03-.02,3.53-.06,4.52-.13.99-.06,1.69-.14,2.09-.23h.14l.47,8.86h-.14c-1.35-.65-2.75-1.1-4.18-1.36-1.44-.26-3.17-.39-5.2-.39h-2.53c-.79,0-1.54.02-2.26.06-.05,1.12-.1,2.45-.17,3.98-.07,1.53-.1,3.27-.1,5.21.45.04.92.07,1.42.07h1.55c1.49,0,3.13-.04,4.93-.13,1.8-.09,3.71-.24,5.74-.45l.2,7.31c-2.93-.21-5.52-.34-7.8-.39s-4.31-.07-6.11-.07c0,3.28.02,6.07.07,8.38s.11,4.26.2,5.85h5.13c2.16,0,3.97-.21,5.43-.65,1.46-.43,2.98-1.01,4.56-1.75h.13l-.47,10.22h-.13c-.81-.22-3.04-.33-6.68-.36-3.65-.02-8.3-.03-13.97-.03h-8.17Z"/>
        <path class="cls-1" d="M742.67,161.15v-.13c.72-.47,1.3-.96,1.75-1.46.45-.5.81-1.16,1.08-2,.27-.84.47-2,.61-3.49.14-1.49.23-3.43.27-5.82.04-2.39.07-5.4.07-9.02s-.02-6.64-.07-9.05c-.04-2.41-.13-4.37-.27-5.85-.13-1.49-.34-2.65-.61-3.49-.27-.84-.63-1.52-1.08-2.04-.45-.52-1.04-1.01-1.75-1.49v-.13c1.26.04,2.47.08,3.65.1,1.17.02,2.86.03,5.06.03,1.35,0,2.6,0,3.75-.03,1.15-.02,2.45-.04,3.92-.06,1.46-.02,3.36-.03,5.7-.03,4.86,0,8.41,1.02,10.63,3.07,2.23,2.05,3.34,4.93,3.34,8.63,0,2.72-.7,5.08-2.09,7.08-1.4,2-3.2,3.57-5.4,4.69,2.12,3.54,3.92,6.48,5.4,8.83,1.48,2.35,2.73,4.24,3.75,5.66s1.87,2.51,2.57,3.27c.7.75,1.34,1.29,1.92,1.62.58.32,1.19.57,1.82.74v.13c-1.8.04-3.61.13-5.43.26-1.82.13-3.75.19-5.77.19-.94,0-1.69-.18-2.23-.55-.54-.37-1.1-.94-1.69-1.71-1.21-1.72-2.7-4.11-4.46-7.15-1.76-3.04-3.6-6.24-5.54-9.6-1.89-.04-3.53-.15-4.93-.32,0,3.88.04,6.96.13,9.25.09,2.29.26,4.03.51,5.24.25,1.21.62,2.12,1.11,2.75.5.63,1.15,1.22,1.96,1.78v.13h-17.69ZM756.64,135.61c.99.09,1.95.14,2.87.16.92.02,1.68.03,2.26.03,2.03,0,3.63-.55,4.83-1.65s1.79-2.6,1.79-4.5c0-2.07-.55-3.6-1.65-4.59-1.1-.99-2.85-1.49-5.23-1.49-.67,0-1.38.01-2.13.03-.74.02-1.59.05-2.53.1-.09,1.73-.15,3.56-.17,5.5-.02,1.94-.03,4.07-.03,6.4Z"/>
      </g>
      <g>
        <path class="cls-5" d="M182.85,139.23c0-3.54.65-6.72,1.96-9.54,1.3-2.82,3.13-5.23,5.47-7.21,2.34-1.98,5.07-3.49,8.2-4.53,3.13-1.03,6.49-1.57,10.09-1.62,1.8,0,3.59.1,5.37.29,1.78.19,3.42.38,4.93.55,1.51.17,2.73.26,3.68.26l1.28,12.35h-.13c-3.02-3.84-7.81-5.76-14.38-5.76-3.02,0-5.69.57-8.03,1.71-2.34,1.14-4.17,2.8-5.5,4.98-1.33,2.18-1.99,4.8-1.99,7.86,0,3.28.62,6.07,1.86,8.38,1.24,2.31,2.94,4.05,5.1,5.24,2.16,1.19,4.61,1.78,7.36,1.78,1.53,0,2.87-.11,4.02-.32,1.15-.22,2.19-.47,3.14-.78.04-1.21.07-2.38.07-3.52v-3.07c0-2.29-.1-4.05-.3-5.3-.2-1.25-.6-2.29-1.18-3.1-.58-.82-1.49-1.72-2.7-2.72v-.13h16.81v.13c-.95.82-1.65,1.61-2.13,2.36-.47.75-.81,1.76-1.01,3.01-.2,1.25-.3,3.02-.3,5.3,0,1.94.03,4.04.1,6.31.07,2.26.17,4.41.3,6.43-2.48,1.08-5.16,1.92-8.07,2.52-2.9.6-5.97.91-9.21.91-4.77,0-9.02-.93-12.76-2.78-3.74-1.85-6.67-4.48-8.81-7.89-2.14-3.41-3.21-7.44-3.21-12.09Z"/>
        <path class="cls-5" d="M229.09,161.15v-.13c.72-.47,1.3-.96,1.75-1.46.45-.5.81-1.16,1.08-2,.27-.84.47-2,.61-3.49.14-1.49.23-3.43.27-5.82.04-2.39.07-5.4.07-9.02s-.02-6.64-.07-9.05c-.04-2.41-.13-4.37-.27-5.85-.13-1.49-.34-2.65-.61-3.49-.27-.84-.63-1.52-1.08-2.04-.45-.52-1.04-1.01-1.75-1.49v-.13c1.26.04,2.47.08,3.65.1,1.17.02,2.86.03,5.06.03,1.35,0,2.6,0,3.75-.03,1.15-.02,2.45-.04,3.92-.06,1.46-.02,3.36-.03,5.7-.03,4.86,0,8.41,1.02,10.63,3.07,2.23,2.05,3.34,4.93,3.34,8.63,0,2.72-.7,5.08-2.09,7.08-1.4,2-3.2,3.57-5.4,4.69,2.12,3.54,3.92,6.48,5.4,8.83,1.48,2.35,2.73,4.24,3.75,5.66s1.87,2.51,2.57,3.27c.7.75,1.34,1.29,1.92,1.62.58.32,1.19.57,1.82.74v.13c-1.8.04-3.61.13-5.43.26-1.82.13-3.75.19-5.77.19-.94,0-1.69-.18-2.23-.55-.54-.37-1.1-.94-1.69-1.71-1.21-1.72-2.7-4.11-4.46-7.15-1.76-3.04-3.6-6.24-5.54-9.6-1.89-.04-3.53-.15-4.93-.32,0,3.88.04,6.96.13,9.25.09,2.29.26,4.03.51,5.24.25,1.21.62,2.12,1.11,2.75.5.63,1.15,1.22,1.96,1.78v.13h-17.69ZM243.06,135.61c.99.09,1.95.14,2.87.16.92.02,1.68.03,2.26.03,2.03,0,3.63-.55,4.83-1.65s1.79-2.6,1.79-4.5c0-2.07-.55-3.6-1.65-4.59-1.1-.99-2.85-1.49-5.23-1.49-.67,0-1.38.01-2.13.03-.74.02-1.59.05-2.53.1-.09,1.73-.15,3.56-.17,5.5-.02,1.94-.03,4.07-.03,6.4Z"/>
        <path class="cls-5" d="M271.15,161.15v-.13c.45-.3.88-.64,1.28-1,.41-.37.87-.93,1.38-1.68.52-.75,1.16-1.9,1.92-3.43s1.74-3.58,2.94-6.14c1.19-2.56,2.69-5.83,4.49-9.8,1.71-3.75,3.12-6.81,4.22-9.18s1.97-4.25,2.6-5.63c.63-1.38,1.1-2.44,1.42-3.17-.54-.69-1.13-1.31-1.76-1.88-.63-.56-1.35-1.16-2.16-1.81v-.13h12.76c.04.26.13.58.27.97.13.39.38.99.74,1.81.36.82.88,1.98,1.55,3.49.67,1.51,1.6,3.53,2.77,6.05,1.17,2.52,2.63,5.68,4.39,9.47,1.8,3.97,3.3,7.23,4.49,9.8,1.19,2.57,2.16,4.59,2.9,6.08.74,1.49,1.36,2.62,1.86,3.4.49.78.94,1.35,1.35,1.71s.88.72,1.42,1.07v.13h-17.69v-.13c.63-.56,1.12-1.11,1.48-1.65s.54-1.26.54-2.17-.24-2.23-.71-3.85c-.47-1.62-1.27-3.78-2.4-6.5-1.08-.04-2.21-.06-3.38-.06h-3.71c-1.58,0-3.05.01-4.42.03-1.37.02-2.67.05-3.88.1-1.04,2.63-1.77,4.74-2.19,6.34-.43,1.6-.64,2.87-.64,3.82s.18,1.7.54,2.26c.36.56.83,1.12,1.42,1.68v.13h-15.8ZM290.18,141.04c.9.04,1.86.06,2.87.06h7.73c-.5-1.08-1.04-2.31-1.62-3.69-.77-1.68-1.44-3.22-2.03-4.62-.58-1.4-1.15-2.71-1.69-3.91-.86,2.11-2.09,4.96-3.71,8.54-.54,1.29-1.06,2.5-1.55,3.62Z"/>
        <path class="cls-5" d="M322.25,161.15v-.13c.72-.47,1.3-.96,1.75-1.46.45-.5.81-1.16,1.08-2,.27-.84.47-2,.61-3.49.14-1.49.23-3.43.27-5.82.04-2.39.07-5.4.07-9.02s-.02-6.64-.07-9.05c-.04-2.41-.13-4.37-.27-5.85-.13-1.49-.34-2.65-.61-3.49-.27-.84-.63-1.52-1.08-2.04-.45-.52-1.04-1.01-1.75-1.49v-.13c1.26.04,2.47.08,3.65.1,1.17.02,2.86.03,5.06.03,1.26,0,2.43,0,3.51-.03,1.08-.02,2.29-.04,3.65-.06,1.35-.02,3.13-.03,5.33-.03,4.68,0,8.1,1.03,10.26,3.1,2.16,2.07,3.24,5,3.24,8.8,0,2.72-.64,5.1-1.92,7.15-1.28,2.05-3.03,3.63-5.23,4.75-2.21,1.12-4.73,1.68-7.56,1.68-2.48,0-4.48-.06-6.01-.19,0,3.75.04,6.75.13,8.99.09,2.24.26,3.95.51,5.11.25,1.16.62,2.06,1.11,2.68.5.63,1.15,1.22,1.96,1.78v.13h-17.69ZM336.22,136.19c.72.09,1.39.15,2.03.19.63.04,1.28.06,1.96.06,2.11,0,3.8-.6,5.06-1.81,1.26-1.21,1.89-2.82,1.89-4.85s-.53-3.67-1.59-4.66c-1.06-.99-2.71-1.49-4.96-1.49-.99,0-2.32.04-3.98.13-.18,1.42-.29,3.08-.34,4.98-.04,1.9-.07,4.38-.07,7.44Z"/>
        <path class="cls-5" d="M358.09,161.15v-.13c.85-.65,1.53-1.34,2.03-2.07.49-.73.87-1.8,1.11-3.2.25-1.4.42-3.41.51-6.01.09-2.61.13-6.11.13-10.51s-.04-7.91-.13-10.54c-.09-2.63-.26-4.65-.51-6.05s-.62-2.48-1.11-3.23c-.5-.75-1.17-1.46-2.03-2.1v-.13h17.69v.13c-.72.56-1.32,1.14-1.79,1.75-.47.6-.84,1.4-1.11,2.39-.27.99-.46,2.35-.57,4.08s-.19,3.99-.24,6.79c1.35,0,2.78.01,4.29.03,1.51.02,3.16.03,4.96.03h4.52c1.39,0,2.72-.02,3.98-.07-.04-2.8-.12-5.07-.24-6.79s-.3-3.08-.57-4.08c-.27-.99-.64-1.79-1.11-2.39-.47-.6-1.07-1.19-1.79-1.75v-.13h17.69v.13c-.86.65-1.53,1.35-2.03,2.1-.5.75-.87,1.83-1.11,3.23-.25,1.4-.41,3.42-.47,6.05s-.1,6.14-.1,10.54.03,7.9.1,10.51c.07,2.61.22,4.61.47,6.01.25,1.4.62,2.47,1.11,3.2.49.73,1.17,1.42,2.03,2.07v.13h-17.69v-.13c.85-.65,1.53-1.34,2.03-2.07.5-.73.87-1.78,1.11-3.14.25-1.36.41-3.32.47-5.88.07-2.56.1-6,.1-10.32-1.21-.04-2.53-.06-3.95-.06h-9.55c-1.53,0-2.95.02-4.25.06,0,4.31.03,7.75.1,10.32.07,2.57.22,4.53.47,5.88.25,1.36.63,2.4,1.15,3.14.52.73,1.18,1.42,1.99,2.07v.13h-17.69Z"/>
        <path class="cls-5" d="M407.03,161.15v-.13c.85-.65,1.53-1.34,2.03-2.07.49-.73.87-1.8,1.11-3.2.25-1.4.42-3.41.51-6.01.09-2.61.13-6.11.13-10.51s-.04-7.91-.13-10.54c-.09-2.63-.26-4.65-.51-6.05s-.62-2.48-1.11-3.23c-.5-.75-1.17-1.46-2.03-2.1v-.13h17.69v.13c-.86.65-1.53,1.35-2.03,2.1-.5.75-.87,1.83-1.11,3.23-.25,1.4-.41,3.42-.47,6.05s-.1,6.14-.1,10.54.03,7.9.1,10.51c.07,2.61.22,4.61.47,6.01.25,1.4.62,2.47,1.11,3.2.5.73,1.17,1.42,2.03,2.07v.13h-17.69Z"/>
        <path class="cls-5" d="M426.88,139.23c0-3.54.67-6.72,2.03-9.54,1.35-2.82,3.22-5.23,5.6-7.21,2.38-1.98,5.16-3.5,8.34-4.56,3.17-1.06,6.6-1.58,10.29-1.58,1.35,0,2.74.08,4.19.23,1.44.15,2.77.32,3.98.52,1.22.19,2.16.31,2.84.36l.81,12.68h-.13c-1.17-1.51-2.29-2.68-3.34-3.53-1.06-.84-2.21-1.42-3.44-1.75-1.24-.32-2.76-.48-4.56-.48-2.88,0-5.48.55-7.8,1.65-2.32,1.1-4.16,2.67-5.54,4.72-1.37,2.05-2.06,4.52-2.06,7.41,0,3.41.7,6.29,2.09,8.67,1.39,2.37,3.32,4.16,5.77,5.37,2.45,1.21,5.25,1.81,8.4,1.81,2.12,0,4.03-.4,5.74-1.2,1.71-.8,3.58-2.17,5.6-4.11h.07l-.95,10.67c-1.17.65-2.95,1.23-5.33,1.75-2.39.52-5.09.78-8.1.78-4.59,0-8.74-.92-12.46-2.75-3.71-1.83-6.65-4.44-8.81-7.83s-3.24-7.41-3.24-12.06Z"/>
        <path class="cls-5" d="M488.04,161.15v-.13c.85-.73,1.53-1.48,2.03-2.23.49-.75.85-1.83,1.08-3.23.22-1.4.38-3.38.47-5.95.09-2.57.13-6.03.13-10.38s-.04-7.83-.13-10.41c-.09-2.59-.25-4.59-.47-6.01-.23-1.42-.59-2.51-1.08-3.27-.5-.75-1.17-1.5-2.03-2.23v-.13c.99.04,2.22.09,3.68.13,1.46.04,3.48.06,6.04.06,1.84,0,3.98-.06,6.41-.19,2.43-.13,4.61-.19,6.55-.19,6.98,0,12.41,1.74,16.3,5.21,3.89,3.47,5.84,8.27,5.84,14.39,0,5.09-.93,9.49-2.8,13.19-1.87,3.71-4.43,6.55-7.7,8.54-3.26,1.98-6.96,2.97-11.11,2.97-2.25,0-4.5-.04-6.75-.13-2.25-.09-4.3-.15-6.14-.19-2.75,0-4.88.02-6.41.07s-2.83.09-3.92.13ZM502.35,153.72c1.08.04,2.26.09,3.54.13s2.6.06,3.95.06c3.46,0,6.28-1.36,8.44-4.07,2.16-2.72,3.24-6.51,3.24-11.38,0-9.4-4.01-14.1-12.02-14.1-2.52,0-4.88.09-7.09.26-.13,1.68-.23,3.74-.27,6.18-.04,2.44-.07,5.38-.07,8.83,0,3.23.02,5.99.07,8.28s.11,4.23.2,5.82Z"/>
        <path class="cls-5" d="M535.36,161.15v-.13c.81-.65,1.46-1.34,1.96-2.07.49-.73.87-1.8,1.11-3.2.25-1.4.42-3.41.51-6.01.09-2.61.13-6.11.13-10.51s-.04-7.91-.13-10.54c-.09-2.63-.26-4.65-.51-6.05s-.62-2.48-1.11-3.23c-.5-.75-1.15-1.46-1.96-2.1v-.06c5.31,0,9.69-.01,13.13-.03,3.44-.02,6.18-.04,8.2-.07,2.03-.02,3.53-.06,4.52-.13.99-.06,1.69-.14,2.09-.23h.14l.47,8.86h-.14c-1.35-.65-2.75-1.1-4.18-1.36-1.44-.26-3.17-.39-5.2-.39h-2.53c-.79,0-1.54.02-2.26.06-.05,1.12-.1,2.45-.17,3.98-.07,1.53-.1,3.27-.1,5.21.45.04.92.07,1.42.07h1.55c1.49,0,3.13-.04,4.93-.13,1.8-.09,3.71-.24,5.74-.45l.2,7.31c-2.93-.21-5.52-.34-7.8-.39s-4.31-.07-6.11-.07c0,3.28.02,6.07.07,8.38s.11,4.26.2,5.85h5.13c2.16,0,3.97-.21,5.43-.65,1.46-.43,2.98-1.01,4.56-1.75h.13l-.47,10.22h-.13c-.81-.22-3.04-.33-6.68-.36-3.65-.02-8.3-.03-13.97-.03h-8.17Z"/>
        <path class="cls-5" d="M569.05,161.02l-.81-10.8h.13c2.12,1.55,3.79,2.63,5.03,3.23,1.24.6,2.55.91,3.95.91,1.71,0,3.09-.45,4.15-1.36,1.06-.91,1.59-2.13,1.59-3.69,0-.99-.36-1.99-1.08-3.01-.72-1.01-1.71-2.1-2.97-3.27l-5.2-4.72c-3.2-2.85-4.79-5.99-4.79-9.44,0-2.63.7-4.87,2.09-6.73,1.39-1.85,3.29-3.27,5.67-4.24,2.38-.97,5.04-1.46,7.97-1.46,1.21,0,2.42.09,3.61.26,1.19.17,2.17.37,2.94.58l1.08,10.22h-.13c-1.58-1.55-2.97-2.65-4.19-3.3s-2.43-.97-3.65-.97c-1.62,0-2.89.36-3.81,1.07-.92.71-1.38,1.69-1.38,2.94,0,.86.33,1.72.98,2.59.65.86,1.54,1.81,2.67,2.85l5.67,4.98c3.51,3.02,5.27,6.58,5.27,10.67,0,3.02-.7,5.54-2.09,7.57-1.4,2.03-3.31,3.55-5.74,4.56-2.43,1.01-5.18,1.52-8.24,1.52-1.4,0-2.96-.11-4.69-.32-1.73-.22-3.07-.43-4.02-.65Z"/>
        <path class="cls-5" d="M596.72,161.15v-.13c.85-.65,1.53-1.34,2.03-2.07.49-.73.87-1.8,1.11-3.2.25-1.4.42-3.41.51-6.01.09-2.61.13-6.11.13-10.51s-.04-7.91-.13-10.54c-.09-2.63-.26-4.65-.51-6.05s-.62-2.48-1.11-3.23c-.5-.75-1.17-1.46-2.03-2.1v-.13h17.69v.13c-.86.65-1.53,1.35-2.03,2.1-.5.75-.87,1.83-1.11,3.23-.25,1.4-.41,3.42-.47,6.05s-.1,6.14-.1,10.54.03,7.9.1,10.51c.07,2.61.22,4.61.47,6.01.25,1.4.62,2.47,1.11,3.2.5.73,1.17,1.42,2.03,2.07v.13h-17.69Z"/>
        <path class="cls-5" d="M616.7,139.23c0-3.54.65-6.72,1.96-9.54,1.3-2.82,3.13-5.23,5.47-7.21,2.34-1.98,5.07-3.49,8.2-4.53,3.13-1.03,6.49-1.57,10.09-1.62,1.8,0,3.59.1,5.37.29,1.78.19,3.42.38,4.93.55,1.51.17,2.73.26,3.68.26l1.28,12.35h-.13c-3.02-3.84-7.81-5.76-14.38-5.76-3.02,0-5.69.57-8.03,1.71-2.34,1.14-4.17,2.8-5.5,4.98-1.33,2.18-1.99,4.8-1.99,7.86,0,3.28.62,6.07,1.86,8.38,1.24,2.31,2.94,4.05,5.1,5.24,2.16,1.19,4.61,1.78,7.36,1.78,1.53,0,2.87-.11,4.02-.32,1.15-.22,2.19-.47,3.14-.78.04-1.21.07-2.38.07-3.52v-3.07c0-2.29-.1-4.05-.3-5.3-.2-1.25-.6-2.29-1.18-3.1-.58-.82-1.49-1.72-2.7-2.72v-.13h16.81v.13c-.95.82-1.65,1.61-2.13,2.36-.47.75-.81,1.76-1.01,3.01-.2,1.25-.3,3.02-.3,5.3,0,1.94.03,4.04.1,6.31.07,2.26.17,4.41.3,6.43-2.48,1.08-5.16,1.92-8.07,2.52-2.9.6-5.97.91-9.21.91-4.77,0-9.02-.93-12.76-2.78-3.74-1.85-6.67-4.48-8.81-7.89-2.14-3.41-3.21-7.44-3.21-12.09Z"/>
        <path class="cls-5" d="M662.47,161.15v-.13c.72-.47,1.32-.96,1.79-1.46.47-.5.83-1.15,1.08-1.97.25-.82.44-1.96.57-3.43s.22-3.4.27-5.79c.04-2.39.07-5.44.07-9.15v-7.96c0-2.16-.02-4.4-.07-6.73-.05-2.33-.14-5.11-.27-8.34l.74-.13c1.84,1.51,3.92,3.24,6.21,5.21,2.3,1.96,4.7,4.05,7.22,6.27,2.52,2.22,5.03,4.44,7.53,6.66,2.5,2.22,4.85,4.32,7.05,6.31-.04-.73-.07-1.51-.07-2.33v-2.59c0-3.49-.05-6.31-.13-8.44-.09-2.13-.27-3.79-.54-4.98-.27-1.19-.68-2.13-1.22-2.85-.54-.71-1.28-1.39-2.23-2.04v-.13h16.27v.13c-.63.47-1.15.96-1.55,1.46-.41.5-.73,1.16-.98,2s-.43,2-.54,3.46c-.11,1.47-.19,3.41-.24,5.82-.04,2.42-.07,5.48-.07,9.18s.01,6.67.03,9.15c.02,2.48.06,4.56.1,6.24.04,1.68.1,3.1.17,4.27.07,1.16.15,2.2.24,3.1l-.47.13c-1.58-1.59-3.48-3.47-5.7-5.63-2.23-2.16-4.65-4.46-7.26-6.92-2.61-2.46-5.25-4.93-7.93-7.41-2.68-2.48-5.21-4.82-7.59-7.02,0,.91.01,1.91.03,3.01.02,1.1.03,2.3.03,3.59,0,3.75.04,6.76.14,9.02.09,2.26.27,4.02.54,5.27.27,1.25.67,2.23,1.21,2.94.54.71,1.28,1.39,2.23,2.04v.13h-16.67Z"/>
        <path class="cls-5" d="M709.66,161.15v-.13c.81-.65,1.46-1.34,1.96-2.07.49-.73.87-1.8,1.11-3.2.25-1.4.42-3.41.51-6.01.09-2.61.13-6.11.13-10.51s-.04-7.91-.13-10.54c-.09-2.63-.26-4.65-.51-6.05s-.62-2.48-1.11-3.23c-.5-.75-1.15-1.46-1.96-2.1v-.06c5.31,0,9.69-.01,13.13-.03,3.44-.02,6.18-.04,8.2-.07,2.03-.02,3.53-.06,4.52-.13.99-.06,1.69-.14,2.09-.23h.14l.47,8.86h-.14c-1.35-.65-2.75-1.1-4.18-1.36-1.44-.26-3.17-.39-5.2-.39h-2.53c-.79,0-1.54.02-2.26.06-.05,1.12-.1,2.45-.17,3.98-.07,1.53-.1,3.27-.1,5.21.45.04.92.07,1.42.07h1.55c1.49,0,3.13-.04,4.93-.13,1.8-.09,3.71-.24,5.74-.45l.2,7.31c-2.93-.21-5.52-.34-7.8-.39s-4.31-.07-6.11-.07c0,3.28.02,6.07.07,8.38s.11,4.26.2,5.85h5.13c2.16,0,3.97-.21,5.43-.65,1.46-.43,2.98-1.01,4.56-1.75h.13l-.47,10.22h-.13c-.81-.22-3.04-.33-6.68-.36-3.65-.02-8.3-.03-13.97-.03h-8.17Z"/>
        <path class="cls-5" d="M742.67,161.15v-.13c.72-.47,1.3-.96,1.75-1.46.45-.5.81-1.16,1.08-2,.27-.84.47-2,.61-3.49.14-1.49.23-3.43.27-5.82.04-2.39.07-5.4.07-9.02s-.02-6.64-.07-9.05c-.04-2.41-.13-4.37-.27-5.85-.13-1.49-.34-2.65-.61-3.49-.27-.84-.63-1.52-1.08-2.04-.45-.52-1.04-1.01-1.75-1.49v-.13c1.26.04,2.47.08,3.65.1,1.17.02,2.86.03,5.06.03,1.35,0,2.6,0,3.75-.03,1.15-.02,2.45-.04,3.92-.06,1.46-.02,3.36-.03,5.7-.03,4.86,0,8.41,1.02,10.63,3.07,2.23,2.05,3.34,4.93,3.34,8.63,0,2.72-.7,5.08-2.09,7.08-1.4,2-3.2,3.57-5.4,4.69,2.12,3.54,3.92,6.48,5.4,8.83,1.48,2.35,2.73,4.24,3.75,5.66s1.87,2.51,2.57,3.27c.7.75,1.34,1.29,1.92,1.62.58.32,1.19.57,1.82.74v.13c-1.8.04-3.61.13-5.43.26-1.82.13-3.75.19-5.77.19-.94,0-1.69-.18-2.23-.55-.54-.37-1.1-.94-1.69-1.71-1.21-1.72-2.7-4.11-4.46-7.15-1.76-3.04-3.6-6.24-5.54-9.6-1.89-.04-3.53-.15-4.93-.32,0,3.88.04,6.96.13,9.25.09,2.29.26,4.03.51,5.24.25,1.21.62,2.12,1.11,2.75.5.63,1.15,1.22,1.96,1.78v.13h-17.69ZM756.64,135.61c.99.09,1.95.14,2.87.16.92.02,1.68.03,2.26.03,2.03,0,3.63-.55,4.83-1.65s1.79-2.6,1.79-4.5c0-2.07-.55-3.6-1.65-4.59-1.1-.99-2.85-1.49-5.23-1.49-.67,0-1.38.01-2.13.03-.74.02-1.59.05-2.53.1-.09,1.73-.15,3.56-.17,5.5-.02,1.94-.03,4.07-.03,6.4Z"/>
      </g>
    </g>
  </g>
</svg>