<svg width="1042" height="1001" viewBox="0 0 1042 1001" fill="none" xmlns="http://www.w3.org/2000/svg">
<path d="M214.935 39.673C214.935 17.8314 232.64 0.125 254.483 0.125C276.326 0.125 294.031 17.8314 294.031 39.673V114.532H214.935V39.673Z" fill="black"/>
<path d="M483.297 0.125C461.454 0.125 443.749 17.8314 443.749 39.673V114.532H522.845V39.673C522.845 17.8314 505.14 0.125 483.297 0.125Z" fill="black"/>
<path d="M672.562 39.673C672.562 17.8314 690.267 0.125 712.11 0.125C733.953 0.125 751.658 17.8314 751.658 39.673V114.532H672.562V39.673Z" fill="black"/>
<path d="M357.591 320.746C349.789 320.746 343.466 327.07 343.466 334.871V665.379C343.466 673.18 349.789 679.504 357.591 679.504H477.647C485.449 679.504 491.772 673.18 491.772 665.379V334.871C491.772 327.07 485.449 320.746 477.647 320.746H357.591Z" fill="black"/>
<path d="M672.562 381.481C664.761 381.481 658.438 387.804 658.438 395.605V470.464H583.579C575.778 470.464 569.455 476.787 569.455 484.588V515.662C569.455 523.462 575.778 529.786 583.579 529.786H658.438V604.645C658.438 612.446 664.761 618.769 672.562 618.769H703.636C711.437 618.769 717.76 612.446 717.76 604.645V529.786H792.619C800.42 529.786 806.743 523.462 806.743 515.662V484.588C806.743 476.787 800.42 470.464 792.619 470.464H717.76V395.605C717.76 387.804 711.437 381.481 703.636 381.481H672.562Z" fill="black"/>
<path d="M149.964 320.746C142.162 320.746 135.839 327.07 135.839 334.871V665.379C135.839 673.18 142.162 679.504 149.964 679.504H270.02C277.822 679.504 284.144 673.18 284.144 665.379V334.871C284.144 327.07 277.822 320.746 270.02 320.746H149.964Z" fill="black"/>
<path fill-rule="evenodd" clip-rule="evenodd" d="M83.5794 175.266C37.5541 175.266 0.246094 212.576 0.246094 258.6V741.65C0.246094 787.674 37.5541 824.984 83.5794 824.984H883.014C929.04 824.984 966.348 787.674 966.348 741.65V618.769H1005.9C1025.4 618.769 1041.21 602.96 1041.21 583.458V416.792C1041.21 397.29 1025.4 381.481 1005.9 381.481H966.348V258.6C966.348 212.576 929.04 175.266 883.014 175.266H83.5794ZM89.2291 264.249V736.001H877.365V264.249H89.2291Z" fill="black"/>
<path d="M254.483 1000.12C232.64 1000.12 214.935 982.419 214.935 960.577V885.718H294.031V960.577C294.031 982.419 276.326 1000.12 254.483 1000.12Z" fill="black"/>
<path d="M443.749 960.577C443.749 982.419 461.454 1000.12 483.297 1000.12C505.14 1000.12 522.845 982.419 522.845 960.577V885.718H443.749V960.577Z" fill="black"/>
<path d="M712.11 1000.12C690.267 1000.12 672.562 982.419 672.562 960.577V885.718H751.658V960.577C751.658 982.419 733.953 1000.12 712.11 1000.12Z" fill="black"/>
</svg>
