<svg width="1290" height="1001" viewBox="0 0 1290 1001" fill="none" xmlns="http://www.w3.org/2000/svg">
<path d="M244.033 6.55723C252.568 15.1163 252.548 28.9734 243.989 37.508C134.939 146.247 57.7249 294.27 45.5621 456.309C33.4382 617.829 85.7932 795.087 239.019 963.512C247.153 972.452 246.499 986.294 237.558 994.428C228.617 1002.56 214.776 1001.91 206.642 992.967C45.8931 816.274 -11.1722 627.371 1.91384 453.032C14.9609 279.212 97.5869 121.679 213.083 6.51304C221.642 -2.02158 235.499 -2.00179 244.033 6.55723Z" fill="black"/>
<path d="M318.639 114.574C326.991 105.836 326.678 91.9827 317.94 83.6309C309.203 75.2792 295.349 75.5919 286.997 84.3294C172.847 203.752 111.269 340.594 109.598 484.087C107.928 627.501 166.125 774.726 286.187 915.028C294.046 924.211 307.862 925.285 317.045 917.427C326.229 909.568 327.302 895.752 319.444 886.569C204.681 752.46 151.846 615.173 153.366 484.597C154.886 354.101 210.723 227.474 318.639 114.574Z" fill="black"/>
<path d="M394.081 201.569C402.13 192.552 401.346 178.717 392.329 170.667C383.312 162.618 369.477 163.402 361.428 172.419C246.281 301.405 207.937 423.403 218.959 536.652C229.883 648.903 288.973 748.751 360.969 834.869C368.722 844.143 382.524 845.376 391.797 837.623C401.07 829.87 402.303 816.068 394.551 806.795C325.101 723.722 272.223 632.072 262.524 532.412C252.922 433.75 285.298 323.425 394.081 201.569Z" fill="black"/>
<path fill-rule="evenodd" clip-rule="evenodd" d="M898.646 437.457L705.904 246.573C671.023 212.027 614.229 212.027 579.347 246.573L387.053 437.457C352.171 472.002 352.171 528.249 387.053 562.794L579.795 753.678C614.676 788.222 671.47 788.222 706.351 753.678L899.096 562.794C933.529 528.249 933.529 471.559 898.646 437.457ZM772.984 479.088L617.806 693.886C611.993 701.86 607.521 700.087 607.521 690.791V534.449H519.87C510.032 534.449 506.902 528.249 512.715 520.277L667.893 305.477C673.706 297.504 678.178 299.276 678.178 308.577V464.916H765.829C775.22 465.359 778.35 471.559 772.984 479.088Z" fill="black"/>
<path d="M1045.17 37.508C1036.61 28.9734 1036.59 15.1163 1045.13 6.55723C1053.66 -2.00179 1067.52 -2.02158 1076.08 6.51304C1191.58 121.679 1274.2 279.212 1287.25 453.032C1300.33 627.371 1243.27 816.274 1082.52 992.967C1074.39 1001.91 1060.55 1002.56 1051.6 994.428C1042.66 986.294 1042.01 972.452 1050.14 963.512C1203.37 795.087 1255.72 617.829 1243.6 456.309C1231.44 294.27 1154.22 146.247 1045.17 37.508Z" fill="black"/>
<path d="M971.222 83.6309C962.485 91.9827 962.172 105.836 970.524 114.574C1078.44 227.474 1134.28 354.101 1135.8 484.597C1137.32 615.173 1084.48 752.46 969.719 886.569C961.86 895.752 962.934 909.568 972.118 917.427C981.301 925.285 995.117 924.211 1002.98 915.028C1123.04 774.726 1181.23 627.501 1179.56 484.087C1177.89 340.594 1116.32 203.752 1002.17 84.3294C993.814 75.5919 979.96 75.2792 971.222 83.6309Z" fill="black"/>
<path d="M896.834 170.667C887.817 178.717 887.033 192.552 895.082 201.569C1003.87 323.425 1036.24 433.75 1026.64 532.412C1016.94 632.072 964.061 723.722 894.612 806.795C886.859 816.068 888.092 829.87 897.366 837.623C906.639 845.376 920.441 844.143 928.194 834.869C1000.19 748.751 1059.28 648.903 1070.2 536.652C1081.23 423.403 1042.88 301.405 927.735 172.419C919.685 163.402 905.851 162.618 896.834 170.667Z" fill="black"/>
</svg>
