<svg width="1003" height="1098" viewBox="0 0 1003 1098" fill="none" xmlns="http://www.w3.org/2000/svg">
<path d="M501.435 999.123C778.3 999.123 1002.74 775.596 1002.74 499.862C1002.74 224.128 778.3 0.601562 501.435 0.601562C224.569 0.601562 0.125 224.128 0.125 499.862C0.125 775.596 224.569 999.123 501.435 999.123Z" fill="black"/>
<path fill-rule="evenodd" clip-rule="evenodd" d="M395.285 901.291C384.329 898.495 373.322 906.511 373.322 917.772V1080.84C373.322 1090.03 380.803 1097.48 390.032 1097.48H607.267C616.496 1097.48 623.977 1090.03 623.977 1080.84V916.319C623.977 904.953 612.781 896.92 601.763 899.893C568.031 909.008 532.521 913.873 495.864 913.873C461.129 913.873 427.43 909.501 395.285 901.291Z" fill="black"/>
</svg>
