<svg width="1449" height="1098" viewBox="0 0 1449 1098" fill="none" xmlns="http://www.w3.org/2000/svg">
<path d="M1358.26 183.533C1358.26 183.533 1267.75 215.621 1267.75 378.787C1267.75 573.948 1267.75 732.069 1267.75 732.069H1448.77C1448.77 732.069 1448.77 573.948 1448.77 378.787C1448.77 215.621 1358.26 183.533 1358.26 183.533Z" fill="black"/>
<path d="M1448.77 777.772H1267.75V914.882H1448.77V777.772Z" fill="black"/>
<path fill-rule="evenodd" clip-rule="evenodd" d="M0.546875 92.1256C0.546875 41.6465 41.075 0.71875 91.0611 0.71875H1086.72C1136.7 0.71875 1177.23 41.6465 1177.23 92.1256V137.829H1086.72V960.491H1177.23V1006.19C1177.23 1056.67 1136.7 1097.6 1086.72 1097.6H91.0611C41.075 1097.6 0.546875 1056.67 0.546875 1006.19V92.1256ZM249.461 183.533C249.461 183.533 181.575 215.623 181.575 378.754V732.018H317.347V378.754C317.347 215.623 249.461 183.533 249.461 183.533ZM181.575 777.677V914.788H317.347V777.677H181.575ZM453.118 378.754C453.118 215.623 543.632 183.533 543.632 183.533C543.632 183.533 634.147 215.623 634.147 378.754V732.018H453.118V378.754ZM453.118 914.788V777.677H634.147V914.788H453.118ZM769.918 378.754C769.918 215.623 837.804 183.533 837.804 183.533C837.804 183.533 905.689 215.623 905.689 378.754V732.018H769.918V378.754ZM769.918 914.788V777.677H905.689V914.788H769.918Z" fill="black"/>
</svg>
