<svg width="969" height="1098" viewBox="0 0 969 1098" fill="none" xmlns="http://www.w3.org/2000/svg">
<path fill-rule="evenodd" clip-rule="evenodd" d="M484.491 0.71875C368.966 0.71875 317.76 43.2175 247.316 101.681C191.232 148.229 122.955 204.896 0.320312 258.29C0.320312 891.936 484.491 1097.6 484.491 1097.6C484.491 1097.6 968.662 891.936 968.662 258.29C846.027 204.896 777.75 148.229 721.668 101.683C651.223 43.2175 600.016 0.71875 484.491 0.71875ZM223.193 420.662C223.193 292.46 288.515 267.322 288.515 267.322C288.515 267.322 353.837 292.46 353.837 420.662V694.664H223.193V420.662ZM223.193 770.06V719.784H353.837V770.06H223.193ZM484.429 267.322C484.429 267.322 419.107 292.46 419.107 420.662V694.664H549.752V420.662C549.752 292.46 484.429 267.322 484.429 267.322ZM419.107 719.784H549.752V770.06H419.107V719.784ZM680.468 267.322C680.468 267.322 615.146 292.46 615.146 420.662V694.664H745.79V420.662C745.79 292.46 680.468 267.322 680.468 267.322ZM615.146 770.06V719.784H745.79V770.06H615.146Z" fill="black"/>
</svg>
