<svg width="721" height="1098" viewBox="0 0 721 1098" fill="none" xmlns="http://www.w3.org/2000/svg">
<path d="M154.999 553.769C154.999 553.769 86.963 580.961 86.963 719.643C86.963 885.518 86.963 1016.04 86.963 1016.04H223.034C223.034 1016.04 223.034 885.518 223.034 719.643C223.034 580.961 154.999 553.769 154.999 553.769Z" fill="black"/>
<path d="M223.034 1043.22H86.963V1097.6H223.034V1043.22Z" fill="black"/>
<path d="M359.051 553.769C359.051 553.769 291.016 580.961 291.016 719.643C291.016 885.518 291.016 1016.04 291.016 1016.04H427.088C427.088 1016.04 427.088 885.518 427.088 719.643C427.088 580.961 359.051 553.769 359.051 553.769Z" fill="black"/>
<path d="M427.088 1043.22H291.016V1097.6H427.088V1043.22Z" fill="black"/>
<path d="M563.233 553.769C563.233 553.769 495.198 580.961 495.198 719.643C495.198 885.518 495.198 1016.04 495.198 1016.04H631.269C631.269 1016.04 631.269 885.518 631.269 719.643C631.269 580.961 563.233 553.769 563.233 553.769Z" fill="black"/>
<path d="M631.269 1043.22H495.198V1097.6H631.269V1043.22Z" fill="black"/>
<path d="M279.646 621.868C185.9 533.808 44.6794 389.454 14.8295 293.491C-30.7046 147.105 37.5966 0.71875 174.199 0.71875C310.801 0.71875 365.056 113.323 365.056 113.323C365.056 113.323 410.59 0.71875 547.193 0.71875C683.795 0.71875 752.096 147.105 706.562 293.491C675.816 392.334 530.888 542.518 439.992 629.643C418.531 559.036 371.318 536.824 360.701 532.636L589.732 299.925H148.019L360.685 532.629C359.309 532.087 358.553 531.849 358.553 531.849C358.553 531.849 305.124 548.641 279.646 621.868Z" fill="black"/>
</svg>
