<?xml version="1.0" encoding="UTF-8"?>
<svg id="Layer_2" data-name="Layer 2" xmlns="http://www.w3.org/2000/svg" viewBox="0 0 373.83 231.83">
  <g id="Layer_1-2" data-name="Layer 1">
    <path d="M303.74,28.98S293.43,0,240.86,0c-62.88,0-112.35,0-112.35,0v57.96h112.35c52.57,0,62.88-28.98,62.88-28.98Z"/>
    <path d="M303.74,202.85s-10.31-28.98-62.88-28.98h-112.35v57.96h112.35c52.57,0,62.88-28.98,62.88-28.98Z"/>
    <path d="M373.83,115.92s-10.31-23.18-62.88-23.18h-112.35v46.37h112.35c52.57,0,62.88-23.18,62.88-23.18Z"/>
    <path d="M0,197.06h116.82v11.59H0v-11.59Z"/>
    <path d="M0,23.18h116.82v11.59H0v-11.59Z"/>
    <path d="M0,104.32h186.91v23.18H0v-23.18Z"/>
  </g>
</svg>