<?xml version="1.0" encoding="UTF-8"?>
<svg id="Layer_2" data-name="Layer 2" xmlns="http://www.w3.org/2000/svg" viewBox="0 0 260 302.51">
  <g id="Layer_1-2" data-name="Layer 1">
    <g>
      <path d="M137.44,180.04c-.65-1.01-1.29-2.03-1.89-3.09-4.88-8.52-6.95-16.86-.05-25.65,4.33-5.48,2.9-11.05-4.38-16.44,1.34,9.35-4.33,14-10.04,18.7-1.29,1.06-2.63,2.16-3.82,3.27-7.88,7.18-12.62,16.07-14.6,26.48-3.45,17.73,11.05,25.56,24.5,23.86,13.36-1.7,18.7-12.53,12.16-24.09-.6-1.06-1.24-2.03-1.89-3.04Z"/>
      <path d="M220.11,48.73c-10.55-7.37-18.88-14.46-26.44-20.91C174.79,11.7,161.02,0,130.02,0s-44.77,11.7-63.7,27.82C51.26,40.67,32.93,56.28,0,71.02c0,174.74,130.02,231.49,130.02,231.49,0,0,129.97-56.74,129.97-231.49-16.49-7.37-29.29-14.97-39.89-22.29ZM187.78,202.06c-7.69,14.14-17.78,26.35-33.39,33.25-22.57,9.99-54.99,3.5-73.05-14.88-17.04-17.36-21.09-44.68-9.72-66.32,6.82-13.03,18.38-20.96,31.41-27.27,2.12-1.06,4.33-2.03,6.49-2.99,1.34-.6,2.63-1.15,3.96-1.75,8.61-3.96,11.38-12.62,5.76-20.31-4.7-6.45-10.18-12.39-15.61-18.28-7.37-7.97-8.06-14.42-1.93-23.3,6.03-8.75,20.82-20.68,32.84-25.06-.32.74-.65,1.43-.97,2.16-.32.69-.64,1.43-.97,2.12-.92,2.03-1.89,4.05-2.81,6.08-2.16,4.65-4.38,9.26-6.08,14.05-2.3,6.31-.23,11.33,5.39,16.03,9.9,8.2,19.44,16.95,28,26.48,10.32,11.51,10.36,24.59,2.76,37.91-.14.23-.28.46-.41.69-3.18,5.57-6.36,11.19-5.57,17.96v.51c-.05.18-.05.37,0,.51.83,4.84,2.44,9.9,7.37,11.51,5.16,1.75,8.29-2.72,10.69-6.4,1.84-2.86,3.41-5.9,5.02-8.93.83-1.66,1.7-3.32,2.62-4.97.55-.97,1.24-1.89,1.94-2.81.28-.41.6-.83.87-1.2.46.32.92.64,1.38.97,1.06.69,2.12,1.43,2.76,2.39,10.96,17,10.69,34.54,1.24,51.86Z"/>
    </g>
  </g>
</svg>