<svg width="1107" height="1098" viewBox="0 0 1107 1098" fill="none" xmlns="http://www.w3.org/2000/svg">
<path d="M85.8863 549.16C85.8863 292.864 295.279 85.0943 553.578 85.0943V0.71875C248.315 0.71875 0.851562 246.264 0.851562 549.16C0.851562 852.056 248.315 1097.6 553.578 1097.6C858.84 1097.6 1106.3 852.056 1106.3 549.16C1106.3 387.177 1035.47 233.979 922.95 128.261C907.812 114.038 895.367 102.664 885.152 93.6405L927.736 9.13304H638.618L808.687 245.385L845.651 172.03C851.289 177.2 857.546 183.01 864.483 189.528C960.726 279.955 1021.27 411.273 1021.27 549.16C1021.27 805.456 811.876 1013.23 553.578 1013.23C295.279 1013.23 85.8863 805.456 85.8863 549.16Z" fill="black"/>
<path d="M882.695 528.474C838.968 670.008 554.745 920.412 554.745 920.412C554.745 920.412 262.152 670.008 218.425 528.474C174.699 386.941 240.289 245.408 371.468 245.408C502.646 245.408 554.747 354.28 554.747 354.28C554.747 354.28 598.474 245.408 729.653 245.408C860.832 245.408 926.421 386.941 882.695 528.474Z" fill="black"/>
</svg>
