<svg width="746" height="1098" viewBox="0 0 746 1098" fill="none" xmlns="http://www.w3.org/2000/svg">
<path d="M201.656 77.9912C252.571 33.2472 373.081 0.71875 373.081 0.71875C373.081 0.71875 493.591 33.2472 544.506 77.9912C585.042 113.617 634.391 156.986 723.027 197.849C723.027 225.217 721.912 251.543 719.809 276.857C639.716 236.991 592.572 195.613 553.297 161.139C499.771 114.159 373.081 80.0044 373.081 80.0044C373.081 80.0044 246.392 114.159 192.865 161.139C153.59 195.613 106.446 236.991 26.3533 276.857C24.2499 251.543 23.1351 225.217 23.1351 197.849C111.772 156.986 161.121 113.617 201.656 77.9912Z" fill="black"/>
<path d="M373.081 108.106C373.081 108.106 252.571 140.634 201.656 185.378C161.121 221.004 111.772 264.373 23.1351 305.236C23.1351 332.604 24.2499 358.93 26.3533 384.244C106.446 344.378 153.59 303 192.865 268.526C246.392 221.546 373.081 187.391 373.081 187.391C373.081 187.391 499.771 221.546 553.297 268.526C592.572 303 639.716 344.378 719.809 384.244C721.912 358.93 723.027 332.604 723.027 305.236C634.391 264.373 585.042 221.004 544.506 185.378C493.591 140.634 373.081 108.106 373.081 108.106Z" fill="black"/>
<path fill-rule="evenodd" clip-rule="evenodd" d="M190.476 317.581C244.712 271.791 373.081 238.504 373.081 238.504C373.081 238.504 501.451 271.791 555.686 317.582C598.865 354.037 651.432 398.419 745.85 440.239C745.85 936.521 373.081 1097.6 373.081 1097.6C373.081 1097.6 0.3125 936.521 0.3125 440.239C94.73 398.419 147.297 354.037 190.476 317.581ZM428.273 430.267H325.497V580.042H175.286V690.646H325.497V836.804H428.273V690.646H578.484V580.042H428.273V430.267Z" fill="black"/>
</svg>
