<?xml version="1.0" encoding="UTF-8"?>
<svg id="Layer_2" data-name="Layer 2" xmlns="http://www.w3.org/2000/svg" viewBox="0 0 217.63 149.28">
  <g id="Layer_1-2" data-name="Layer 1">
    <g>
      <path d="M177,40.81l-25.6,20.75c2.78,5.82,4.3,12.28,4.3,19.15,0,24.8-20.12,44.92-44.97,44.92-10.17,0-19.57-3.37-27.08-9.11l-23.2,18.86c14.26,7.13,30.58,12.02,48.38,12.02,57.47,0,99.06-50.97,107.98-62.85,1.09-1.46,1.09-3.45,0-4.9-4.77-6.35-18.89-23.89-39.81-38.85Z"/>
      <path d="M91.88,96.83l38.55-31.3,15.61-12.65,22.06-17.93,26.39-21.41c.87-.71,1.01-1.99.3-2.86l-8.06-9.92c-.71-.87-1.99-1-2.86-.3l-31.96,25.93c-12.95-5.74-27.42-9.53-43.07-9.53C51.33,16.85,9.73,67.78.82,79.65c-1.09,1.46-1.09,3.45,0,4.91,4.43,5.91,16.93,21.47,35.46,35.63l-19.13,15.51c-.87.71-1.01,1.99-.3,2.86l8.1,9.96c.71.87,1.99,1,2.86.3l23.06-18.71,25.39-20.63,15.61-12.65ZM65.81,80.71c0-24.85,20.12-44.97,44.92-44.97,8.1,0,15.73,2.15,22.31,5.91l-17.97,14.59c-1.39-.3-2.87-.42-4.34-.42-13.41,0-24.38,10.67-24.8,24.04l-17.97,14.59c-1.39-4.34-2.15-8.94-2.15-13.75Z"/>
      <path d="M110.73,105.56c13.75,0,24.89-11.14,24.89-24.85,0-1.98-.25-3.92-.72-5.78l-34.76,28.22c3.21,1.56,6.79,2.4,10.59,2.4Z"/>
    </g>
  </g>
</svg>