<svg width="721" height="1098" viewBox="0 0 721 1098" fill="none" xmlns="http://www.w3.org/2000/svg">
<path fill-rule="evenodd" clip-rule="evenodd" d="M360.618 137.712C396.408 137.712 430.732 152.157 456.039 177.871C481.346 203.584 495.564 238.458 495.564 274.822V457.577H630.51V274.822C630.51 202.094 602.075 132.345 551.461 80.9189C500.846 29.4926 432.198 0.601563 360.618 0.601562C289.038 0.601563 220.39 29.4926 169.775 80.9189C119.16 132.345 90.7253 202.094 90.7253 274.822V457.577H225.672V274.822C225.672 238.458 239.889 203.584 265.196 177.871C290.504 152.157 324.828 137.712 360.618 137.712ZM720.532 1097.48V549.043H0.703125V1097.48H720.532Z" fill="black"/>
</svg>
