<svg width="1098" height="1098" viewBox="0 0 1098 1098" fill="none" xmlns="http://www.w3.org/2000/svg">
<path d="M0.1875 599.298H204.909V496.385H0.1875V599.298Z" fill="black"/>
<path d="M34.3077 393.473H409.63V290.561H34.3077V393.473Z" fill="black"/>
<path d="M68.4278 153.344H546.11V50.4316H68.4278V153.344Z" fill="black"/>
<path fill-rule="evenodd" clip-rule="evenodd" d="M1077.5 241.979C1095.23 253.168 1098.85 277.619 1085.13 293.514L817.495 603.62C808.451 614.098 806.576 629.021 812.742 641.432L937.253 892.023C939.908 897.366 943.904 901.92 948.846 905.233L1081.88 994.426C1097.2 1004.7 1101.65 1025.35 1091.92 1041.08L1071.18 1074.61C1065.17 1084.33 1054.71 1090.4 1043.33 1090.77L836.619 1097.58C833.927 1097.67 831.234 1097.44 828.596 1096.89L619.237 1053.38C610.871 1051.65 603.458 1046.82 598.463 1039.85L486.191 883.238C474.892 867.477 452.841 864.286 437.58 876.205L408.433 898.968C397.121 907.802 381.525 908.593 369.387 900.947L203.704 796.587C186.421 785.701 182.434 762.103 195.173 746.09L368.544 528.151L469.5 388.667L566.495 262.65C568.693 259.795 570.429 256.609 571.638 253.209L653.365 23.4846C660.709 2.84091 685.166 -5.67295 703.634 5.9848L1077.5 241.979Z" fill="black"/>
</svg>
