<svg width="986" height="1098" viewBox="0 0 986 1098" fill="none" xmlns="http://www.w3.org/2000/svg">
<path d="M627.435 132.345C634.005 114.97 810.748 14.6312 844.148 6.89912C877.549 -0.832981 904.801 -0.713183 921.218 3.97073C937.636 8.65465 951.759 21.2641 964.78 37.3412C988.634 66.7933 980.787 115.891 970.486 126.86C960.184 137.829 726.289 283.932 714.559 285.908C699.296 288.479 620.866 149.72 627.435 132.345Z" fill="black"/>
<path d="M603.597 563.844C565.537 594.031 600.191 653.188 648.332 628.754V628.742C648.332 628.742 904.71 492.63 948.697 477.863C955.234 475.668 975.923 472.378 981.368 472.378C981.368 472.378 981.368 620.457 981.368 625.942C981.368 631.426 659.772 767.45 659.772 767.45L604.77 793.286C565.062 810.907 592.731 865.52 621.695 856.287C650.659 847.054 834.352 774.021 937.806 724.661C945.963 720.719 959.587 724.661 959.587 724.661V763.052C950.491 789.41 869.742 956.836 687.325 1004.37C504.909 1051.9 381.469 1092.96 289.822 1097.6C262.596 1092.12 257.151 1075.66 240.815 1048.24C225.717 1022.9 20.2584 667.965 11.2389 645.208C0.368391 617.779 -5.09643 601.338 11.2493 584.879C27.5949 568.42 131.91 505.285 137.356 499.8C142.801 494.316 142.801 209.126 142.801 209.126C142.801 181.704 420.221 39.1096 420.221 39.1096C431.112 33.6278 463.783 28.1408 474.674 39.1096C485.564 50.0785 632.941 280.557 632.586 313.33C632.23 346.104 577.832 373.656 545.462 373.659C513.091 373.662 365.769 280.424 365.769 280.424C343.988 269.455 317.851 258.486 300.426 280.424C283.001 302.361 293.226 324.634 299.837 332.596C306.448 340.557 356.411 368.89 403.885 390.112L404.173 680.786C404.173 731.013 480.406 730.148 480.406 680.786C480.406 634.751 477.945 441.951 480.406 439.472C482.867 436.993 496.742 436.986 502.187 439.472C517.721 446.563 537.947 464.222 550.318 464.222C572.099 464.222 583.856 455.749 583.856 455.749C583.856 455.749 844.361 283.214 953.266 239.328C969.602 233.846 980.492 233.876 985.938 239.232L985.943 376.356C981.244 381.184 685.16 524.432 603.597 563.844Z" fill="black"/>
</svg>
