<svg width="1090" height="1098" viewBox="0 0 1090 1098" fill="none" xmlns="http://www.w3.org/2000/svg">
<path d="M84.5289 549.043C84.5289 292.746 290.675 84.9771 544.969 84.9771V0.601562C244.44 0.601562 0.8125 246.147 0.8125 549.043C0.8125 851.939 244.44 1097.48 544.969 1097.48C845.498 1097.48 1089.13 851.939 1089.13 549.043C1089.13 387.059 1019.39 233.862 908.615 128.144C893.712 113.921 881.46 102.546 871.403 93.5233L913.327 9.01585H628.691L796.124 245.267L832.514 171.913C838.065 177.083 844.225 182.893 851.054 189.41C945.805 279.837 1005.41 411.156 1005.41 549.043C1005.41 805.339 799.263 1013.11 544.969 1013.11C290.675 1013.11 84.5289 805.339 84.5289 549.043Z" fill="black"/>
</svg>
