<svg width="1141" height="1098" viewBox="0 0 1141 1098" fill="none" xmlns="http://www.w3.org/2000/svg">
<path fill-rule="evenodd" clip-rule="evenodd" d="M592.163 13.5464C582.924 -3.55716 558.601 -3.55713 549.365 13.5464L381.772 323.832C378.265 330.321 372.057 334.878 364.86 336.239L20.8091 401.294C1.84438 404.88 -5.67169 428.235 7.58361 442.394L248.055 699.212C253.086 704.584 255.458 711.956 254.516 719.289L209.473 1069.78C206.991 1089.1 226.668 1103.53 244.099 1095.18L560.312 943.619C566.924 940.447 574.601 940.447 581.217 943.619L897.43 1095.18C914.86 1103.53 934.537 1089.1 932.052 1069.78L887.011 719.289C886.069 711.956 888.442 704.584 893.473 699.212L1133.94 442.394C1147.2 428.235 1139.68 404.88 1120.72 401.294L776.669 336.239C769.471 334.878 763.26 330.321 759.756 323.832L592.163 13.5464ZM547.883 189.264C555.708 167.769 585.817 167.769 593.642 189.264L666.185 388.547C665.989 390.423 666.147 392.38 666.716 394.341L729.541 611.319C732.64 622.014 745.775 625.724 753.918 618.204L816.187 560.705C820.026 557.16 821.759 551.85 820.756 546.695L800.77 443.851H960.683C983.662 443.851 993.878 473.016 976.007 487.6L801.123 630.356C798.728 630.723 796.372 631.694 794.273 633.33L617.029 771.448C608.291 778.254 609.654 791.959 619.559 796.876L695.272 834.487C699.943 836.805 705.469 836.499 709.86 833.679L790.483 781.893L833.962 936.046C840.253 958.342 815.31 976.25 796.517 962.932L584.805 812.885C581.947 810.863 578.767 809.526 575.482 808.877L429.189 708.775C419.925 702.436 407.307 708.275 406.011 719.496L396.322 803.491C395.721 808.708 397.856 813.866 401.958 817.099L472.653 872.838L346.256 962.893C327.511 976.247 302.54 958.443 308.732 936.14L372.633 705.984C373.012 705.295 373.318 704.546 373.53 703.744L429.675 492.826C431.494 485.993 425.795 479.511 418.857 480.527L325.647 494.196C322.008 494.731 318.977 497.286 317.805 500.804L288.177 589.824L166.946 493.53C148.957 479.242 158.628 450.061 181.511 449.58L424.509 444.494C425.235 444.585 425.978 444.62 426.73 444.601L621.607 439.498C632.209 439.219 639.143 428.17 634.864 418.371L599.534 337.449C597.149 331.986 591.8 328.465 585.888 328.465H497.213L547.883 189.264Z" fill="black"/>
</svg>
