<svg width="670" height="1098" viewBox="0 0 670 1098" fill="none" xmlns="http://www.w3.org/2000/svg">
<path d="M149.191 529.023C149.191 549.957 132.562 566.928 112.049 566.928C91.5366 566.928 74.9079 549.957 74.9079 529.023C74.9079 508.088 91.5366 491.118 112.049 491.118C132.562 491.118 149.191 508.088 149.191 529.023Z" fill="black"/>
<path d="M74.9079 642.739C74.9079 663.673 58.2791 680.644 37.7664 680.644C17.2538 680.644 0.625 663.673 0.625 642.739C0.625 621.804 17.2538 604.833 37.7664 604.833C58.2791 604.833 74.9079 621.804 74.9079 642.739Z" fill="black"/>
<path d="M74.9079 870.17C74.9079 891.105 58.2791 908.075 37.7664 908.075C17.2538 908.075 0.625 891.105 0.625 870.17C0.625 849.236 17.2538 832.265 37.7664 832.265C58.2791 832.265 74.9079 849.236 74.9079 870.17Z" fill="black"/>
<path d="M149.191 983.886C149.191 1004.82 132.562 1021.79 112.049 1021.79C91.5366 1021.79 74.9079 1004.82 74.9079 983.886C74.9079 962.951 91.5366 945.981 112.049 945.981C132.562 945.981 149.191 962.951 149.191 983.886Z" fill="black"/>
<path d="M260.615 1059.7C260.615 1080.63 243.986 1097.6 223.474 1097.6C202.961 1097.6 186.332 1080.63 186.332 1059.7C186.332 1038.76 202.961 1021.79 223.474 1021.79C243.986 1021.79 260.615 1038.76 260.615 1059.7Z" fill="black"/>
<path d="M483.463 1059.7C483.463 1080.63 466.835 1097.6 446.322 1097.6C425.809 1097.6 409.181 1080.63 409.181 1059.7C409.181 1038.76 425.809 1021.79 446.322 1021.79C466.835 1021.79 483.463 1038.76 483.463 1059.7Z" fill="black"/>
<path d="M594.888 983.886C594.888 1004.82 578.259 1021.79 557.746 1021.79C537.234 1021.79 520.605 1004.82 520.605 983.886C520.605 962.951 537.234 945.981 557.746 945.981C578.259 945.981 594.888 962.951 594.888 983.886Z" fill="black"/>
<path d="M669.171 870.17C669.171 891.105 652.542 908.075 632.029 908.075C611.517 908.075 594.888 891.105 594.888 870.17C594.888 849.236 611.517 832.265 632.029 832.265C652.542 832.265 669.171 849.236 669.171 870.17Z" fill="black"/>
<path d="M669.171 642.739C669.171 663.673 652.542 680.644 632.029 680.644C611.517 680.644 594.888 663.673 594.888 642.739C594.888 621.804 611.517 604.833 632.029 604.833C652.542 604.833 669.171 621.804 669.171 642.739Z" fill="black"/>
<path d="M594.888 529.023C594.888 549.957 578.259 566.928 557.746 566.928C537.234 566.928 520.605 549.957 520.605 529.023C520.605 508.088 537.234 491.118 557.746 491.118C578.259 491.118 594.888 508.088 594.888 529.023Z" fill="black"/>
<path fill-rule="evenodd" clip-rule="evenodd" d="M99.0282 696.954C66.8677 729.753 66.8677 783.157 99.0282 815.956L276.735 997.192C308.896 1029.99 361.26 1029.99 393.42 997.192L571.129 815.956C602.876 783.157 602.876 729.333 570.715 696.954L421.74 545.02C502.175 465.979 615.659 343.876 641.066 261.644C681.373 131.181 620.912 0.71875 499.989 0.71875C379.066 0.71875 338.758 101.075 338.758 101.075C338.758 101.075 290.73 0.71875 169.807 0.71875C48.8837 0.71875 -11.5779 131.181 28.7299 261.644C53.8347 342.9 167.932 463.086 250.428 542.187L99.0282 696.954ZM311.782 940.423L454.854 736.481C459.802 729.333 456.916 723.445 448.258 723.025H367.444V574.587C367.444 565.757 363.321 564.075 357.961 571.644L214.888 775.588C209.528 783.157 212.414 789.044 221.485 789.044H302.299V937.483C302.299 946.31 306.422 947.993 311.782 940.423ZM334.898 474.781L537.646 267.379H146.632L334.898 474.781Z" fill="black"/>
</svg>
