<svg width="944" height="1098" viewBox="0 0 944 1098" fill="none" xmlns="http://www.w3.org/2000/svg">
<path d="M587.431 499.514L449.743 695.322C444.584 702.591 440.616 700.975 440.616 692.5V549.981H362.844C354.115 549.981 351.338 544.329 356.495 537.061L494.184 341.251C499.342 333.984 503.31 335.599 503.31 344.077V486.594H581.082C589.415 486.998 592.192 492.651 587.431 499.514Z" fill="black"/>
<path fill-rule="evenodd" clip-rule="evenodd" d="M471.989 0.71875C359.531 0.71875 309.684 43.2175 241.111 101.681C186.515 148.229 120.05 204.896 0.671875 258.29C0.671875 891.936 471.989 1097.6 471.989 1097.6C471.989 1097.6 943.305 891.936 943.305 258.29C823.926 204.896 757.462 148.229 702.868 101.683C634.294 43.2175 584.447 0.71875 471.989 0.71875ZM364.758 263.937C384.498 263.937 400.502 247.643 400.502 227.543C400.502 207.444 384.498 191.15 364.758 191.15C345.017 191.15 329.014 207.444 329.014 227.543C329.014 247.643 345.017 263.937 364.758 263.937ZM698.931 461.563L527.911 287.555C496.961 256.064 446.568 256.064 415.618 287.555L244.996 461.563C214.046 493.054 214.046 544.329 244.996 575.819L416.015 749.828C446.965 781.318 497.358 781.318 528.308 749.828L699.329 575.819C729.881 544.329 729.881 492.651 698.931 461.563ZM293.27 300.33C293.27 320.43 277.268 336.723 257.527 336.723C237.786 336.723 221.783 320.43 221.783 300.33C221.783 280.231 237.786 263.937 257.527 263.937C277.268 263.937 293.27 280.231 293.27 300.33ZM221.783 409.511C221.783 429.61 205.78 445.904 186.04 445.904C166.299 445.904 150.296 429.61 150.296 409.511C150.296 389.411 166.299 373.117 186.04 373.117C205.78 373.117 221.783 389.411 221.783 409.511ZM186.04 664.265C205.78 664.265 221.783 647.971 221.783 627.871C221.783 607.772 205.78 591.478 186.04 591.478C166.299 591.478 150.296 607.772 150.296 627.871C150.296 647.971 166.299 664.265 186.04 664.265ZM293.27 737.052C293.27 757.151 277.268 773.446 257.527 773.446C237.786 773.446 221.783 757.151 221.783 737.052C221.783 716.952 237.786 700.659 257.527 700.659C277.268 700.659 293.27 716.952 293.27 737.052ZM364.758 846.232C384.498 846.232 400.502 829.938 400.502 809.839C400.502 789.739 384.498 773.446 364.758 773.446C345.017 773.446 329.014 789.739 329.014 809.839C329.014 829.938 345.017 846.232 364.758 846.232ZM614.963 809.839C614.963 829.938 598.96 846.232 579.219 846.232C559.479 846.232 543.476 829.938 543.476 809.839C543.476 789.739 559.479 773.446 579.219 773.446C598.96 773.446 614.963 789.739 614.963 809.839ZM686.45 773.446C706.191 773.446 722.194 757.151 722.194 737.052C722.194 716.952 706.191 700.659 686.45 700.659C666.709 700.659 650.707 716.952 650.707 737.052C650.707 757.151 666.709 773.446 686.45 773.446ZM793.681 627.871C793.681 647.971 777.678 664.265 757.937 664.265C738.196 664.265 722.194 647.971 722.194 627.871C722.194 607.772 738.196 591.478 757.937 591.478C777.678 591.478 793.681 607.772 793.681 627.871ZM757.937 445.904C777.678 445.904 793.681 429.61 793.681 409.511C793.681 389.411 777.678 373.117 757.937 373.117C738.196 373.117 722.194 389.411 722.194 409.511C722.194 429.61 738.196 445.904 757.937 445.904ZM722.194 300.33C722.194 320.43 706.191 336.723 686.45 336.723C666.709 336.723 650.707 320.43 650.707 300.33C650.707 280.231 666.709 263.937 686.45 263.937C706.191 263.937 722.194 280.231 722.194 300.33ZM579.219 263.937C598.96 263.937 614.963 247.643 614.963 227.543C614.963 207.444 598.96 191.15 579.219 191.15C559.479 191.15 543.476 207.444 543.476 227.543C543.476 247.643 559.479 263.937 579.219 263.937Z" fill="black"/>
</svg>
