<svg width="1098" height="1098" viewBox="0 0 1098 1098" fill="none" xmlns="http://www.w3.org/2000/svg">
<path d="M936.096 453.504L644.532 162.142C591.766 109.412 505.853 109.412 453.087 162.142L162.2 453.504C109.434 506.233 109.434 592.088 162.2 644.817L453.764 936.18C506.53 988.907 592.443 988.907 645.208 936.18L936.776 644.817C988.863 592.088 988.863 505.558 936.096 453.504ZM746.004 517.05L511.265 844.915C502.47 857.085 495.706 854.379 495.706 840.189V601.552H363.116C348.232 601.552 343.498 592.088 352.291 579.92L587.031 252.052C595.825 239.883 602.59 242.587 602.59 256.783V495.417H735.181C749.387 496.094 754.122 505.558 746.004 517.05Z" fill="black"/>
<path d="M244.502 183.533C244.502 217.188 217.219 244.47 183.564 244.47C149.909 244.47 122.626 217.188 122.626 183.533C122.626 149.877 149.909 122.595 183.564 122.595C217.219 122.595 244.502 149.877 244.502 183.533Z" fill="black"/>
<path d="M427.315 61.6567C427.315 95.3118 400.033 122.595 366.378 122.595C332.722 122.595 305.44 95.3118 305.44 61.6567C305.44 28.0016 332.722 0.71875 366.378 0.71875C400.033 0.71875 427.315 28.0016 427.315 61.6567Z" fill="black"/>
<path d="M122.626 366.346C122.626 400.001 95.343 427.284 61.6879 427.284C28.0328 427.284 0.75 400.001 0.75 366.346C0.75 332.691 28.0328 305.408 61.6879 305.408C95.343 305.408 122.626 332.691 122.626 366.346Z" fill="black"/>
<path d="M122.626 731.974C122.626 765.629 95.343 792.912 61.6879 792.912C28.0328 792.912 0.75 765.629 0.75 731.974C0.75 698.319 28.0328 671.036 61.6879 671.036C95.343 671.036 122.626 698.319 122.626 731.974Z" fill="black"/>
<path d="M244.502 914.788C244.502 948.443 217.219 975.725 183.564 975.725C149.909 975.725 122.626 948.443 122.626 914.788C122.626 881.132 149.909 853.85 183.564 853.85C217.219 853.85 244.502 881.132 244.502 914.788Z" fill="black"/>
<path d="M427.315 1036.66C427.315 1070.32 400.033 1097.6 366.378 1097.6C332.722 1097.6 305.44 1070.32 305.44 1036.66C305.44 1003.01 332.722 975.725 366.378 975.725C400.033 975.725 427.315 1003.01 427.315 1036.66Z" fill="black"/>
<path d="M792.943 1036.66C792.943 1070.32 765.66 1097.6 732.005 1097.6C698.35 1097.6 671.067 1070.32 671.067 1036.66C671.067 1003.01 698.35 975.725 732.005 975.725C765.66 975.725 792.943 1003.01 792.943 1036.66Z" fill="black"/>
<path d="M975.757 914.788C975.757 948.443 948.474 975.725 914.819 975.725C881.164 975.725 853.881 948.443 853.881 914.788C853.881 881.132 881.164 853.85 914.819 853.85C948.474 853.85 975.757 881.132 975.757 914.788Z" fill="black"/>
<path d="M1097.63 731.974C1097.63 765.629 1070.35 792.912 1036.69 792.912C1003.04 792.912 975.757 765.629 975.757 731.974C975.757 698.319 1003.04 671.036 1036.69 671.036C1070.35 671.036 1097.63 698.319 1097.63 731.974Z" fill="black"/>
<path d="M1097.63 366.346C1097.63 400.001 1070.35 427.284 1036.69 427.284C1003.04 427.284 975.757 400.001 975.757 366.346C975.757 332.691 1003.04 305.408 1036.69 305.408C1070.35 305.408 1097.63 332.691 1097.63 366.346Z" fill="black"/>
<path d="M975.757 183.533C975.757 217.188 948.474 244.47 914.819 244.47C881.164 244.47 853.881 217.188 853.881 183.533C853.881 149.877 881.164 122.595 914.819 122.595C948.474 122.595 975.757 149.877 975.757 183.533Z" fill="black"/>
<path d="M792.943 61.6567C792.943 95.3118 765.66 122.595 732.005 122.595C698.35 122.595 671.067 95.3118 671.067 61.6567C671.067 28.0016 698.35 0.71875 732.005 0.71875C765.66 0.71875 792.943 28.0016 792.943 61.6567Z" fill="black"/>
</svg>
