<svg width="1124" height="1098" viewBox="0 0 1124 1098" fill="none" xmlns="http://www.w3.org/2000/svg">
<path d="M140.826 0.601562C140.826 0.601562 0.507812 55.4476 0.507812 335.162C0.507812 669.723 0.507812 932.983 0.507812 932.983H281.145C281.145 932.983 281.145 669.723 281.145 335.162C281.145 55.4476 140.826 0.601562 140.826 0.601562Z" fill="black"/>
<path d="M281.145 987.791H0.507812V1097.48H281.145V987.791Z" fill="black"/>
<path d="M561.67 0.601562C561.67 0.601562 421.352 55.4476 421.352 335.162C421.352 669.723 421.352 932.983 421.352 932.983H701.991C701.991 932.983 701.991 669.723 701.991 335.162C701.991 55.4476 561.67 0.601562 561.67 0.601562Z" fill="black"/>
<path d="M701.991 987.791H421.352V1097.48H701.991V987.791Z" fill="black"/>
<path d="M982.781 0.601562C982.781 0.601562 842.463 55.4476 842.463 335.162C842.463 669.723 842.463 932.983 842.463 932.983H1123.1C1123.1 932.983 1123.1 669.723 1123.1 335.162C1123.1 55.4476 982.781 0.601562 982.781 0.601562Z" fill="black"/>
<path d="M1123.1 987.791H842.463V1097.48H1123.1V987.791Z" fill="black"/>
</svg>
