<?xml version="1.0" encoding="UTF-8"?>
<svg id="Layer_2" data-name="Layer 2" xmlns="http://www.w3.org/2000/svg" viewBox="0 0 944 1098.52">
  <g id="Layer_1-2" data-name="Layer 1">
    <g>
      <path d="M799.2,176.78c-38.25-26.58-68.72-52.3-95.95-75.64C634.52,42.58,584.6,0,472,0s-162.52,42.58-231.24,101.14C186.08,147.61,119.51,204.45,0,257.83c0,634.73,472,840.69,472,840.69,0,0,472-205.96,472-840.69-59.65-26.58-106.33-54.25-144.8-81.04ZM247.02,360.27c10.15-3.89,17.93,1.08,24.42,8,35.22,38.25,70.45,76.5,105.68,114.76,7.35,8,11.24,16.64,4.32,26.8-7.34,10.59-16.85,11.67-27.66,6.7-24.42-10.81-49.06-21.4-73.48-32.2-13.4-5.62-23.55-15.13-31.77-28.75-16.21-19.66-13.4-45.6-14.48-70.45-.65-10.59,1.51-20.53,12.97-24.85ZM792.29,355.08c-16.86,68.29-33.72,136.8-50.57,205.09-16.86,68.07-33.72,136.15-50.57,204.01-6.05,24.85-14.69,29.82-39.98,23.56-139.83-34.58-279.44-69.16-419.27-103.74-1.3-.43-2.59-.87-4.1-1.08-6.05-1.51-12.32-3.02-11.67-11.24.87-7.99,7.13-8.64,13.4-9.29,14.48-1.51,29.17-3.03,43.66-4.54,35.22-3.67,70.24-7.35,105.46-11.24,4.54-.43,7.78-.22,9.72.65-1.29-1.3-2.81-3.67-4.54-7.35-3.46-7.78-7.13-15.34-10.81-23.12-2.59-6.05-3.67-11.89,1.3-17.72,5.19-5.84,11.24-4.97,17.72-3.03,25.72,8,51.65,15.99,77.37,23.77-8.86-59.86-57.05-221.95-54.03-237.73,7.35-39.55,182.41,131.83,189.75,92.5,1.73-9.08,3.67-17.94,5.62-27.01,1.08-5.62,3.89-9.73,9.72-11.02,6.27-1.51,11.45.22,15.57,4.97,6.05,7.35,11.88,15.13,17.93,22.48,11.89,14.26,25.72,14.05,36.1-.65,27.01-39.12,53.81-78.45,80.82-117.35,4.33-6.27,7.35-16.64,18.37-11.67,9.94,4.75,4.75,13.61,3.03,20.75Z"/>
      <path d="M388.36,647.27c3.24,3.67,4.32,1.08,0,0h0Z"/>
    </g>
  </g>
</svg>