<svg width="1135" height="1001" viewBox="0 0 1135 1001" fill="none" xmlns="http://www.w3.org/2000/svg">
<path d="M744.464 0C886.215 0 914.01 78.125 914.01 78.125C914.01 78.125 886.215 156.25 744.464 156.25H441.504V0H744.464Z" fill="black"/>
<path d="M410.004 859.375L284.002 718.75H441.504L567.506 859.375L441.504 1000H284.002L410.004 859.375Z" fill="black"/>
<path d="M693.507 859.375L567.506 718.75H725.007L851.009 859.375L725.007 1000H567.506L693.507 859.375Z" fill="black"/>
<path d="M914.01 546.875C914.01 546.875 886.215 468.75 744.464 468.75H441.504V625H744.464C886.215 625 914.01 546.875 914.01 546.875Z" fill="black"/>
<path d="M933.466 250C1075.22 250 1103.01 312.5 1103.01 312.5C1103.01 312.5 1075.22 375 933.466 375H630.506V250H933.466Z" fill="black"/>
<path d="M95 531.25H410.004V562.5H95V531.25Z" fill="black"/>
<path d="M410.004 62.5H95V93.75H410.004V62.5Z" fill="black"/>
<path d="M95 281.25H599.006V343.75H95V281.25Z" fill="black"/>
<path d="M977.001 859.625L851 719H1008.5L1134.5 859.625L1008.5 1000.25H851L977.001 859.625Z" fill="black"/>
<path d="M0 719L126.001 859.625L0 1000.25H157.502L283.503 859.625L157.502 719H0Z" fill="black"/>
</svg>
