<svg width="1002" height="1000" viewBox="0 0 1002 1000" fill="none" xmlns="http://www.w3.org/2000/svg">
<path fill-rule="evenodd" clip-rule="evenodd" d="M407.617 0C310.478 0 267.42 35.7076 208.187 84.8278C161.028 123.937 103.617 171.548 0.5 216.409C0.5 748.794 407.617 921.592 407.617 921.592C407.617 921.592 460.573 899.116 528.287 845.399C524.775 837.748 522.816 829.236 522.816 820.265V743.064C522.816 709.754 549.819 682.75 583.13 682.75H679.703C682.647 682.75 684.457 679.735 684.457 675.699V581.423C684.457 548.113 711.46 521.11 744.77 521.11H762.987C794.471 436.057 814.734 335.182 814.734 216.409C711.617 171.548 654.206 123.936 607.048 84.829C547.814 35.7076 504.757 0 407.617 0ZM187.903 352.834C187.903 245.118 242.829 223.998 242.829 223.998C242.829 223.998 297.755 245.118 297.755 352.834V583.048H187.903V352.834ZM187.903 646.395V604.153H297.755V646.395H187.903ZM407.565 223.998C407.565 223.998 352.639 245.118 352.639 352.834V583.048H462.492V352.834C462.492 245.118 407.565 223.998 407.565 223.998ZM462.492 604.153V646.395H352.639V604.153H462.492ZM572.405 223.998C572.405 223.998 517.479 245.118 517.479 352.834V583.048H627.331V352.834C627.331 245.118 572.405 223.998 572.405 223.998ZM517.479 646.395V604.153H627.331V646.395H517.479Z" fill="black"/>
<path d="M725.47 581.423C725.47 570.764 734.11 562.123 744.77 562.123H821.972C832.631 562.123 841.272 570.764 841.272 581.423V723.764H982.406C993.066 723.764 1001.71 732.404 1001.71 743.064V820.265C1001.71 830.925 993.066 839.566 982.406 839.566H841.272V980.7C841.272 991.359 832.631 1000 821.972 1000H744.77C734.11 1000 725.47 991.359 725.47 980.7V839.566H583.13C572.47 839.566 563.829 830.925 563.829 820.265V743.064C563.829 732.404 572.47 723.764 583.13 723.764H725.47V581.423Z" fill="black"/>
</svg>
