<svg width="1183" height="1000" viewBox="0 0 1183 1000" fill="none" xmlns="http://www.w3.org/2000/svg">
<path d="M2.2736 240.966C1.40941 240.97 0.710938 241.672 0.710938 242.536V255.102C0.710938 255.969 1.41379 256.672 2.2808 256.672H14.8397C29.3072 263.612 25.8287 273.155 18.7643 281.79C46.5818 283.195 59.6757 276.55 66.645 256.672H86.2682C90.3477 271.402 81.0068 277.94 64.2902 289.639C113.643 288.676 126.244 278.187 144.542 262.956C144.542 262.956 163.766 246.914 171.826 240.188L2.2736 240.966Z" fill="black"/>
<path d="M864.133 189.168C863.266 189.168 862.563 189.871 862.563 190.738V203.297C862.563 204.164 863.266 204.867 864.133 204.867H1104.32L1039.45 264.742C1035.39 268.49 1039.99 274.96 1044.87 272.358L1179.74 200.387C1183.06 198.613 1183.06 193.85 1179.74 192.076L1053.48 124.69C1053.48 124.69 1052.18 124.174 1051.52 124.138C1049.25 124.017 1047.08 125.561 1046.63 127.983L1035.25 189.168H864.133Z" fill="black"/>
<path d="M316.253 1000C522.689 896.389 658.482 888.54 977.948 896.389C846.865 849.294 769.157 853.218 631.794 871.272C659.267 843.014 818.607 837.52 925.358 837.52C925.358 837.52 733.05 642.857 733.05 540.816C733.05 484.835 764.586 410.25 792.313 348.623C815.118 297.929 835.899 251.736 835.899 220.565C835.899 151.491 787.995 0 601.967 0C426.213 0 381.449 144.635 374.408 189.168H152.202C133.905 173.937 113.643 157.164 64.2902 156.201C81.0068 167.9 90.3477 174.438 86.2682 189.168H66.645C59.6757 169.29 46.5818 162.644 18.7643 164.05C25.8287 172.684 29.3072 182.228 14.8397 189.168H2.2808C1.41379 189.168 0.710938 189.871 0.710938 190.738V203.297C0.710938 204.164 1.41379 204.867 2.2808 204.867H532.131V240.973L374.408 240.188C366.568 267.629 339.587 296.363 319.392 318.681C303.195 336.583 290.402 350.723 292.847 357.71C298.341 373.409 374.408 380.691 374.408 380.691C374.408 380.691 369.651 474.097 372.79 492.936C375.93 511.774 385.349 540.816 413.607 540.816C425.085 540.816 459.686 528.641 497.335 515.392C552.357 496.028 609.054 470.173 619.235 487.441C629.416 504.71 540.765 547.096 540.765 547.096C540.765 547.096 551.754 613.03 532.131 656.986C520.751 682.475 458.409 738.868 405.606 786.631C367.356 821.226 334.108 851.302 328.834 861.852C316.276 886.97 316.253 1000 316.253 1000Z" fill="black"/>
</svg>
