<svg width="1001" height="1001" viewBox="0 0 1001 1001" fill="none" xmlns="http://www.w3.org/2000/svg">
<path d="M799.474 423.462H204.496C199.758 325.271 254.523 233.544 347.688 233.544C460.705 233.544 505.593 328.088 505.593 328.088C505.593 328.088 543.265 233.544 656.282 233.544C749.447 233.544 804.212 325.271 799.474 423.462Z" fill="black"/>
<path d="M723.002 591.106H282.218C369.35 702.189 505.591 819.711 505.591 819.711C505.591 819.711 637.935 702.189 723.002 591.106Z" fill="black"/>
<path d="M856.03 507.87C856.03 507.87 839.48 455.115 755.072 455.115H574.67V560.625H755.072C839.48 560.625 856.03 507.87 856.03 507.87Z" fill="black"/>
<path d="M551.223 487.941H126.839V516.077H551.223V487.941Z" fill="black"/>
<path d="M916.991 502.009C916.991 731.857 730.662 918.187 500.813 918.187C270.964 918.187 84.6345 731.857 84.6345 502.009C84.6345 272.16 270.964 85.8303 500.813 85.8303C730.662 85.8303 916.991 272.16 916.991 502.009ZM110.779 502.009C110.779 717.418 285.403 892.042 500.813 892.042C716.222 892.042 890.846 717.418 890.846 502.009C890.846 286.599 716.222 111.975 500.813 111.975C285.403 111.975 110.779 286.599 110.779 502.009Z" fill="black"/>
<path d="M1000.23 500.25C1000.23 776.392 776.369 1000.25 500.227 1000.25C224.084 1000.25 0.226562 776.392 0.226562 500.25C0.226562 224.108 224.084 0.25 500.227 0.25C776.369 0.25 1000.23 224.108 1000.23 500.25ZM32.5902 500.25C32.5902 758.518 241.958 967.886 500.227 967.886C758.495 967.886 967.863 758.518 967.863 500.25C967.863 241.982 758.495 32.6136 500.227 32.6136C241.958 32.6136 32.5902 241.982 32.5902 500.25Z" fill="black"/>
</svg>
