<svg width="988" height="1000" viewBox="0 0 988 1000" fill="none" xmlns="http://www.w3.org/2000/svg">
<path fill-rule="evenodd" clip-rule="evenodd" d="M540.846 20.7319C538.932 15.7064 536.26 10.9827 533.597 6.27968C532.413 4.19098 531.232 2.10605 530.123 0C528.866 0.401941 527.821 0.690965 526.934 0.936303L526.884 0.950027C525.253 1.4014 524.147 1.70738 523.197 2.30768C518.24 5.27783 513.316 8.30223 508.402 11.3208C503.896 14.0887 499.392 16.8547 494.864 19.5781C372.359 93.3869 245.691 110.955 113.017 48.4613C97.7271 41.2406 90.5427 45.0743 85.2739 63.5358C32.1087 249.155 -1.97161 437.679 0.165321 631.822C0.46007 657.986 6.46558 681.81 18.8818 704.551C69.0996 796.561 132.765 877.739 209.363 948.831C228.816 966.883 247.312 976.076 276.271 971.609C399.992 952.514 517.044 915.964 623.632 848.558C655.501 828.42 684.019 805.42 704.318 771.66C786.776 634.465 851.73 489.751 893.621 334.801C900.205 310.391 905.555 285.653 911.034 260.319L911.079 260.11L911.093 260.046C913.69 248.037 916.317 235.893 919.118 223.585L915.215 223.289C908.04 222.745 902.951 222.36 897.86 221.947C884.654 220.883 871.373 220.223 858.095 219.563C829.112 218.123 800.139 216.683 771.965 211.041C662.502 189.156 582.035 128.672 540.846 20.7319ZM349.391 509.926C268.328 509.927 232.862 494.154 214.93 486.179C205.3 481.897 200.726 479.862 196.862 483.727C185.803 494.788 230.638 565.234 341.259 565.234C451.879 565.234 490.294 619.964 490.294 677.604C490.294 735.244 457.688 768.429 418.682 768.429C379.676 768.429 352.31 735.242 352.31 717.776C352.31 700.311 359.298 694.488 374.434 694.488C381.795 694.488 386.403 697.931 391.137 701.468C396.137 705.203 401.277 709.043 409.949 709.043C426.831 709.043 443.135 698.563 443.135 672.946C443.135 647.329 412.858 613.56 374.434 613.56C336.01 613.56 283.608 661.302 283.608 720.688C283.608 780.073 326.11 826.068 415.771 826.068C505.432 826.068 568.893 750.962 568.893 688.666C568.893 626.37 550.26 597.84 525.227 570.476C524.449 569.625 523.669 568.769 522.885 567.908C498.469 541.081 470.113 509.925 349.391 509.926ZM358.14 464.514C233.544 464.515 168.343 404.542 168.343 331.765C168.343 258.988 230.058 179.807 319.719 179.807C409.38 179.807 444.895 267.721 444.895 300.907C444.895 334.094 413.437 376.013 375.013 376.013C336.589 376.013 310.973 350.981 310.973 325.364C310.973 312.044 322.934 307.852 335.238 303.542C346.595 299.562 358.243 295.481 361.044 284.023C366.878 260.153 340.083 249.677 316.795 254.334C293.506 258.992 247.524 293.339 247.524 328.854C247.524 364.369 258.592 409.199 369.213 409.199C419.122 409.199 487.088 418.776 525.818 447.632C572.931 482.733 596.837 539.62 581.698 544.861C574.396 547.389 565.679 539.855 552.564 528.52C538.491 516.357 519.354 499.817 491.467 486.637C456.765 470.236 406.954 464.514 358.14 464.514Z" fill="black"/>
<path d="M746.94 779.161C860.546 644.964 948.385 405.035 971.971 252.945C1035.41 435.128 889.826 681.035 797.921 821.453L746.94 779.161Z" fill="black"/>
<path d="M385.57 999.57C385.57 999.57 648.271 922.305 714.963 832.84L759.695 872.692C609.232 1014.21 385.57 999.57 385.57 999.57Z" fill="black"/>
</svg>
