<svg width="1011" height="1000" viewBox="0 0 1011 1000" fill="none" xmlns="http://www.w3.org/2000/svg">
<path d="M0.492188 635.635V0L474.598 372.996L0.492188 635.635Z" fill="black"/>
<path d="M366.09 1000H1010.97L631.812 528.36L366.09 1000Z" fill="black"/>
<path d="M574.302 494.203C561.774 495.462 543.608 492.314 527.321 475.945C511.033 459.574 507.274 445.723 507.274 433.761C507.274 421.799 615.021 316.655 625.67 311.619C634.971 307.22 686.328 300.419 699.179 298.768C699.631 298.71 700.067 298.776 700.453 298.94C700.826 299.098 701.153 299.347 701.404 299.659C701.765 300.108 701.97 300.691 701.934 301.327C701.175 314.731 697.876 369.838 694.579 376.468C690.819 384.023 586.832 492.944 574.302 494.203Z" fill="black"/>
<path d="M477.045 520.289C355.13 622.689 7.8134 920.039 45.4984 953.144C83.1327 986.205 380.521 646.648 483.458 526.787C487.369 522.232 481.642 516.427 477.045 520.289Z" fill="black"/>
<path d="M761.281 273.736C781.029 273.736 797.04 257.727 797.04 237.978C797.04 218.229 781.029 202.219 761.281 202.219C741.533 202.219 725.523 218.229 725.523 237.978C725.523 257.727 741.533 273.736 761.281 273.736Z" fill="black"/>
<path d="M723.529 361.821C751.304 370.288 781.121 369.172 808.185 358.652C835.25 348.133 857.994 328.821 872.759 303.818C887.526 278.815 893.46 249.575 889.605 220.793C885.751 192.013 872.335 165.363 851.51 145.127C830.686 124.89 803.662 112.242 774.782 109.214C745.904 106.185 716.844 112.954 692.274 128.431C667.705 143.907 649.052 167.194 639.313 194.55C629.572 221.905 629.312 251.741 638.569 279.262L667.074 269.672C659.967 248.544 660.167 225.639 667.645 204.637C675.122 183.637 689.442 165.759 708.304 153.878C727.168 141.995 749.476 136.799 771.647 139.125C793.817 141.45 814.562 151.16 830.551 166.696C846.537 182.231 856.838 202.69 859.797 224.785C862.755 246.881 858.201 269.329 846.865 288.524C835.529 307.718 818.069 322.545 797.29 330.621C776.511 338.697 753.621 339.554 732.298 333.054L723.529 361.821Z" fill="black"/>
<path d="M835.625 460.789C784.201 477.475 728.596 475.911 678.193 456.362L691.429 422.231C733.979 438.734 780.919 440.054 824.328 425.969C867.737 411.884 904.958 383.257 929.712 344.918C954.467 306.578 965.24 260.872 960.211 215.513C955.183 170.154 934.661 127.918 902.111 95.9307C869.561 63.9438 826.97 44.1645 781.53 39.9295C736.091 35.6945 690.581 47.2639 652.679 72.6847C614.778 98.1054 586.805 135.823 573.483 179.472C560.158 223.12 562.299 270.029 579.542 312.283L545.648 326.115C525.221 276.06 522.685 220.491 538.469 168.784C554.252 117.077 587.388 72.3969 632.288 42.2824C677.186 12.1679 731.098 -1.53649 784.928 3.47998C838.756 8.49645 889.207 31.9279 927.769 69.82C966.331 107.712 990.64 157.746 996.596 211.479C1002.55 265.213 989.792 319.356 960.466 364.774C931.143 410.192 887.05 444.105 835.625 460.789Z" fill="black"/>
</svg>
