<svg width="983" height="1000" viewBox="0 0 983 1000" fill="none" xmlns="http://www.w3.org/2000/svg">
<path d="M467.069 0.0863851L892.308 155.967C893.294 156.329 893.447 157.66 892.568 158.236L774.168 235.722C773.441 236.198 773.391 237.245 774.069 237.788L971.929 396.2C973.05 397.097 972.14 398.899 970.784 398.427C925.608 382.687 671.358 293.989 539.066 245.348C538.014 244.961 538.002 243.53 539.005 243.031L684.619 170.534C685.467 170.111 685.577 168.945 684.822 168.372L465.858 2.3037C464.689 1.41715 465.692 -0.418568 467.069 0.0863851Z" fill="black"/>
<path d="M111.473 622.148L111.473 378.144H0.968761L0.96875 622.148H111.473Z" fill="black"/>
<path d="M982.734 500.146C982.734 500.146 933.868 378.144 684.65 378.144L184.291 378.144L184.291 622.148L684.65 622.148C933.868 622.148 982.734 500.146 982.734 500.146Z" fill="black"/>
<path d="M892.837 844.033L467.598 999.914C466.221 1000.42 465.218 998.583 466.387 997.696L685.351 831.628C686.106 831.055 685.996 829.889 685.148 829.466L539.534 756.969C538.531 756.47 538.543 755.039 539.595 754.652C671.887 706.011 926.137 617.313 971.313 601.573C972.669 601.101 973.579 602.903 972.458 603.8L774.598 762.212C773.92 762.755 773.97 763.802 774.697 764.278L893.097 841.764C893.976 842.34 893.823 843.671 892.837 844.033Z" fill="black"/>
</svg>
