<svg width="1015" height="1001" viewBox="0 0 1015 1001" fill="none" xmlns="http://www.w3.org/2000/svg">
<path d="M480.07 125.034V38.778C480.07 38.778 485.797 21.6199 493.13 12.8922C494.386 11.3976 495.447 9.81424 496.468 8.29238C499.325 4.03023 501.86 0.249995 507.434 0.25C513.007 0.250005 515.542 4.03029 518.399 8.2925L518.401 8.29507C519.421 9.81621 520.482 11.3986 521.737 12.8925C529.07 21.6202 534.797 38.778 534.797 38.778V125.034C550.632 129.831 562.16 144.54 562.16 161.942V208.583L547.856 207.961C547.856 207.961 531.145 165.101 529.016 163.015C523.054 157.173 517.766 151.991 506.136 151.991C494.506 151.991 489.218 157.173 483.255 163.015C481.127 165.101 465.767 209.205 465.767 209.205H452.707V161.942C452.707 144.54 464.235 129.831 480.07 125.034Z" fill="black"/>
<path d="M479.448 475.781V389.524C479.448 389.524 485.175 372.366 492.508 363.638C493.764 362.144 494.826 360.56 495.846 359.039C498.703 354.776 501.238 350.996 506.812 350.996C512.385 350.996 514.92 354.777 517.777 359.039C518.798 360.56 519.86 362.144 521.115 363.639C528.448 372.366 534.175 389.524 534.175 389.524V475.781C550.01 480.577 561.538 495.286 561.538 512.688V716.046C520.493 748.384 494.996 750.872 452.085 716.046V512.688C452.085 495.286 463.613 480.577 479.448 475.781Z" fill="black"/>
<path d="M505.564 764.553C470.738 764.553 442.757 739.678 442.757 739.678V782.588C442.757 782.588 475.713 805.598 505.564 805.598C535.415 805.598 572.11 782.588 572.11 782.588V739.678C572.11 739.678 540.39 764.553 505.564 764.553Z" fill="black"/>
<path d="M478.205 214.151V300.408C462.369 305.204 450.841 319.913 450.841 337.315V384.578H463.901C463.901 384.578 479.261 340.474 481.39 338.388C487.352 332.546 492.64 327.364 504.27 327.364C515.9 327.364 521.188 332.546 527.151 338.388C529.28 340.475 545.991 383.335 545.991 383.335L560.294 383.956V337.315C560.294 319.913 548.766 305.204 532.931 300.408V214.151C532.931 214.151 527.205 196.993 519.871 188.266C518.617 186.772 517.556 185.19 516.536 183.67L516.535 183.668L516.534 183.666C513.677 179.404 511.142 175.623 505.568 175.623C499.994 175.623 497.46 179.403 494.602 183.666C493.582 185.187 492.52 186.771 491.264 188.265C483.931 196.993 478.205 214.151 478.205 214.151Z" fill="black"/>
<path d="M47.6623 169.642L89.5664 242.222C105.031 238.675 121.739 245.531 130.193 260.174L218.254 406.966V499.006C218.254 499.006 195.913 471.044 194.398 468.111C186.992 453.769 178.841 438.762 171.17 426.308C167.338 420.087 163.526 414.339 159.903 409.564C156.44 405 152.544 400.503 148.452 397.527C137.909 389.86 130.383 385.741 123.945 382.218C117.69 378.793 111.544 375.369 101.289 367.751C97.5241 364.954 90.3515 356.779 80.9163 344.278C71.8754 332.3 61.7402 317.707 52.1941 303.484C46.7497 295.373 41.5223 287.42 36.8313 280.195C38.4953 275.886 40.9644 271.881 44.1736 268.43L2.26949 195.85C2.26949 195.85 -1.31605 178.67 0.526456 167.815C0.841991 165.955 0.95328 164.115 1.06025 162.346C1.35982 157.391 1.62552 152.996 6.24867 150.327C10.8718 147.658 14.8105 149.625 19.2513 151.843C20.837 152.635 22.4867 153.459 24.2544 154.115C34.577 157.947 47.6623 169.642 47.6623 169.642Z" fill="black"/>
<path d="M47.6623 338.797L89.5664 411.377C105.031 407.829 121.739 414.686 130.193 429.328C130.193 429.328 222.304 587.041 228.986 600.443C235.667 613.844 247.18 686.8 247.483 699.255H221.364C219.296 695.457 214.913 687.286 209.615 677.41L209.594 677.37L209.591 677.365L209.586 677.356C196.973 653.844 179.195 620.702 175.104 613.844C169.353 604.202 163.675 595.369 159.264 590.957C151.872 583.565 143.583 578.251 134.849 573.203C131.843 571.465 128.84 569.788 125.754 568.065C119.538 564.593 112.989 560.934 105.418 556.228C104.142 555.435 101.409 553.066 97.1856 548.376C93.191 543.94 88.5193 538.178 83.392 531.451C73.1494 518.013 61.5132 501.285 50.491 484.849C44.8497 476.436 39.3931 468.136 34.3965 460.442C34.9392 451.991 38.3292 443.869 44.1736 437.584L2.26949 365.004C2.26949 365.004 -1.31605 347.824 0.526456 336.969C0.841991 335.11 0.95328 333.269 1.06025 331.5C1.35982 326.545 1.62552 322.15 6.24867 319.481C10.8718 316.812 14.8105 318.779 19.2513 320.997C20.8367 321.789 22.487 322.613 24.2544 323.269C34.577 327.101 47.6623 338.797 47.6623 338.797Z" fill="black"/>
<path d="M57.6145 520.389L99.5186 592.969C114.984 589.422 131.691 596.279 140.145 610.921L238.938 782.036C220.265 831.889 197.907 842.006 148.152 834.451L49.3592 663.336C40.9054 648.694 43.3213 630.796 54.1258 619.177L12.2217 546.597C12.2217 546.597 8.63616 529.417 10.4787 518.562C10.7942 516.703 10.9055 514.862 11.0125 513.093C11.312 508.138 11.5777 503.743 16.2009 501.074C20.824 498.405 24.7627 500.372 29.2035 502.59C30.7892 503.382 32.4389 504.206 34.2066 504.862C44.5292 508.694 57.6145 520.389 57.6145 520.389Z" fill="black"/>
<path d="M218.145 848.462C247.032 831.785 258.156 797.453 258.156 797.453L279.002 833.56C279.002 833.56 262.845 868.704 238.085 882.999C213.325 897.294 171.71 895.505 171.71 895.505L150.864 859.398C150.864 859.398 189.259 865.14 218.145 848.462Z" fill="black"/>
<path d="M966.583 169.91L924.679 242.49C909.214 238.942 892.506 245.799 884.053 260.441L795.991 407.234V499.273C795.991 499.273 818.332 471.311 819.847 468.378C827.253 454.036 835.404 439.03 843.075 426.575C846.907 420.354 850.719 414.606 854.343 409.831C857.805 405.268 861.701 400.771 865.793 397.794C876.336 390.127 883.862 386.009 890.3 382.485C896.555 379.06 902.701 375.636 912.956 368.018C916.721 365.221 923.894 357.047 933.329 344.546C942.37 332.567 952.505 317.974 962.051 303.751C967.496 295.64 972.723 287.687 977.414 280.462C975.75 276.153 973.281 272.148 970.072 268.697L1011.98 196.117C1011.98 196.117 1015.56 178.937 1013.72 168.082C1013.4 166.223 1013.29 164.382 1013.18 162.613C1012.89 157.658 1012.62 153.263 1008 150.594C1003.37 147.925 999.435 149.892 994.994 152.11C993.408 152.902 991.759 153.726 989.991 154.382C979.668 158.214 966.583 169.91 966.583 169.91Z" fill="black"/>
<path d="M966.583 339.064L924.679 411.644C909.214 408.096 892.506 414.953 884.053 429.595C884.053 429.595 791.941 587.309 785.259 600.71C778.578 614.111 767.065 687.067 766.762 699.522H792.881C794.952 695.719 799.344 687.532 804.652 677.638L804.655 677.632L804.663 677.616C817.276 654.104 835.051 620.969 839.141 614.111C844.893 604.469 850.57 595.636 854.982 591.224C862.374 583.832 870.662 578.518 879.396 573.47C882.399 571.734 885.4 570.058 888.482 568.337L888.491 568.332C894.707 564.86 901.256 561.202 908.827 556.495C910.104 555.702 912.836 553.333 917.06 548.643C921.054 544.207 925.726 538.445 930.853 531.718C941.096 518.28 952.732 501.553 963.754 485.116C969.395 476.703 974.852 468.403 979.849 460.709C979.306 452.259 975.916 444.137 970.072 437.851L1011.98 365.271C1011.98 365.271 1015.56 348.092 1013.72 337.236C1013.4 335.377 1013.29 333.536 1013.18 331.767C1012.89 326.812 1012.62 322.418 1008 319.748C1003.37 317.079 999.435 319.046 994.994 321.264C993.409 322.056 991.758 322.88 989.991 323.536C979.668 327.369 966.583 339.064 966.583 339.064Z" fill="black"/>
<path d="M956.631 520.657L914.727 593.237C899.262 589.689 882.554 596.546 874.1 611.188L775.307 782.303C793.981 832.156 816.338 842.273 866.093 834.718L964.886 663.603C973.34 648.961 970.924 631.064 960.119 619.444L1002.02 546.864C1002.02 546.864 1005.61 529.684 1003.77 518.829C1003.45 516.97 1003.34 515.129 1003.23 513.36C1002.93 508.405 1002.67 504.01 998.044 501.341C993.421 498.672 989.483 500.639 985.042 502.857C983.456 503.649 981.806 504.473 980.039 505.129C969.716 508.961 956.631 520.657 956.631 520.657Z" fill="black"/>
<path d="M796.1 848.729C767.214 832.052 756.089 797.721 756.089 797.721L735.243 833.827C735.243 833.827 751.4 868.971 776.16 883.266C800.92 897.561 842.535 895.772 842.535 895.772L863.381 859.666C863.381 859.666 824.986 865.407 796.1 848.729Z" fill="black"/>
<path d="M284.872 436.452L306.49 515.003C322.316 515.346 336.647 525.812 341.009 541.659L391.976 726.85C361.08 769.47 336.911 773.685 290.904 754.667L239.936 569.476C235.575 553.629 242.534 537.304 255.954 528.911L234.336 450.361C234.336 450.361 235.324 433.28 239.908 423.468C240.693 421.788 241.276 420.077 241.837 418.432C243.408 413.824 244.801 409.737 249.948 408.32C255.095 406.904 258.382 409.702 262.089 412.857C263.413 413.984 264.79 415.156 266.324 416.198C275.284 422.282 284.872 436.452 284.872 436.452Z" fill="black"/>
<path d="M354.75 784.615C386.909 775.765 406.513 746 406.513 746L417.268 785.077C417.268 785.077 392.602 814.407 365.037 821.993C337.472 829.58 297.819 817.951 297.819 817.951L287.064 778.874C287.064 778.874 322.591 793.466 354.75 784.615Z" fill="black"/>
<path d="M304.003 334.655L282.385 256.104C282.385 256.104 272.796 241.935 263.837 235.85C262.303 234.808 260.926 233.636 259.602 232.51C255.895 229.354 252.607 226.556 247.46 227.973C242.313 229.389 240.92 233.476 239.35 238.083C238.789 239.729 238.206 241.441 237.421 243.121C232.836 252.933 231.849 270.013 231.849 270.013L253.467 348.564C244.264 354.319 238.099 363.804 236.54 374.308C241.398 373.712 246.596 373.177 251.186 372.936C253.61 372.808 256.048 372.752 258.274 372.841C260.237 372.92 263.062 373.136 265.723 374.023C269.098 375.148 271.447 377.425 272.293 378.25C273.552 379.479 274.781 380.913 275.92 382.341C278.222 385.228 280.882 389.013 283.732 393.316C289.469 401.975 296.541 413.593 304.005 426.333C318.958 451.854 335.837 482.488 347.413 504.389C348.175 505.829 349.085 507.496 350.113 509.378L350.117 509.385C361.612 530.433 387.826 578.429 385.543 638.932C387.576 636.874 392.188 633.67 397.336 630.094C405.084 624.713 414.047 618.488 417.259 614.056L338.521 361.311C334.16 345.464 319.828 334.999 304.003 334.655Z" fill="black"/>
<path d="M282.385 85.7065L304.003 164.257C319.828 164.601 334.16 175.066 338.521 190.913L420.369 447.389C417.716 451.049 410.139 455.219 403.249 459.011C397.964 461.919 393.084 464.605 391.14 466.668C389.141 460.209 383.755 437.601 378.193 414.256L378.191 414.248L378.19 414.244C371.904 387.859 365.394 360.533 363.298 354.519C360.373 346.128 357.567 338.627 355.037 332.731C353.775 329.79 352.51 327.077 351.263 324.777C350.156 322.734 348.563 320.057 346.452 317.947C338.757 310.252 331.515 306.576 326.126 303.923C320.858 301.331 319.154 300.386 317.839 298.846C317.752 298.652 317.542 298.169 317.243 297.273C316.685 295.601 316.077 293.323 315.357 290.305C314.925 288.492 314.449 286.393 313.93 284.101L313.93 284.098L313.93 284.097C312.833 279.254 311.54 273.545 310.041 267.844C305.587 250.903 298.269 229.457 283.226 213.681C270.291 200.114 255.035 192.97 242.173 189.203C245.055 184.822 248.884 181.031 253.467 178.166L231.849 99.6149C231.849 99.6149 232.836 82.5345 237.421 72.7228C238.206 71.0427 238.789 69.3311 239.35 67.686C240.92 63.0783 242.313 58.9911 247.46 57.5746C252.607 56.158 255.895 58.9565 259.602 62.1116C260.926 63.2382 262.303 64.4103 263.837 65.4522C272.796 71.5366 282.385 85.7065 282.385 85.7065Z" fill="black"/>
<path d="M729.373 436.719L707.755 515.27C691.93 515.614 677.598 526.079 673.237 541.926L622.269 727.117C653.165 769.737 677.334 773.952 723.341 754.934L774.309 569.743C778.67 553.896 771.712 537.571 758.291 529.178L779.909 450.628C779.909 450.628 778.922 433.547 774.337 423.736C773.552 422.055 772.969 420.344 772.408 418.698C770.838 414.091 769.445 410.004 764.298 408.587C759.151 407.171 755.863 409.969 752.156 413.124C750.832 414.251 749.455 415.423 747.921 416.465C738.962 422.549 729.373 436.719 729.373 436.719Z" fill="black"/>
<path d="M659.495 784.883C627.336 776.032 607.732 746.267 607.732 746.267L596.977 785.344C596.977 785.344 621.643 814.674 649.208 822.261C676.773 829.847 716.426 818.219 716.426 818.219L727.181 779.142C727.181 779.142 691.655 793.733 659.495 784.883Z" fill="black"/>
<path d="M710.242 334.922L731.86 256.372C731.86 256.372 741.449 242.202 750.408 236.117C751.942 235.076 753.319 233.903 754.643 232.777C758.35 229.622 761.638 226.823 766.785 228.24C771.932 229.656 773.325 233.743 774.895 238.351C775.456 239.996 776.04 241.708 776.825 243.388C781.409 253.2 782.397 270.28 782.397 270.28L760.778 348.831C769.981 354.586 776.146 364.071 777.705 374.575C772.847 373.979 767.649 373.444 763.059 373.203C760.635 373.075 758.197 373.019 755.971 373.108C754.008 373.187 751.183 373.403 748.522 374.29C745.147 375.415 742.798 377.692 741.953 378.517C740.694 379.746 739.464 381.18 738.326 382.608C736.023 385.495 733.363 389.281 730.513 393.583C724.777 402.243 717.704 413.86 710.24 426.6C695.287 452.121 678.408 482.755 666.832 504.656C666.07 506.098 665.158 507.767 664.129 509.652C652.633 530.7 626.419 578.697 628.702 639.199C626.669 637.141 622.057 633.937 616.908 630.361C609.16 624.98 600.198 618.755 596.986 614.323L675.724 361.578C680.085 345.731 694.417 335.266 710.242 334.922Z" fill="black"/>
<path d="M731.86 85.9737L710.242 164.524C694.417 164.868 680.085 175.333 675.724 191.18L593.876 447.657C596.529 451.316 604.106 455.486 610.996 459.278C616.281 462.186 621.161 464.873 623.105 466.935C625.104 460.475 630.492 437.861 636.054 414.512L636.056 414.507L636.058 414.499C642.343 388.117 648.852 360.8 650.948 354.786C653.873 346.396 656.678 338.894 659.208 332.998C660.47 330.057 661.735 327.344 662.982 325.045C664.089 323.002 665.682 320.325 667.793 318.214C675.488 310.519 682.731 306.843 688.12 304.191C693.388 301.598 695.091 300.653 696.407 299.113C696.493 298.919 696.703 298.436 697.002 297.54C697.56 295.868 698.168 293.59 698.888 290.572C699.32 288.759 699.796 286.66 700.315 284.368L700.316 284.364L700.318 284.355C701.414 279.514 702.706 273.809 704.204 268.111C708.658 251.17 715.977 229.724 731.019 213.948C743.954 200.382 759.211 193.237 772.072 189.47C769.19 185.089 765.361 181.299 760.778 178.433L782.397 99.8821C782.397 99.8821 781.409 82.8017 776.825 72.99C776.04 71.3097 775.456 69.598 774.895 67.9527C773.325 63.345 771.932 59.2583 766.785 57.8418C761.638 56.4253 758.35 59.2237 754.643 62.3788C753.319 63.5054 751.942 64.6775 750.408 65.7194C741.449 71.8038 731.86 85.9737 731.86 85.9737Z" fill="black"/>
<path d="M106.936 837.315C90.1464 837.315 93.8804 1000.25 93.8804 1000.25H928.458C928.458 1000.25 935.298 828.608 919.125 828.608C912.799 828.608 903.143 845.737 891.387 866.593C873.088 899.055 849.699 940.549 825.846 940.549C813.548 940.549 795.98 930.377 771.874 916.42C719.181 885.911 635.248 837.315 506.816 837.315C380.233 837.315 299.436 884.522 247.116 915.091C222.066 929.727 203.545 940.549 189.652 940.549C163.254 940.549 144.385 901.479 129.863 871.41C120.78 852.601 113.397 837.315 106.936 837.315Z" fill="black"/>
</svg>
