<svg width="1067" height="1001" viewBox="0 0 1067 1001" fill="none" xmlns="http://www.w3.org/2000/svg">
<path d="M926.8 3.18342C925.96 -0.727806 920.379 -0.727806 919.539 3.18342L895.887 113.329C895.58 114.757 894.465 115.873 893.036 116.18L782.891 139.831C778.98 140.671 778.98 146.253 782.891 147.093L892.787 170.69C894.34 171.024 895.508 172.308 895.695 173.885L919.482 374.716C919.999 379.085 926.34 379.085 926.857 374.716L950.643 173.885C950.733 173.136 951.043 172.453 951.511 171.906C952.027 171.302 952.737 170.866 953.551 170.69L1063.45 147.093C1067.36 146.253 1067.36 140.671 1063.45 139.831L953.302 116.18C951.874 115.873 950.758 114.757 950.452 113.329L926.8 3.18342Z" fill="black"/>
<path d="M147.069 692.565C146.229 688.653 140.648 688.653 139.808 692.565L116.156 802.71C116.016 803.363 115.707 803.95 115.275 804.425C114.764 804.989 114.081 805.394 113.305 805.561L3.15998 829.212C-0.751244 830.052 -0.751244 835.634 3.15998 836.474L113.21 860.106C114.687 860.422 115.824 861.602 116.086 863.09L139.782 997.183C140.505 1001.27 146.372 1001.27 147.095 997.183L170.79 863.09C171.053 861.602 172.19 860.422 173.667 860.106L283.717 836.474C287.628 835.634 287.628 830.052 283.717 829.212L173.571 805.561C173.141 805.469 172.739 805.302 172.378 805.076C171.98 804.826 171.632 804.502 171.354 804.123C171.259 803.993 171.172 803.858 171.095 803.717C170.924 803.406 170.798 803.068 170.721 802.71L147.069 692.565Z" fill="black"/>
<path fill-rule="evenodd" clip-rule="evenodd" d="M555.582 44.4483L656.452 329.731H460.9C460.9 329.731 447.286 330.969 447.286 346.439C447.286 361.91 460.9 361.91 460.9 361.91H656.452V616.87C656.452 616.87 657.071 631.722 675.017 631.722C692.963 631.722 692.963 616.87 692.963 616.87V329.731L611.896 99.5245L798.784 361.91V740.637C724.524 819.435 575.508 977.527 573.528 979.507C571.548 981.486 469.976 821.085 419.438 740.637H624.891C624.891 740.637 645.932 740.637 645.932 720.215C645.932 699.794 624.891 699.794 624.891 699.794H403.967V355.103L555.582 44.4483ZM434.918 399.89C434.918 393.739 439.906 388.752 446.058 388.752L541.529 388.758C551.009 388.758 556.156 399.85 550.033 407.09L454.554 519.996C447.852 527.921 434.908 523.181 434.909 512.802L434.918 399.89ZM676.255 686.798C686.85 686.798 695.438 678.209 695.438 667.614C695.438 657.019 686.85 648.43 676.255 648.43C665.659 648.43 657.071 657.019 657.071 667.614C657.071 678.209 665.659 686.798 676.255 686.798Z" fill="black"/>
<path d="M500.506 99.5245C460.488 176.26 379.833 329.731 377.358 329.731L290.102 296.314L500.506 99.5245Z" fill="black"/>
<path d="M280.819 337.157L377.358 361.91V699.794H280.819V337.157Z" fill="black"/>
<path d="M511.645 944.852L295.672 740.637H377.358L511.645 944.852Z" fill="black"/>
<path d="M923.169 465.256C932.74 465.256 940.497 457.498 940.497 447.928C940.497 438.358 932.74 430.601 923.169 430.601C913.599 430.601 905.842 438.358 905.842 447.928C905.842 457.498 913.599 465.256 923.169 465.256Z" fill="black"/>
</svg>
