<svg width="1073" height="1001" viewBox="0 0 1073 1001" fill="none" xmlns="http://www.w3.org/2000/svg">
<path fill-rule="evenodd" clip-rule="evenodd" d="M394.919 380.391C394.919 380.391 453.471 461.312 534.392 461.312C615.313 461.312 668.603 380.391 668.603 380.391V151.443C668.603 151.443 655.445 0.12757 531.103 0.125C406.761 0.12243 394.919 151.443 394.919 151.443V380.391ZM460.706 150.783C448.352 150.783 438.338 160.798 438.338 173.151C438.338 185.505 448.352 195.52 460.706 195.52H501.495C513.849 195.52 523.864 185.505 523.864 173.151C523.864 160.798 513.849 150.783 501.495 150.783H460.706ZM640.311 381.046C630.501 381.046 622.548 373.093 622.548 363.283C622.548 353.473 630.501 345.52 640.311 345.52C650.122 345.52 658.074 353.473 658.074 363.283C658.074 373.093 650.122 381.046 640.311 381.046ZM515.969 425.125C515.969 434.935 523.922 442.888 533.732 442.888C543.543 442.888 551.495 434.935 551.495 425.125C551.495 415.315 543.543 407.362 533.732 407.362C523.922 407.362 515.969 415.315 515.969 425.125ZM406.759 363.283C406.759 373.093 414.711 381.046 424.522 381.046C434.332 381.046 442.285 373.093 442.285 363.283C442.285 353.473 434.332 345.52 424.522 345.52C414.711 345.52 406.759 353.473 406.759 363.283ZM547.548 173.151C547.548 160.798 557.563 150.783 569.917 150.783H610.706C623.06 150.783 633.074 160.798 633.074 173.151C633.074 185.505 623.06 195.52 610.706 195.52H569.917C557.563 195.52 547.548 185.505 547.548 173.151Z" fill="black"/>
<path fill-rule="evenodd" clip-rule="evenodd" d="M292.945 552.099V398.151H366.629C366.629 398.151 425.84 490.914 534.392 490.914C642.945 490.914 699.524 398.151 699.524 398.151H771.892V552.099C771.892 552.099 864.656 686.309 864.656 700.783C864.656 715.257 764.656 1000.12 533.077 1000.12C301.498 1000.12 201.498 713.283 201.498 700.783C201.498 688.283 292.945 552.099 292.945 552.099ZM346.232 425.125C346.232 434.935 338.279 442.888 328.469 442.888C318.659 442.888 310.706 434.935 310.706 425.125C310.706 415.315 318.659 407.362 328.469 407.362C338.279 407.362 346.232 415.315 346.232 425.125ZM323.206 595.52C333.016 595.52 340.969 587.567 340.969 577.757C340.969 567.946 333.016 559.993 323.206 559.993C313.396 559.993 305.443 567.946 305.443 577.757C305.443 587.567 313.396 595.52 323.206 595.52ZM236.364 723.151C246.174 723.151 254.127 715.199 254.127 705.388C254.127 695.578 246.174 687.625 236.364 687.625C226.554 687.625 218.601 695.578 218.601 705.388C218.601 715.199 226.554 723.151 236.364 723.151ZM742.943 595.52C733.132 595.52 725.18 587.567 725.18 577.757C725.18 567.946 733.132 559.993 742.943 559.993C752.753 559.993 760.706 567.946 760.706 577.757C760.706 587.567 752.753 595.52 742.943 595.52ZM812.022 705.388C812.022 715.199 819.975 723.151 829.785 723.151C839.595 723.151 847.548 715.199 847.548 705.388C847.548 695.578 839.595 687.625 829.785 687.625C819.975 687.625 812.022 695.578 812.022 705.388ZM737.68 442.888C727.869 442.888 719.917 434.935 719.917 425.125C719.917 415.315 727.869 407.362 737.68 407.362C747.49 407.362 755.443 415.315 755.443 425.125C755.443 434.935 747.49 442.888 737.68 442.888ZM588.338 643.312C588.338 568.152 625.18 553.414 625.18 553.414C625.18 553.414 662.022 568.152 662.022 643.312V803.949H588.338V643.312ZM588.338 818.676H662.022V848.151H588.338V818.676ZM531.759 553.414C531.759 553.414 494.917 568.152 494.917 643.312V803.949H568.601V643.312C568.601 568.152 531.759 553.414 531.759 553.414ZM568.601 818.676H494.917V848.151H568.601V818.676ZM408.074 643.312C408.074 568.152 444.916 553.414 444.916 553.414C444.916 553.414 481.759 568.152 481.759 643.312V803.949H408.074V643.312ZM408.074 818.676H481.759V848.151H408.074V818.676Z" fill="black"/>
<path d="M815.382 400.116C903.471 397.491 1072.56 534.993 1072.56 598.146C1072.56 650.123 998.879 670.517 920.589 670.517C886.378 670.517 812.032 578.408 812.011 520.506C812.011 519.731 811.926 517.097 811.797 513.105C810.94 486.619 808.151 400.331 815.382 400.116Z" fill="black"/>
<path d="M0.179688 597.535C0.179828 534.382 169.271 396.879 257.361 399.504C264.592 399.72 261.802 486.007 260.946 512.493C260.817 516.485 260.732 519.119 260.731 519.895C260.71 577.796 186.364 669.906 152.153 669.906C73.8637 669.906 0.179567 649.511 0.179688 597.535Z" fill="black"/>
</svg>
