<svg width="1025" height="1001" viewBox="0 0 1025 1001" fill="none" xmlns="http://www.w3.org/2000/svg">
<path d="M133.312 0.125H14.6675L275.334 229.231L133.312 0.125Z" fill="black"/>
<path d="M0.640625 75.5195V128.705L133.312 192.995L0.640625 75.5195Z" fill="black"/>
<path d="M782.63 403.982C782.63 440.803 766.859 499.248 758.083 499.248C754.481 499.248 754.522 484.282 754.572 466.715C754.65 441.484 754.736 410.891 744.056 411.58C725.938 412.749 722.441 481.13 722.441 515.613C722.441 525.516 723.911 537.71 725.436 550.333C729.221 581.667 733.326 615.638 716.012 623.737C679.776 640.686 624.253 616.139 621.33 515.613C620.769 496.272 626.038 468.768 630.755 444.128L630.768 444.084C636.307 415.158 641.083 390.19 634.773 387.033C623.084 381.189 586.848 470.026 586.848 515.613C586.848 529.67 589.738 544.838 592.537 559.525C598.811 592.466 604.623 622.982 576.327 633.088C535.416 647.7 487.49 560.616 487.49 520.289C487.49 507.438 495.234 483.017 503.088 458.256C514.17 423.333 525.462 387.73 515.544 382.942C498.595 374.76 450.305 510.353 451.254 547.173C451.556 558.805 455.688 571.953 459.752 584.868C468.546 612.834 476.998 639.703 445.41 647.7C399.238 659.389 360.084 562.369 361.248 536.069C361.705 525.8 368.846 501.717 376.531 475.823L376.586 475.645L376.695 475.279L376.736 475.159C388.7 434.921 401.882 390.576 393.38 387.033C379.353 381.189 324.679 523.375 325.597 555.356C325.852 564.22 328.387 574.5 330.989 585.042C337.774 612.536 344.998 641.813 313.314 652.375C269.485 666.986 231.5 547.758 230.331 515.613C229.162 483.468 294.621 314.561 308.648 319.237C315.538 321.533 305.789 345.261 295.886 369.367C285.626 394.341 275.201 419.722 282.932 422.1C289.397 424.09 298.401 405.027 308.903 382.779C323.09 352.735 340.016 316.886 357.144 319.237C372.969 321.409 382.864 329.347 391.549 336.316C399.224 342.473 405.959 347.875 415.004 347.875C423.748 347.875 431.415 339.708 439.794 330.78C449.898 320.011 461.048 308.132 476.386 308.132C491.326 308.132 499.298 319.401 506.755 329.937C513.302 339.188 519.448 347.875 529.557 347.875C539.301 347.875 547.15 339.806 555.776 330.938C566.287 320.128 577.953 308.132 595.614 308.132C611.76 308.132 618.91 318.159 626.029 328.14C633.079 338.03 640.097 347.875 655.804 347.875C672.132 347.875 680.328 337.238 688.241 326.969C695.62 317.39 702.752 308.132 716.012 308.132C743.481 308.132 782.63 380.02 782.63 403.982Z" fill="black"/>
<path d="M0.640625 425.607V461.259L142.078 472.363L0.640625 425.607Z" fill="black"/>
<path d="M0.640625 549.511V499.248H178.899L0.640625 549.511Z" fill="black"/>
<path d="M81.2952 1000.12H0.640625V938.173L281.763 729.523L81.2952 1000.12Z" fill="black"/>
<path d="M768.613 792.644L901.868 1000.12H969.08V970.902L768.613 792.644Z" fill="black"/>
<path d="M894.855 844.076L1015.25 883.819V946.355L894.855 844.076Z" fill="black"/>
<path d="M247.864 857.518L191.757 1000.12H142.078L247.864 857.518Z" fill="black"/>
<path d="M500.933 0.125H564.638L515.544 229.231L500.933 0.125Z" fill="black"/>
<path d="M876.736 0.125H919.986L818.876 140.978L876.736 0.125Z" fill="black"/>
<path d="M1024.6 0.125V100.651L807.771 252.609L988.952 0.125H1024.6Z" fill="black"/>
<path d="M1024.6 524.964V472.363L836.409 504.508L1024.6 524.964Z" fill="black"/>
<path d="M507.946 742.965C516.197 750.527 547.287 741.513 577.323 732.805C598.363 726.706 618.887 720.756 630.682 720.756C644.786 720.756 667.114 726.144 689.775 731.613C713.121 737.246 736.819 742.965 752.239 742.965C782.63 742.965 789.653 719.003 789.653 692.118C789.653 665.233 773.302 578.734 762.184 578.734C756.846 578.734 757.307 597.052 757.805 616.875C758.344 638.347 758.928 661.586 752.239 665.233C746.399 668.414 731.55 665.102 711.062 660.531C686.387 655.027 653.535 647.7 618.408 647.7C554.118 647.7 493.919 730.107 507.946 742.965Z" fill="black"/>
<path d="M475.788 1000.12H529.557L507.946 828.88L475.788 1000.12Z" fill="black"/>
<path d="M634.773 1000.12H583.925L578.081 883.819L634.773 1000.12Z" fill="black"/>
<path d="M182.99 214.035C182.99 218.554 179.328 222.217 174.808 222.217C170.287 222.217 166.625 218.554 166.625 214.035C166.625 209.516 170.287 205.853 174.808 205.853C179.328 205.853 182.99 209.516 182.99 214.035Z" fill="black"/>
<path d="M858.618 830.049C863.139 830.049 866.801 826.386 866.801 821.867C866.801 817.347 863.139 813.684 858.618 813.684C854.098 813.684 850.436 817.347 850.436 821.867C850.436 826.386 854.098 830.049 858.618 830.049Z" fill="black"/>
</svg>
