<svg width="1109" height="1001" viewBox="0 0 1109 1001" fill="none" xmlns="http://www.w3.org/2000/svg">
<path d="M797.006 1.54492C804.327 -1.92883 813.078 1.19023 816.552 8.51154C853.314 85.9901 872.326 131.428 897.575 219.315C899.813 227.103 895.313 235.231 887.524 237.469C879.736 239.706 871.608 235.206 869.37 227.418C844.672 141.448 826.31 97.5349 790.039 21.0911C786.566 13.7698 789.685 5.01868 797.006 1.54492Z" fill="black"/>
<path d="M47.0519 39.5444C51.6209 32.8517 60.7504 31.1302 67.4431 35.6992L285.441 184.524C292.133 189.093 293.855 198.223 289.286 204.916C284.717 211.608 275.587 213.33 268.895 208.761L50.8971 59.9357C44.2044 55.3666 42.4828 46.2371 47.0519 39.5444Z" fill="black"/>
<path d="M453.204 313.487C446.54 308.877 437.4 310.543 432.79 317.208C428.18 323.872 429.846 333.012 436.511 337.622L562.279 424.611C568.943 429.221 578.083 427.555 582.693 420.891C587.303 414.226 585.637 405.086 578.972 400.476L453.204 313.487Z" fill="black"/>
<path d="M2.65242 173.233C6.89697 166.33 15.9339 164.174 22.837 168.419L501.802 462.925C508.706 467.17 510.861 476.207 506.616 483.11C502.372 490.013 493.335 492.168 486.432 487.923L7.46608 193.417C0.563008 189.173 -1.59214 180.136 2.65242 173.233Z" fill="black"/>
<path d="M583.113 6.6613C578.038 0.343703 568.802 -0.663536 562.484 4.41157C556.167 9.48667 555.16 18.7223 560.235 25.0399C619.4 98.6905 657.049 152.391 722.065 260.785C726.233 267.734 735.246 269.988 742.195 265.82C749.145 261.652 751.399 252.639 747.231 245.69C681.634 136.328 643.235 81.5032 583.113 6.6613Z" fill="black"/>
<path d="M584.244 210.537C583.015 209.683 581.555 209.223 580.058 209.223C580.058 209.223 554.718 208.885 543.638 208.89C522.471 209.599 494.194 211.016 465.873 213.856C437.649 216.686 408.982 220.965 387.214 227.511C376.379 230.769 366.733 234.737 359.647 239.708C352.61 244.645 346.864 251.504 346.864 260.588C346.864 269.658 352.447 276.312 359.446 280.915C366.391 285.482 375.78 288.806 386.221 291.315C407.212 296.358 434.807 298.633 461.92 299.488C489.139 300.347 516.31 299.785 536.646 299.012C546.822 298.625 555.304 298.185 561.249 297.841C563.754 297.696 565.809 297.568 567.351 297.468L638.374 365.955C641.059 368.544 645.26 368.706 648.136 366.332L714.164 311.83C715.935 310.369 716.919 308.162 716.824 305.868C716.729 303.574 715.566 301.457 713.68 300.147L584.244 210.537Z" fill="black"/>
<path d="M965.746 323.981C965.746 364.21 933.134 396.821 892.906 396.821C852.677 396.821 820.065 364.21 820.065 323.981C820.065 283.752 852.677 251.141 892.906 251.141C933.134 251.141 965.746 283.752 965.746 323.981Z" fill="black"/>
<path d="M969.478 62.9596C979.348 60.6795 989.197 66.8321 991.477 76.7017C995.174 92.7068 998.79 108.283 1002.32 123.498L1002.34 123.587L1002.37 123.703L1002.38 123.77C1030.08 243.101 1052.62 340.171 1069.01 447.172C1069.87 450.756 1070.77 455.437 1071.76 460.605L1071.76 460.608L1071.76 460.61L1071.76 460.612C1073.08 467.539 1074.57 475.34 1076.38 482.542C1083.27 509.964 1091.81 547.196 1098.38 586.253C1104.93 625.178 1109.63 666.539 1108.55 702.019C1108.02 719.759 1106.03 736.572 1101.83 751.114C1097.65 765.555 1090.97 778.905 1080.21 788.315C1060.76 805.342 1033.27 811.502 1005.72 812.609C977.796 813.731 947.369 809.752 919.619 804.169C891.763 798.564 866.011 791.218 847.266 785.295C837.877 782.328 830.207 779.706 824.864 777.817C822.191 776.872 820.098 776.111 818.661 775.58C817.942 775.315 817.387 775.107 817.005 774.964C816.865 774.911 816.748 774.867 816.655 774.832L816.442 774.75L816.433 774.747C816.402 774.735 816.37 774.723 816.338 774.711C813.103 773.458 810.564 771.183 808.948 768.397C807.283 765.527 806.599 762.114 807.144 758.717C807.486 756.556 808.3 754.548 809.481 752.805C810.156 751.805 810.943 750.907 811.818 750.12C814.338 747.849 817.654 746.435 821.313 746.355L903.933 744.527L675.998 613.924C668.967 609.895 666.533 600.929 670.561 593.898C674.59 586.866 683.556 584.433 690.587 588.461L885.576 700.187L757.59 579.374C751.697 573.811 751.429 564.525 756.992 558.632C762.554 552.739 771.841 552.471 777.734 558.034L924.61 696.678C954.737 723.874 975.472 739.534 1007.81 757.676C949.065 676.215 901.928 627.129 840.456 563.118L840.449 563.11C824.13 546.117 806.801 528.071 787.976 508.089C708.135 561.238 654.271 589.368 565.177 632.967C609.837 657.329 660.203 687.037 700.718 714.608C722.874 729.686 742.289 744.263 756.241 757.078C763.204 763.475 769.008 769.613 773.125 775.312C777.08 780.788 780.239 786.879 780.239 792.99C780.239 797.225 778.03 801.223 775.892 804.318C773.551 807.706 770.293 811.4 766.422 815.277C758.654 823.055 747.722 832.257 734.794 842.188C708.891 862.086 674.311 885.419 639.317 906.929C604.339 928.428 568.718 948.248 540.728 961.047C526.793 967.42 514.41 972.211 504.802 974.521C500.049 975.664 495.471 976.328 491.509 976.026C487.666 975.733 482.704 974.351 479.933 969.64C477.76 965.946 477.648 961.838 478.243 958.29C478.842 954.72 480.269 950.989 482.107 947.285C485.79 939.863 491.798 931.237 499.107 922.069C513.788 903.655 534.713 881.837 555.928 861.049C577.186 840.218 598.919 820.245 615.323 805.491C623.027 798.562 629.563 792.778 634.332 788.589L481.318 717.341L318.811 866.519C318.501 866.803 318.167 867.061 317.812 867.289L313.85 861.114C317.812 867.289 317.811 867.289 317.808 867.291L317.624 867.409C317.5 867.488 317.318 867.605 317.077 867.759L314.957 869.109C313.102 870.289 310.382 872.012 306.916 874.192C299.985 878.551 290.071 884.736 278.124 892.05C254.24 906.671 222.194 925.824 189.612 943.906C157.094 961.954 123.793 979.076 97.4707 989.525C84.3857 994.719 72.5468 998.461 63.1919 999.685C58.5405 1000.29 53.9341 1000.36 49.8918 999.301C45.6532 998.189 41.6038 995.678 39.4294 991.049C37.4172 986.765 37.672 982.234 38.8464 978.217C40.0086 974.242 42.2116 970.234 44.9348 966.328C50.3879 958.507 58.8688 949.777 69.0456 940.684C89.4846 922.421 118.089 901.537 146.947 881.905C175.86 862.234 205.259 843.666 227.412 830.024C238.493 823.201 247.771 817.604 254.282 813.711C257.538 811.765 260.102 810.244 261.855 809.208C262.122 809.051 262.37 808.905 262.598 808.77C262.884 808.601 263.14 808.45 263.365 808.318C339.936 711.825 377.839 655.389 439.069 551.868C439.552 551.051 440.189 550.336 440.945 549.762L445.383 555.603C440.945 549.762 440.946 549.761 440.948 549.759L441.743 549.156C442.131 548.861 442.658 548.461 443.316 547.962L444.068 547.392C446.105 545.847 449.093 543.583 452.902 540.701C460.521 534.937 471.423 526.704 484.558 516.824C510.828 497.066 546.041 470.718 581.799 444.367C617.546 418.023 653.884 391.642 682.39 371.833C696.632 361.937 708.996 353.626 718.386 347.769C723.068 344.849 727.123 342.468 730.358 340.793C731.969 339.959 733.5 339.236 734.878 338.703C736.026 338.26 737.9 337.606 739.888 337.606C745.349 337.606 751.049 339.777 756.53 342.805C762.143 345.907 768.252 350.32 774.706 355.699C787.623 366.464 802.597 381.67 818.695 399.658C850.927 435.675 888.307 483.574 923.753 531.317C959.224 579.092 992.861 626.851 1017.62 662.656C1030.01 680.561 1040.18 695.484 1047.25 705.932L1047.74 706.658L1048.03 706.25L1048.31 665.443L940.694 409.852C937.55 402.383 941.055 393.779 948.524 390.635C955.992 387.49 964.596 390.995 967.741 398.464L1048.82 591.036L1048.88 582.189C1048.77 581.61 1048.69 581.021 1048.63 580.422C1032.92 417.585 1005 297.287 966.581 131.761C963.054 116.564 959.439 100.986 955.736 84.9584C953.456 75.0888 959.609 65.2396 969.478 62.9596Z" fill="black"/>
</svg>
