<svg width="1000" height="1001" viewBox="0 0 1000 1001" fill="none" xmlns="http://www.w3.org/2000/svg">
<path d="M129.88 611.985C129.88 606.031 134.707 601.204 140.661 601.204H259.26C265.214 601.204 270.041 606.031 270.041 611.985V730.582H388.639C394.594 730.582 399.421 735.409 399.421 741.364V859.962C399.421 865.916 394.594 870.744 388.639 870.744H270.041V989.343C270.041 995.297 265.214 1000.12 259.26 1000.12H140.661C134.707 1000.12 129.88 995.297 129.88 989.343V870.744H11.2816C5.3271 870.744 0.5 865.916 0.5 859.962V741.364C0.5 735.409 5.32711 730.582 11.2817 730.582H129.88V611.985Z" fill="black"/>
<path fill-rule="evenodd" clip-rule="evenodd" d="M999.151 231.931C999.151 327.793 930.651 393.213 854.946 444.401L455.522 750.502C454.135 751.564 452.274 751.772 450.687 751.043C449.099 750.314 448.044 748.767 447.946 747.023C446.791 726.637 442.845 712.709 436.736 703.268C430.742 694.006 422.401 688.647 411.408 685.875C400.224 683.053 386.368 682.935 369.658 684.331C356.6 685.424 312.447 691.458 312.447 691.458C312.447 691.458 309.496 691.147 308.456 690.089C307.414 689.03 306.935 687.543 307.156 686.075C312.597 650.262 314.892 624.435 314.408 605.81C313.923 587.071 310.63 576.411 305.69 570.179C300.925 564.172 293.955 561.465 283.705 560.417C278.967 559.934 273.813 559.822 268.149 559.845C265.151 559.857 262.008 559.907 258.71 559.959L258.52 559.963C254.316 560.029 249.855 560.099 245.109 560.099C244.293 560.099 243.508 559.888 242.821 559.508C242 559.052 241.318 558.354 240.884 557.48C240.086 555.875 240.268 553.958 241.35 552.531L565.76 109.936C571.917 100.042 578.813 90.6431 586.373 81.8136L589.448 77.6181L590.165 77.4939C632.877 30.0348 695.219 0.125 764.65 0.125C893.417 0.125 999.151 105.024 999.151 231.931ZM887.526 232.148C870.817 284.143 762.206 376.135 762.206 376.135C762.206 376.135 650.396 284.143 633.686 232.148C616.977 180.153 642.041 128.157 692.169 128.157C742.297 128.157 762.207 168.154 762.207 168.154C762.207 168.154 778.916 128.157 829.044 128.157C879.172 128.157 904.236 180.153 887.526 232.148Z" fill="black"/>
</svg>
