<svg width="1048" height="1001" viewBox="0 0 1048 1001" fill="none" xmlns="http://www.w3.org/2000/svg">
<path d="M496.305 0.973217C496.217 0.646996 495.991 0.37719 495.687 0.233702C495.383 0.0902135 495.03 0.0889871 494.726 0.228796C436.506 27.066 403.364 44.8781 350.977 90.8605C350.771 91.0408 350.639 91.2873 350.595 91.5534L350.585 91.6528V91.7288L350.595 91.8858C350.649 92.2709 350.884 92.6045 351.233 92.7737C361.416 97.732 372.866 107.151 384.522 119.515C396.168 131.864 407.961 147.091 418.831 163.592C438.189 192.966 446.43 237.699 452.091 268.415L452.385 270.008C452.984 273.238 453.548 276.302 454.098 279.164C454.348 280.467 454.583 281.76 454.804 283.04C455.128 284.925 455.427 286.786 455.721 288.631C456.079 290.855 456.428 293.043 456.81 295.199C457.718 300.27 458.787 305.026 460.509 309.05C460.833 309.811 461.186 310.548 461.564 311.258C461.755 311.619 461.956 311.973 462.162 312.319L462.653 313.104C464.12 315.35 465.949 317.247 468.28 318.666C471.9 320.873 476.599 321.842 482.741 321.344H544.65C549.32 320.965 552.763 319.221 555.221 316.521C557.659 313.847 559.052 310.329 559.818 306.527C561.142 299.942 561.309 276.095 560.887 267.364L669.246 267.453C683.051 261.51 694.461 251.239 704.385 242.307L704.547 242.156C706.146 240.72 707.706 239.32 709.227 237.98C710.777 236.615 712.288 235.311 713.769 234.094C715.226 232.898 716.654 231.785 718.052 230.78C731.007 221.459 741.795 210.629 753.838 195.696C763.855 183.278 769.021 173.871 768.187 163.592C767.755 158.252 753.872 142.933 751.091 141.048C750.463 140.623 749.477 140.153 748.491 139.734L747.789 139.442C747.215 139.207 746.671 138.998 746.239 138.833L745.631 138.607C745.454 138.568 745.268 138.575 745.091 138.624L707.529 149.203L707.426 149.238C678.444 160.555 654.608 167.211 630.924 169.905C607.465 172.575 563.335 174.367 535.231 169.905C522.761 97.331 514.171 66.0408 496.398 1.3117L496.305 0.973217Z" fill="black"/>
<path d="M522.673 361.551C533.077 361.551 541.51 369.985 541.51 380.389V802.347C541.51 812.75 533.077 821.184 522.673 821.184C512.268 821.184 503.835 812.75 503.835 802.347V380.389C503.835 369.985 512.268 361.551 522.673 361.551Z" fill="black"/>
<path d="M72.7528 402.91L87.5284 461.39L102.309 402.91L157.242 427.818L120.734 379.805L174.46 352.385L114.156 350.991L126.219 291.892L87.5284 338.169L48.843 291.892L60.9009 350.991L0.601562 352.385L54.3274 379.805L17.8201 427.818L72.7528 402.91Z" fill="black"/>
<path d="M417.109 324.275C421.745 329.435 421.318 337.376 416.158 342.01C377.752 376.51 341.878 394.998 302.746 402.977C264.036 410.867 223.06 408.26 175.137 402.27C168.255 401.409 163.373 395.133 164.232 388.251C165.095 381.369 171.37 376.486 178.252 377.347C225.767 383.287 263.285 385.388 297.727 378.365C331.743 371.43 363.683 355.384 399.371 323.325C404.532 318.69 412.474 319.116 417.109 324.275Z" fill="black"/>
<path d="M453.455 369.983C456.03 362.434 451.998 354.227 444.448 351.652C436.899 349.077 428.692 353.108 426.116 360.657C403.555 426.788 380.7 470.71 349.525 503.916C318.409 537.062 277.919 560.687 217.889 584.201C210.462 587.11 206.798 595.489 209.707 602.914C212.616 610.341 220.994 614.003 228.421 611.094C290.315 586.852 335.289 561.282 370.585 523.686C405.822 486.152 430.32 437.788 453.455 369.983Z" fill="black"/>
<path d="M496.285 381.071C496.663 372.409 489.947 365.082 481.284 364.706C472.621 364.329 465.297 371.045 464.919 379.707C461.078 468.042 451.208 530.047 429.879 584.615C408.579 639.11 375.397 687.344 323.084 747.46C317.394 754 318.081 763.915 324.625 769.607C331.164 775.298 341.078 774.61 346.768 768.069C400.161 706.711 435.947 655.332 459.121 596.045C482.265 536.831 492.381 470.886 496.285 381.071Z" fill="black"/>
<path d="M111.674 543.248L134.014 599.276L185.198 567.36L155.319 619.759L212.184 639.874L152.591 649.186L172.316 706.187L127.882 665.399L95.6128 716.361L99.7972 656.189L39.8364 662.738L89.4906 628.491L46.9838 585.695L104.718 603.162L111.674 543.248Z" fill="black"/>
<path d="M262.697 805.69L213.508 770.784L240.21 824.868L182.25 841.564L241.186 854.406L218.105 910.131L264.889 872.06L294.063 924.851L293.469 864.537L352.935 874.643L305.405 837.503L350.384 797.311L291.713 811.312L288.333 751.09L262.697 805.69Z" fill="black"/>
<path d="M960.956 461.35L975.732 402.871L1030.66 427.779L994.157 379.766L1047.88 352.346L987.584 350.952L999.642 291.853L960.956 338.13L922.266 291.853L934.329 350.952L874.025 352.346L927.75 379.766L891.243 427.779L946.176 402.871L960.956 461.35Z" fill="black"/>
<path d="M632.327 341.971C627.166 337.336 626.739 329.395 631.375 324.236C636.011 319.076 643.953 318.651 649.114 323.285C684.802 355.345 716.742 371.391 750.757 378.326C785.199 385.348 822.717 383.248 870.233 377.308C877.115 376.447 883.389 381.329 884.253 388.212C885.111 395.093 880.23 401.37 873.348 402.231C825.425 408.221 784.449 410.828 745.739 402.937C706.607 394.958 670.733 376.471 632.327 341.971Z" fill="black"/>
<path d="M604.036 351.613C596.487 354.188 592.454 362.395 595.03 369.944C618.165 437.749 642.663 486.113 677.9 523.646C713.195 561.243 758.17 586.813 820.063 611.055C827.49 613.964 835.869 610.302 838.778 602.875C841.687 595.449 838.023 587.071 830.596 584.162C770.566 560.648 730.075 537.023 698.959 503.877C667.784 470.671 644.929 426.749 622.369 360.618C619.793 353.068 611.586 349.037 604.036 351.613Z" fill="black"/>
<path d="M567.2 364.666C558.537 365.043 551.822 372.369 552.199 381.031C556.104 470.846 566.219 536.792 589.364 596.006C612.538 655.292 648.324 706.672 701.716 768.03C707.407 774.57 717.321 775.258 723.86 769.568C730.404 763.876 731.091 753.961 725.4 747.42C673.087 687.305 639.906 639.071 618.606 584.576C597.277 530.008 587.407 468.002 583.565 379.668C583.188 371.006 575.864 364.29 567.2 364.666Z" fill="black"/>
<path d="M914.471 599.236L936.811 543.209L943.767 603.123L1001.5 585.655L958.994 628.452L1008.65 662.699L948.687 656.15L952.872 716.321L920.603 665.36L876.168 706.147L895.894 649.147L836.301 639.835L893.166 619.72L863.286 567.321L914.471 599.236Z" fill="black"/>
<path d="M834.976 770.745L785.788 805.651L760.151 751.05L756.772 811.273L698.101 797.272L743.08 837.463L695.55 874.604L755.015 864.498L754.422 924.812L783.595 872.021L830.38 910.092L807.299 854.367L866.235 841.525L808.275 824.829L834.976 770.745Z" fill="black"/>
<path d="M527.24 876.905L488.804 830.42L500.539 889.584L440.234 890.65L493.808 918.36L457.041 966.176L512.111 941.566L526.568 1000.12L541.662 941.727L596.462 966.933L560.215 918.721L614.088 891.593L553.794 889.872L566.175 830.84L527.24 876.905Z" fill="black"/>
</svg>
