<svg width="1026" height="1001" viewBox="0 0 1026 1001" fill="none" xmlns="http://www.w3.org/2000/svg">
<path d="M0.882812 0.125V89.8008C37.6669 48.9426 59.8054 29.1592 102.867 0.711117L0.882812 0.125Z" fill="black"/>
<path d="M0.882812 1000.04V807.794C37.2069 889.605 71.055 935.681 141.551 1000.04H0.882812Z" fill="black"/>
<path d="M201.335 762.663C221.772 723.965 252.098 703.261 288.671 701.12C120.451 541.697 197.823 348.864 415.853 158.963C366.033 168.34 309.766 200.577 252.913 239.847C252.913 239.847 334.969 110.315 511.39 110.315C611.544 110.315 678.831 193.618 718.29 265.641C727.667 282.759 717.703 337.728 717.703 337.728C717.703 337.728 741.148 324.834 747.595 336.556C758.611 356.584 762.248 368.792 762.248 368.792C762.248 368.792 751.703 89.2147 503.775 89.2147C255.848 89.2147 103.453 343.003 103.458 512.977C103.462 682.951 201.335 762.663 201.335 762.663Z" fill="black"/>
<path fill-rule="evenodd" clip-rule="evenodd" d="M417.612 698.776C452.779 670.056 449.262 578.622 449.262 578.622C477.982 594.447 507.874 588.586 507.874 588.586C507.874 588.586 494.583 577.9 477.982 566.314C474.652 563.989 470.942 561.791 466.935 559.416C460.038 555.329 452.258 550.718 444.01 544.041C437.03 538.391 432.383 527.628 427.698 516.78C423.148 506.243 418.563 495.626 411.773 489.532C401.356 480.182 390.555 473.552 380.582 467.43C360.513 455.11 343.791 444.845 340.267 418.612C339.393 412.107 335.578 376.412 340.267 371.723C344.956 367.034 385.398 383.445 385.398 383.445V312.622C385.398 312.622 388.305 172.443 531.903 172.443C666.124 172.443 666.124 313.697 666.124 313.697V383.445C666.124 383.445 711.279 368.646 716.554 371.723C721.829 374.8 719.269 411.924 716.554 418.612C699.808 459.866 681.39 468.458 664.001 476.57C656.438 480.099 649.069 483.537 642.117 489.532C635.5 495.239 632.332 503.259 628.809 512.173C622.424 528.335 614.875 547.439 583.506 561.039C583.506 561.039 564.141 648.37 617.477 691.743C643.148 713.886 675.055 727.862 708.438 740.826C739.559 752.912 768.417 764.12 784.544 780.246C828.502 824.205 846.063 1000.12 846.063 1000.12L724.151 1000.04C724.151 1000.04 724.151 936.824 694.845 936.824V1000.12L333.797 1000.04V935.089C307.422 935.089 307.422 1000.04 307.422 1000.04H180.234C180.234 933.2 194.588 831.574 251.741 773.213C272.013 752.512 298.8 746.49 335.365 738.27C347.579 735.524 384.863 725.521 417.612 698.776ZM455.123 449.09C472.927 449.09 487.36 431.771 487.36 410.407C487.36 389.042 472.927 371.723 455.123 371.723C437.32 371.723 422.887 389.042 422.887 410.407C422.887 431.771 437.32 449.09 455.123 449.09ZM615.133 410.407C615.133 431.771 600.7 449.09 582.897 449.09C565.093 449.09 550.66 431.771 550.66 410.407C550.66 389.042 565.093 371.723 582.897 371.723C600.7 371.723 615.133 389.042 615.133 410.407Z" fill="black"/>
<path d="M344.933 512.391C344.933 561.039 387.72 611.445 397.137 611.445V563.383C387.72 563.383 361.931 542.869 344.933 512.391Z" fill="black"/>
<path d="M633.889 627.258V582.725C652.459 578.607 662.313 565.178 671.633 552.477C675.55 547.14 679.373 541.93 683.709 537.594C690.063 531.239 697.073 526.395 704.36 521.359C724.146 507.686 745.97 492.603 762.247 442.057C762.247 552.833 694.845 607.928 633.889 627.258Z" fill="black"/>
<path d="M167.34 817.758C153.859 831.238 150.343 875.783 153.859 893.367C77.4569 793.16 42.4971 726.323 42.4971 623.167C78.2328 706.864 106.435 770.366 167.34 817.758Z" fill="black"/>
<path d="M1025.41 1000.04V746.838C975.512 810.416 944.403 842.443 885.333 891.608V957.253C918.155 922.086 937.497 903.917 973.25 878.714C949.434 925.279 928.728 951.961 884.747 1000.04H1025.41Z" fill="black"/>
<path d="M1025.41 512.391V657.748C970.425 733.197 937.935 771.398 863.06 830.652C863.06 810.724 856.613 790.21 846.649 776.143C936.911 685.295 981.456 615.547 1025.41 512.391Z" fill="black"/>
<path fill-rule="evenodd" clip-rule="evenodd" d="M805.621 725.737C781.59 701.707 762.248 692.329 725.909 682.951C958.011 461.985 820.316 39.3948 486.773 39.3948C147.412 39.3948 0.882812 416.268 0.882812 416.268V221.677C81.7669 105.626 145.654 51.7033 245.293 0.711117H730.012C730.012 0.711117 922.844 115.004 922.844 399.857C922.844 582.725 805.621 725.737 805.621 725.737ZM756.973 65.1839C816.757 153.688 874.783 272.083 892.952 371.137C899.986 249.811 845.477 125.554 756.973 65.1839Z" fill="black"/>
<path d="M1025.41 0.711117H873.024C943.358 61.6672 985.559 137.862 1025.41 218.16V0.711117Z" fill="black"/>
</svg>
